<?xml version="1.0" standalone="no"?>
<!DOCTYPE svg PUBLIC "-//W3C//DTD SVG 1.1//EN" "http://www.w3.org/Graphics/SVG/1.1/DTD/svg11.dtd" >
<svg xmlns="http://www.w3.org/2000/svg" xmlns:xlink="http://www.w3.org/1999/xlink" version="1.1">
<metadata>
Created by FontForge 20201107 at Mon Aug 18 19:25:10 2025
 By 
Copyright (c) 2021 by www.fontiran.com (Kamyab Jafari). All rights reserved.
</metadata>
<defs>
<font id="Pelak-Medium" horiz-adv-x="0" >
  <font-face 
    font-family="Pelak Medium"
    font-weight="500"
    font-stretch="normal"
    units-per-em="2048"
    panose-1="2 11 0 0 4 0 0 0 0 0"
    ascent="1638"
    descent="-410"
    x-height="1022"
    cap-height="1454"
    bbox="-508 -1090 3357 2032.08"
    underline-thickness="409"
    underline-position="-920"
    unicode-range="U+0020-FEFF"
  />
<missing-glyph horiz-adv-x="593" 
 />
    <glyph glyph-name="uniFDF2" unicode="&#x627;&#xfedf;&#xfee0;&#xfeea;" horiz-adv-x="2744" arabic-form="isolated" 
d="M1434 1411l-23 318l94 26l2 -328zM2484 -20l-10 1488l170 27l2 -1503zM1137 8q-269 0 -381 201q-120 -84 -299 -84q-164 0 -260 79t-99 222q-3 183 148 320t424 217v153l164 41l-3 -549q-2 -203 71 -299t235 -96q91 0 155.5 27t120.5 88q-16 82 -16 180l-2 426l170 16
l-2 -444q0 -164 56 -228.5t200 -64.5q143 0 202.5 61t57.5 199l-4 944l170 23l2 -973q0 -225 -108.5 -342t-319.5 -117q-230 0 -330 154q-145 -154 -352 -154zM1348 1053q-75 0 -115.5 46t-40.5 126q0 54 22 147l64 -14q-10 -72 -10 -101q0 -102 82 -102q36 0 62.5 21
t27.5 61l4 88h63l6 -86q3 -43 28 -63.5t61 -20.5q75 0 75 78q0 34 -26 151l75 29q29 -113 29 -182q0 -176 -147 -176q-89 0 -129 71q-42 -73 -131 -73zM475 328q136 0 223 47q-24 94 -24 231v174q-202 -57 -314 -145.5t-106 -196.5q1 -39 36 -65t82.5 -36t102.5 -9z" />
    <glyph glyph-name="uniFEF5" unicode="&#xfedf;&#xfe82;" horiz-adv-x="1103" arabic-form="isolated" 
d="M424 1341q-73 0 -182 39q-118 41 -158 41q-33 0 -50.5 -19.5t-31.5 -66.5l-80 17q24 191 166 194q57 2 174 -37q11 -4 44.5 -14.5t47.5 -15t34.5 -9t33.5 -4.5q35 0 51 16t25 56l80 -16q-6 -86 -45.5 -133.5t-108.5 -47.5zM834 1481l170 26v-895q0 -141 -40 -253
t-110 -189.5t-177.5 -135t-229.5 -92t-279 -57.5l-57 189q112 18 208 39q-17 265 -49.5 490.5t-105.5 582.5l160 65q75 -394 105.5 -622t37.5 -477q192 61 284 167.5t91 294.5z" />
    <glyph glyph-name="uniFEF6" unicode="&#xfee0;&#xfe82;" horiz-adv-x="1271" arabic-form="final" 
d="M403 1350q-74 0 -184 36q-14 5 -39 14t-36 12.5t-28 8.5t-29 7t-24 2q-34 0 -51.5 -20t-31.5 -67l-80 17q24 188 166 194q65 3 174 -38q12 -4 44.5 -14.5t47 -15t35 -9t34.5 -4.5q35 0 50 15.5t26 57.5l78 -18q-13 -178 -152 -178zM1272 203q41 0 70.5 -30.5t29.5 -72.5
q0 -40 -29.5 -71t-70.5 -31q-158 0 -253.5 57.5t-139.5 180.5q-86 -140 -258.5 -227t-464.5 -124l-58 189q106 17 211 39q-19 271 -51 496.5t-104 576.5l159 65q76 -397 106.5 -624t37.5 -475q125 41 204 96.5t123 146.5t43 219l-6 877l170 27l2 -1008q0 -166 64 -236.5
t215 -70.5z" />
    <glyph glyph-name="uniFEF7" unicode="&#xfedf;&#xfe84;" horiz-adv-x="1103" arabic-form="isolated" 
d="M516 1579l8 -94l-549 -168l-6 94l127 39q-44 70 -47 154q-5 94 44 163t134 72q99 3 201 -96l-43 -64q-34 22 -49.5 31t-41.5 18t-52 9q-51 -3 -79 -36t-26 -89q3 -74 56 -133zM821 1481l170 26v-895q0 -141 -40 -253t-109.5 -189.5t-177 -135t-229.5 -92t-279 -57.5
l-58 189q116 18 209 39q-17 265 -49.5 490.5t-105.5 582.5l159 65q76 -397 106.5 -624t37.5 -475q192 61 283.5 167.5t90.5 294.5z" />
    <glyph glyph-name="uniFEF8" unicode="&#xfee0;&#xfe84;" horiz-adv-x="1271" arabic-form="final" 
d="M516 1579l8 -94l-549 -168l-6 94l127 39q-44 70 -47 154q-5 94 44 163t134 72q99 3 201 -96l-43 -64q-34 22 -49.5 31t-41.5 18t-52 9q-51 -3 -79 -36t-26 -89q3 -74 56 -133zM1272 203q41 0 70.5 -30.5t29.5 -72.5q0 -40 -29.5 -71t-70.5 -31q-158 0 -253.5 57.5
t-139.5 180.5q-86 -140 -258.5 -227t-464.5 -124l-58 189q106 17 211 39q-19 271 -51 496.5t-104 576.5l159 65q76 -397 106.5 -624t37.5 -475q125 41 204 96.5t123 146.5t43 219l-6 877l170 27l2 -1008q0 -166 64 -236.5t215 -70.5z" />
    <glyph glyph-name="uniFEF9" unicode="&#xfedf;&#xfe88;" horiz-adv-x="1103" arabic-form="isolated" 
d="M821 1481l170 26v-895q0 -141 -40 -253t-109.5 -189.5t-177 -135t-229.5 -92t-279 -57.5l-58 189q116 18 209 39q-17 265 -49.5 490.5t-105.5 582.5l159 65q76 -397 106.5 -624t37.5 -475q192 61 283.5 167.5t90.5 294.5zM389 -535l330 86l4 -94l-557 -147l-4 96l129 35
q-41 71 -41 153q0 96 52 163.5t138 66.5q98 0 197 -105l-45 -63q-33 24 -48.5 34t-41 19.5t-51.5 9.5q-51 0 -81 -32t-30 -86q0 -78 49 -136z" />
    <glyph glyph-name="uniFEFA" unicode="&#xfee0;&#xfe88;" horiz-adv-x="1271" arabic-form="final" 
d="M1272 203q41 0 70.5 -30.5t29.5 -72.5q0 -40 -29.5 -71t-70.5 -31q-158 0 -253.5 57.5t-139.5 180.5q-86 -140 -258.5 -227t-464.5 -124l-58 189q106 17 211 39q-19 271 -51 496.5t-104 576.5l159 65q76 -397 106.5 -624t37.5 -475q125 41 204 96.5t123 146.5t43 219
l-6 877l170 27l2 -1008q0 -166 64 -236.5t215 -70.5zM403 -494l330 86l6 -96l-559 -145l-2 96l129 33q-44 73 -41 155q0 95 52.5 162t138.5 66q94 3 196 -105l-47 -61q-42 32 -72 47t-67 16q-52 0 -81.5 -32t-29.5 -86q-3 -73 47 -136z" />
    <glyph glyph-name="uniFEFB" unicode="&#xfedf;&#xfe8e;" horiz-adv-x="1103" arabic-form="isolated" 
d="M821 1481l170 26v-895q0 -141 -40 -253t-109.5 -189.5t-177 -135t-229.5 -92t-279 -57.5l-58 189q116 18 209 39q-17 265 -49.5 490.5t-105.5 582.5l159 65q76 -397 106.5 -624t37.5 -475q192 61 283.5 167.5t90.5 294.5z" />
    <glyph glyph-name="uniFEFC" unicode="&#xfee0;&#xfe8e;" horiz-adv-x="1271" arabic-form="final" 
d="M1272 203q41 0 70.5 -30.5t29.5 -72.5q0 -40 -29.5 -71t-70.5 -31q-158 0 -253.5 57.5t-139.5 180.5q-86 -140 -258.5 -227t-464.5 -124l-58 189q106 17 211 39q-19 271 -51 496.5t-104 576.5l159 65q76 -397 106.5 -624t37.5 -475q125 41 204 96.5t123 146.5t43 219
l-6 877l170 27l2 -1008q0 -166 64 -236.5t215 -70.5z" />
    <glyph glyph-name="meem_yehfarsiar.fina" unicode="&#xfee4;&#xfbfd;" horiz-adv-x="2877" 
d="M2877 213q39 0 70 -30.5t31 -71.5q0 -40 -31.5 -71.5t-69.5 -31.5q-238 0 -346 154q-25 -111 -95.5 -171.5t-178.5 -60.5q-148 0 -268.5 82.5t-188.5 220.5q-74 -110 -160.5 -171.5t-209.5 -69.5q10 -31 10 -70q-6 -70 -34.5 -137t-87 -129.5t-140.5 -109.5t-202.5 -75
t-264.5 -28q-294 0 -446 133.5t-152 368.5q0 231 155 628l133 -51q-124 -352 -127 -545q0 -325 445 -325q141 0 266.5 33t203 92.5t77.5 130.5q0 29 -12.5 49.5t-32.5 26.5q-44 18 -344 53l34 182q267 -22 465 -22q99 0 166.5 31.5t118.5 94.5t121 189q39 68 71 115t71.5 93
t78 73.5t87 44t103.5 16.5q126 0 207.5 -89.5t116.5 -232.5l2 3q44 -190 118 -256t240 -66zM2261 137q79 0 106 42t27 134q0 65 -10 123t-32 111t-64 84t-99 31q-84 0 -151 -60t-146 -207q54 -113 152 -185.5t217 -72.5z" />
    <glyph glyph-name="meem_yehfarsiar" unicode="&#xfee3;&#xfbfd;" horiz-adv-x="2633" 
d="M698 -553q-292 0 -444 132t-152 366q0 230 154 624l129 -49q-125 -353 -125 -543q-2 -162 109.5 -245.5t337.5 -83.5q141 0 266.5 33t203.5 93.5t78 133.5q0 27 -13 49t-34 29q-43 18 -342 53l35 178q267 -22 463 -22q76 0 129.5 15t101 55t86 95t91.5 150q49 86 89 142
t89.5 104.5t106 71t124.5 22.5q72 0 131 -32t98.5 -84.5t67 -123.5t40 -146t13.5 -155q2 -180 -72.5 -278.5t-213.5 -98.5q-149 0 -269 84t-188 224q-75 -114 -162.5 -175.5t-212.5 -68.5q13 -43 10 -74q-5 -70 -33 -136t-86 -128t-139.5 -108.5t-202 -74.5t-264.5 -28z
M2249 135q80 0 107.5 43t27.5 135q0 66 -10 123.5t-32 111t-65 85t-102 31.5q-83 0 -150.5 -60.5t-146.5 -208.5q54 -113 153 -186.5t218 -73.5z" />
    <glyph glyph-name="lellahar" unicode="&#xfedf;&#xfee0;&#xfeea;" horiz-adv-x="2344" 
d="M1434 1362l-21 317l92 27l4 -328zM1126 -39q-113 0 -211.5 47.5t-156.5 155.5q-117 -86 -299 -86q-157 0 -255.5 76.5t-101.5 222.5q-3 183 150 319.5t422 214.5v154l160 39l-5 -545q-1 -106 15 -181.5t41 -117t67 -65t80 -29.5t94 -6q101 0 169 28.5t124 92.5
q-16 82 -16 178l-4 424l160 16l-3 -442q0 -117 30.5 -183t85.5 -90t149 -24q141 0 202.5 60.5t61.5 201.5l-6 967l159 22l5 -993q0 -226 -107.5 -341.5t-314.5 -115.5q-232 0 -332 156q-72 -80 -158.5 -118t-204.5 -38zM1350 1004q-76 0 -116 46t-40 126q0 50 23 147l63 -14
q-12 -64 -12 -101q0 -102 84 -102q35 0 61 21t27 61l6 88h63l7 -86q1 -43 26.5 -63.5t61.5 -20.5t55.5 20t19.5 58q0 34 -26 151l76 29q28 -112 28 -182q0 -176 -147 -176q-88 0 -131 71q-37 -73 -129 -73zM477 274q138 0 225 50q-24 94 -24 231l-2 178q-206 -57 -317 -147
t-107 -197q1 -40 37 -67.5t84 -37.5t104 -10z" />
    <glyph glyph-name="rieaar.fina" unicode="&#xfeae;&#xfbfe;&#xfeca;" horiz-adv-x="2979" 
d="M784 -647q-323 0 -500.5 128.5t-177.5 397.5q0 336 312 567q-160 144 -287 345l51 221q178 65 306.5 97t246.5 32q171 0 269 -75.5t98 -209.5q0 -109 -54.5 -223t-187.5 -279q138 -80 269.5 -116.5t322.5 -36.5h55q129 0 220.5 22t147 76t52.5 137q-3 154 -88 514l158 56
q49 -218 65 -328t19 -223q3 -226 -153 -340.5t-435 -114.5h-37q-142 0 -267 23t-236 69.5t-207 105t-201 140.5q-278 -183 -275 -438q1 -94 45 -163t124 -109.5t183.5 -59.5t235.5 -19q244 0 475 41l13 -163q-246 -74 -562 -74zM717 422q231 249 231 397q0 63 -59.5 98
t-159.5 35q-165 0 -448 -102q188 -260 436 -428zM1987 -518h-52l-4 151q27 0 41 2q273 13 405 137.5t132 344.5q0 105 -25 230t-71 298l155 64l43 -185q23 -102 48 -161.5t68 -97.5t101 -51t152 -13q39 0 68.5 -30.5t29.5 -70.5t-29 -70t-69 -30q-226 0 -322 113
q-8 -309 -176.5 -470t-494.5 -161zM1765 -489l-135 102v10l96 127h11l137 -100v-10l-98 -129h-11zM1485 -520l-137 102v10l98 127h10l135 -100v-10l-96 -129h-10z" />
    <glyph glyph-name="rieaar" unicode="&#x631;&#xfbfe;&#xfeca;" horiz-adv-x="2791" 
d="M106 -121q0 336 312 567q-160 144 -287 345l51 221q178 65 306.5 97t246.5 32q171 0 269 -75.5t98 -209.5q0 -109 -54.5 -223t-187.5 -279q138 -80 269.5 -116.5t322.5 -36.5h55q129 0 220.5 22t147 76t52.5 137q-3 154 -88 514l158 56q49 -218 65 -328t19 -223
q3 -226 -153 -340.5t-435 -114.5h-37q-142 0 -267 23t-236 69.5t-207 105t-201 140.5q-278 -183 -275 -438q1 -94 45 -163t124 -109.5t183.5 -59.5t235.5 -19q244 0 475 41l13 -163q-246 -74 -562 -74q-323 0 -500.5 128.5t-177.5 397.5zM281 850q188 -260 436 -428
q231 249 231 397q0 63 -59.5 98t-159.5 35q-165 0 -448 -102zM1931 -367q295 9 436.5 133.5t141.5 350.5q0 192 -121 518l158 76q118 -334 118 -574q0 -148 -40 -266.5t-120 -205.5t-207.5 -135t-295.5 -50q-41 0 -64 2zM1780 -494l-138 103v10l99 129h10l135 -102v-11
l-96 -129h-10zM1499 -524l-137 102v10l96 127h12l136 -100v-10l-99 -129h-8z" />
    <glyph glyph-name="zieaar.fina" unicode="&#xfeb0;&#xfbfe;&#xfeca;" horiz-adv-x="2979" 
d="M784 -647q-323 0 -500.5 128.5t-177.5 397.5q0 336 312 567q-160 144 -287 345l51 221q178 65 306.5 97t246.5 32q171 0 269 -75.5t98 -209.5q0 -109 -54.5 -223t-187.5 -279q138 -80 269.5 -116.5t322.5 -36.5h55q129 0 220.5 22t147 76t52.5 137q-3 154 -88 514l158 56
q49 -218 65 -328t19 -223q3 -226 -153 -340.5t-435 -114.5h-37q-142 0 -267 23t-236 69.5t-207 105t-201 140.5q-278 -183 -275 -438q1 -94 45 -163t124 -109.5t183.5 -59.5t235.5 -19q244 0 475 41l13 -163q-246 -74 -562 -74zM2462 856l-148 111v12l105 139h12l147 -110
v-11l-106 -141h-10zM717 422q231 249 231 397q0 63 -59.5 98t-159.5 35q-165 0 -448 -102q188 -260 436 -428zM1987 -518h-52l-4 151q27 0 41 2q273 13 405 137.5t132 344.5q0 105 -25 230t-71 298l155 64l43 -185q23 -102 48 -161.5t68 -97.5t101 -51t152 -13
q39 0 68.5 -30.5t29.5 -70.5t-29 -70t-69 -30q-226 0 -322 113q-8 -309 -176.5 -470t-494.5 -161zM1767 -487l-137 106v10l101 129h10l139 -104v-10l-102 -131h-11zM1487 -518l-137 104v13l100 129h10l139 -107v-8l-102 -131h-10z" />
    <glyph glyph-name="zieaar" unicode="&#x632;&#xfbfe;&#xfeca;" horiz-adv-x="2791" 
d="M2427 907l-148 111v12l105 139h12l148 -110v-12l-107 -140h-10zM106 -121q0 336 312 567q-160 144 -287 345l51 221q178 65 306.5 97t246.5 32q171 0 269 -75.5t98 -209.5q0 -109 -54.5 -223t-187.5 -279q138 -80 269.5 -116.5t322.5 -36.5h55q129 0 220.5 22t147 76
t52.5 137q-3 154 -88 514l158 56q49 -218 65 -328t19 -223q3 -226 -153 -340.5t-435 -114.5h-37q-142 0 -267 23t-236 69.5t-207 105t-201 140.5q-278 -183 -275 -438q1 -94 45 -163t124 -109.5t183.5 -59.5t235.5 -19q244 0 475 41l13 -163q-246 -74 -562 -74
q-323 0 -500.5 128.5t-177.5 397.5zM281 850q188 -260 436 -428q231 249 231 397q0 63 -59.5 98t-159.5 35q-165 0 -448 -102zM1931 -367q295 9 436.5 133.5t141.5 350.5q0 192 -121 518l158 76q118 -334 118 -574q0 -148 -40 -266.5t-120 -205.5t-207.5 -135t-295.5 -50
q-41 0 -64 2zM1772 -502l-140 107v10l103 131h10l137 -106v-11l-100 -131h-10zM1491 -532l-139 106v10l100 129h12l138 -104v-10l-103 -131h-8z" />
    <glyph glyph-name="zhieaar.fina" unicode="&#xfb8b;&#xfbfe;&#xfeca;" horiz-adv-x="2979" 
d="M2423 1128l-131 99v12l92 123h10l133 -98v-11l-94 -125h-10zM784 -647q-323 0 -500.5 128.5t-177.5 397.5q0 336 312 567q-160 144 -287 345l51 221q178 65 306.5 97t246.5 32q171 0 269 -75.5t98 -209.5q0 -109 -54.5 -223t-187.5 -279q138 -80 269.5 -116.5
t322.5 -36.5h55q129 0 220.5 22t147 76t52.5 137q-3 154 -88 514l158 56q49 -218 65 -328t19 -223q3 -226 -153 -340.5t-435 -114.5h-37q-142 0 -267 23t-236 69.5t-207 105t-201 140.5q-278 -183 -275 -438q1 -94 45 -163t124 -109.5t183.5 -59.5t235.5 -19q244 0 475 41
l13 -163q-246 -74 -562 -74zM2595 895l-135 102v11l96 127h12l135 -101v-10l-98 -129h-10zM2314 864l-135 103v10l96 127h11l137 -100v-11l-99 -129h-10zM717 422q231 249 231 397q0 63 -59.5 98t-159.5 35q-165 0 -448 -102q188 -260 436 -428zM1987 -518h-52l-4 151
q27 0 41 2q273 13 405 137.5t132 344.5q0 105 -25 230t-71 298l155 64l43 -185q23 -102 48 -161.5t68 -97.5t101 -51t152 -13q39 0 68.5 -30.5t29.5 -70.5t-29 -70t-69 -30q-226 0 -322 113q-8 -309 -176.5 -470t-494.5 -161zM1765 -506l-135 103v12l96 127h13l135 -103v-10
l-98 -129h-11zM1485 -537l-135 103v12l96 127h10l137 -102v-11l-98 -129h-10z" />
    <glyph glyph-name="zhieaar" unicode="&#x698;&#xfbfe;&#xfeca;" horiz-adv-x="2791" 
d="M2425 1128l-131 101v10l92 123h10l133 -98v-11l-96 -125h-8zM106 -121q0 336 312 567q-160 144 -287 345l51 221q178 65 306.5 97t246.5 32q171 0 269 -75.5t98 -209.5q0 -109 -54.5 -223t-187.5 -279q138 -80 269.5 -116.5t322.5 -36.5h55q129 0 220.5 22t147 76
t52.5 137q-3 154 -88 514l158 56q49 -218 65 -328t19 -223q3 -226 -153 -340.5t-435 -114.5h-37q-142 0 -267 23t-236 69.5t-207 105t-201 140.5q-278 -183 -275 -438q1 -94 45 -163t124 -109.5t183.5 -59.5t235.5 -19q244 0 475 41l13 -163q-246 -74 -562 -74
q-323 0 -500.5 128.5t-177.5 397.5zM2597 895l-135 102v13l96 127h10l137 -103v-10l-98 -129h-10zM2316 864l-135 103v12l96 127h11l137 -102v-11l-98 -129h-11zM281 850q188 -260 436 -428q231 249 231 397q0 63 -59.5 98t-159.5 35q-165 0 -448 -102zM1931 -367
q295 9 436.5 133.5t141.5 350.5q0 192 -121 518l158 76q118 -334 118 -574q0 -148 -40 -266.5t-120 -205.5t-207.5 -135t-295.5 -50q-41 0 -64 2zM1790 -487l-137 102v10l96 127h12l135 -100v-10l-98 -129h-8zM1507 -518l-135 102v10l96 127h11l137 -100v-10l-98 -129h-11z
" />
    <glyph glyph-name="reeqar.fina" unicode="&#xfeae;&#xfbfe;&#xfece;" horiz-adv-x="2979" 
d="M545 1307l-148 110v13l105 139h12l148 -111v-10l-105 -141h-12zM784 -647q-323 0 -500.5 128.5t-177.5 397.5q0 336 312 567q-160 144 -287 345l51 221q178 65 306.5 97t246.5 32q171 0 269 -75.5t98 -209.5q0 -109 -54.5 -223t-187.5 -279q138 -80 269.5 -116.5
t322.5 -36.5h55q129 0 220.5 22t147 76t52.5 137q-3 154 -88 514l158 56q49 -218 65 -328t19 -223q3 -226 -153 -340.5t-435 -114.5h-37q-142 0 -267 23t-236 69.5t-207 105t-201 140.5q-278 -183 -275 -438q1 -94 45 -163t124 -109.5t183.5 -59.5t235.5 -19q244 0 475 41
l13 -163q-246 -74 -562 -74zM717 422q231 249 231 397q0 63 -59.5 98t-159.5 35q-165 0 -448 -102q188 -260 436 -428zM1987 -518h-52l-4 151q27 0 41 2q273 13 405 137.5t132 344.5q0 105 -25 230t-71 298l155 64l43 -185q23 -102 48 -161.5t68 -97.5t101 -51t152 -13
q39 0 68.5 -30.5t29.5 -70.5t-29 -70t-69 -30q-226 0 -322 113q-8 -309 -176.5 -470t-494.5 -161zM1780 -487l-135 102v12l96 127h10l137 -102v-10l-98 -129h-10zM1499 -518l-137 102v10l98 127h10l136 -100v-10l-97 -129h-10z" />
    <glyph glyph-name="reeqar" unicode="&#x631;&#xfbfe;&#xfece;" horiz-adv-x="2791" 
d="M545 1307l-148 110v13l105 139h12l148 -111v-10l-105 -141h-12zM106 -121q0 336 312 567q-160 144 -287 345l51 221q178 65 306.5 97t246.5 32q171 0 269 -75.5t98 -209.5q0 -109 -54.5 -223t-187.5 -279q138 -80 269.5 -116.5t322.5 -36.5h55q129 0 220.5 22t147 76
t52.5 137q-3 154 -88 514l158 56q49 -218 65 -328t19 -223q3 -226 -153 -340.5t-435 -114.5h-37q-142 0 -267 23t-236 69.5t-207 105t-201 140.5q-278 -183 -275 -438q1 -94 45 -163t124 -109.5t183.5 -59.5t235.5 -19q244 0 475 41l13 -163q-246 -74 -562 -74
q-323 0 -500.5 128.5t-177.5 397.5zM281 850q188 -260 436 -428q231 249 231 397q0 63 -59.5 98t-159.5 35q-165 0 -448 -102zM1931 -367q295 9 436.5 133.5t141.5 350.5q0 192 -121 518l158 76q118 -334 118 -574q0 -148 -40 -266.5t-120 -205.5t-207.5 -135t-295.5 -50
q-41 0 -64 2zM1757 -485l-137 102v10l96 127h13l135 -102v-8l-97 -129h-10zM1475 -516l-136 100v13l97 127h12l135 -103v-10l-98 -127h-10z" />
    <glyph glyph-name="zeeqar.fina" unicode="&#xfeb0;&#xfbfe;&#xfece;" horiz-adv-x="2979" 
d="M535 1300l-148 111v12l105 140h12l147 -111v-10l-104 -142h-12zM2408 907l-147 111v12l104 139h13l147 -110v-10l-106 -142h-11zM784 -647q-323 0 -500.5 128.5t-177.5 397.5q0 336 312 567q-160 144 -287 345l51 221q178 65 306.5 97t246.5 32q171 0 269 -75.5
t98 -209.5q0 -109 -54.5 -223t-187.5 -279q138 -80 269.5 -116.5t322.5 -36.5h55q129 0 220.5 22t147 76t52.5 137q-3 154 -88 514l158 56q49 -218 65 -328t19 -223q3 -226 -153 -340.5t-435 -114.5h-37q-142 0 -267 23t-236 69.5t-207 105t-201 140.5q-278 -183 -275 -438
q1 -94 45 -163t124 -109.5t183.5 -59.5t235.5 -19q244 0 475 41l13 -163q-246 -74 -562 -74zM717 422q231 249 231 397q0 63 -59.5 98t-159.5 35q-165 0 -448 -102q188 -260 436 -428zM1987 -518h-52l-4 151q27 0 41 2q273 13 405 137.5t132 344.5q0 105 -25 230t-71 298
l155 64l43 -185q23 -102 48 -161.5t68 -97.5t101 -51t152 -13q39 0 68.5 -30.5t29.5 -70.5t-29 -70t-69 -30q-226 0 -322 113q-8 -309 -176.5 -470t-494.5 -161zM1751 -485l-135 102v10l96 127h10l138 -102v-8l-99 -129h-10zM1470 -516l-135 100v13l97 127h10l135 -103v-10
l-96 -127h-11z" />
    <glyph glyph-name="zeeqar" unicode="&#x632;&#xfbfe;&#xfece;" horiz-adv-x="2791" 
d="M535 1300l-148 111v12l105 140h12l147 -111v-10l-104 -142h-12zM2402 909l-147 111v12l104 137h13l147 -110v-10l-106 -140h-11zM106 -121q0 336 312 567q-160 144 -287 345l51 221q178 65 306.5 97t246.5 32q171 0 269 -75.5t98 -209.5q0 -109 -54.5 -223t-187.5 -279
q138 -80 269.5 -116.5t322.5 -36.5h55q129 0 220.5 22t147 76t52.5 137q-3 154 -88 514l158 56q49 -218 65 -328t19 -223q3 -226 -153 -340.5t-435 -114.5h-37q-142 0 -267 23t-236 69.5t-207 105t-201 140.5q-278 -183 -275 -438q1 -94 45 -163t124 -109.5t183.5 -59.5
t235.5 -19q244 0 475 41l13 -163q-246 -74 -562 -74q-323 0 -500.5 128.5t-177.5 397.5zM281 850q188 -260 436 -428q231 249 231 397q0 63 -59.5 98t-159.5 35q-165 0 -448 -102zM1931 -367q295 9 436.5 133.5t141.5 350.5q0 192 -121 518l158 76q118 -334 118 -574
q0 -148 -40 -266.5t-120 -205.5t-207.5 -135t-295.5 -50q-41 0 -64 2zM1767 -485l-135 102v10l97 127h10l137 -102v-8l-98 -129h-11zM1487 -516l-135 100v13l96 127h10l135 -103v-10l-96 -127h-10z" />
    <glyph glyph-name="zheeqar.fina" unicode="&#xfb8b;&#xfbfe;&#xfece;" horiz-adv-x="2979" 
d="M563 1296l-147 111v12l104 140h12l148 -111v-10l-105 -142h-12zM2425 1128l-131 99v10l94 123h10l131 -98v-9l-94 -125h-10zM784 -647q-323 0 -500.5 128.5t-177.5 397.5q0 336 312 567q-160 144 -287 345l51 221q178 65 306.5 97t246.5 32q171 0 269 -75.5t98 -209.5
q0 -109 -54.5 -223t-187.5 -279q138 -80 269.5 -116.5t322.5 -36.5h55q129 0 220.5 22t147 76t52.5 137q-3 154 -88 514l158 56q49 -218 65 -328t19 -223q3 -226 -153 -340.5t-435 -114.5h-37q-142 0 -267 23t-236 69.5t-207 105t-201 140.5q-278 -183 -275 -438
q1 -94 45 -163t124 -109.5t183.5 -59.5t235.5 -19q244 0 475 41l13 -163q-246 -74 -562 -74zM2599 895l-135 102v11l96 127h10l135 -103v-8l-96 -129h-10zM2318 864l-137 103v10l96 127h13l135 -103v-8l-98 -129h-9zM717 422q231 249 231 397q0 63 -59.5 98t-159.5 35
q-165 0 -448 -102q188 -260 436 -428zM1987 -518h-52l-4 151q27 0 41 2q273 13 405 137.5t132 344.5q0 105 -25 230t-71 298l155 64l43 -185q23 -102 48 -161.5t68 -97.5t101 -51t152 -13q39 0 68.5 -30.5t29.5 -70.5t-29 -70t-69 -30q-226 0 -322 113q-8 -309 -176.5 -470
t-494.5 -161zM1772 -485l-136 102v10l97 127h10l137 -100v-10l-98 -129h-10zM1491 -516l-135 102v11l96 127h10l137 -101v-10l-98 -129h-10z" />
    <glyph glyph-name="zheeqar" unicode="&#x698;&#xfbfe;&#xfece;" horiz-adv-x="2791" 
d="M563 1296l-147 111v12l104 140h12l148 -111v-10l-105 -142h-12zM2417 1130l-131 101v10l92 123h10l133 -98v-11l-96 -125h-8zM106 -121q0 336 312 567q-160 144 -287 345l51 221q178 65 306.5 97t246.5 32q171 0 269 -75.5t98 -209.5q0 -109 -54.5 -223t-187.5 -279
q138 -80 269.5 -116.5t322.5 -36.5h55q129 0 220.5 22t147 76t52.5 137q-3 154 -88 514l158 56q49 -218 65 -328t19 -223q3 -226 -153 -340.5t-435 -114.5h-37q-142 0 -267 23t-236 69.5t-207 105t-201 140.5q-278 -183 -275 -438q1 -94 45 -163t124 -109.5t183.5 -59.5
t235.5 -19q244 0 475 41l13 -163q-246 -74 -562 -74q-323 0 -500.5 128.5t-177.5 397.5zM2589 899l-135 102v11l96 127h10l137 -103v-8l-98 -129h-10zM2308 868l-135 101v12l96 127h10l138 -102v-9l-99 -129h-10zM281 850q188 -260 436 -428q231 249 231 397q0 63 -59.5 98
t-159.5 35q-165 0 -448 -102zM1931 -367q295 9 436.5 133.5t141.5 350.5q0 192 -121 518l158 76q118 -334 118 -574q0 -148 -40 -266.5t-120 -205.5t-207.5 -135t-295.5 -50q-41 0 -64 2zM1759 -485l-135 102v10l96 127h11l135 -100v-10l-97 -129h-10zM1479 -516l-138 102
v11l97 127h12l135 -101v-10l-96 -129h-10z" />
    <glyph glyph-name="uni066E.init" unicode="&#x66e;" horiz-adv-x="741" 
d="M-100 100q0 42 29 72.5t71 30.5h27q227 0 338 56.5t108 176.5q-6 165 -88 502l164 55q47 -214 62.5 -322t17.5 -216q4 -227 -146.5 -342t-451.5 -115h-31q-41 0 -70.5 30.5t-29.5 71.5z" />
    <glyph glyph-name="uni066E.medi" unicode="&#x66e;" horiz-adv-x="882" 
d="M883 203q41 0 70.5 -30.5t29.5 -72.5q0 -40 -30 -71t-70 -31q-158 0 -261 38.5t-161 121.5q-89 -81 -211 -120.5t-250 -39.5q-41 0 -70.5 30.5t-29.5 71.5q0 42 29 72.5t71 30.5q261 0 395 110q-19 74 -22 191l-6 268l143 12l16 -260q5 -95 23 -154t59.5 -97.5t106.5 -54
t168 -15.5z" />
    <glyph glyph-name="uni066E.fina" unicode="&#x66e;" horiz-adv-x="1957" 
d="M1958 203q41 0 70.5 -30.5t29.5 -72.5q0 -41 -29.5 -71.5t-70.5 -30.5q-312 0 -424 164q-262 -206 -803 -203q-311 3 -462 110t-156 318q-6 192 102 465l127 -41q-72 -217 -72 -358q0 -66 19.5 -113.5t57 -80t100 -52t141 -28.5t188.5 -11q215 -6 395.5 30.5t298.5 114.5
q-19 74 -22 191l-6 264l143 14l17 -258q5 -101 23.5 -161.5t61.5 -97t105.5 -49.5t165.5 -13z" />
    <glyph glyph-name="uni066F.fina" unicode="&#x66f;" horiz-adv-x="1632" 
d="M1630 203q43 0 74 -31t31 -72q0 -40 -32 -71t-73 -31h-135q-9 -126 -45 -205q-70 -155 -265.5 -246.5t-490.5 -91.5q-282 1 -431.5 133t-149.5 359q0 232 143 606l135 -51q-115 -337 -117 -522q0 -154 105.5 -233.5t337.5 -82.5q83 -2 165.5 8t164 35t143.5 62.5
t101 96.5t40 132h-342q-169 0 -249.5 73.5t-80.5 231.5q0 88 12 166.5t41 151.5t72 125.5t110 84t150 31.5q192 0 311.5 -170t137.5 -489h137zM815 344q0 -75 43.5 -108t157.5 -33h307q-8 105 -26 186t-50.5 147t-85 101t-123.5 35q-66 0 -112.5 -31.5t-69 -84t-32 -104
t-9.5 -108.5z" />
    <glyph glyph-name="uni0681.init" unicode="&#x681;" horiz-adv-x="1445" 
d="M205 1090l-4 94l131 35q-43 68 -43 155q0 95 52 162t138 66q98 0 197 -105l-45 -61q-32 22 -49 32.5t-42.5 20t-50.5 10.5q-51 -2 -80.5 -34t-29.5 -87q0 -73 49 -135l330 86l4 -94zM1128 707q132 -65 246 -80l-28 -183q-59 3 -101 0q-91 -7 -153 -45q-43 -24 -224 -131
q-106 -64 -187.5 -106t-182.5 -83t-205.5 -61t-214.5 -20h-76q-41 0 -71.5 31t-30.5 71q0 42 29.5 72.5t70.5 30.5h78q213 0 363.5 49t316.5 145q178 105 276 146q-63 34 -198 112q-81 48 -121 70t-95.5 42.5t-97.5 20.5q-43 0 -79.5 -14t-63 -35.5t-52 -56t-44 -66.5
t-42.5 -76q-12 -23 -18 -34l-114 69q37 92 75.5 161.5t87.5 127.5t109.5 88.5t130.5 30.5q59 0 131.5 -25t123 -52t144.5 -81q125 -73 217 -118z" />
    <glyph glyph-name="uni0681.medi" unicode="&#x681;" horiz-adv-x="1497" 
d="M205 1090l-4 94l131 35q-43 68 -43 155q0 95 52 162t138 66q98 0 197 -105l-45 -61q-32 22 -49 32.5t-42.5 20t-50.5 10.5q-51 -2 -80.5 -34t-29.5 -87q0 -73 49 -135l330 86l4 -94zM1497 203q42 0 71 -30.5t29 -72.5q0 -41 -29.5 -71.5t-70.5 -30.5q-233 0 -357.5 85
t-144.5 261q-53 -27 -127 -76q-107 -63 -187 -104.5t-183 -83t-210 -62t-220 -20.5h-66q-41 0 -71.5 31t-30.5 71q0 42 29.5 72.5t70.5 30.5h78q213 0 363.5 49t316.5 145q165 100 276 146q-63 34 -198 112q-84 50 -121.5 70.5t-93.5 41.5t-99 21q-24 0 -45.5 -4.5
t-39 -10.5t-36 -19.5t-31 -23.5t-29 -30.5t-25.5 -32.5t-24.5 -38t-22.5 -39t-23 -42.5t-23 -41.5l-114 69q37 92 75.5 161.5t87.5 127.5t109.5 88.5t130.5 30.5q84 0 174 -39.5t225 -118.5q125 -73 217 -118q136 -65 246 -80l-28 -185q-83 0 -148 -8q-22 -4 -61 -18
q11 -113 91 -163t269 -50z" />
    <glyph glyph-name="uni0681.fina" unicode="&#x681;" horiz-adv-x="1542" 
d="M219 1241l-4 96l131 35q-43 68 -43 154q2 96 54 163t137 66q98 0 196 -104l-45 -62q-66 45 -93 54q-23 8 -48 8q-51 0 -81 -32t-30 -87q0 -73 49 -135l330 86l4 -94zM1542 203q41 0 70.5 -30.5t29.5 -72.5q0 -41 -29.5 -71.5t-70.5 -30.5q-261 0 -378.5 125.5
t-123.5 411.5q-157 -39 -287.5 -96t-236.5 -134.5t-165 -181t-58 -223.5q3 -177 155 -263t431 -86q232 0 460 43l13 -169q-246 -74 -539 -74q-340 0 -515 132t-175 396q0 148 64.5 279t182 233t279 178.5t359.5 122.5q-82 45 -140 80q-116 65 -187.5 96t-131.5 31
q-50 0 -87.5 -14t-70.5 -48t-59 -76t-62 -114l-114 70q27 66 53 118.5t61.5 103t74 83.5t88.5 53.5t106 20.5q54 0 124.5 -23t124 -49t150.5 -78q137 -77 201 -106q160 -74 264 -84l-39 -174q-97 0 -186 -13q2 -76 12 -130.5t34.5 -101.5t64.5 -75t103 -43.5t150 -15.5z" />
    <glyph glyph-name="uni06A1.init" unicode="&#x6a1;" horiz-adv-x="1067" 
d="M-98 100q0 42 30 72.5t72 30.5h60.5h72.5t72 0.5t80 2.5t75 4.5t77.5 7.5t67.5 11t65 15t51 20q87 36 123.5 91.5t42.5 150.5q-131 -76 -345 -76q-164 0 -241.5 65t-77.5 220q0 111 21 208t65 178t121 128t180 47q134 0 234.5 -87t153 -240.5t52.5 -350.5
q0 -214 -71 -342q-71 -125 -230 -184q-81 -34 -196 -51t-205 -20t-248 -3q-42 0 -72 31t-30 71zM285 756q0 -74 43 -108t157 -34q72 0 155 14t142 42q-6 88 -24 159.5t-49.5 130.5t-82.5 92t-118 33q-53 0 -94 -21.5t-65 -55t-39 -79t-20 -87t-5 -86.5z" />
    <glyph glyph-name="uni06A1.medi" unicode="&#x6a1;" horiz-adv-x="1183" 
d="M1184 203q41 0 70.5 -30.5t29.5 -72.5q0 -40 -29.5 -71t-68.5 -31q-419 0 -678 121q-87 -66 -204 -93.5t-304 -27.5q-41 0 -70.5 30.5t-29.5 71.5q0 42 29 72.5t71 30.5q242 0 336 30q-133 127 -133 316q0 195 109 299t298 104q185 0 285 -101t100 -282q0 -160 -88 -352
q137 -14 277 -14zM608 760q-117 0 -180 -55.5t-63 -161.5q0 -62 30.5 -113t86 -87t122 -60.5t148.5 -40.5q82 180 82 305q0 101 -59.5 157t-166.5 56z" />
    <glyph glyph-name="uni06A1.fina" unicode="&#x6a1;" horiz-adv-x="2123" 
d="M2124 203q41 0 70.5 -30.5t29.5 -72.5q0 -40 -29.5 -71t-68.5 -31q-421 0 -676 121q-258 -150 -719 -144q-316 3 -467 114t-151 331q0 184 102 448l127 -41q-72 -220 -72 -358q0 -154 110.5 -217.5t369.5 -69.5q307 -7 518 58q-125 128 -125 309q0 196 109.5 301.5
t297.5 105.5q183 0 284 -103.5t101 -283.5q0 -162 -90 -352q140 -14 279 -14zM1548 760q-118 0 -180.5 -55t-62.5 -162q0 -62 30.5 -113t85.5 -87t121 -60.5t148 -40.5q82 180 82 305q0 104 -57 158.5t-167 54.5z" />
    <glyph glyph-name="uni06C2.medi" unicode="&#x6c2;" horiz-adv-x="1036" 
d="M154 657l-2 97l129 34q-44 70 -41 154q0 96 52 163t138 66q97 0 195 -104l-45 -61q-34 23 -49 32.5t-41 19t-52 9.5q-51 0 -79.5 -31.5t-30.5 -87.5q0 -75 51 -135l328 86l4 -94zM1036 203q41 0 71 -31t30 -72t-30 -71.5t-71 -30.5q-159 0 -211.5 -108.5t0.5 -360.5
l-145 -129q-101 29 -176 72t-126 96.5t-85 126.5t-52 153.5t-28 186.5q-75 -37 -213 -37q-40 0 -70 31t-30 71q0 42 29.5 72.5t70.5 30.5q77 0 125.5 8.5t84.5 26.5t59.5 57.5t39.5 88t35 132.5l23 84l141 -35l-12 -80q-41 -266 -142 -372q5 -105 21 -182.5t49.5 -142.5
t90.5 -107t140 -64q-35 276 75.5 431t305.5 155z" />
    <glyph glyph-name="uni06CA.fina" unicode="&#x6ca;" horiz-adv-x="1095" 
d="M653 1036h-10l-141 109v10l100 133h12l142 -106v-11zM365 1006h-11l-143 106v12l100 133h13l141 -106v-10zM1094 203q41 0 71.5 -31t30.5 -72q0 -40 -30.5 -71t-71.5 -31h-131q-43 -258 -235.5 -388t-494.5 -136q-19 -1 -116 4l-4 166h82q248 8 403.5 99t198.5 255h-303
q-177 0 -264 73.5t-87 233.5q0 83 10 158t36.5 153t69 134.5t113.5 92.5t163 36q205 0 318 -175.5t122 -500.5h119zM301 340q0 -76 44.5 -106.5t158.5 -30.5h307q-4 86 -14.5 156t-31.5 132.5t-52 105t-78 67t-107 24.5q-44 0 -80 -13t-59 -33.5t-40.5 -51.5t-26 -60
t-14 -67t-6.5 -64t-1 -59z" />
    <glyph glyph-name="uni06D5.fina" unicode="&#x6d5;" horiz-adv-x="1202" 
d="M113 428q0 189 148 317.5t439 206.5v164l164 29v-643q0 -95 12.5 -149t51 -90t102.5 -48t174 -12q40 0 71.5 -31t31.5 -72q0 -40 -31.5 -71t-71.5 -31q-318 0 -428 174q-136 -63 -291 -63q-175 0 -273.5 82.5t-98.5 236.5zM268 453q0 -73 63 -109.5t167 -36.5
q108 0 217 33q-13 80 -13 164l-2 268q-227 -61 -329.5 -138t-102.5 -181z" />
    <glyph glyph-name="uniFB50" unicode="&#x671;" horiz-adv-x="546" arabic-form="isolated" 
d="M360 1350q-67 0 -165 34l-34.5 11.5l-31.5 10.5t-25.5 8t-25 7t-20 4.5t-20.5 3.5t-18 1q-33 0 -50 -19.5t-31 -67.5l-80 17q24 191 166 194q39 3 81 -10q68 104 125 139t115 35q83 0 120.5 -59t37.5 -141q0 -76 -36 -122t-108 -46zM186 1520q1 0 3.5 -1t3.5 -1
q5 -2 34.5 -14t46.5 -18.5t42 -13t42 -6.5q35 0 51.5 13.5t16.5 44.5q0 14 -0.5 23t-5 22.5t-12 22t-22.5 14.5t-36 6q-86 0 -164 -92zM547 203q41 0 71.5 -31t30.5 -72q0 -40 -30.5 -71t-71.5 -31q-220 0 -321 121t-103 377l-6 739l162 16l2 -749q0 -91 15.5 -150
t50.5 -91.5t81.5 -45t118.5 -12.5z" />
    <glyph glyph-name="uniFB51" unicode="&#x671;" horiz-adv-x="393" arabic-form="final" 
d="M362 1720q57 0 94 -32t50.5 -75t13.5 -95q0 -76 -35.5 -122t-107.5 -46q-68 0 -166 34q-20 7 -56 19l-49.5 16.5t-32.5 8.5t-34 4q-34 0 -52 -20.5t-32 -68.5l-80 19q24 189 166 192q39 3 82 -10q66 104 123.5 140t115.5 36zM377 1468q34 0 50.5 12.5t16.5 43.5
q0 17 -2 29t-8.5 27.5t-23.5 23.5t-43 8q-86 0 -164 -92q1 0 3 -1t3 -1q2 -1 26.5 -11t37 -14t34 -11.5t39 -10.5t31.5 -3zM117 1235l162 16l2 -1249l-156 -6z" />
    <glyph glyph-name="uniFB56" unicode="&#x67e;" horiz-adv-x="1740" arabic-form="isolated" 
d="M731 -41q-312 6 -462.5 111.5t-155.5 316.5q-6 192 102 465l127 -41q-82 -257 -70 -389q5 -83 49 -135.5t149 -83t280 -35.5q136 -5 260 6.5t232 39.5t171 82.5t60 129.5q-3 85 -19 181.5t-57 291.5l164 55q38 -184 52.5 -296.5t16.5 -221.5q1 -240 -234 -362.5
t-665 -114.5zM944 -510l-133 104v11l98 125h11l135 -105v-10l-101 -127zM664 -539l-136 105v12l101 125h10l133 -104v-11l-98 -127h-10zM836 -768l-131 102v11l96 123h12l131 -103v-10l-98 -123h-10z" />
    <glyph glyph-name="uniFB57" unicode="&#x67e;" horiz-adv-x="1957" arabic-form="final" 
d="M1958 203q41 0 70.5 -30.5t29.5 -72.5q0 -41 -29.5 -71.5t-70.5 -30.5q-312 0 -424 164q-262 -206 -803 -203q-311 3 -462 110t-156 318q-6 192 102 465l127 -41q-72 -217 -72 -358q0 -66 19.5 -113.5t57 -80t100 -52t141 -28.5t188.5 -11q215 -6 395.5 30.5t298.5 114.5
q-19 74 -22 191l-6 264l143 14l17 -258q5 -101 23.5 -161.5t61.5 -97t105.5 -49.5t165.5 -13zM909 -270h11l135 -105v-10l-101 -127l-10 2l-133 104v11zM772 -401v-11l-98 -127h-10l-136 105v12l101 125h10zM801 -532h12l131 -103v-10l-98 -123h-10l-131 102v11z" />
    <glyph glyph-name="uniFB58" unicode="&#x67e;" horiz-adv-x="741" arabic-form="initial" 
d="M-100 100q0 42 29 72.5t71 30.5h27q227 0 338 56.5t108 176.5q-6 165 -88 502l164 55q47 -214 62.5 -322t17.5 -216q4 -227 -146.5 -342t-451.5 -115h-31q-41 0 -70.5 30.5t-29.5 71.5zM492 -475l-136 102v11l97 126h12l135 -100v-10l-98 -129h-10zM211 -508l-135 102v13
l96 127h10l137 -103v-10l-98 -129h-10zM389 -735l-135 100v12l96 123h10l134 -98v-10l-97 -127h-8z" />
    <glyph glyph-name="uniFB59" unicode="&#x67e;" horiz-adv-x="882" arabic-form="medial" 
d="M883 203q41 0 70.5 -30.5t29.5 -72.5q0 -40 -30 -71t-70 -31q-158 0 -261 38.5t-161 121.5q-89 -81 -211 -120.5t-250 -39.5q-41 0 -70.5 30.5t-29.5 71.5q0 42 29 72.5t71 30.5q261 0 395 110q-19 74 -22 191l-6 268l143 12l16 -260q5 -95 23 -154t59.5 -97.5t106.5 -54
t168 -15.5zM442 -233h11l137 -103v-8l-98 -129h-11l-135 102v11zM307 -367v-10l-96 -127h-10l-135 103v10l96 127h10zM338 -498h10l133 -98v-10l-96 -127h-8l-133 100v12z" />
    <glyph glyph-name="uniFB7A" unicode="&#x686;" horiz-adv-x="1513" arabic-form="isolated" 
d="M813 -649q-340 0 -515 132t-175 396q0 196 112.5 360.5t309 277.5t461.5 175q-29 15 -146 82q-111 63 -181 94t-130 31q-50 0 -87.5 -14t-70.5 -48t-59 -76t-62 -114l-114 70q27 66 53 118.5t61.5 103t74 83.5t88.5 53.5t106 20.5q79 0 169 -37t232 -115
q133 -74 197 -102q161 -76 266 -86l-39 -174q-109 -1 -164 -9t-162 -34q-352 -86 -550 -255.5t-195 -383.5q6 -349 586 -349q232 0 460 43l13 -169q-246 -74 -539 -74zM1059 27l-121 92v10l86 113h10l121 -90v-11l-88 -114h-8zM807 -2l-121 92v10l86 113h10l121 -90v-8
l-88 -117h-8zM965 -205l-119 88v11l86 112h8l121 -90v-8l-86 -113h-10z" />
    <glyph glyph-name="uniFB7B" unicode="&#x686;" horiz-adv-x="1542" arabic-form="final" 
d="M813 -649q-340 0 -515 132t-175 396q0 148 64.5 279t182 233t279 178.5t359.5 122.5q-82 45 -140 80q-116 65 -187.5 96t-131.5 31q-50 0 -87.5 -14t-70.5 -48t-59 -76t-62 -114l-114 70q27 66 53 118.5t61.5 103t74 83.5t88.5 53.5t106 20.5q54 0 124.5 -23t124 -49
t150.5 -78q137 -77 201 -106q160 -74 264 -84l-39 -174q-97 0 -186 -13q2 -76 12 -130.5t34.5 -101.5t64.5 -75t103 -43.5t150 -15.5q41 0 70.5 -30.5t29.5 -72.5q0 -41 -29.5 -71.5t-70.5 -30.5q-261 0 -378.5 125.5t-123.5 411.5q-157 -39 -287.5 -96t-236.5 -134.5
t-165 -181t-58 -223.5q3 -177 155 -263t431 -86q208 0 436 43l14 -169q-249 -74 -516 -74zM922 -2l-117 88v10l82 109h10l119 -88v-8l-86 -111h-8zM678 -31l-117 88v11l84 110h8l119 -88v-8l-86 -113h-8zM831 -227l-114 86v10l82 108h8l117 -86v-10l-84 -108h-9z" />
    <glyph glyph-name="uniFB7C" unicode="&#x686;" horiz-adv-x="1445" arabic-form="initial" 
d="M-100 100q0 42 29.5 72.5t70.5 30.5h78q213 0 363.5 49t316.5 145q178 105 276 146q-63 34 -198 112q-81 48 -121 70t-95.5 42.5t-97.5 20.5q-43 0 -79.5 -14t-63 -35.5t-52 -56t-44 -66.5t-42.5 -76q-12 -23 -18 -34l-114 69q37 92 75.5 161.5t87.5 127.5t109.5 88.5
t130.5 30.5q59 0 131.5 -25t123 -52t144.5 -81q125 -73 217 -118q132 -65 246 -80l-28 -183q-59 3 -101 0q-91 -7 -153 -45q-43 -24 -224 -131q-106 -64 -187.5 -106t-182.5 -83t-205.5 -61t-214.5 -20h-76q-41 0 -71.5 31t-30.5 71zM922 -338l-134 100v11l95 127h12
l133 -101v-10l-96 -127h-10zM643 -371l-133 101v12l94 125h12l134 -100v-11l-97 -127h-10zM819 -596l-133 98v13l94 123h11l133 -99v-10l-95 -125h-10z" />
    <glyph glyph-name="uniFB7D" unicode="&#x686;" horiz-adv-x="1497" arabic-form="medial" 
d="M2 -2q-41 0 -71.5 31t-30.5 71q0 42 29.5 72.5t70.5 30.5h78q213 0 363.5 49t316.5 145q165 100 276 146q-63 34 -198 112q-84 50 -121.5 70.5t-93.5 41.5t-99 21q-24 0 -45.5 -4.5t-39 -10.5t-36 -19.5t-31 -23.5t-29 -30.5t-25.5 -32.5t-24.5 -38t-22.5 -39t-23 -42.5
t-23 -41.5l-114 69q37 92 75.5 161.5t87.5 127.5t109.5 88.5t130.5 30.5q84 0 174 -39.5t225 -118.5q125 -73 217 -118q136 -65 246 -80l-28 -185q-83 0 -148 -8q-22 -4 -61 -18q11 -113 91 -163t269 -50q42 0 71 -30.5t29 -72.5q0 -41 -29.5 -71.5t-70.5 -30.5
q-233 0 -357.5 85t-144.5 261q-53 -27 -127 -76q-107 -63 -187 -104.5t-183 -83t-210 -62t-220 -20.5h-66zM922 -338l-134 100v11l95 127h12l133 -101v-10l-96 -127h-10zM643 -371l-133 101v12l94 125h12l134 -100v-11l-97 -127h-10zM819 -596l-133 98v13l94 123h11l133 -99
v-10l-95 -125h-10z" />
    <glyph glyph-name="uniFB8A" unicode="&#x698;" horiz-adv-x="962" arabic-form="isolated" 
d="M580 1171l-134 99v10l95 123h10l131 -98v-9l-94 -125h-8zM752 938l-136 102v11l97 127h10l137 -103v-8l-98 -129h-10zM471 907l-135 103v10l96 127h10l136 -103v-8l-97 -129h-10zM117 -522l-4 166q575 9 575 473q0 194 -119 518l160 80q121 -345 121 -578
q0 -322 -187 -496.5t-546 -162.5z" />
    <glyph glyph-name="uniFB8B" unicode="&#x698;" horiz-adv-x="1163" arabic-form="final" 
d="M625 1171l-131 99v10l92 123h10l133 -98v-9l-94 -125h-10zM797 938l-135 102v11l96 127h12l135 -103v-8l-98 -129h-10zM516 907l-135 103v10l96 127h10l138 -103v-8l-99 -129h-10zM113 -360q27 0 41 2q534 27 534 475q0 105 -25 230t-71 298l162 68l43 -189
q23 -102 47.5 -161t67 -97t100 -50.5t151.5 -12.5q40 0 70.5 -31t30.5 -72q0 -40 -30.5 -71t-70.5 -31q-219 0 -319 106q-6 -253 -125 -405q-172 -221 -549 -221q-35 0 -53 2z" />
    <glyph glyph-name="uniFB8E" unicode="&#x6a9;" horiz-adv-x="1798" arabic-form="isolated" 
d="M113 403q-6 189 102 465l127 -41q-82 -257 -70 -389q5 -83 49 -135.5t149 -83.5t280 -37q155 -5 289 9.5t221 42t137.5 63t52.5 72.5q4 33 -5.5 74.5t-47 108t-101 135t-181.5 154.5t-275 167l18 206l809 314l19 -182l-633 -259q585 -356 567 -735q-8 -123 -131 -210.5
t-318.5 -128t-439.5 -38.5q-311 3 -462 109.5t-156 318.5z" />
    <glyph glyph-name="uniFB8F" unicode="&#x6a9;" horiz-adv-x="2088" arabic-form="final" 
d="M731 -25q-311 3 -462 109.5t-156 318.5q-6 192 102 465l125 -41q-80 -259 -68 -389q5 -83 49 -135.5t149 -83.5t280 -37q155 -5 289.5 9.5t222 42t137 62t49.5 69.5q0 54 -68 147q-67 95 -225 241t-313 255l18 206l809 314l19 -182l-639 -261q304 -257 487 -485
q156 -192 213 -250q103 -103 206 -131q58 -16 134 -16q42 0 71 -30.5t29 -72.5q0 -40 -29.5 -71t-70.5 -31q-156 0 -269 63t-233 209q-23 -77 -104 -136t-200.5 -93.5t-259 -51t-292.5 -14.5z" />
    <glyph glyph-name="uniFB90" unicode="&#x6a9;" horiz-adv-x="935" arabic-form="initial" 
d="M-100 100q0 42 29 72.5t71 30.5h119q122 0 228.5 18t179 55.5t75.5 88.5q4 32 -5.5 74t-47.5 109t-101.5 136.5t-181.5 156t-274 167.5l16 206l809 314l21 -182l-633 -259q587 -357 565 -739q-7 -109 -102 -190t-244 -120.5t-330 -39.5h-94q-41 0 -70.5 30.5t-29.5 71.5z
" />
    <glyph glyph-name="uniFB91" unicode="&#x6a9;" horiz-adv-x="1239" arabic-form="medial" 
d="M-100 100q0 42 29 72.5t71 30.5h119q200 0 339.5 48.5t139.5 113.5q0 56 -74 155q-72 96 -228.5 241t-303.5 247l18 206l809 314l19 -182l-639 -261q310 -262 489 -485q156 -192 210 -248q102 -103 204 -132q59 -17 137 -17q42 0 71 -30.5t29 -72.5q0 -41 -29.5 -71.5
t-70.5 -30.5q-113 0 -199.5 29.5t-155 85t-149.5 153.5q-41 -123 -213.5 -195.5t-427.5 -72.5h-94q-41 0 -70.5 30.5t-29.5 71.5z" />
    <glyph glyph-name="uniFB92" unicode="&#x6af;" horiz-adv-x="1798" arabic-form="isolated" 
d="M850 1364l10 127l723 276l16 -116zM113 403q-6 189 102 465l127 -41q-82 -257 -70 -389q5 -83 49 -135.5t149 -83.5t280 -37q155 -5 289 9.5t221 42t137.5 63t52.5 72.5q4 33 -5.5 74.5t-47 108t-101 135t-181.5 154.5t-275 167l18 206l809 314l19 -182l-633 -259
q585 -356 567 -735q-8 -123 -131 -210.5t-318.5 -128t-439.5 -38.5q-311 3 -462 109.5t-156 318.5z" />
    <glyph glyph-name="uniFB93" unicode="&#x6af;" horiz-adv-x="2088" arabic-form="final" 
d="M850 1376l12 127l721 277l16 -117zM731 -25q-311 3 -462 109.5t-156 318.5q-6 192 102 465l125 -41q-80 -259 -68 -389q5 -83 49 -135.5t149 -83.5t280 -37q155 -5 289.5 9.5t222 42t137 62t49.5 69.5q0 54 -68 147q-67 95 -225 241t-313 255l18 206l809 314l19 -182
l-639 -261q304 -257 487 -485q156 -192 213 -250q103 -103 206 -131q58 -16 134 -16q42 0 71 -30.5t29 -72.5q0 -40 -29.5 -71t-70.5 -31q-156 0 -269 63t-233 209q-23 -77 -104 -136t-200.5 -93.5t-259 -51t-292.5 -14.5z" />
    <glyph glyph-name="uniFB94" unicode="&#x6af;" horiz-adv-x="935" arabic-form="initial" 
d="M16 1376l13 127l721 277l16 -117zM-100 100q0 42 29 72.5t71 30.5h119q122 0 228.5 18t179 55.5t75.5 88.5q4 32 -5.5 74t-47.5 109t-101.5 136.5t-181.5 156t-274 167.5l16 206l809 314l21 -182l-633 -259q587 -357 565 -739q-7 -109 -102 -190t-244 -120.5t-330 -39.5
h-94q-41 0 -70.5 30.5t-29.5 71.5z" />
    <glyph glyph-name="uniFB95" unicode="&#x6af;" horiz-adv-x="1239" arabic-form="medial" 
d="M14 1376l13 127l721 277l16 -117zM-100 100q0 42 29 72.5t71 30.5h119q200 0 339.5 48.5t139.5 113.5q0 56 -74 155q-72 96 -228.5 241t-303.5 247l18 206l809 314l19 -182l-639 -261q310 -262 489 -485q156 -192 210 -248q102 -103 204 -132q59 -17 137 -17
q42 0 71 -30.5t29 -72.5q0 -41 -29.5 -71.5t-70.5 -30.5q-113 0 -199.5 29.5t-155 85t-149.5 153.5q-41 -123 -213.5 -195.5t-427.5 -72.5h-94q-41 0 -70.5 30.5t-29.5 71.5z" />
    <glyph glyph-name="uniFB9F" unicode="&#x6ba;" horiz-adv-x="1705" arabic-form="final" 
d="M127 -53q0 247 156 641l133 -51q-127 -372 -125 -564q2 -137 103.5 -220t293.5 -87q72 -1 144.5 6.5t151 31t137.5 59.5t97.5 98t38.5 141q0 140 -45 453l-24 198l147 35l21 -151q15 -103 35.5 -163t60.5 -100.5t99 -55.5t155 -15q40 0 71 -31t31 -72q0 -40 -31 -71
t-71 -31q-185 0 -291 82q2 -27 2 -78q5 -261 -189 -403.5t-550 -139.5q-262 1 -406.5 133.5t-144.5 354.5z" />
    <glyph glyph-name="uniFBA4" unicode="&#x6c0;" horiz-adv-x="1077" arabic-form="isolated" 
d="M182 1157l-2 96l129 35q-44 70 -41 154q0 95 52.5 162t138.5 67q95 0 196 -104l-47 -64q-30 23 -47 34t-42 20.5t-50 9.5q-51 0 -81 -32.5t-30 -86.5q-3 -71 48 -135l329 86l6 -94zM319 1018q120 -40 214 -84.5t178 -106t139 -134t86.5 -168t30.5 -208.5
q-1 -117 -68 -198.5t-170 -117.5t-231 -36q-193 0 -287 89t-92 233q1 131 63.5 268t175.5 264q-13 5 -82 29zM809 315q3 135 -69.5 247.5t-252.5 201.5q-101 -104 -158.5 -215t-54.5 -207q3 -176 234 -176q78 0 143 14t111.5 48.5t46.5 86.5z" />
    <glyph glyph-name="uniFBA5" unicode="&#x6c0;" horiz-adv-x="1202" arabic-form="final" 
d="M283 1204l-2 96l129 33q-44 73 -41 156q2 95 53.5 161.5t136.5 65.5q99 0 197 -104l-45 -62q-36 25 -49.5 33.5t-40 19t-52.5 11.5q-51 0 -80.5 -32.5t-29.5 -86.5q-3 -74 47 -137l332 86l4 -94zM1204 203q40 0 71.5 -31t31.5 -72q0 -40 -31.5 -71t-71.5 -31
q-318 0 -428 174q-136 -63 -291 -63q-175 0 -273.5 82.5t-98.5 236.5q0 189 148 317.5t439 206.5v164l164 29v-643q0 -95 12.5 -149t51 -90t102.5 -48t174 -12zM498 307q108 0 217 33q-13 80 -13 164l-2 268q-227 -61 -329.5 -138t-102.5 -181q0 -73 63 -109.5t167 -36.5z
" />
    <glyph glyph-name="uniFBA6" unicode="&#x6c1;" horiz-adv-x="1077" arabic-form="isolated" 
d="M319 1018q120 -40 214 -84.5t178 -106t139 -134t86.5 -168t30.5 -208.5q-1 -117 -68 -198.5t-170 -117.5t-231 -36q-193 0 -287 89t-92 233q1 131 63.5 268t175.5 264q-13 5 -82 29zM809 315q3 135 -69.5 247.5t-252.5 201.5q-101 -104 -158.5 -215t-54.5 -207
q3 -176 234 -176q78 0 143 14t111.5 48.5t46.5 86.5z" />
    <glyph glyph-name="uniFBAC" unicode="&#x6be;" horiz-adv-x="1492" arabic-form="initial" 
d="M1380 322q3 -121 -22 -209q-21 -81 -65 -114.5t-130 -41.5q-18 -2 -88 -2q-174 5 -345 38t-296 89q-200 -84 -434 -84q-41 0 -70.5 30.5t-29.5 71.5q0 42 29 72.5t71 30.5q117 0 225 18q-88 94 -88 225q0 133 63 266.5t162 211.5l35 139q519 -125 747.5 -295.5
t235.5 -445.5zM281 496q0 -70 43.5 -120.5t124.5 -92.5q224 90 272 254q17 59 -0.5 125.5t-66.5 113.5t-115 47q-88 0 -173 -102t-85 -225zM1212 201q11 34 11 98q0 144 -89.5 248.5t-267.5 183.5q8 -31 8 -74q0 -73 -18 -137q-51 -183 -213 -313q204 -61 416 -68h71
q39 1 55 13.5t27 48.5z" />
    <glyph glyph-name="uniFBAE" unicode="&#x6d2;" horiz-adv-x="1896" arabic-form="isolated" 
d="M1737 -356q-79 34 -128 40.5t-198 6.5h-911q-186 0 -286.5 85t-100.5 244q0 130 79.5 222t237.5 174q93 41 153.5 83t118.5 113q102 111 197 111q67 0 131.5 -49t161.5 -176l-105 -99q-76 81 -113.5 108.5t-72.5 27.5q-7 0 -14.5 -1.5t-16 -6t-15.5 -8t-16.5 -11
t-15.5 -12t-17 -15t-16 -15t-17.5 -16.5t-16.5 -16q-86 -108 -273 -196q-91 -44 -142.5 -92.5t-51.5 -116.5q0 -65 49 -99t141 -34h953q150 0 206.5 -16.5t147.5 -88.5z" />
    <glyph glyph-name="uniFBAF" unicode="&#x6d2;" horiz-adv-x="1187" arabic-form="final" 
d="M1548 -545q-96 33 -148.5 39t-201.5 6l-717 4q-175 0 -271.5 80.5t-96.5 227.5q0 73 29.5 141t85.5 124.5t149.5 91t210.5 34.5h600q40 0 70 -31t30 -72q0 -40 -30 -71t-70 -31h-666q-114 0 -180 -42.5t-66 -115.5q0 -64 46 -97.5t133 -33.5l788 -2q151 0 207.5 -16
t146.5 -88z" />
    <glyph glyph-name="uniFBB0" unicode="&#x6d3;" horiz-adv-x="1896" arabic-form="isolated" 
d="M1092 999l-5 -94l-567 -92l6 94l131 21q-33 77 -24 159q9 95 67 156.5t144 52.5q94 -9 184 -122l-51 -58q-30 26 -45 38t-39.5 23.5t-50.5 14.5q-49 4 -82 -25.5t-39 -83.5q-6 -73 35 -139zM1432 -104q150 0 206.5 -16.5t147.5 -88.5l-49 -147q-79 34 -128 40.5t-198 6.5
h-911q-186 0 -286.5 85t-100.5 244q0 130 79.5 222t237.5 174q93 41 153.5 83t118.5 113q102 111 197 111q67 0 131.5 -49t161.5 -176l-105 -99q-76 81 -113.5 108.5t-72.5 27.5q-7 0 -14.5 -1.5t-16 -6t-15.5 -8t-16.5 -11t-15.5 -12t-17 -15t-16 -15t-17.5 -16.5
t-16.5 -16q-86 -108 -273 -196q-91 -44 -142.5 -92.5t-51.5 -116.5q0 -65 49 -99t141 -34h953z" />
    <glyph glyph-name="uniFBB1" unicode="&#x6d3;" horiz-adv-x="1187" arabic-form="final" 
d="M725 446l2 -94l-563 -123v97l131 28q-38 69 -35 156q5 96 60 160.5t141 60.5q97 -3 190 -113l-47 -61q-32 26 -47 36.5t-40.5 21.5t-51.5 12q-51 1 -81.5 -30t-33.5 -85q-3 -79 43 -137zM1243 -293q151 0 207.5 -16t146.5 -88l-49 -148q-96 33 -148.5 39t-201.5 6l-717 4
q-175 0 -271.5 80.5t-96.5 227.5q0 73 29.5 141t85.5 124.5t149.5 91t210.5 34.5h600q40 0 70 -31t30 -72q0 -40 -30 -71t-70 -31h-666q-114 0 -180 -42.5t-66 -115.5q0 -64 46 -97.5t133 -33.5z" />
    <glyph glyph-name="uniFBD7" unicode="&#x6c7;" horiz-adv-x="1089" arabic-form="isolated" 
d="M268 1049q26 9 97.5 29.5t105.5 33.5q-98 76 -98 193q0 86 55.5 143t146.5 57q88 0 140.5 -55.5t52.5 -140.5q0 -118 -96 -195q-40 -32 -107.5 -62.5t-121.5 -48t-171 -53.5zM457 1300q0 -83 96 -157l27 12q52 28 80 70t28 82q0 45 -31 73.5t-84 28.5q-52 0 -84 -30.5
t-32 -78.5zM113 -356h75q276 9 441 121.5t180 302.5q-128 -70 -317 -70q-175 0 -262 73.5t-87 233.5q0 83 10 158t36.5 153t69 134.5t113.5 92.5t163 36q214 0 327 -190t113 -542q0 -171 -54 -299.5t-154 -208.5t-234.5 -121t-303.5 -46q-20 -1 -112 4zM301 340
q0 -76 44.5 -106.5t158.5 -30.5q187 0 307 53q-32 432 -283 432q-44 0 -80 -13t-59 -33.5t-40.5 -51.5t-26 -60t-14 -67t-6.5 -64t-1 -59z" />
    <glyph glyph-name="uniFBD8" unicode="&#x6c7;" horiz-adv-x="1095" arabic-form="final" 
d="M272 950l-4 99q26 9 97.5 29.5t105.5 33.5q-98 76 -98 193q0 86 55.5 143t146.5 57q88 0 140.5 -55.5t52.5 -140.5q0 -118 -96 -195q-40 -32 -107.5 -62.5t-121.5 -48t-171 -53.5zM457 1300q0 -83 96 -157l27 12q52 28 80 70t28 82q0 45 -31 73.5t-84 28.5
q-52 0 -84 -30.5t-32 -78.5zM1094 203q41 0 71.5 -31t30.5 -72q0 -40 -30.5 -71t-71.5 -31h-131q-43 -258 -235.5 -388t-494.5 -136q-19 -1 -116 4l-4 166h82q248 8 403.5 99t198.5 255h-303q-177 0 -264 73.5t-87 233.5q0 83 10 158t36.5 153t69 134.5t113.5 92.5t163 36
q205 0 318 -175.5t122 -500.5h119zM301 340q0 -76 44.5 -106.5t158.5 -30.5h307q-4 86 -14.5 156t-31.5 132.5t-52 105t-78 67t-107 24.5q-44 0 -80 -13t-59 -33.5t-40.5 -51.5t-26 -60t-14 -67t-6.5 -64t-1 -59z" />
    <glyph glyph-name="uniFBDB" unicode="&#x6c8;" horiz-adv-x="1089" arabic-form="isolated" 
d="M471 1020l-22 342l98 29l4 -353zM113 -356h75q276 9 441 121.5t180 302.5q-128 -70 -317 -70q-175 0 -262 73.5t-87 233.5q0 83 10 158t36.5 153t69 134.5t113.5 92.5t163 36q214 0 327 -190t113 -542q0 -171 -54 -299.5t-154 -208.5t-234.5 -121t-303.5 -46
q-20 -1 -112 4zM301 340q0 -76 44.5 -106.5t158.5 -30.5q187 0 307 53q-32 432 -283 432q-44 0 -80 -13t-59 -33.5t-40.5 -51.5t-26 -60t-14 -67t-6.5 -64t-1 -59z" />
    <glyph glyph-name="uniFBDC" unicode="&#x6c8;" horiz-adv-x="1095" arabic-form="final" 
d="M551 1038l-80 -18l-22 342l98 29zM1094 203q41 0 71.5 -31t30.5 -72q0 -40 -30.5 -71t-71.5 -31h-131q-43 -258 -235.5 -388t-494.5 -136q-19 -1 -116 4l-4 166h82q248 8 403.5 99t198.5 255h-303q-177 0 -264 73.5t-87 233.5q0 83 10 158t36.5 153t69 134.5t113.5 92.5
t163 36q205 0 318 -175.5t122 -500.5h119zM301 340q0 -76 44.5 -106.5t158.5 -30.5h307q-4 86 -14.5 156t-31.5 132.5t-52 105t-78 67t-107 24.5q-44 0 -80 -13t-59 -33.5t-40.5 -51.5t-26 -60t-14 -67t-6.5 -64t-1 -59z" />
    <glyph glyph-name="uniFBE8" unicode="&#x649;" horiz-adv-x="741" arabic-form="initial" 
d="M-100 100q0 42 29 72.5t71 30.5h27q227 0 338 56.5t108 176.5q-6 165 -88 502l164 55q47 -214 62.5 -322t17.5 -216q4 -227 -146.5 -342t-451.5 -115h-31q-41 0 -70.5 30.5t-29.5 71.5z" />
    <glyph glyph-name="uniFBE9" unicode="&#x649;" horiz-adv-x="882" arabic-form="medial" 
d="M883 203q41 0 70.5 -30.5t29.5 -72.5q0 -40 -30 -71t-70 -31q-158 0 -261 38.5t-161 121.5q-89 -81 -211 -120.5t-250 -39.5q-41 0 -70.5 30.5t-29.5 71.5q0 42 29 72.5t71 30.5q261 0 395 110q-19 74 -22 191l-6 268l143 12l16 -260q5 -95 23 -154t59.5 -97.5t106.5 -54
t168 -15.5z" />
    <glyph glyph-name="uniFBFC" unicode="&#x6cc;" horiz-adv-x="1611" arabic-form="isolated" 
d="M1403 729q-110 55 -205 55q-79 0 -148.5 -47t-112.5 -116t-65.5 -146.5t-17.5 -140.5q2 -19 8.5 -34t14.5 -26t25.5 -19.5t31 -14t43 -11t49 -8.5t60.5 -9q32 -4 49 -7q70 -10 118 -20.5t93.5 -30t72 -47t42 -69.5t14.5 -99q-2 -64 -30.5 -131t-89.5 -133t-146.5 -117
t-212.5 -83t-277 -32q-301 0 -453.5 133.5t-152.5 368.5q0 244 155 628l133 -51q-124 -348 -127 -545q0 -160 110 -242.5t351 -82.5q107 0 204 20t164 50.5t117 67t73 70.5t22 60q-2 44 -52 62q-32 12 -180 33q-20 3 -36 5q-50 7 -78 11.5t-69.5 14.5t-64.5 21.5t-51 32
t-43 47t-26.5 64.5t-14.5 86q-5 86 16 181.5t64.5 183t102 159t135.5 114t158 42.5q91 0 161.5 -34t139.5 -91z" />
    <glyph glyph-name="uniFBFD" unicode="&#x6cc;" horiz-adv-x="1552" arabic-form="final" 
d="M711 -557q-294 0 -446 133.5t-152 368.5q0 244 155 628l133 -51q-124 -348 -127 -545q0 -325 445 -325q141 0 266.5 33t203 92.5t77.5 130.5q0 29 -12.5 49.5t-32.5 26.5q-44 18 -344 53l34 182q235 -11 332.5 -13.5t308.5 -2.5q42 0 71.5 -30.5t29.5 -72.5
q0 -40 -29 -70.5t-70 -31.5q-88 0 -129 16q15 -39 15 -96q-6 -91 -55.5 -174.5t-138 -151.5t-227.5 -108.5t-308 -40.5z" />
    <glyph glyph-name="uniFBFE" unicode="&#x6cc;" horiz-adv-x="741" arabic-form="initial" 
d="M-100 100q0 42 29 72.5t71 30.5h27q227 0 338 56.5t108 176.5q-6 165 -88 502l164 55q47 -214 62.5 -322t17.5 -216q4 -227 -146.5 -342t-451.5 -115h-31q-41 0 -70.5 30.5t-29.5 71.5zM496 -471l-136 102v11l97 127h10l137 -101v-10l-98 -129h-10zM215 -502l-135 103v10
l96 127h10l136 -100v-11l-97 -129h-10z" />
    <glyph glyph-name="uniFBFF" unicode="&#x6cc;" horiz-adv-x="882" arabic-form="medial" 
d="M883 203q41 0 70.5 -30.5t29.5 -72.5q0 -40 -30 -71t-70 -31q-158 0 -261 38.5t-161 121.5q-89 -81 -211 -120.5t-250 -39.5q-41 0 -70.5 30.5t-29.5 71.5q0 42 29 72.5t71 30.5q261 0 395 110q-19 74 -22 191l-6 268l143 12l16 -260q5 -95 23 -154t59.5 -97.5t106.5 -54
t168 -15.5zM459 -229h12l135 -101v-10l-98 -129h-8l-138 102v11zM178 -260h10l138 -100v-11l-99 -129h-10l-135 103v10z" />
    <glyph glyph-name="uniFC02" unicode="&#xfc02;" horiz-adv-x="1536" arabic-form="isolated" 
d="M760 1061l-2 96l129 33q-44 73 -41 156q0 96 52 163t138 66q96 0 195 -105l-45 -63q-32 23 -48.5 33.5t-42 20t-51.5 9.5q-50 0 -79 -31.5t-31 -86.5q0 -73 49 -135l330 86l4 -95zM639 623q109 167 314 255.5t470 86.5v-189q-365 6 -565 -155q174 -34 285.5 -161
t111.5 -323q0 -205 -103.5 -323.5t-260.5 -118.5q-76 0 -140 29.5t-109 80t-76 119.5t-43 147.5t-7.5 164.5t27.5 170q-121 -44 -194 -144t-73 -256v-637l-163 -22v649q0 135 43.5 248t117.5 189.5t167 125t198 64.5zM1102 137q0 144 -105 222.5t-260 78.5h-10
q-39 -90 -49 -187.5t8.5 -177.5t72 -132t132.5 -52q89 0 150 65.5t61 182.5z" />
    <glyph glyph-name="uniFC03" unicode="&#xfc03;" horiz-adv-x="1626" arabic-form="isolated" 
d="M1010 1075l-4 96l129 35q-41 71 -41 154q0 95 52 161.5t138 65.5q96 3 197 -104l-45 -62q-32 23 -49 34t-42.5 20.5t-50.5 9.5q-51 0 -80.5 -32.5t-29.5 -86.5q0 -76 47 -135l332 86l4 -94zM1524 434q1 -138 -45 -227t-144 -139q111 -67 111 -195q0 -194 -203.5 -331
t-535.5 -136q-286 0 -440 131.5t-154 366.5q0 232 153 624l129 -49q-125 -353 -125 -542q-2 -162 109.5 -245t339.5 -83q110 0 203 16t157 42t109.5 60t66.5 70t21 72q0 28 -23 53t-49 31q-57 17 -128 26t-273 27l41 176q17 0 65.5 -1t85.5 -1q201 5 289.5 58.5t85.5 179.5
q-2 94 -19.5 201.5t-66.5 306.5l158 53q50 -225 66 -332.5t16 -212.5z" />
    <glyph glyph-name="uniFC04" unicode="&#xfc04;" horiz-adv-x="1626" arabic-form="isolated" 
d="M979 1020l-10 96l127 41q-49 73 -52 152q-5 95 43.5 165t133.5 74q98 6 202 -92l-43 -65q-33 21 -49.5 30.5t-42 17.5t-51.5 7q-51 -3 -78 -37t-24 -88q3 -75 55 -133l323 106l11 -94zM1335 68q111 -67 111 -195q0 -194 -203.5 -331t-535.5 -136q-286 0 -440 131.5
t-154 366.5q0 232 153 624l129 -49q-125 -353 -125 -542q-2 -162 109.5 -245t339.5 -83q110 0 203 16t157 42t109.5 60t66.5 70t21 72q0 28 -23 53t-49 31q-57 17 -128 26t-273 27l41 176q17 0 65.5 -1t85.5 -1q201 5 289.5 58.5t85.5 179.5q-2 94 -19.5 201.5t-66.5 306.5
l158 53q50 -225 66 -332.5t16 -212.5q1 -138 -45 -227t-144 -139zM848 -723h10l137 -102v-11l-98 -129h-10l-135 103v10zM567 -756h11l135 -100v-10l-97 -129h-10l-135 102v10z" />
    <glyph glyph-name="uniFC08" unicode="&#xfc08;" horiz-adv-x="1536" arabic-form="isolated" 
d="M858 621q174 -34 285.5 -161t111.5 -323q0 -205 -103.5 -323.5t-260.5 -118.5q-76 0 -140 29.5t-109 80t-76 119.5t-43 147.5t-7.5 164.5t27.5 170q-121 -44 -194 -144t-73 -256v-637l-163 -22v649q0 135 43.5 248t117.5 189.5t167 125t198 64.5q109 167 314 255.5
t470 86.5v-189q-365 6 -565 -155zM891 -111q89 0 150 65.5t61 182.5q0 144 -105 222.5t-260 78.5h-10q-39 -90 -49 -187.5t8.5 -177.5t72 -132t132.5 -52zM1397 -203l147 -110v-11l-106 -139h-11l-147 111v12l104 137h13z" />
    <glyph glyph-name="uniFC09" unicode="&#xfc09;" horiz-adv-x="1626" arabic-form="isolated" 
d="M113 -96q0 232 153 624l129 -49q-125 -353 -125 -542q-2 -162 109.5 -245t339.5 -83q110 0 203 16t157 42t109.5 60t66.5 70t21 72q0 28 -23 53t-49 31q-57 17 -128 26t-273 27l41 176q17 0 65.5 -1t85.5 -1q201 5 289.5 58.5t85.5 179.5q-2 94 -19.5 201.5t-66.5 306.5
l158 53q50 -225 66 -332.5t16 -212.5q1 -138 -45 -227t-144 -139q111 -67 111 -195q0 -194 -203.5 -331t-535.5 -136q-286 0 -440 131.5t-154 366.5zM1604 -672l-148 111v12l105 137h12l147 -108v-12l-104 -140h-12z" />
    <glyph glyph-name="uniFC0A" unicode="&#xfc0a;" horiz-adv-x="1626" arabic-form="isolated" 
d="M113 -96q0 232 153 624l129 -49q-125 -353 -125 -542q-2 -162 109.5 -245t339.5 -83q110 0 203 16t157 42t109.5 60t66.5 70t21 72q0 28 -23 53t-49 31q-57 17 -128 26t-273 27l41 176q17 0 65.5 -1t85.5 -1q201 5 289.5 58.5t85.5 179.5q-2 94 -19.5 201.5t-66.5 306.5
l158 53q50 -225 66 -332.5t16 -212.5q1 -138 -45 -227t-144 -139q111 -67 111 -195q0 -194 -203.5 -331t-535.5 -136q-286 0 -440 131.5t-154 366.5zM1563 -676l-148 113v10l105 139h12l147 -110v-11l-106 -141h-10zM887 -1004l-135 103v10l96 127h10l135 -100v-10l-96 -130
h-10zM606 -1034l-137 102v10l96 127h13l135 -102v-8l-97 -129h-10z" />
    <glyph glyph-name="uniFC0E" unicode="&#xfc0e;" horiz-adv-x="1536" arabic-form="isolated" 
d="M1284 1165h-10l-141 109v10l100 133h12l141 -106v-11zM995 1135h-10l-143 106v12l102 133h10l144 -106v-10zM639 623q109 167 314 255.5t470 86.5v-189q-365 6 -565 -155q174 -34 285.5 -161t111.5 -323q0 -205 -103.5 -323.5t-260.5 -118.5q-76 0 -140 29.5t-109 80
t-76 119.5t-43 147.5t-7.5 164.5t27.5 170q-121 -44 -194 -144t-73 -256v-637l-163 -22v649q0 135 43.5 248t117.5 189.5t167 125t198 64.5zM1102 137q0 144 -105 222.5t-260 78.5h-10q-39 -90 -49 -187.5t8.5 -177.5t72 -132t132.5 -52q89 0 150 65.5t61 182.5z" />
    <glyph glyph-name="uniFC0F" unicode="&#xfc0f;" horiz-adv-x="1626" arabic-form="isolated" 
d="M1303 1153l-142 107v12l101 133h12l141 -107v-10l-102 -135h-10zM1014 1120l-144 109v10l101 133h12l141 -106v-11l-100 -135h-10zM113 -96q0 232 153 624l129 -49q-125 -353 -125 -542q-2 -162 109.5 -245t339.5 -83q110 0 203 16t157 42t109.5 60t66.5 70t21 72
q0 28 -23 53t-49 31q-57 17 -128 26t-273 27l41 176q17 0 65.5 -1t85.5 -1q201 5 289.5 58.5t85.5 179.5q-2 94 -19.5 201.5t-66.5 306.5l158 53q50 -225 66 -332.5t16 -212.5q1 -138 -45 -227t-144 -139q111 -67 111 -195q0 -194 -203.5 -331t-535.5 -136
q-286 0 -440 131.5t-154 366.5z" />
    <glyph glyph-name="uniFC10" unicode="&#xfc10;" horiz-adv-x="1626" arabic-form="isolated" 
d="M1317 1151l-141 109v10l100 133h12l142 -107v-10l-103 -135h-10zM1028 1120l-143 107v12l100 133h12l142 -106v-11l-101 -135h-10zM113 -96q0 232 153 624l129 -49q-125 -353 -125 -542q-2 -162 109.5 -245t339.5 -83q110 0 203 16t157 42t109.5 60t66.5 70t21 72
q0 28 -23 53t-49 31q-57 17 -128 26t-273 27l41 176q17 0 65.5 -1t85.5 -1q201 5 289.5 58.5t85.5 179.5q-2 94 -19.5 201.5t-66.5 306.5l158 53q50 -225 66 -332.5t16 -212.5q1 -138 -45 -227t-144 -139q111 -67 111 -195q0 -194 -203.5 -331t-535.5 -136
q-286 0 -440 131.5t-154 366.5zM899 -1008l-141 109v10l100 133h12l142 -106v-10l-103 -136h-10zM610 -1038l-143 106v12l102 134h11l143 -107v-10l-102 -135h-11z" />
    <glyph glyph-name="uniFC12" unicode="&#xfc12;" horiz-adv-x="1536" arabic-form="isolated" 
d="M1116 1440h-10l-131 98v12l92 123h10l133 -98v-10zM1143 1309v10l96 127h12l135 -100v-11l-98 -129h-10zM1008 1176h-11l-135 102v10l96 127h11l137 -100v-10zM639 623q109 167 314 255.5t470 86.5v-189q-365 6 -565 -155q174 -34 285.5 -161t111.5 -323
q0 -205 -103.5 -323.5t-260.5 -118.5q-76 0 -140 29.5t-109 80t-76 119.5t-43 147.5t-7.5 164.5t27.5 170q-121 -44 -194 -144t-73 -256v-637l-163 -22v649q0 135 43.5 248t117.5 189.5t167 125t198 64.5zM1102 137q0 144 -105 222.5t-260 78.5h-10q-39 -90 -49 -187.5
t8.5 -177.5t72 -132t132.5 -52q89 0 150 65.5t61 182.5z" />
    <glyph glyph-name="uniFC13" unicode="&#xfc13;" horiz-adv-x="1626" arabic-form="isolated" 
d="M1135 1407l-131 98v11l92 122h10l133 -98v-8l-94 -125h-10zM1307 1174l-136 102v10l97 127h12l135 -102v-8l-98 -129h-10zM1026 1143l-135 102v10l96 127h10l138 -102v-8l-99 -129h-10zM113 -96q0 232 153 624l129 -49q-125 -353 -125 -542q-2 -162 109.5 -245t339.5 -83
q110 0 203 16t157 42t109.5 60t66.5 70t21 72q0 28 -23 53t-49 31q-57 17 -128 26t-273 27l41 176q17 0 65.5 -1t85.5 -1q201 5 289.5 58.5t85.5 179.5q-2 94 -19.5 201.5t-66.5 306.5l158 53q50 -225 66 -332.5t16 -212.5q1 -138 -45 -227t-144 -139q111 -67 111 -195
q0 -194 -203.5 -331t-535.5 -136q-286 0 -440 131.5t-154 366.5z" />
    <glyph glyph-name="uniFC14" unicode="&#xfc14;" horiz-adv-x="1626" arabic-form="isolated" 
d="M1135 1411l-134 100v11l95 123h10l133 -99v-10l-96 -125h-8zM1307 1180l-136 100v12l97 127h10l137 -102v-10l-98 -127h-10zM1026 1149l-135 100v13l96 127h10l136 -103v-10l-97 -127h-10zM113 -96q0 232 153 624l129 -49q-125 -353 -125 -542q-2 -162 109.5 -245
t339.5 -83q110 0 203 16t157 42t109.5 60t66.5 70t21 72q0 28 -23 53t-49 31q-57 17 -128 26t-273 27l41 176q17 0 65.5 -1t85.5 -1q201 5 289.5 58.5t85.5 179.5q-2 94 -19.5 201.5t-66.5 306.5l158 53q50 -225 66 -332.5t16 -212.5q1 -138 -45 -227t-144 -139
q111 -67 111 -195q0 -194 -203.5 -331t-535.5 -136q-286 0 -440 131.5t-154 366.5zM897 -1001l-135 102v10l96 127h10l136 -100v-10l-97 -129h-10zM616 -1032l-137 102v10l96 127h13l135 -100v-10l-96 -129h-11z" />
    <glyph glyph-name="uniFC1F" unicode="&#xfc1f;" horiz-adv-x="2920" arabic-form="isolated" 
d="M2808 399q4 -198 -77 -299.5t-234 -101.5q-176 0 -316 137q-59 -68 -156 -104t-215 -33q-218 2 -344.5 136t-136.5 407q0 13 -1 35.5t-1 31.5q0 33 -10 43.5t-37 10.5q-55 0 -139 -19.5t-166 -58.5q128 -56 204 -171.5t76 -275.5q0 -205 -103.5 -323.5t-260.5 -118.5
q-162 0 -270.5 125.5t-108.5 322.5q0 146 53 271q-130 -41 -209.5 -143.5t-79.5 -264.5v-637l-163 -22v649q0 148 52.5 270t139.5 199t195 120t225 46q120 108 280.5 162.5t307.5 54.5q166 0 172 -139q0 -17 1 -53.5t1 -55.5q4 -193 84 -294t225 -103q103 -2 184.5 27.5
t112.5 84.5q28 46 38 113t21 264l136 -4q-3 -126 -4.5 -180.5t-7.5 -117t-17 -103.5q103 -84 233 -84q86 0 124.5 42t37.5 138q-1 57 -16.5 141.5t-57.5 290.5l160 55q65 -301 68 -471zM1102 137q0 133 -92 211t-232 88q-102 -124 -102 -289q0 -117 61.5 -187.5t153.5 -70.5
q89 0 150 65.5t61 182.5z" />
    <glyph glyph-name="uniFC21" unicode="&#xfc21;" horiz-adv-x="2844" arabic-form="isolated" 
d="M113 -653v651q0 143 50.5 263t134.5 197.5t191.5 121.5t223.5 47q119 118 286.5 177.5t323.5 61.5q69 0 102 -32.5t35 -100.5q1 -18 2 -57t2 -58q0 -250 162 -346q57 201 121 334t140.5 205t157 99.5t187.5 27.5q161 0 278 -87.5t171.5 -228.5t50.5 -313q-1 -82 -60 -146
t-155.5 -101.5t-211.5 -56.5t-239 -19q-190 0 -328 31t-237 100t-147.5 183.5t-48.5 277.5q0 12 -1 37t-1 38q0 17 -8.5 22t-34.5 5q-64 -2 -145.5 -27t-156.5 -73q132 -51 214.5 -164.5t82.5 -278.5q0 -205 -103.5 -323.5t-260.5 -118.5q-162 0 -270.5 126t-108.5 324
q0 138 78 263q-135 -27 -224.5 -130t-89.5 -272v-637zM2091 188q107 0 214.5 17.5t186.5 53.5t82 81q2 8 2 18q0 165 -73 263q-87 120 -275 120q-85 0 -148.5 -22.5t-121 -80t-104.5 -159t-89 -256.5q109 -35 326 -35zM891 -111q89 0 150 65.5t61 182.5q0 133 -93.5 211
t-236.5 88q-96 -119 -96 -289q0 -117 61.5 -187.5t153.5 -70.5z" />
    <glyph glyph-name="uniFC25" unicode="&#xfc25;" horiz-adv-x="2844" arabic-form="isolated" 
d="M2204 1147l-148 110v13l105 137h12l147 -111v-10l-106 -139h-10zM113 -653v651q0 143 50.5 263t134.5 197.5t191.5 121.5t223.5 47q119 118 286.5 177.5t323.5 61.5q69 0 102 -32.5t35 -100.5q1 -18 2 -57t2 -58q0 -250 162 -346q57 201 121 334t140.5 205t157 99.5
t187.5 27.5q161 0 278 -87.5t171.5 -228.5t50.5 -313q-1 -82 -60 -146t-155.5 -101.5t-211.5 -56.5t-239 -19q-190 0 -328 31t-237 100t-147.5 183.5t-48.5 277.5q0 12 -1 37t-1 38q0 17 -8.5 22t-34.5 5q-64 -2 -145.5 -27t-156.5 -73q132 -51 214.5 -164.5t82.5 -278.5
q0 -205 -103.5 -323.5t-260.5 -118.5q-162 0 -270.5 126t-108.5 324q0 138 78 263q-135 -27 -224.5 -130t-89.5 -272v-637zM2091 188q107 0 214.5 17.5t186.5 53.5t82 81q2 8 2 18q0 165 -73 263q-87 120 -275 120q-85 0 -148.5 -22.5t-121 -80t-104.5 -159t-89 -256.5
q109 -35 326 -35zM891 -111q89 0 150 65.5t61 182.5q0 133 -93.5 211t-236.5 88q-96 -119 -96 -289q0 -117 61.5 -187.5t153.5 -70.5z" />
    <glyph glyph-name="uniFC31" unicode="&#xfc31;" horiz-adv-x="1822" arabic-form="isolated" 
d="M1241 1438l-147 110v13l104 139h12l148 -111v-12l-107 -139h-10zM113 -45q0 243 155 627l133 -52q-124 -348 -127 -544q0 -326 445 -326q110 0 202.5 16t155.5 42t107.5 59.5t65 69.5t20.5 71q0 30 -18.5 52t-47.5 30q-98 29 -323 47q-8 1 -40.5 3t-39.5 3l45 180h69
q309 0 426 31q87 20 134 68t61 127q6 18 10 57q-138 -78 -346 -78q-162 0 -239.5 65.5t-77.5 219.5q0 89 12 167.5t40 152t71.5 126t110 84t151.5 31.5q134 0 235 -87t154 -240.5t53 -350.5q0 -214 -72 -340q-75 -132 -254 -184q60 -63 60 -154q0 -94 -48 -179t-137 -151.5
t-229 -105.5t-311 -39q-300 0 -453 133t-153 369zM1040 764q0 -74 42.5 -106.5t156.5 -32.5q182 0 299 53q-7 88 -25 159.5t-49.5 131t-83 92.5t-118.5 33q-65 0 -111.5 -31.5t-69 -84t-32 -104.5t-9.5 -110z" />
    <glyph glyph-name="uniFC32" unicode="&#xfc32;" horiz-adv-x="1822" arabic-form="isolated" 
d="M1241 1438l-147 110v13l104 139h12l148 -111v-12l-107 -139h-10zM113 -45q0 243 155 627l133 -52q-124 -348 -127 -544q0 -326 445 -326q110 0 202.5 16t155.5 42t107.5 59.5t65 69.5t20.5 71q0 30 -18.5 52t-47.5 30q-98 29 -323 47q-8 1 -40.5 3t-39.5 3l45 180h69
q309 0 426 31q87 20 134 68t61 127q6 18 10 57q-138 -78 -346 -78q-162 0 -239.5 65.5t-77.5 219.5q0 89 12 167.5t40 152t71.5 126t110 84t151.5 31.5q134 0 235 -87t154 -240.5t53 -350.5q0 -214 -72 -340q-75 -132 -254 -184q60 -63 60 -154q0 -94 -48 -179t-137 -151.5
t-229 -105.5t-311 -39q-300 0 -453 133t-153 369zM1040 764q0 -74 42.5 -106.5t156.5 -32.5q182 0 299 53q-7 88 -25 159.5t-49.5 131t-83 92.5t-118.5 33q-65 0 -111.5 -31.5t-69 -84t-32 -104.5t-9.5 -110zM895 -948l-135 102v10l96 127h10l135 -100v-10l-96 -129h-10z
M614 -979l-137 102v11l96 127h13l135 -103v-8l-96 -129h-11z" />
    <glyph glyph-name="uniFC35" unicode="&#xfc35;" horiz-adv-x="1822" arabic-form="isolated" 
d="M1352 1481l-142 108v10l101 134h12l141 -107v-10l-102 -135h-10zM1063 1450l-143 106v13l102 133h10l144 -107v-10l-103 -135h-10zM113 -45q0 243 155 627l133 -52q-124 -348 -127 -544q0 -326 445 -326q110 0 202.5 16t155.5 42t107.5 59.5t65 69.5t20.5 71
q0 30 -18.5 52t-47.5 30q-98 29 -323 47q-8 1 -40.5 3t-39.5 3l45 180h69q309 0 426 31q87 20 134 68t61 127q6 18 10 57q-138 -78 -346 -78q-162 0 -239.5 65.5t-77.5 219.5q0 89 12 167.5t40 152t71.5 126t110 84t151.5 31.5q134 0 235 -87t154 -240.5t53 -350.5
q0 -214 -72 -340q-75 -132 -254 -184q60 -63 60 -154q0 -94 -48 -179t-137 -151.5t-229 -105.5t-311 -39q-300 0 -453 133t-153 369zM1040 764q0 -74 42.5 -106.5t156.5 -32.5q182 0 299 53q-7 88 -25 159.5t-49.5 131t-83 92.5t-118.5 33q-65 0 -111.5 -31.5t-69 -84
t-32 -104.5t-9.5 -110z" />
    <glyph glyph-name="uniFC36" unicode="&#xfc36;" horiz-adv-x="1822" arabic-form="isolated" 
d="M1352 1481l-142 108v10l101 134h12l141 -107v-10l-102 -135h-10zM1063 1450l-143 106v13l102 133h10l144 -107v-10l-103 -135h-10zM113 -45q0 243 155 627l133 -52q-124 -348 -127 -544q0 -326 445 -326q110 0 202.5 16t155.5 42t107.5 59.5t65 69.5t20.5 71
q0 30 -18.5 52t-47.5 30q-98 29 -323 47q-8 1 -40.5 3t-39.5 3l45 180h69q309 0 426 31q87 20 134 68t61 127q6 18 10 57q-138 -78 -346 -78q-162 0 -239.5 65.5t-77.5 219.5q0 89 12 167.5t40 152t71.5 126t110 84t151.5 31.5q134 0 235 -87t154 -240.5t53 -350.5
q0 -214 -72 -340q-75 -132 -254 -184q60 -63 60 -154q0 -94 -48 -179t-137 -151.5t-229 -105.5t-311 -39q-300 0 -453 133t-153 369zM1040 764q0 -74 42.5 -106.5t156.5 -32.5q182 0 299 53q-7 88 -25 159.5t-49.5 131t-83 92.5t-118.5 33q-65 0 -111.5 -31.5t-69 -84
t-32 -104.5t-9.5 -110zM870 -948l-135 102v10l96 127h11l137 -100v-10l-98 -129h-11zM590 -979l-135 102v11l96 127h10l135 -103v-8l-96 -129h-10z" />
    <glyph glyph-name="uniFC3D" unicode="&#xfc3d;" horiz-adv-x="1712" arabic-form="isolated" 
d="M113 -45q0 243 155 627l133 -52q-124 -352 -127 -544q0 -326 447 -326q136 0 244.5 24t173 62.5t98 82.5t33.5 89q0 63 -66 82q-55 17 -126.5 26t-276.5 27l45 180h69q453 0 453 146q0 21 -5.5 47.5t-22.5 66.5t-43.5 82.5t-74.5 96t-109.5 106t-153.5 113t-203 117.5
l16 206l809 314l21 -182l-633 -259q159 -96 273.5 -193.5t177 -188.5t90 -171.5t26.5 -160.5q0 -84 -50 -153t-136 -109q94 -64 94 -183q0 -94 -48 -179t-137 -151.5t-229 -105.5t-311 -39q-300 0 -453 133t-153 369z" />
    <glyph glyph-name="uniFC3E" unicode="&#xfc3e;" horiz-adv-x="1712" arabic-form="isolated" 
d="M113 -45q0 243 155 627l133 -52q-124 -352 -127 -544q0 -326 447 -326q136 0 244.5 24t173 62.5t98 82.5t33.5 89q0 63 -66 82q-55 17 -126.5 26t-276.5 27l45 180h69q453 0 453 146q0 21 -5.5 47.5t-22.5 66.5t-43.5 82.5t-74.5 96t-109.5 106t-153.5 113t-203 117.5
l16 206l809 314l21 -182l-633 -259q159 -96 273.5 -193.5t177 -188.5t90 -171.5t26.5 -160.5q0 -84 -50 -153t-136 -109q94 -64 94 -183q0 -94 -48 -179t-137 -151.5t-229 -105.5t-311 -39q-300 0 -453 133t-153 369zM969 -944l-135 102v11l96 126h10l137 -102v-8l-98 -129
h-10zM688 -975l-135 101v12l96 127h10l136 -103v-10l-97 -127h-10z" />
    <glyph glyph-name="uniFC43" unicode="&#xfc43;" horiz-adv-x="1617" arabic-form="isolated" 
d="M113 -45q0 230 155 627l133 -52q-124 -352 -127 -544q0 -326 447 -326q136 0 245.5 24t175 62.5t100 82.5t34.5 89q0 27 -22.5 51.5t-49.5 30.5q-55 17 -126.5 26t-276.5 27l45 180q91 -1 157.5 2.5t121 11.5t91 24t62.5 37t39.5 53.5t19.5 71t6 91.5l-4 951l166 20
l2 -973q0 -148 -42 -244t-136 -151q55 -32 85 -85.5t30 -119.5q0 -91 -51 -175.5t-143 -150.5t-233 -105t-308 -38q-287 0 -441.5 132.5t-154.5 369.5z" />
    <glyph glyph-name="uniFC44" unicode="&#xfc44;" horiz-adv-x="1617" arabic-form="isolated" 
d="M113 -45q0 230 155 627l133 -52q-124 -352 -127 -544q0 -326 447 -326q136 0 245.5 24t175 62.5t100 82.5t34.5 89q0 27 -22.5 51.5t-49.5 30.5q-55 17 -126.5 26t-276.5 27l45 180q91 -1 157.5 2.5t121 11.5t91 24t62.5 37t39.5 53.5t19.5 71t6 91.5l-4 951l166 20
l2 -973q0 -148 -42 -244t-136 -151q55 -32 85 -85.5t30 -119.5q0 -91 -51 -175.5t-143 -150.5t-233 -105t-308 -38q-287 0 -441.5 132.5t-154.5 369.5zM877 -915l-136 102v10l97 129h10l135 -102v-10l-96 -129h-10zM596 -946l-137 102v10l96 127h12l135 -100v-10l-98 -129
h-8z" />
    <glyph glyph-name="uniFC4E" unicode="&#xfc4e;" horiz-adv-x="1536" arabic-form="isolated" 
d="M1077 1192h-10l-147 113v10l104 139h12l148 -111v-10zM639 623q109 167 314 255.5t470 86.5v-189q-365 6 -565 -155q174 -34 285.5 -161t111.5 -323q0 -205 -103.5 -323.5t-260.5 -118.5q-76 0 -140 29.5t-109 80t-76 119.5t-43 147.5t-7.5 164.5t27.5 170
q-121 -44 -194 -144t-73 -256v-637l-163 -22v649q0 135 43.5 248t117.5 189.5t167 125t198 64.5zM1102 137q0 144 -105 222.5t-260 78.5h-10q-39 -90 -49 -187.5t8.5 -177.5t72 -132t132.5 -52q89 0 150 65.5t61 182.5z" />
    <glyph glyph-name="uniFC4F" unicode="&#xfc4f;" horiz-adv-x="1626" arabic-form="isolated" 
d="M1294 1225l-147 110v13l104 139h13l147 -111v-10l-104 -141h-13zM113 -96q0 232 153 624l129 -49q-125 -353 -125 -542q-2 -162 109.5 -245t339.5 -83q110 0 203 16t157 42t109.5 60t66.5 70t21 72q0 28 -23 53t-49 31q-57 17 -128 26t-273 27l41 176q17 0 65.5 -1
t85.5 -1q201 5 289.5 58.5t85.5 179.5q-2 94 -19.5 201.5t-66.5 306.5l158 53q50 -225 66 -332.5t16 -212.5q1 -138 -45 -227t-144 -139q111 -67 111 -195q0 -194 -203.5 -331t-535.5 -136q-286 0 -440 131.5t-154 366.5z" />
    <glyph glyph-name="uniFC50" unicode="&#xfc50;" horiz-adv-x="1626" arabic-form="isolated" 
d="M1294 1225l-147 110v13l104 139h13l147 -111v-10l-104 -141h-13zM113 -96q0 232 153 624l129 -49q-125 -353 -125 -542q-2 -162 109.5 -245t339.5 -83q110 0 203 16t157 42t109.5 60t66.5 70t21 72q0 28 -23 53t-49 31q-57 17 -128 26t-273 27l41 176q17 0 65.5 -1
t85.5 -1q201 5 289.5 58.5t85.5 179.5q-2 94 -19.5 201.5t-66.5 306.5l158 53q50 -225 66 -332.5t16 -212.5q1 -138 -45 -227t-144 -139q111 -67 111 -195q0 -194 -203.5 -331t-535.5 -136q-286 0 -440 131.5t-154 366.5zM852 -907l-135 102v10l96 127h10l138 -100v-10
l-99 -129h-10zM571 -938l-135 102v11l96 127h11l135 -101v-10l-96 -129h-11z" />
    <glyph glyph-name="uniFC58" unicode="&#xfc58;" horiz-adv-x="1536" arabic-form="isolated" 
d="M639 623q109 167 314 255.5t470 86.5v-189q-365 6 -565 -155q174 -34 285.5 -161t111.5 -323q0 -205 -103.5 -323.5t-260.5 -118.5q-76 0 -140 29.5t-109 80t-76 119.5t-43 147.5t-7.5 164.5t27.5 170q-121 -44 -194 -144t-73 -256v-637l-163 -22v649q0 135 43.5 248
t117.5 189.5t167 125t198 64.5zM1102 137q0 144 -105 222.5t-260 78.5h-10q-39 -90 -49 -187.5t8.5 -177.5t72 -132t132.5 -52q89 0 150 65.5t61 182.5zM1561 -281l137 -102v-10l-99 -129h-10l-135 102v12l96 127h11zM1270 -311h10l135 -103v-10l-96 -129h-10l-135 102v13z
" />
    <glyph glyph-name="uniFC59" unicode="&#xfc59;" horiz-adv-x="1626" arabic-form="isolated" 
d="M113 -96q0 232 153 624l129 -49q-125 -353 -125 -542q-2 -162 109.5 -245t339.5 -83q110 0 203 16t157 42t109.5 60t66.5 70t21 72q0 28 -23 53t-49 31q-57 17 -128 26t-273 27l41 176q17 0 65.5 -1t85.5 -1q201 5 289.5 58.5t85.5 179.5q-2 94 -19.5 201.5t-66.5 306.5
l158 53q50 -225 66 -332.5t16 -212.5q1 -138 -45 -227t-144 -139q111 -67 111 -195q0 -194 -203.5 -331t-535.5 -136q-286 0 -440 131.5t-154 366.5zM1655 -782l-137 102v10l96 127h12l135 -100v-10l-98 -129h-8zM1372 -813l-135 102v11l96 127h10l138 -101v-10l-99 -129
h-10z" />
    <glyph glyph-name="uniFC64" unicode="&#xfc64;" horiz-adv-x="1945" arabic-form="final" 
d="M983 848l-2 96l131 31q-42 75 -39 155q2 96 55.5 162.5t139.5 63.5q97 0 192 -109l-45 -61q-31 24 -48 35.5t-42 21t-51 10.5q-51 0 -81 -31.5t-30 -86.5q-3 -71 45 -136l332 80l2 -94zM1946 203q41 0 71.5 -31t30.5 -72q0 -40 -30.5 -71t-71.5 -31q-238 0 -356 108
t-130 334q-307 -84 -467 -84q-112 0 -174 41q31 -126 31 -260q0 -307 -170 -481t-498 -178h-65l-4 157q9 1 28.5 2.5t28.5 2.5q260 17 385 136.5t125 340.5q0 158 -92 524l162 64q22 -103 72.5 -142t168.5 -39q146 0 463 88l-6 172l145 15l19 -277q12 -184 81.5 -251.5
t252.5 -67.5z" />
    <glyph glyph-name="uniFC65" unicode="&#xfc65;" horiz-adv-x="1945" arabic-form="final" 
d="M985 850l-2 96l131 31q-42 75 -39 156q2 96 55.5 162t139.5 63q93 0 194 -107l-47 -61q-44 33 -73.5 48.5t-65.5 16.5q-51 0 -81.5 -31.5t-31.5 -86.5q-3 -71 45 -136l332 80l2 -94zM680 920h-12l-148 110v12l105 140h12l147 -111v-10zM1946 203q41 0 71.5 -31t30.5 -72
q0 -40 -30.5 -71t-71.5 -31q-238 0 -356 108t-130 334q-307 -84 -467 -84q-112 0 -174 41q31 -126 31 -260q0 -307 -170 -481t-498 -178h-65l-4 157q9 1 28.5 2.5t28.5 2.5q260 17 385 136.5t125 340.5q0 158 -92 524l162 64q22 -103 72.5 -142t168.5 -39q146 0 463 88
l-6 172l145 15l19 -277q12 -184 81.5 -251.5t252.5 -67.5z" />
    <glyph glyph-name="uniFC66" unicode="&#xfc66;" horiz-adv-x="1904" arabic-form="final" 
d="M743 1063l-2 96l129 33q-44 73 -41 156q0 96 52.5 163t138.5 66q96 0 194 -104l-45 -64q-34 25 -49 34.5t-40.5 19.5t-51.5 10q-50 0 -79 -32t-31 -87q0 -73 49 -135l329 86l4 -95zM1905 203q41 0 70.5 -30.5t29.5 -72.5q0 -40 -30 -71t-70 -31q-128 0 -219 28.5t-159 94
t-102.5 178t-38.5 276.5l-2 152q0 40 -47 37q-297 -6 -475 -158q22 -4 29 -8q160 -44 262 -165t102 -306q0 -205 -103.5 -323.5t-260.5 -118.5q-90 0 -163 42t-118 113.5t-68.5 161.5t-20 191.5t33.5 197.5q-122 -35 -200 -135.5t-79 -259.5l-6 -625l-157 -24v639
q0 135 43 248t116.5 188.5t165 122.5t193.5 63q107 166 307 254t457 90q65 2 103.5 -32t41.5 -101l8 -223q4 -100 18.5 -168t39.5 -113t68.5 -69t96.5 -33.5t134 -9.5zM1102 127q0 127 -89.5 207.5t-240.5 91.5q-6 0 -19 1t-20 1q-41 -86 -52.5 -183t6.5 -178t71 -134.5
t133 -53.5q88 0 149.5 66t61.5 182z" />
    <glyph glyph-name="uniFC67" unicode="&#xfc67;" horiz-adv-x="2541" arabic-form="final" 
d="M1552 838l-2 94l131 33q-42 67 -39 155q2 95 55.5 162t139.5 64q98 -3 193 -109l-45 -61q-32 23 -48.5 34t-42 20.5t-51.5 10.5q-51 0 -80.5 -31.5t-29.5 -85.5q-3 -73 45 -137l331 82l2 -96zM743 631h-12l-147 110v13l104 139h12l148 -111v-10zM2542 203
q41 0 70.5 -30.5t29.5 -72.5q0 -40 -30 -71t-70 -31q-245 0 -365.5 109.5t-132.5 338.5q-115 -33 -203.5 -53.5t-180 -31t-162 1.5t-116.5 47q41 -277 35 -408q-8 -262 -197.5 -404t-541.5 -139q-273 1 -419 133t-146 355q0 250 155 641l133 -51q-130 -361 -127 -564
q2 -141 102 -222t312 -85q69 -1 140 6.5t150 31t139.5 59.5t100 98t39.5 141q0 91 -27.5 282.5t-60.5 362.5l158 53q26 -104 100 -144t218 -27t395 83l-6 172l143 15l18 -277q12 -181 85.5 -250t261.5 -69z" />
    <glyph glyph-name="uniFC68" unicode="&#xfc68;" horiz-adv-x="1923" arabic-form="final" 
d="M915 858l-4 96l131 35q-43 68 -43 154q2 95 54 161.5t137 65.5q95 3 196 -104l-45 -62q-34 25 -49 34.5t-40.5 19.5t-51.5 10q-51 0 -80.5 -32.5t-29.5 -86.5q0 -73 49 -135l329 86l5 -94zM1923 203q41 0 70.5 -30.5t29.5 -72.5q0 -40 -30 -71t-70 -31
q-239 0 -357.5 134.5t-131.5 375.5q-4 27 -4 78q-2 24 -8.5 32.5t-24.5 8.5q-112 0 -255 -72t-214 -162q-25 -36 -25 -59q-2 -33 31.5 -52t150.5 -44q190 -39 279 -99t96 -172v-55q-3 -71 -31.5 -137t-87.5 -126.5t-143.5 -105.5t-208 -72t-272.5 -28q-299 3 -453.5 136.5
t-154.5 365.5q0 235 155 628l133 -51q-122 -349 -125 -545q-2 -152 114 -238.5t347 -86.5q131 0 241 25.5t175 64t100 79t35 73.5q0 27 -9 45.5t-37.5 39.5t-88 40.5t-154.5 39.5q-87 18 -145 41.5t-87.5 51.5t-40.5 55.5t-11 62.5q0 107 75 211q102 143 293.5 240.5
t356.5 97.5q69 0 110.5 -38t44.5 -103q0 -53 6 -113q13 -362 326 -362z" />
    <glyph glyph-name="uniFC69" unicode="&#xfc69;" horiz-adv-x="1923" arabic-form="final" 
d="M920 858l-2 96l129 35q-44 70 -41 156q0 95 52 161.5t138 65.5q97 0 195 -104l-45 -62q-36 25 -49.5 33.5t-40 19t-52.5 11.5q-51 -1 -79.5 -33t-30.5 -88q0 -75 51 -135l328 86l4 -94zM1923 203q41 0 70.5 -30.5t29.5 -72.5q0 -40 -30 -71t-70 -31q-239 0 -357.5 134.5
t-131.5 375.5q-4 27 -4 78q-2 24 -8.5 32.5t-24.5 8.5q-112 0 -255 -72t-214 -162q-25 -36 -25 -59q-2 -33 31.5 -52t150.5 -44q190 -39 279 -99t96 -172v-55q-3 -71 -31.5 -137t-87.5 -126.5t-143.5 -105.5t-208 -72t-272.5 -28q-299 3 -453.5 136.5t-154.5 365.5
q0 235 155 628l133 -51q-122 -349 -125 -545q-2 -152 114 -238.5t347 -86.5q131 0 241 25.5t175 64t100 79t35 73.5q0 27 -9 45.5t-37.5 39.5t-88 40.5t-154.5 39.5q-87 18 -145 41.5t-87.5 51.5t-40.5 55.5t-11 62.5q0 107 75 211q102 143 293.5 240.5t356.5 97.5
q69 0 110.5 -38t44.5 -103q0 -53 6 -113q13 -362 326 -362zM879 -748h10l135 -100v-10l-96 -129h-10l-136 102v11zM596 -778h12l135 -101v-10l-96 -129h-10l-137 103v10z" />
    <glyph glyph-name="uniFC6A" unicode="&#xfc6a;" horiz-adv-x="1945" arabic-form="final" 
d="M1946 203q41 0 71.5 -31t30.5 -72q0 -40 -30.5 -71t-71.5 -31q-238 0 -356 108t-130 334q-307 -84 -467 -84q-112 0 -174 41q31 -126 31 -260q0 -307 -170 -481t-498 -178h-65l-4 157q9 1 28.5 2.5t28.5 2.5q260 17 385 136.5t125 340.5q0 158 -92 524l162 64
q22 -103 72.5 -142t168.5 -39q146 0 463 88l-6 172l145 15l19 -277q12 -184 81.5 -251.5t252.5 -67.5zM1313 -145h12l148 -109v-12l-105 -140h-12l-148 111v12z" />
    <glyph glyph-name="uniFC6B" unicode="&#xfc6b;" horiz-adv-x="1945" arabic-form="final" 
d="M682 887h-10l-148 110v13l105 137h12l147 -111v-10zM1946 203q41 0 71.5 -31t30.5 -72q0 -40 -30.5 -71t-71.5 -31q-238 0 -356 108t-130 334q-307 -84 -467 -84q-112 0 -174 41q31 -126 31 -260q0 -307 -170 -481t-498 -178h-65l-4 157q9 1 28.5 2.5t28.5 2.5
q260 17 385 136.5t125 340.5q0 158 -92 524l162 64q22 -103 72.5 -142t168.5 -39q146 0 463 88l-6 172l145 15l19 -277q12 -184 81.5 -251.5t252.5 -67.5zM1313 -145h12l148 -109v-12l-105 -140h-12l-148 111v12z" />
    <glyph glyph-name="uniFC6C" unicode="&#xfc6c;" horiz-adv-x="1904" arabic-form="final" 
d="M113 -653v639q0 135 43 248t116.5 188.5t165 122.5t193.5 63q107 166 307 254t457 90q65 2 103.5 -32t41.5 -101l8 -223q4 -100 18.5 -168t39.5 -113t68.5 -69t96.5 -33.5t134 -9.5q41 0 70.5 -30.5t29.5 -72.5q0 -40 -30 -71t-70 -31q-128 0 -219 28.5t-159 94
t-102.5 178t-38.5 276.5l-2 152q0 40 -47 37q-297 -6 -475 -158q22 -4 29 -8q160 -44 262 -165t102 -306q0 -205 -103.5 -323.5t-260.5 -118.5q-90 0 -163 42t-118 113.5t-68.5 161.5t-20 191.5t33.5 197.5q-122 -35 -200 -135.5t-79 -259.5l-6 -625zM733 428
q-41 -86 -52.5 -183t6.5 -178t71 -134.5t133 -53.5q88 0 149.5 66t61.5 182q0 127 -89.5 207.5t-240.5 91.5q-6 0 -19 1t-20 1zM1511 -526l-147 110v13l104 137h13l147 -111v-10l-104 -139h-13z" />
    <glyph glyph-name="uniFC6D" unicode="&#xfc6d;" horiz-adv-x="2541" arabic-form="final" 
d="M743 631h-12l-147 110v13l104 139h12l148 -111v-10zM2542 203q41 0 70.5 -30.5t29.5 -72.5q0 -40 -30 -71t-70 -31q-245 0 -365.5 109.5t-132.5 338.5q-115 -33 -203.5 -53.5t-180 -31t-162 1.5t-116.5 47q41 -277 35 -408q-8 -262 -197.5 -404t-541.5 -139
q-273 1 -419 133t-146 355q0 250 155 641l133 -51q-130 -361 -127 -564q2 -141 102 -222t312 -85q69 -1 140 6.5t150 31t139.5 59.5t100 98t39.5 141q0 91 -27.5 282.5t-60.5 362.5l158 53q26 -104 100 -144t218 -27t395 83l-6 172l143 15l18 -277q12 -181 85.5 -250
t261.5 -69zM1835 -131h12l148 -111v-10l-105 -139h-12l-147 110v13z" />
    <glyph glyph-name="uniFC6E" unicode="&#xfc6e;" horiz-adv-x="1923" arabic-form="final" 
d="M717 -557q-299 3 -453.5 136.5t-154.5 365.5q0 235 155 628l133 -51q-122 -349 -125 -545q-2 -152 114 -238.5t347 -86.5q131 0 241 25.5t175 64t100 79t35 73.5q0 27 -9 45.5t-37.5 39.5t-88 40.5t-154.5 39.5q-87 18 -145 41.5t-87.5 51.5t-40.5 55.5t-11 62.5
q0 107 75 211q102 143 293.5 240.5t356.5 97.5q69 0 110.5 -38t44.5 -103q0 -53 6 -113q13 -362 326 -362q41 0 70.5 -30.5t29.5 -72.5q0 -40 -30 -71t-70 -31q-239 0 -357.5 134.5t-131.5 375.5q-4 27 -4 78q-2 24 -8.5 32.5t-24.5 8.5q-112 0 -255 -72t-214 -162
q-25 -36 -25 -59q-2 -33 31.5 -52t150.5 -44q190 -39 279 -99t96 -172v-55q-3 -71 -31.5 -137t-87.5 -126.5t-143.5 -105.5t-208 -72t-272.5 -28zM1640 -580l-147 111v12l104 138h13l147 -109v-12l-106 -140h-11z" />
    <glyph glyph-name="uniFC6F" unicode="&#xfc6f;" horiz-adv-x="1923" arabic-form="final" 
d="M717 -557q-299 3 -453.5 136.5t-154.5 365.5q0 235 155 628l133 -51q-122 -349 -125 -545q-2 -152 114 -238.5t347 -86.5q131 0 241 25.5t175 64t100 79t35 73.5q0 27 -9 45.5t-37.5 39.5t-88 40.5t-154.5 39.5q-87 18 -145 41.5t-87.5 51.5t-40.5 55.5t-11 62.5
q0 107 75 211q102 143 293.5 240.5t356.5 97.5q69 0 110.5 -38t44.5 -103q0 -53 6 -113q13 -362 326 -362q41 0 70.5 -30.5t29.5 -72.5q0 -40 -30 -71t-70 -31q-239 0 -357.5 134.5t-131.5 375.5q-4 27 -4 78q-2 24 -8.5 32.5t-24.5 8.5q-112 0 -255 -72t-214 -162
q-25 -36 -25 -59q-2 -33 31.5 -52t150.5 -44q190 -39 279 -99t96 -172v-55q-3 -71 -31.5 -137t-87.5 -126.5t-143.5 -105.5t-208 -72t-272.5 -28zM1679 -623l-147 113v12l104 138h13l147 -111v-10l-106 -142h-11zM920 -1008l-136 103v12l97 127h10l135 -102v-11l-96 -129
h-10zM639 -1038l-137 102v10l96 127h12l135 -100v-10l-96 -129h-10z" />
    <glyph glyph-name="uniFC70" unicode="&#xfc70;" horiz-adv-x="1945" arabic-form="final" 
d="M1530 1010h-10l-138 102v12l99 127h10l135 -102v-10zM1247 979h-8l-137 102v13l96 127h12l136 -103v-10zM1946 203q41 0 71.5 -31t30.5 -72q0 -40 -30.5 -71t-71.5 -31q-238 0 -356 108t-130 334q-307 -84 -467 -84q-112 0 -174 41q31 -126 31 -260q0 -307 -170 -481
t-498 -178h-65l-4 157q9 1 28.5 2.5t28.5 2.5q260 17 385 136.5t125 340.5q0 158 -92 524l162 64q22 -103 72.5 -142t168.5 -39q146 0 463 88l-6 172l145 15l19 -277q12 -184 81.5 -251.5t252.5 -67.5z" />
    <glyph glyph-name="uniFC71" unicode="&#xfc71;" horiz-adv-x="1945" arabic-form="final" 
d="M1538 1016h-10l-135 102v10l96 127h10l137 -100v-10zM1257 985h-10l-135 102v11l96 127h11l135 -103v-8zM637 958h-10l-148 111v12l105 138h12l147 -111v-10zM1946 203q41 0 71.5 -31t30.5 -72q0 -40 -30.5 -71t-71.5 -31q-238 0 -356 108t-130 334q-307 -84 -467 -84
q-112 0 -174 41q31 -126 31 -260q0 -307 -170 -481t-498 -178h-65l-4 157q9 1 28.5 2.5t28.5 2.5q260 17 385 136.5t125 340.5q0 158 -92 524l162 64q22 -103 72.5 -142t168.5 -39q146 0 463 88l-6 172l145 15l19 -277q12 -184 81.5 -251.5t252.5 -67.5z" />
    <glyph glyph-name="uniFC72" unicode="&#xfc72;" horiz-adv-x="1904" arabic-form="final" 
d="M1294 1163l-141 107v12l100 133h13l141 -106v-11l-102 -135h-11zM1006 1133l-144 106v12l103 133h10l143 -106v-10l-102 -135h-10zM113 -653v639q0 135 43 248t116.5 188.5t165 122.5t193.5 63q107 166 307 254t457 90q65 2 103.5 -32t41.5 -101l8 -223q4 -100 18.5 -168
t39.5 -113t68.5 -69t96.5 -33.5t134 -9.5q41 0 70.5 -30.5t29.5 -72.5q0 -40 -30 -71t-70 -31q-128 0 -219 28.5t-159 94t-102.5 178t-38.5 276.5l-2 152q0 40 -47 37q-297 -6 -475 -158q22 -4 29 -8q160 -44 262 -165t102 -306q0 -205 -103.5 -323.5t-260.5 -118.5
q-90 0 -163 42t-118 113.5t-68.5 161.5t-20 191.5t33.5 197.5q-122 -35 -200 -135.5t-79 -259.5l-6 -625zM733 428q-41 -86 -52.5 -183t6.5 -178t71 -134.5t133 -53.5q88 0 149.5 66t61.5 182q0 127 -89.5 207.5t-240.5 91.5q-6 0 -19 1t-20 1z" />
    <glyph glyph-name="uniFC73" unicode="&#xfc73;" horiz-adv-x="2541" arabic-form="final" 
d="M2066 1040h-10l-141 109v10l100 133h13l141 -106v-10zM1778 1010h-11l-143 106v12l100 134h13l141 -107v-10zM743 631h-12l-147 110v13l104 139h12l148 -111v-10zM2542 203q41 0 70.5 -30.5t29.5 -72.5q0 -40 -30 -71t-70 -31q-245 0 -365.5 109.5t-132.5 338.5
q-115 -33 -203.5 -53.5t-180 -31t-162 1.5t-116.5 47q41 -277 35 -408q-8 -262 -197.5 -404t-541.5 -139q-273 1 -419 133t-146 355q0 250 155 641l133 -51q-130 -361 -127 -564q2 -141 102 -222t312 -85q69 -1 140 6.5t150 31t139.5 59.5t100 98t39.5 141q0 91 -27.5 282.5
t-60.5 362.5l158 53q26 -104 100 -144t218 -27t395 83l-6 172l143 15l18 -277q12 -181 85.5 -250t261.5 -69z" />
    <glyph glyph-name="uniFC74" unicode="&#xfc74;" horiz-adv-x="1923" arabic-form="final" 
d="M1323 1034l-141 109v10l100 133h12l142 -106v-11l-103 -135h-10zM1034 1004l-143 106v12l100 133h13l141 -106v-10l-101 -135h-10zM717 -557q-299 3 -453.5 136.5t-154.5 365.5q0 235 155 628l133 -51q-122 -349 -125 -545q-2 -152 114 -238.5t347 -86.5q131 0 241 25.5
t175 64t100 79t35 73.5q0 27 -9 45.5t-37.5 39.5t-88 40.5t-154.5 39.5q-87 18 -145 41.5t-87.5 51.5t-40.5 55.5t-11 62.5q0 107 75 211q102 143 293.5 240.5t356.5 97.5q69 0 110.5 -38t44.5 -103q0 -53 6 -113q13 -362 326 -362q41 0 70.5 -30.5t29.5 -72.5
q0 -40 -30 -71t-70 -31q-239 0 -357.5 134.5t-131.5 375.5q-4 27 -4 78q-2 24 -8.5 32.5t-24.5 8.5q-112 0 -255 -72t-214 -162q-25 -36 -25 -59q-2 -33 31.5 -52t150.5 -44q190 -39 279 -99t96 -172v-55q-3 -71 -31.5 -137t-87.5 -126.5t-143.5 -105.5t-208 -72t-272.5 -28
z" />
    <glyph glyph-name="uniFC75" unicode="&#xfc75;" horiz-adv-x="1923" arabic-form="final" 
d="M1346 1036l-142 107v12l101 133h12l141 -106v-11l-102 -135h-10zM1057 1004l-144 108v10l103 133h10l143 -106v-10l-102 -135h-10zM717 -557q-299 3 -453.5 136.5t-154.5 365.5q0 235 155 628l133 -51q-122 -349 -125 -545q-2 -152 114 -238.5t347 -86.5q131 0 241 25.5
t175 64t100 79t35 73.5q0 27 -9 45.5t-37.5 39.5t-88 40.5t-154.5 39.5q-87 18 -145 41.5t-87.5 51.5t-40.5 55.5t-11 62.5q0 107 75 211q102 143 293.5 240.5t356.5 97.5q69 0 110.5 -38t44.5 -103q0 -53 6 -113q13 -362 326 -362q41 0 70.5 -30.5t29.5 -72.5
q0 -40 -30 -71t-70 -31q-239 0 -357.5 134.5t-131.5 375.5q-4 27 -4 78q-2 24 -8.5 32.5t-24.5 8.5q-112 0 -255 -72t-214 -162q-25 -36 -25 -59q-2 -33 31.5 -52t150.5 -44q190 -39 279 -99t96 -172v-55q-3 -71 -31.5 -137t-87.5 -126.5t-143.5 -105.5t-208 -72t-272.5 -28
zM899 -991l-135 102v10l96 129h10l136 -102v-10l-97 -129h-10zM618 -1022l-137 102v11l97 127h12l135 -101v-10l-96 -129h-11z" />
    <glyph glyph-name="uniFC76" unicode="&#xfc76;" horiz-adv-x="1945" arabic-form="final" 
d="M1382 1151h-10l-131 100v11l94 122h11l131 -98v-10zM1411 1020v12l96 127h11l135 -102v-10l-97 -127h-10zM1276 889h-10l-136 100v12l97 127h10l135 -102v-10zM1946 203q41 0 71.5 -31t30.5 -72q0 -40 -30.5 -71t-71.5 -31q-238 0 -356 108t-130 334q-307 -84 -467 -84
q-112 0 -174 41q31 -126 31 -260q0 -307 -170 -481t-498 -178h-65l-4 157q9 1 28.5 2.5t28.5 2.5q260 17 385 136.5t125 340.5q0 158 -92 524l162 64q22 -103 72.5 -142t168.5 -39q146 0 463 88l-6 172l145 15l19 -277q12 -184 81.5 -251.5t252.5 -67.5z" />
    <glyph glyph-name="uniFC77" unicode="&#xfc77;" horiz-adv-x="1945" arabic-form="final" 
d="M1389 1161h-11l-131 101v10l92 123h11l133 -99v-10zM1415 1030v12l96 127h13l135 -102v-10l-98 -127h-11zM1280 897h-10l-135 102v13l96 127h10l137 -103v-10zM676 877h-12l-148 110v12l107 138h10l147 -111v-10zM1946 203q41 0 71.5 -31t30.5 -72q0 -40 -30.5 -71
t-71.5 -31q-238 0 -356 108t-130 334q-307 -84 -467 -84q-112 0 -174 41q31 -126 31 -260q0 -307 -170 -481t-498 -178h-65l-4 157q9 1 28.5 2.5t28.5 2.5q260 17 385 136.5t125 340.5q0 158 -92 524l162 64q22 -103 72.5 -142t168.5 -39q146 0 463 88l-6 172l145 15
l19 -277q12 -184 81.5 -251.5t252.5 -67.5z" />
    <glyph glyph-name="uniFC78" unicode="&#xfc78;" horiz-adv-x="1904" arabic-form="final" 
d="M1106 1436l-131 100v10l92 123h10l133 -98v-10l-94 -125h-10zM1278 1204l-135 101v12l96 127h12l135 -103v-10l-98 -127h-10zM997 1174l-135 100v12l96 127h11l137 -102v-11l-98 -126h-11zM113 -653v639q0 135 43 248t116.5 188.5t165 122.5t193.5 63q107 166 307 254
t457 90q65 2 103.5 -32t41.5 -101l8 -223q4 -100 18.5 -168t39.5 -113t68.5 -69t96.5 -33.5t134 -9.5q41 0 70.5 -30.5t29.5 -72.5q0 -40 -30 -71t-70 -31q-128 0 -219 28.5t-159 94t-102.5 178t-38.5 276.5l-2 152q0 40 -47 37q-297 -6 -475 -158q22 -4 29 -8
q160 -44 262 -165t102 -306q0 -205 -103.5 -323.5t-260.5 -118.5q-90 0 -163 42t-118 113.5t-68.5 161.5t-20 191.5t33.5 197.5q-122 -35 -200 -135.5t-79 -259.5l-6 -625zM733 428q-41 -86 -52.5 -183t6.5 -178t71 -134.5t133 -53.5q88 0 149.5 66t61.5 182
q0 127 -89.5 207.5t-240.5 91.5q-6 0 -19 1t-20 1z" />
    <glyph glyph-name="uniFC79" unicode="&#xfc79;" horiz-adv-x="2541" arabic-form="final" 
d="M1845 1200h-10l-131 98v11l92 123h12l131 -99v-8zM1872 1069v10l96 127h12l136 -102v-8l-99 -129h-8zM1737 936h-11l-135 102v11l97 127h12l135 -103v-8zM743 631h-12l-147 110v13l104 139h12l148 -111v-10zM2542 203q41 0 70.5 -30.5t29.5 -72.5q0 -40 -30 -71t-70 -31
q-245 0 -365.5 109.5t-132.5 338.5q-115 -33 -203.5 -53.5t-180 -31t-162 1.5t-116.5 47q41 -277 35 -408q-8 -262 -197.5 -404t-541.5 -139q-273 1 -419 133t-146 355q0 250 155 641l133 -51q-130 -361 -127 -564q2 -141 102 -222t312 -85q69 -1 140 6.5t150 31t139.5 59.5
t100 98t39.5 141q0 91 -27.5 282.5t-60.5 362.5l158 53q26 -104 100 -144t218 -27t395 83l-6 172l143 15l18 -277q12 -181 85.5 -250t261.5 -69z" />
    <glyph glyph-name="uniFC7A" unicode="&#xfc7a;" horiz-adv-x="1923" arabic-form="final" 
d="M1122 1272l-131 100v10l92 123h11l133 -98v-10l-97 -125h-8zM1294 1038l-135 103v12l96 127h11l137 -102v-11l-98 -129h-11zM1014 1008l-135 102v12l96 127h10l137 -102v-10l-98 -129h-10zM717 -557q-299 3 -453.5 136.5t-154.5 365.5q0 235 155 628l133 -51
q-122 -349 -125 -545q-2 -152 114 -238.5t347 -86.5q131 0 241 25.5t175 64t100 79t35 73.5q0 27 -9 45.5t-37.5 39.5t-88 40.5t-154.5 39.5q-87 18 -145 41.5t-87.5 51.5t-40.5 55.5t-11 62.5q0 107 75 211q102 143 293.5 240.5t356.5 97.5q69 0 110.5 -38t44.5 -103
q0 -53 6 -113q13 -362 326 -362q41 0 70.5 -30.5t29.5 -72.5q0 -40 -30 -71t-70 -31q-239 0 -357.5 134.5t-131.5 375.5q-4 27 -4 78q-2 24 -8.5 32.5t-24.5 8.5q-112 0 -255 -72t-214 -162q-25 -36 -25 -59q-2 -33 31.5 -52t150.5 -44q190 -39 279 -99t96 -172v-55
q-3 -71 -31.5 -137t-87.5 -126.5t-143.5 -105.5t-208 -72t-272.5 -28z" />
    <glyph glyph-name="uniFC7B" unicode="&#xfc7b;" horiz-adv-x="1923" arabic-form="final" 
d="M1137 1270l-131 100v10l94 123h10l131 -98v-10l-94 -125h-10zM1311 1038l-135 101v12l96 127h10l135 -102v-11l-96 -127h-10zM1030 1008l-137 100v12l96 127h12l136 -102v-10l-99 -127h-8zM717 -557q-299 3 -453.5 136.5t-154.5 365.5q0 235 155 628l133 -51
q-122 -349 -125 -545q-2 -152 114 -238.5t347 -86.5q131 0 241 25.5t175 64t100 79t35 73.5q0 27 -9 45.5t-37.5 39.5t-88 40.5t-154.5 39.5q-87 18 -145 41.5t-87.5 51.5t-40.5 55.5t-11 62.5q0 107 75 211q102 143 293.5 240.5t356.5 97.5q69 0 110.5 -38t44.5 -103
q0 -53 6 -113q13 -362 326 -362q41 0 70.5 -30.5t29.5 -72.5q0 -40 -30 -71t-70 -31q-239 0 -357.5 134.5t-131.5 375.5q-4 27 -4 78q-2 24 -8.5 32.5t-24.5 8.5q-112 0 -255 -72t-214 -162q-25 -36 -25 -59q-2 -33 31.5 -52t150.5 -44q190 -39 279 -99t96 -172v-55
q-3 -71 -31.5 -137t-87.5 -126.5t-143.5 -105.5t-208 -72t-272.5 -28zM897 -1006l-135 103v10l96 127h10l136 -100v-11l-97 -129h-10zM616 -1036l-137 102v10l96 127h13l135 -102v-8l-96 -129h-11z" />
    <glyph glyph-name="uniFC83" unicode="&#xfc83;" horiz-adv-x="2000" arabic-form="final" 
d="M719 -547q-300 0 -453 133t-153 369q0 230 155 627l133 -52q-124 -352 -127 -544q0 -326 447 -326q136 0 245.5 24t175 62.5t100 82.5t34.5 89q0 63 -72 82q-55 17 -126.5 26t-276.5 27l45 180h69q110 0 217.5 13.5t157.5 34.5q34 12 49.5 32t16.5 56q3 44 -47 123
q-63 96 -225.5 248t-329.5 268l18 206l809 314l18 -182l-638 -261q169 -142 282.5 -256t206.5 -229q155 -192 212 -250q102 -103 206 -131q58 -16 133 -16q42 0 71 -30.5t29 -72.5q0 -41 -29.5 -71.5t-70.5 -30.5q-165 0 -277.5 62.5t-232.5 213.5q-21 -106 -141 -163
q94 -67 94 -189q0 -91 -50 -175.5t-141 -150.5t-230 -105t-304 -38z" />
    <glyph glyph-name="uniFC84" unicode="&#xfc84;" horiz-adv-x="2000" arabic-form="final" 
d="M719 -547q-300 0 -453 133t-153 369q0 230 155 627l133 -52q-124 -352 -127 -544q0 -326 447 -326q136 0 245.5 24t175 62.5t100 82.5t34.5 89q0 63 -72 82q-55 17 -126.5 26t-276.5 27l45 180h69q110 0 217.5 13.5t157.5 34.5q34 12 49.5 32t16.5 56q3 44 -47 123
q-63 96 -225.5 248t-329.5 268l18 206l809 314l18 -182l-638 -261q169 -142 282.5 -256t206.5 -229q155 -192 212 -250q102 -103 206 -131q58 -16 133 -16q42 0 71 -30.5t29 -72.5q0 -41 -29.5 -71.5t-70.5 -30.5q-165 0 -277.5 62.5t-232.5 213.5q-21 -106 -141 -163
q94 -67 94 -189q0 -91 -50 -175.5t-141 -150.5t-230 -105t-304 -38zM936 -944l-135 102v11l96 126h10l137 -102v-8l-98 -129h-10zM655 -975l-135 101v12l96 127h11l135 -103v-10l-96 -127h-11z" />
    <glyph glyph-name="uniFC86" unicode="&#xfc86;" horiz-adv-x="1830" arabic-form="final" 
d="M113 -45q0 230 155 627l133 -52q-124 -352 -127 -544q0 -326 447 -326q136 0 245.5 24t175 62.5t100 82.5t34.5 89q0 27 -22.5 51.5t-49.5 30.5q-55 17 -126.5 26t-276.5 27l45 180h88q123 2 199 15.5t126.5 47t70 88t18.5 140.5l-13 949l170 18l2 -944q0 -78 -8 -133
q47 -103 136 -152t196 -49q42 0 71 -30.5t29 -71.5q0 -42 -29.5 -72.5t-70.5 -30.5q-115 0 -216.5 61t-170.5 171q-38 -71 -115 -113q115 -67 115 -205q0 -91 -51 -175.5t-143 -150.5t-233 -105t-308 -38q-287 0 -441.5 132.5t-154.5 369.5z" />
    <glyph glyph-name="uniFC87" unicode="&#xfc87;" horiz-adv-x="1830" arabic-form="final" 
d="M113 -45q0 230 155 627l133 -52q-124 -352 -127 -544q0 -326 447 -326q136 0 245.5 24t175 62.5t100 82.5t34.5 89q0 27 -22.5 51.5t-49.5 30.5q-55 17 -126.5 26t-276.5 27l45 180h88q123 2 199 15.5t126.5 47t70 88t18.5 140.5l-13 949l170 18l2 -944q0 -78 -8 -133
q47 -103 136 -152t196 -49q42 0 71 -30.5t29 -71.5q0 -42 -29.5 -72.5t-70.5 -30.5q-115 0 -216.5 61t-170.5 171q-38 -71 -115 -113q115 -67 115 -205q0 -91 -51 -175.5t-143 -150.5t-233 -105t-308 -38q-287 0 -441.5 132.5t-154.5 369.5z" />
    <glyph glyph-name="uniFC8A" unicode="&#xfc8a;" horiz-adv-x="1945" arabic-form="final" 
d="M1544 973h-12l-148 110v13l105 137h12l148 -111v-10zM1946 203q41 0 71.5 -31t30.5 -72q0 -40 -30.5 -71t-71.5 -31q-238 0 -356 108t-130 334q-307 -84 -467 -84q-112 0 -174 41q31 -126 31 -260q0 -307 -170 -481t-498 -178h-65l-4 157q9 1 28.5 2.5t28.5 2.5
q260 17 385 136.5t125 340.5q0 158 -92 524l162 64q22 -103 72.5 -142t168.5 -39q146 0 463 88l-6 172l145 15l19 -277q12 -184 81.5 -251.5t252.5 -67.5z" />
    <glyph glyph-name="uniFC8B" unicode="&#xfc8b;" horiz-adv-x="1945" arabic-form="final" 
d="M1532 973h-10l-148 110v13l105 137h12l147 -111v-10zM664 891h-11l-147 110v13l104 137h13l147 -111v-10zM1946 203q41 0 71.5 -31t30.5 -72q0 -40 -30.5 -71t-71.5 -31q-238 0 -356 108t-130 334q-307 -84 -467 -84q-112 0 -174 41q31 -126 31 -260q0 -307 -170 -481
t-498 -178h-65l-4 157q9 1 28.5 2.5t28.5 2.5q260 17 385 136.5t125 340.5q0 158 -92 524l162 64q22 -103 72.5 -142t168.5 -39q146 0 463 88l-6 172l145 15l19 -277q12 -184 81.5 -251.5t252.5 -67.5z" />
    <glyph glyph-name="uniFC8C" unicode="&#xfc8c;" horiz-adv-x="1904" arabic-form="final" 
d="M1159 1198l-147 111v12l104 139h12l148 -110v-11l-107 -141h-10zM113 -653v639q0 135 43 248t116.5 188.5t165 122.5t193.5 63q107 166 307 254t457 90q65 2 103.5 -32t41.5 -101l8 -223q4 -100 18.5 -168t39.5 -113t68.5 -69t96.5 -33.5t134 -9.5q41 0 70.5 -30.5
t29.5 -72.5q0 -40 -30 -71t-70 -31q-128 0 -219 28.5t-159 94t-102.5 178t-38.5 276.5l-2 152q0 40 -47 37q-297 -6 -475 -158q22 -4 29 -8q160 -44 262 -165t102 -306q0 -205 -103.5 -323.5t-260.5 -118.5q-90 0 -163 42t-118 113.5t-68.5 161.5t-20 191.5t33.5 197.5
q-122 -35 -200 -135.5t-79 -259.5l-6 -625zM733 428q-41 -86 -52.5 -183t6.5 -178t71 -134.5t133 -53.5q88 0 149.5 66t61.5 182q0 127 -89.5 207.5t-240.5 91.5q-6 0 -19 1t-20 1z" />
    <glyph glyph-name="uniFC8D" unicode="&#xfc8d;" horiz-adv-x="2541" arabic-form="final" 
d="M1894 895h-12l-147 111v12l106 137h10l148 -111v-10zM743 631h-12l-147 110v13l104 139h12l148 -111v-10zM2542 203q41 0 70.5 -30.5t29.5 -72.5q0 -40 -30 -71t-70 -31q-245 0 -365.5 109.5t-132.5 338.5q-115 -33 -203.5 -53.5t-180 -31t-162 1.5t-116.5 47
q41 -277 35 -408q-8 -262 -197.5 -404t-541.5 -139q-273 1 -419 133t-146 355q0 250 155 641l133 -51q-130 -361 -127 -564q2 -141 102 -222t312 -85q69 -1 140 6.5t150 31t139.5 59.5t100 98t39.5 141q0 91 -27.5 282.5t-60.5 362.5l158 53q26 -104 100 -144t218 -27
t395 83l-6 172l143 15l18 -277q12 -181 85.5 -250t261.5 -69z" />
    <glyph glyph-name="uniFC8E" unicode="&#xfc8e;" horiz-adv-x="1923" arabic-form="final" 
d="M1135 1067l-150 113v10l107 139h10l149 -110v-11l-106 -141h-10zM717 -557q-299 3 -453.5 136.5t-154.5 365.5q0 235 155 628l133 -51q-122 -349 -125 -545q-2 -152 114 -238.5t347 -86.5q131 0 241 25.5t175 64t100 79t35 73.5q0 27 -9 45.5t-37.5 39.5t-88 40.5
t-154.5 39.5q-87 18 -145 41.5t-87.5 51.5t-40.5 55.5t-11 62.5q0 107 75 211q102 143 293.5 240.5t356.5 97.5q69 0 110.5 -38t44.5 -103q0 -53 6 -113q13 -362 326 -362q41 0 70.5 -30.5t29.5 -72.5q0 -40 -30 -71t-70 -31q-239 0 -357.5 134.5t-131.5 375.5q-4 27 -4 78
q-2 24 -8.5 32.5t-24.5 8.5q-112 0 -255 -72t-214 -162q-25 -36 -25 -59q-2 -33 31.5 -52t150.5 -44q190 -39 279 -99t96 -172v-55q-3 -71 -31.5 -137t-87.5 -126.5t-143.5 -105.5t-208 -72t-272.5 -28z" />
    <glyph glyph-name="uniFC8F" unicode="&#xfc8f;" horiz-adv-x="1923" arabic-form="final" 
d="M1294 1112l-147 111v12l104 137h13l147 -110v-11l-104 -139h-13zM717 -557q-299 3 -453.5 136.5t-154.5 365.5q0 235 155 628l133 -51q-122 -349 -125 -545q-2 -152 114 -238.5t347 -86.5q131 0 241 25.5t175 64t100 79t35 73.5q0 27 -9 45.5t-37.5 39.5t-88 40.5
t-154.5 39.5q-87 18 -145 41.5t-87.5 51.5t-40.5 55.5t-11 62.5q0 107 75 211q102 143 293.5 240.5t356.5 97.5q69 0 110.5 -38t44.5 -103q0 -53 6 -113q13 -362 326 -362q41 0 70.5 -30.5t29.5 -72.5q0 -40 -30 -71t-70 -31q-239 0 -357.5 134.5t-131.5 375.5q-4 27 -4 78
q-2 24 -8.5 32.5t-24.5 8.5q-112 0 -255 -72t-214 -162q-25 -36 -25 -59q-2 -33 31.5 -52t150.5 -44q190 -39 279 -99t96 -172v-55q-3 -71 -31.5 -137t-87.5 -126.5t-143.5 -105.5t-208 -72t-272.5 -28zM905 -913l-135 102v12l96 127h11l135 -102v-10l-97 -129h-10z
M625 -944l-138 102v13l97 127h12l135 -103v-10l-96 -129h-10z" />
    <glyph glyph-name="uniFC91" unicode="&#xfc91;" horiz-adv-x="1945" arabic-form="final" 
d="M1946 203q41 0 71.5 -31t30.5 -72q0 -40 -30.5 -71t-71.5 -31q-238 0 -356 108t-130 334q-307 -84 -467 -84q-112 0 -174 41q31 -126 31 -260q0 -307 -170 -481t-498 -178h-65l-4 157q9 1 28.5 2.5t28.5 2.5q260 17 385 136.5t125 340.5q0 158 -92 524l162 64
q22 -103 72.5 -142t168.5 -39q146 0 463 88l-6 172l145 15l19 -277q12 -184 81.5 -251.5t252.5 -67.5zM1444 -84h10l135 -100v-11l-96 -129h-10l-135 103v10zM1161 -115h13l135 -102v-8l-99 -129h-8l-137 102v10z" />
    <glyph glyph-name="uniFC92" unicode="&#xfc92;" horiz-adv-x="1945" arabic-form="final" 
d="M680 899h-10l-148 111v12l105 137h12l147 -110v-11zM1946 203q41 0 71.5 -31t30.5 -72q0 -40 -30.5 -71t-71.5 -31q-238 0 -356 108t-130 334q-307 -84 -467 -84q-112 0 -174 41q31 -126 31 -260q0 -307 -170 -481t-498 -178h-65l-4 157q9 1 28.5 2.5t28.5 2.5
q260 17 385 136.5t125 340.5q0 158 -92 524l162 64q22 -103 72.5 -142t168.5 -39q146 0 463 88l-6 172l145 15l19 -277q12 -184 81.5 -251.5t252.5 -67.5zM1444 -84h10l135 -100v-11l-96 -129h-10l-135 103v10zM1161 -115h13l135 -102v-8l-99 -129h-8l-137 102v10z" />
    <glyph glyph-name="uniFC93" unicode="&#xfc93;" horiz-adv-x="1904" arabic-form="final" 
d="M113 -653v639q0 135 43 248t116.5 188.5t165 122.5t193.5 63q107 166 307 254t457 90q65 2 103.5 -32t41.5 -101l8 -223q4 -100 18.5 -168t39.5 -113t68.5 -69t96.5 -33.5t134 -9.5q41 0 70.5 -30.5t29.5 -72.5q0 -40 -30 -71t-70 -31q-128 0 -219 28.5t-159 94
t-102.5 178t-38.5 276.5l-2 152q0 40 -47 37q-297 -6 -475 -158q22 -4 29 -8q160 -44 262 -165t102 -306q0 -205 -103.5 -323.5t-260.5 -118.5q-90 0 -163 42t-118 113.5t-68.5 161.5t-20 191.5t33.5 197.5q-122 -35 -200 -135.5t-79 -259.5l-6 -625zM733 428
q-41 -86 -52.5 -183t6.5 -178t71 -134.5t133 -53.5q88 0 149.5 66t61.5 182q0 127 -89.5 207.5t-240.5 91.5q-6 0 -19 1t-20 1zM1640 -502l-137 103v12l96 127h13l135 -102v-11l-98 -129h-9zM1358 -532l-135 102v12l96 127h10l137 -102v-10l-98 -129h-10z" />
    <glyph glyph-name="uniFC94" unicode="&#xfc94;" horiz-adv-x="2541" arabic-form="final" 
d="M743 631h-12l-147 110v13l104 139h12l148 -111v-10zM2542 203q41 0 70.5 -30.5t29.5 -72.5q0 -40 -30 -71t-70 -31q-245 0 -365.5 109.5t-132.5 338.5q-115 -33 -203.5 -53.5t-180 -31t-162 1.5t-116.5 47q41 -277 35 -408q-8 -262 -197.5 -404t-541.5 -139
q-273 1 -419 133t-146 355q0 250 155 641l133 -51q-130 -361 -127 -564q2 -141 102 -222t312 -85q69 -1 140 6.5t150 31t139.5 59.5t100 98t39.5 141q0 91 -27.5 282.5t-60.5 362.5l158 53q26 -104 100 -144t218 -27t395 83l-6 172l143 15l18 -277q12 -181 85.5 -250
t261.5 -69zM1960 -68h12l142 -106v-10l-101 -135h-12l-141 108v10zM1671 -98h10l144 -107v-10l-103 -135h-10l-143 106v13z" />
    <glyph glyph-name="uniFC95" unicode="&#xfc95;" horiz-adv-x="1923" arabic-form="final" 
d="M717 -557q-299 3 -453.5 136.5t-154.5 365.5q0 235 155 628l133 -51q-122 -349 -125 -545q-2 -152 114 -238.5t347 -86.5q131 0 241 25.5t175 64t100 79t35 73.5q0 27 -9 45.5t-37.5 39.5t-88 40.5t-154.5 39.5q-87 18 -145 41.5t-87.5 51.5t-40.5 55.5t-11 62.5
q0 107 75 211q102 143 293.5 240.5t356.5 97.5q69 0 110.5 -38t44.5 -103q0 -53 6 -113q13 -362 326 -362q41 0 70.5 -30.5t29.5 -72.5q0 -40 -30 -71t-70 -31q-239 0 -357.5 134.5t-131.5 375.5q-4 27 -4 78q-2 24 -8.5 32.5t-24.5 8.5q-112 0 -255 -72t-214 -162
q-25 -36 -25 -59q-2 -33 31.5 -52t150.5 -44q190 -39 279 -99t96 -172v-55q-3 -71 -31.5 -137t-87.5 -126.5t-143.5 -105.5t-208 -72t-272.5 -28zM1780 -662l-135 103v10l96 127h12l135 -100v-10l-98 -130h-10zM1499 -692l-135 102v10l96 127h10l138 -102v-8l-99 -129h-10z
" />
    <glyph glyph-name="uniFC9A" unicode="&#xfc9a;" horiz-adv-x="1091" arabic-form="initial" 
d="M362 928l-2 96l129 35q-43 68 -40 153q0 95 52 162.5t138 67.5q95 0 197 -105l-48 -63q-44 33 -73.5 48t-65.5 15q-51 0 -80.5 -32t-29.5 -86q-3 -73 47 -136l329 86l7 -94zM969 614q-241 -6 -420 -117t-254 -294h6q121 0 218.5 -23t173 -71.5t116.5 -131t41 -194.5
q0 -177 -95 -275t-245 -98q-90 0 -166.5 34t-135 101t-91 176.5t-31.5 249.5v27h-86q-40 0 -70 31t-30 71q0 42 29.5 72.5t70.5 30.5h121q78 264 307 429.5t541 168.5v-187zM324 -2h-74v-21q-3 -188 71 -278t191 -90q83 0 132.5 46t49.5 128q0 61 -26 103.5t-76.5 66.5
t-115.5 34.5t-152 10.5z" />
    <glyph glyph-name="uniFC9F" unicode="&#xfc9f;" horiz-adv-x="1091" arabic-form="initial" 
d="M301 203q121 0 218.5 -23t173 -71.5t116.5 -131t41 -194.5q0 -177 -95 -275t-245 -98q-90 0 -166.5 34t-135 101t-91 176.5t-31.5 249.5v27h-86q-40 0 -70 31t-30 71q0 42 29.5 72.5t70.5 30.5h121q78 264 307 429.5t541 168.5v-187q-241 -6 -420 -117t-254 -294h6z
M512 -391q83 0 132.5 46t49.5 128q0 61 -26 103.5t-76.5 66.5t-115.5 34.5t-152 10.5h-74v-21q-3 -188 71 -278t191 -90zM1085 -305l154 -115v-10l-111 -148h-10l-153 117v12l108 144h12z" />
    <glyph glyph-name="uniFCA4" unicode="&#xfca4;" horiz-adv-x="1499" arabic-form="initial" 
d="M793 1044h-11l-141 107v12l100 133h13l141 -106v-10zM504 1014h-10l-144 106v13l103 133h10l143 -107v-10zM969 614q-241 -6 -420 -117t-254 -294h6q121 0 218.5 -23t173 -71.5t116.5 -131t41 -194.5q0 -177 -95 -275t-245 -98q-90 0 -166.5 34t-135 101t-91 176.5
t-31.5 249.5v27h-86q-40 0 -70 31t-30 71q0 42 29.5 72.5t70.5 30.5h121q78 264 307 429.5t541 168.5v-187zM324 -2h-74v-21q-3 -188 71 -278t191 -90q83 0 132.5 46t49.5 128q0 61 -26 103.5t-76.5 66.5t-115.5 34.5t-152 10.5z" />
    <glyph glyph-name="uniFCA6" unicode="&#xfca6;" horiz-adv-x="1091" arabic-form="initial" 
d="M631 1274h-8l-134 98v12l95 123h10l131 -98v-10zM659 1143v10l97 127h10l137 -100v-11l-98 -129h-10zM524 1010h-10l-135 102v10l96 127h10l136 -100v-10zM969 614q-241 -6 -420 -117t-254 -294h6q121 0 218.5 -23t173 -71.5t116.5 -131t41 -194.5q0 -177 -95 -275
t-245 -98q-90 0 -166.5 34t-135 101t-91 176.5t-31.5 249.5v27h-86q-40 0 -70 31t-30 71q0 42 29.5 72.5t70.5 30.5h121q78 264 307 429.5t541 168.5v-187zM324 -2h-74v-21q-3 -188 71 -278t191 -90q83 0 132.5 46t49.5 128q0 61 -26 103.5t-76.5 66.5t-115.5 34.5
t-152 10.5z" />
    <glyph glyph-name="uniFCB0" unicode="&#xfcb0;" horiz-adv-x="2445" arabic-form="initial" 
d="M2333 399q3 -198 -78 -299.5t-234 -101.5q-175 0 -315 137q-59 -66 -156.5 -101.5t-212.5 -35.5q-158 0 -264 65t-156 177t-57 270q-4 58 -4 74q-1 26 -11.5 33.5t-35.5 5.5q-49 -2 -106.5 -21.5t-118 -58t-114 -89t-96 -120t-61.5 -146.5l54 -6q108 -14 190.5 -40
t151 -71t105 -118t36.5 -172q0 -176 -95 -273.5t-245 -97.5q-104 0 -185.5 42.5t-133 118.5t-78 175t-27.5 217q0 6 1 17t1 16h-88q-40 0 -70 31.5t-30 72.5q0 40 29.5 70.5t70.5 30.5h133q32 136 115.5 253.5t189 193t220 118t216.5 43.5q65 1 100 -34t40 -99
q5 -113 6 -119q9 -173 88.5 -262.5t224.5 -91.5q95 -2 174.5 27.5t110.5 84.5q29 46 39 118t20 259l135 -4q-3 -136 -4 -183t-7 -112t-17 -106q51 -42 113.5 -63t117.5 -21q87 0 126 42.5t38 137.5q-1 57 -16.5 141.5t-57.5 290.5l160 55q65 -301 68 -471zM332 -4h-80
q-2 -6 -2 -23q-5 -163 63.5 -263.5t200.5 -100.5q82 0 131 45.5t49 128.5q0 59 -25.5 100t-76 64.5t-112.5 34.5t-148 14z" />
    <glyph glyph-name="uniFCB3" unicode="&#xfcb3;" horiz-adv-x="2381" arabic-form="initial" 
d="M-100 100q0 42 29.5 72.5t70.5 30.5h133q32 135 115.5 252t189 192.5t220 118t216.5 43.5q67 1 103.5 -33.5t36.5 -99.5q0 -76 2 -107q7 -111 39.5 -185.5t107.5 -111.5q45 162 96 279.5t105 191.5t119.5 118t131.5 60.5t150 16.5q123 0 221.5 -50.5t160 -137.5t93 -200
t29.5 -241q-1 -82 -60 -146t-155.5 -101.5t-211 -56.5t-238.5 -19q-206 0 -346 30t-228.5 96.5t-128.5 164.5t-45 241q0 16 -1 41t-1 33q0 21 -10 27t-35 4q-62 -2 -136.5 -33.5t-146.5 -85.5t-130.5 -137.5t-80.5 -178.5q8 0 20 -1t21 -1q144 0 254.5 -45.5t175 -138
t64.5 -221.5q0 -176 -95 -273.5t-245 -97.5q-133 0 -229.5 69.5t-144.5 186.5t-50 268q0 41 2 64h-88q-40 0 -70 31t-30 71zM1303 223q106 -35 325 -35q78 0 161 10t155 28.5t119 48.5t48 65q5 33 -12 66q-9 161 -95.5 248t-242.5 87q-84 0 -146.5 -22.5t-119.5 -80
t-103.5 -159t-88.5 -256.5zM252 -4q-4 -36 -4 -55q6 -149 74 -240.5t192 -91.5q82 0 131 45.5t49 128.5q0 213 -377 213h-65z" />
    <glyph glyph-name="uniFCB7" unicode="&#xfcb7;" horiz-adv-x="2381" arabic-form="initial" 
d="M1733 1147l-148 110v13l105 137h12l147 -111v-10l-106 -139h-10zM-100 100q0 42 29.5 72.5t70.5 30.5h133q32 135 115.5 252t189 192.5t220 118t216.5 43.5q67 1 103.5 -33.5t36.5 -99.5q0 -76 2 -107q7 -111 39.5 -185.5t107.5 -111.5q45 162 96 279.5t105 191.5
t119.5 118t131.5 60.5t150 16.5q123 0 221.5 -50.5t160 -137.5t93 -200t29.5 -241q-1 -82 -60 -146t-155.5 -101.5t-211 -56.5t-238.5 -19q-206 0 -346 30t-228.5 96.5t-128.5 164.5t-45 241q0 16 -1 41t-1 33q0 21 -10 27t-35 4q-62 -2 -136.5 -33.5t-146.5 -85.5
t-130.5 -137.5t-80.5 -178.5q8 0 20 -1t21 -1q144 0 254.5 -45.5t175 -138t64.5 -221.5q0 -176 -95 -273.5t-245 -97.5q-133 0 -229.5 69.5t-144.5 186.5t-50 268q0 41 2 64h-88q-40 0 -70 31t-30 71zM1303 223q106 -35 325 -35q78 0 161 10t155 28.5t119 48.5t48 65
q5 33 -12 66q-9 161 -95.5 248t-242.5 87q-84 0 -146.5 -22.5t-119.5 -80t-103.5 -159t-88.5 -256.5zM252 -4q-4 -36 -4 -55q6 -149 74 -240.5t192 -91.5q82 0 131 45.5t49 128.5q0 213 -377 213h-65z" />
    <glyph glyph-name="uniFCD5" unicode="&#xfcd5;" horiz-adv-x="1091" arabic-form="initial" 
d="M602 934h-10l-148 110v13l105 137h12l148 -111v-10zM969 614q-241 -6 -420 -117t-254 -294h6q121 0 218.5 -23t173 -71.5t116.5 -131t41 -194.5q0 -177 -95 -275t-245 -98q-90 0 -166.5 34t-135 101t-91 176.5t-31.5 249.5v27h-86q-40 0 -70 31t-30 71q0 42 29.5 72.5
t70.5 30.5h121q78 264 307 429.5t541 168.5v-187zM324 -2h-74v-21q-3 -188 71 -278t191 -90q83 0 132.5 46t49.5 128q0 61 -26 103.5t-76.5 66.5t-115.5 34.5t-152 10.5z" />
    <glyph glyph-name="uniFCDD" unicode="&#xfcdd;" horiz-adv-x="1091" arabic-form="initial" 
d="M301 203q121 0 218.5 -23t173 -71.5t116.5 -131t41 -194.5q0 -177 -95 -275t-245 -98q-90 0 -166.5 34t-135 101t-91 176.5t-31.5 249.5v27h-86q-40 0 -70 31t-30 71q0 42 29.5 72.5t70.5 30.5h121q78 264 307 429.5t541 168.5v-187q-241 -6 -420 -117t-254 -294h6z
M512 -391q83 0 132.5 46t49.5 128q0 61 -26 103.5t-76.5 66.5t-115.5 34.5t-152 10.5h-74v-21q-3 -188 71 -278t191 -90zM1206 -463l137 -102v-10l-98 -130h-10l-135 103v12l96 127h10zM915 -494h11l135 -102v-10l-96 -129h-11l-137 102v12z" />
    <glyph glyph-name="uniFCDF" unicode="&#xfcdf;" horiz-adv-x="1390" arabic-form="medial" 
d="M362 940l-2 96l129 35q-43 68 -40 156q0 95 52 161.5t138 65.5q99 0 197 -104l-48 -62q-32 23 -47.5 33t-41 20t-50.5 11q-51 -2 -80.5 -34t-29.5 -87q-3 -74 49 -135l327 86l7 -95zM1391 203q40 0 70 -31t30 -72q0 -40 -30 -71t-70 -31q-246 0 -366 136t-128 378
q-2 31 -2 68q0 19 -11 25.5t-36 4.5q-68 -2 -146.5 -31t-154.5 -79t-137.5 -129.5t-85.5 -173.5h41q222 0 353.5 -104t131.5 -310q0 -177 -95 -274t-245 -97q-139 0 -239 75t-146.5 200.5t-38.5 283.5q2 8 2 27h-88q-40 0 -70 31t-30 71q0 42 29.5 72.5t70.5 30.5h133
q26 110 86.5 207t140 168.5t173.5 123.5t191.5 79t188.5 28q66 0 103 -34t37 -97q0 -78 2 -107q3 -172 87 -270t249 -98zM326 -2h-74q-4 -32 -4 -51q5 -152 72 -244t194 -92q81 0 130.5 45t49.5 127q0 61 -27 104t-78.5 66.5t-115 34t-147.5 10.5z" />
    <glyph glyph-name="uniFCE1" unicode="&#xfce1;" horiz-adv-x="1390" arabic-form="medial" 
d="M-100 100q0 42 29.5 72.5t70.5 30.5h133q26 110 86.5 207t140 168.5t173.5 123.5t191.5 79t188.5 28q66 0 103 -34t37 -97q0 -78 2 -107q3 -172 87 -270t249 -98q40 0 70 -31t30 -72q0 -40 -30 -71t-70 -31q-246 0 -366 136t-128 378q-2 31 -2 68q0 19 -11 25.5t-36 4.5
q-68 -2 -146.5 -31t-154.5 -79t-137.5 -129.5t-85.5 -173.5h41q222 0 353.5 -104t131.5 -310q0 -177 -95 -274t-245 -97q-139 0 -239 75t-146.5 200.5t-38.5 283.5q2 8 2 27h-88q-40 0 -70 31t-30 71zM252 -2q-4 -32 -4 -51q5 -152 72 -244t194 -92q81 0 130.5 45t49.5 127
q0 61 -27 104t-78.5 66.5t-115 34t-147.5 10.5h-74zM1178 -573l-154 114v13l109 143h12l153 -115v-10l-110 -145h-10z" />
    <glyph glyph-name="uniFCE3" unicode="&#xfce3;" horiz-adv-x="1390" arabic-form="medial" 
d="M782 1044l-141 107v12l100 133h13l141 -106v-10l-102 -136h-11zM494 1014l-144 106v13l103 133h10l143 -107v-10l-102 -135h-10zM-100 100q0 42 29.5 72.5t70.5 30.5h133q26 110 86.5 207t140 168.5t173.5 123.5t191.5 79t188.5 28q66 0 103 -34t37 -97q0 -78 2 -107
q3 -172 87 -270t249 -98q40 0 70 -31t30 -72q0 -40 -30 -71t-70 -31q-246 0 -366 136t-128 378q-2 31 -2 68q0 19 -11 25.5t-36 4.5q-68 -2 -146.5 -31t-154.5 -79t-137.5 -129.5t-85.5 -173.5h41q222 0 353.5 -104t131.5 -310q0 -177 -95 -274t-245 -97q-139 0 -239 75
t-146.5 200.5t-38.5 283.5q2 8 2 27h-88q-40 0 -70 31t-30 71zM252 -2q-4 -32 -4 -51q5 -152 72 -244t194 -92q81 0 130.5 45t49.5 127q0 61 -27 104t-78.5 66.5t-115 34t-147.5 10.5h-74z" />
    <glyph glyph-name="uniFCE5" unicode="&#xfce5;" horiz-adv-x="1390" arabic-form="medial" 
d="M647 1274l-131 98v12l92 123h10l134 -98v-10l-95 -125h-10zM819 1040l-135 103v10l96 127h13l135 -100v-11l-99 -129h-10zM539 1010l-136 102v10l97 127h10l137 -100v-10l-98 -129h-10zM-100 100q0 42 29.5 72.5t70.5 30.5h133q26 110 86.5 207t140 168.5t173.5 123.5
t191.5 79t188.5 28q66 0 103 -34t37 -97q0 -78 2 -107q3 -172 87 -270t249 -98q40 0 70 -31t30 -72q0 -40 -30 -71t-70 -31q-246 0 -366 136t-128 378q-2 31 -2 68q0 19 -11 25.5t-36 4.5q-68 -2 -146.5 -31t-154.5 -79t-137.5 -129.5t-85.5 -173.5h41q222 0 353.5 -104
t131.5 -310q0 -177 -95 -274t-245 -97q-139 0 -239 75t-146.5 200.5t-38.5 283.5q2 8 2 27h-88q-40 0 -70 31t-30 71zM252 -2q-4 -32 -4 -51q5 -152 72 -244t194 -92q81 0 130.5 45t49.5 127q0 61 -27 104t-78.5 66.5t-115 34t-147.5 10.5h-74z" />
    <glyph glyph-name="uniFCE7" unicode="&#xfce7;" horiz-adv-x="2680" arabic-form="medial" 
d="M2681 203q41 0 70.5 -30.5t29.5 -72.5q0 -41 -29.5 -71.5t-70.5 -30.5q-148 0 -245 38t-155 120q-37 -77 -104 -117.5t-156 -40.5q-85 0 -167 35.5t-148 101.5q-59 -66 -157.5 -101.5t-211.5 -35.5q-120 0 -211 37.5t-147.5 107.5t-86 163t-34.5 212q-2 27 -2 68
q-3 27 -12.5 33.5t-34.5 3.5q-49 -1 -106.5 -20.5t-118 -57.5t-114 -89t-96 -121t-61.5 -147l56 -6q108 -11 191 -37t150.5 -71.5t103.5 -119t36 -171.5q0 -177 -95 -274t-245 -97q-140 0 -240.5 75.5t-146.5 201.5t-37 284q2 10 2 25h-88q-40 0 -70 30.5t-30 71.5
q0 42 29.5 72.5t70.5 30.5h133q32 136 115.5 253t189 192.5t220 118.5t216.5 44q65 0 101 -35.5t39 -99.5q0 -45 4 -103q7 -179 85 -273t218 -97q101 -2 183.5 27.5t113.5 84.5q29 48 39 119.5t20 257.5l135 -2q-3 -138 -4 -185t-7 -112.5t-17 -105.5q51 -42 113.5 -63
t117.5 -21q105 0 142 73q18 32 21.5 76.5t0.5 141.5l-8 268l149 24l19 -264q7 -100 24.5 -160t58.5 -96.5t100.5 -49.5t158.5 -13zM330 -2h-78q-2 -10 -2 -31q0 -160 67 -259t197 -99q81 0 130.5 46t49.5 128q0 60 -26 102.5t-75.5 66.5t-113.5 35t-149 11z" />
    <glyph glyph-name="uniFCE9" unicode="&#xfce9;" horiz-adv-x="2680" arabic-form="medial" 
d="M1726 1176h-10l-131 98v12l92 123h11l133 -98v-11zM1753 1044v11l96 127h13l135 -101v-10l-99 -129h-10zM1618 911h-10l-135 103v10l96 127h10l137 -100v-11zM2681 203q41 0 70.5 -30.5t29.5 -72.5q0 -41 -29.5 -71.5t-70.5 -30.5q-148 0 -245 38t-155 120
q-37 -77 -104 -117.5t-156 -40.5q-85 0 -167 35.5t-148 101.5q-59 -66 -157.5 -101.5t-211.5 -35.5q-120 0 -211 37.5t-147.5 107.5t-86 163t-34.5 212q-2 27 -2 68q-3 27 -12.5 33.5t-34.5 3.5q-49 -1 -106.5 -20.5t-118 -57.5t-114 -89t-96 -121t-61.5 -147l56 -6
q108 -11 191 -37t150.5 -71.5t103.5 -119t36 -171.5q0 -177 -95 -274t-245 -97q-140 0 -240.5 75.5t-146.5 201.5t-37 284q2 10 2 25h-88q-40 0 -70 30.5t-30 71.5q0 42 29.5 72.5t70.5 30.5h133q32 136 115.5 253t189 192.5t220 118.5t216.5 44q65 0 101 -35.5t39 -99.5
q0 -45 4 -103q7 -179 85 -273t218 -97q101 -2 183.5 27.5t113.5 84.5q29 48 39 119.5t20 257.5l135 -2q-3 -138 -4 -185t-7 -112.5t-17 -105.5q51 -42 113.5 -63t117.5 -21q105 0 142 73q18 32 21.5 76.5t0.5 141.5l-8 268l149 24l19 -264q7 -100 24.5 -160t58.5 -96.5
t100.5 -49.5t158.5 -13zM330 -2h-78q-2 -10 -2 -31q0 -160 67 -259t197 -99q81 0 130.5 46t49.5 128q0 60 -26 102.5t-75.5 66.5t-113.5 35t-149 11z" />
    <glyph glyph-name="uniFCEE" unicode="&#xfcee;" horiz-adv-x="1390" arabic-form="medial" 
d="M604 934l-147 110v13l104 137h12l148 -111v-10l-107 -139h-10zM-100 100q0 42 29.5 72.5t70.5 30.5h133q26 110 86.5 207t140 168.5t173.5 123.5t191.5 79t188.5 28q66 0 103 -34t37 -97q0 -78 2 -107q3 -172 87 -270t249 -98q40 0 70 -31t30 -72q0 -40 -30 -71t-70 -31
q-246 0 -366 136t-128 378q-2 31 -2 68q0 19 -11 25.5t-36 4.5q-68 -2 -146.5 -31t-154.5 -79t-137.5 -129.5t-85.5 -173.5h41q222 0 353.5 -104t131.5 -310q0 -177 -95 -274t-245 -97q-139 0 -239 75t-146.5 200.5t-38.5 283.5q2 8 2 27h-88q-40 0 -70 31t-30 71zM252 -2
q-4 -32 -4 -51q5 -152 72 -244t194 -92q81 0 130.5 45t49.5 127q0 61 -27 104t-78.5 66.5t-115 34t-147.5 10.5h-74z" />
    <glyph glyph-name="uniFCF0" unicode="&#xfcf0;" horiz-adv-x="1390" arabic-form="medial" 
d="M-100 100q0 42 29.5 72.5t70.5 30.5h133q26 110 86.5 207t140 168.5t173.5 123.5t191.5 79t188.5 28q66 0 103 -34t37 -97q0 -78 2 -107q3 -172 87 -270t249 -98q40 0 70 -31t30 -72q0 -40 -30 -71t-70 -31q-246 0 -366 136t-128 378q-2 31 -2 68q0 19 -11 25.5t-36 4.5
q-68 -2 -146.5 -31t-154.5 -79t-137.5 -129.5t-85.5 -173.5h41q222 0 353.5 -104t131.5 -310q0 -177 -95 -274t-245 -97q-139 0 -239 75t-146.5 200.5t-38.5 283.5q2 8 2 27h-88q-40 0 -70 31t-30 71zM252 -2q-4 -32 -4 -51q5 -152 72 -244t194 -92q81 0 130.5 45t49.5 127
q0 61 -27 104t-78.5 66.5t-115 34t-147.5 10.5h-74zM1362 -580l-135 103v10l96 127h10l137 -102v-9l-98 -129h-10zM1081 -610l-135 100v12l96 127h11l135 -102v-10l-96 -127h-11z" />
    <glyph glyph-name="uniFCFB" unicode="&#xfcfb;" horiz-adv-x="3018" arabic-form="isolated" 
d="M2841 870q67 -307 67 -487q0 -190 -80.5 -287.5t-230.5 -97.5q-85 0 -167.5 36t-148.5 103q-58 -67 -154 -103t-214 -36q-124 0 -216 36.5t-149.5 106t-88.5 161t-40 210.5l-6 76q-3 22 -11 30.5t-26 8.5q-97 0 -239 -72t-219 -162q-27 -35 -27 -61q0 -21 11.5 -34.5
t51.5 -28t121 -31.5q190 -35 282.5 -96.5t104.5 -174.5q0 -5 0.5 -16.5t0.5 -21t-1 -17.5q-3 -71 -31.5 -137t-87.5 -126.5t-143.5 -105.5t-208 -72t-272.5 -28q-299 3 -452.5 136.5t-153.5 365.5q0 244 155 628l133 -51q-124 -343 -127 -545q0 -154 115.5 -239.5
t347.5 -85.5q130 0 239.5 25.5t174 64t100 79t35.5 73.5q0 35 -20 59.5t-87.5 51.5t-191.5 54q-87 18 -146 41.5t-88.5 51.5t-41 55.5t-11.5 62.5q0 106 76 211q99 142 293 240t344 98q67 0 107 -37.5t49 -103.5q4 -33 8 -98q8 -180 85 -278.5t232 -98.5q102 0 184 28.5
t113 83.5q29 47 40.5 122t21.5 255l135 -4q-3 -170 -9 -255.5t-22 -145.5q52 -42 115 -63t117 -21q86 0 125 40.5t39 131.5q0 58 -15 142t-59 298z" />
    <glyph glyph-name="uniFCFC" unicode="&#xfcfc;" horiz-adv-x="3018" arabic-form="isolated" 
d="M2841 870q67 -307 67 -487q0 -190 -80.5 -287.5t-230.5 -97.5q-85 0 -167.5 36t-148.5 103q-58 -67 -154 -103t-214 -36q-124 0 -216 36.5t-149.5 106t-88.5 161t-40 210.5l-6 76q-3 22 -11 30.5t-26 8.5q-97 0 -239 -72t-219 -162q-27 -35 -27 -61q0 -21 11.5 -34.5
t51.5 -28t121 -31.5q190 -35 282.5 -96.5t104.5 -174.5q0 -5 0.5 -16.5t0.5 -21t-1 -17.5q-3 -71 -31.5 -137t-87.5 -126.5t-143.5 -105.5t-208 -72t-272.5 -28q-299 3 -452.5 136.5t-153.5 365.5q0 244 155 628l133 -51q-124 -343 -127 -545q0 -154 115.5 -239.5
t347.5 -85.5q130 0 239.5 25.5t174 64t100 79t35.5 73.5q0 35 -20 59.5t-87.5 51.5t-191.5 54q-87 18 -146 41.5t-88.5 51.5t-41 55.5t-11.5 62.5q0 106 76 211q99 142 293 240t344 98q67 0 107 -37.5t49 -103.5q4 -33 8 -98q8 -180 85 -278.5t232 -98.5q102 0 184 28.5
t113 83.5q29 47 40.5 122t21.5 255l135 -4q-3 -170 -9 -255.5t-22 -145.5q52 -42 115 -63t117 -21q86 0 125 40.5t39 131.5q0 58 -15 142t-59 298zM913 -702h11l135 -103v-10l-96 -129h-11l-135 102v13zM631 -733h12l135 -103v-10l-96 -129h-10l-137 103v12z" />
    <glyph glyph-name="uniFCFD" unicode="&#xfcfd;" horiz-adv-x="3018" arabic-form="isolated" 
d="M2300 1176h-8l-131 98v12l92 123h10l133 -98v-11zM2329 1044v11l96 127h10l137 -101v-10l-98 -129h-10zM2193 911h-10l-135 103v10l96 127h10l138 -100v-11zM2841 870q67 -307 67 -487q0 -190 -80.5 -287.5t-230.5 -97.5q-85 0 -167.5 36t-148.5 103q-58 -67 -154 -103
t-214 -36q-124 0 -216 36.5t-149.5 106t-88.5 161t-40 210.5l-6 76q-3 22 -11 30.5t-26 8.5q-97 0 -239 -72t-219 -162q-27 -35 -27 -61q0 -21 11.5 -34.5t51.5 -28t121 -31.5q190 -35 282.5 -96.5t104.5 -174.5q0 -5 0.5 -16.5t0.5 -21t-1 -17.5q-3 -71 -31.5 -137
t-87.5 -126.5t-143.5 -105.5t-208 -72t-272.5 -28q-299 3 -452.5 136.5t-153.5 365.5q0 244 155 628l133 -51q-124 -343 -127 -545q0 -154 115.5 -239.5t347.5 -85.5q130 0 239.5 25.5t174 64t100 79t35.5 73.5q0 35 -20 59.5t-87.5 51.5t-191.5 54q-87 18 -146 41.5
t-88.5 51.5t-41 55.5t-11.5 62.5q0 106 76 211q99 142 293 240t344 98q67 0 107 -37.5t49 -103.5q4 -33 8 -98q8 -180 85 -278.5t232 -98.5q102 0 184 28.5t113 83.5q29 47 40.5 122t21.5 255l135 -4q-3 -170 -9 -255.5t-22 -145.5q52 -42 115 -63t117 -21q86 0 125 40.5
t39 131.5q0 58 -15 142t-59 298z" />
    <glyph glyph-name="uniFCFE" unicode="&#xfcfe;" horiz-adv-x="3018" arabic-form="isolated" 
d="M2300 1176h-8l-131 98v12l92 123h10l133 -98v-11zM2329 1044v11l96 127h10l137 -101v-10l-98 -129h-10zM2193 911h-10l-135 103v10l96 127h10l138 -100v-11zM2841 870q67 -307 67 -487q0 -190 -80.5 -287.5t-230.5 -97.5q-85 0 -167.5 36t-148.5 103q-58 -67 -154 -103
t-214 -36q-124 0 -216 36.5t-149.5 106t-88.5 161t-40 210.5l-6 76q-3 22 -11 30.5t-26 8.5q-97 0 -239 -72t-219 -162q-27 -35 -27 -61q0 -21 11.5 -34.5t51.5 -28t121 -31.5q190 -35 282.5 -96.5t104.5 -174.5q0 -5 0.5 -16.5t0.5 -21t-1 -17.5q-3 -71 -31.5 -137
t-87.5 -126.5t-143.5 -105.5t-208 -72t-272.5 -28q-299 3 -452.5 136.5t-153.5 365.5q0 244 155 628l133 -51q-124 -343 -127 -545q0 -154 115.5 -239.5t347.5 -85.5q130 0 239.5 25.5t174 64t100 79t35.5 73.5q0 35 -20 59.5t-87.5 51.5t-191.5 54q-87 18 -146 41.5
t-88.5 51.5t-41 55.5t-11.5 62.5q0 106 76 211q99 142 293 240t344 98q67 0 107 -37.5t49 -103.5q4 -33 8 -98q8 -180 85 -278.5t232 -98.5q102 0 184 28.5t113 83.5q29 47 40.5 122t21.5 255l135 -4q-3 -170 -9 -255.5t-22 -145.5q52 -42 115 -63t117 -21q86 0 125 40.5
t39 131.5q0 58 -15 142t-59 298zM903 -705h12l136 -102v-10l-99 -129h-8l-137 102v13zM623 -735h12l135 -103v-10l-98 -129h-10l-136 103v12z" />
    <glyph glyph-name="uniFCFF" unicode="&#xfcff;" horiz-adv-x="2308" arabic-form="isolated" 
d="M113 -45q0 243 155 627l133 -52q-124 -348 -127 -544q0 -326 445 -326q110 0 202.5 16t155.5 42t107.5 59.5t65 69.5t20.5 71q0 30 -18 52t-48 30q-20 6 -39 10t-51.5 9t-57 8t-87 10.5t-109.5 13.5l-59 2l45 180h49q114 0 212.5 15t187.5 46t154.5 62t154.5 80
q8 5 36 21.5t40 23t37 20.5t42 22t40.5 19t45.5 19q-81 42 -170 98q-87 51 -129 74.5t-100 44.5t-103 21q-24 0 -45.5 -5t-39 -10t-36.5 -19.5t-30.5 -22.5t-29 -30.5t-25 -32t-25 -38.5t-22.5 -38t-23.5 -43t-22.5 -42l-114 70q38 92 77 161t88 127t109 88.5t129 30.5
q61 0 136 -25.5t130.5 -54.5t153.5 -86q108 -67 197 -110q76 -37 129.5 -55t118.5 -25l-39 -176q-16 0 -35.5 1t-28.5 1q-104 0 -190 -45q-96 -50 -217 -127q-78 -46 -125.5 -71.5t-119 -56.5t-138.5 -48q139 -49 139 -185q0 -96 -48.5 -181.5t-138.5 -152.5t-231.5 -106
t-314.5 -39q-294 0 -446 133t-152 369z" />
    <glyph glyph-name="uniFD01" unicode="&#xfd01;" horiz-adv-x="2308" arabic-form="isolated" 
d="M113 -45q0 243 155 627l133 -52q-124 -348 -127 -544q0 -326 445 -326q110 0 202.5 16t155.5 42t107.5 59.5t65 69.5t20.5 71q0 30 -18 52t-48 30q-20 6 -39 10t-51.5 9t-57 8t-87 10.5t-109.5 13.5l-59 2l45 180h49q114 0 212.5 15t187.5 46t154.5 62t154.5 80
q8 5 36 21.5t40 23t37 20.5t42 22t40.5 19t45.5 19q-81 42 -170 98q-87 51 -129 74.5t-100 44.5t-103 21q-24 0 -45.5 -5t-39 -10t-36.5 -19.5t-30.5 -22.5t-29 -30.5t-25 -32t-25 -38.5t-22.5 -38t-23.5 -43t-22.5 -42l-114 70q38 92 77 161t88 127t109 88.5t129 30.5
q61 0 136 -25.5t130.5 -54.5t153.5 -86q108 -67 197 -110q76 -37 129.5 -55t118.5 -25l-39 -176q-16 0 -35.5 1t-28.5 1q-104 0 -190 -45q-96 -50 -217 -127q-78 -46 -125.5 -71.5t-119 -56.5t-138.5 -48q139 -49 139 -185q0 -96 -48.5 -181.5t-138.5 -152.5t-231.5 -106
t-314.5 -39q-294 0 -446 133t-152 369zM1798 -293l-147 111v12l104 137h12l148 -110v-11l-107 -139h-10z" />
    <glyph glyph-name="uniFD03" unicode="&#xfd03;" horiz-adv-x="2308" arabic-form="isolated" 
d="M1323 1161l-147 111v12l104 139h12l148 -110v-10l-107 -142h-10zM113 -45q0 243 155 627l133 -52q-124 -348 -127 -544q0 -326 445 -326q110 0 202.5 16t155.5 42t107.5 59.5t65 69.5t20.5 71q0 30 -18 52t-48 30q-20 6 -39 10t-51.5 9t-57 8t-87 10.5t-109.5 13.5l-59 2
l45 180h49q114 0 212.5 15t187.5 46t154.5 62t154.5 80q8 5 36 21.5t40 23t37 20.5t42 22t40.5 19t45.5 19q-81 42 -170 98q-87 51 -129 74.5t-100 44.5t-103 21q-24 0 -45.5 -5t-39 -10t-36.5 -19.5t-30.5 -22.5t-29 -30.5t-25 -32t-25 -38.5t-22.5 -38t-23.5 -43
t-22.5 -42l-114 70q38 92 77 161t88 127t109 88.5t129 30.5q61 0 136 -25.5t130.5 -54.5t153.5 -86q108 -67 197 -110q76 -37 129.5 -55t118.5 -25l-39 -176q-16 0 -35.5 1t-28.5 1q-104 0 -190 -45q-96 -50 -217 -127q-78 -46 -125.5 -71.5t-119 -56.5t-138.5 -48
q139 -49 139 -185q0 -96 -48.5 -181.5t-138.5 -152.5t-231.5 -106t-314.5 -39q-294 0 -446 133t-152 369z" />
    <glyph glyph-name="uniFD05" unicode="&#xfd05;" horiz-adv-x="2938" arabic-form="isolated" 
d="M719 -557q-299 3 -452.5 136.5t-153.5 365.5q0 244 155 628l133 -51q-124 -343 -127 -545q0 -155 115 -240t348 -85q105 0 198 17.5t155.5 45t108 60.5t66.5 64t21 55q0 33 -23 59t-91 53.5t-185 52.5q-87 18 -146 41.5t-88.5 51.5t-41 55.5t-11.5 62.5q0 108 82 219
q68 93 183.5 170t234.5 118.5t213 41.5q70 0 113 -38t43 -103q0 -55 2 -88q3 -245 149 -322q46 162 97 279.5t104.5 192t119 118t131.5 60t150 16.5q123 0 222 -50.5t160.5 -137.5t93 -200t28.5 -241q-1 -82 -59.5 -146t-154.5 -101.5t-211 -56.5t-240 -19q-167 0 -292.5 24
t-210 67.5t-138 111t-78.5 148t-29 185.5v72q0 37 -37 37q-93 0 -228.5 -66t-219.5 -153q-37 -42 -37 -76q0 -21 11.5 -34.5t51.5 -28t121 -31.5q191 -37 288 -105.5t101 -187.5q0 -23 -2 -33q-4 -92 -49.5 -173t-132.5 -148t-231.5 -107t-329.5 -41zM2185 184
q108 0 216 17.5t186.5 53.5t81.5 81v33q0 146 -72 247q-88 121 -277 121q-85 0 -147 -21.5t-119 -78t-104 -158t-90 -258.5q105 -37 325 -37z" />
    <glyph glyph-name="uniFD06" unicode="&#xfd06;" horiz-adv-x="2938" arabic-form="isolated" 
d="M719 -557q-299 3 -452.5 136.5t-153.5 365.5q0 244 155 628l133 -51q-124 -343 -127 -545q0 -155 115 -240t348 -85q105 0 198 17.5t155.5 45t108 60.5t66.5 64t21 55q0 33 -23 59t-91 53.5t-185 52.5q-87 18 -146 41.5t-88.5 51.5t-41 55.5t-11.5 62.5q0 108 82 219
q68 93 183.5 170t234.5 118.5t213 41.5q70 0 113 -38t43 -103q0 -55 2 -88q3 -245 149 -322q46 162 97 279.5t104.5 192t119 118t131.5 60t150 16.5q123 0 222 -50.5t160.5 -137.5t93 -200t28.5 -241q-1 -82 -59.5 -146t-154.5 -101.5t-211 -56.5t-240 -19q-167 0 -292.5 24
t-210 67.5t-138 111t-78.5 148t-29 185.5v72q0 37 -37 37q-93 0 -228.5 -66t-219.5 -153q-37 -42 -37 -76q0 -21 11.5 -34.5t51.5 -28t121 -31.5q191 -37 288 -105.5t101 -187.5q0 -23 -2 -33q-4 -92 -49.5 -173t-132.5 -148t-231.5 -107t-329.5 -41zM2185 184
q108 0 216 17.5t186.5 53.5t81.5 81v33q0 146 -72 247q-88 121 -277 121q-85 0 -147 -21.5t-119 -78t-104 -158t-90 -258.5q105 -37 325 -37zM844 -938l-135 102v11l96 127h10l137 -103v-8l-98 -129h-10zM563 -969l-135 101v12l96 127h11l135 -102v-11l-97 -127h-10z" />
    <glyph glyph-name="uniFD07" unicode="&#xfd07;" horiz-adv-x="2938" arabic-form="isolated" 
d="M2269 1147l-147 110v13l104 137h12l148 -111v-10l-107 -139h-10zM719 -557q-299 3 -452.5 136.5t-153.5 365.5q0 244 155 628l133 -51q-124 -343 -127 -545q0 -155 115 -240t348 -85q105 0 198 17.5t155.5 45t108 60.5t66.5 64t21 55q0 33 -23 59t-91 53.5t-185 52.5
q-87 18 -146 41.5t-88.5 51.5t-41 55.5t-11.5 62.5q0 108 82 219q68 93 183.5 170t234.5 118.5t213 41.5q70 0 113 -38t43 -103q0 -55 2 -88q3 -245 149 -322q46 162 97 279.5t104.5 192t119 118t131.5 60t150 16.5q123 0 222 -50.5t160.5 -137.5t93 -200t28.5 -241
q-1 -82 -59.5 -146t-154.5 -101.5t-211 -56.5t-240 -19q-167 0 -292.5 24t-210 67.5t-138 111t-78.5 148t-29 185.5v72q0 37 -37 37q-93 0 -228.5 -66t-219.5 -153q-37 -42 -37 -76q0 -21 11.5 -34.5t51.5 -28t121 -31.5q191 -37 288 -105.5t101 -187.5q0 -23 -2 -33
q-4 -92 -49.5 -173t-132.5 -148t-231.5 -107t-329.5 -41zM2185 184q108 0 216 17.5t186.5 53.5t81.5 81v33q0 146 -72 247q-88 121 -277 121q-85 0 -147 -21.5t-119 -78t-104 -158t-90 -258.5q105 -37 325 -37z" />
    <glyph glyph-name="uniFD08" unicode="&#xfd08;" horiz-adv-x="2938" arabic-form="isolated" 
d="M2269 1147l-147 110v13l104 137h12l148 -111v-10l-107 -139h-10zM719 -557q-299 3 -452.5 136.5t-153.5 365.5q0 244 155 628l133 -51q-124 -343 -127 -545q0 -155 115 -240t348 -85q105 0 198 17.5t155.5 45t108 60.5t66.5 64t21 55q0 33 -23 59t-91 53.5t-185 52.5
q-87 18 -146 41.5t-88.5 51.5t-41 55.5t-11.5 62.5q0 108 82 219q68 93 183.5 170t234.5 118.5t213 41.5q70 0 113 -38t43 -103q0 -55 2 -88q3 -245 149 -322q46 162 97 279.5t104.5 192t119 118t131.5 60t150 16.5q123 0 222 -50.5t160.5 -137.5t93 -200t28.5 -241
q-1 -82 -59.5 -146t-154.5 -101.5t-211 -56.5t-240 -19q-167 0 -292.5 24t-210 67.5t-138 111t-78.5 148t-29 185.5v72q0 37 -37 37q-93 0 -228.5 -66t-219.5 -153q-37 -42 -37 -76q0 -21 11.5 -34.5t51.5 -28t121 -31.5q191 -37 288 -105.5t101 -187.5q0 -23 -2 -33
q-4 -92 -49.5 -173t-132.5 -148t-231.5 -107t-329.5 -41zM2185 184q108 0 216 17.5t186.5 53.5t81.5 81v33q0 146 -72 247q-88 121 -277 121q-85 0 -147 -21.5t-119 -78t-104 -158t-90 -258.5q105 -37 325 -37zM903 -948l-135 102v10l96 127h10l138 -100v-10l-99 -129h-10z
M623 -979l-138 102v11l99 127h10l135 -103v-8l-96 -129h-10z" />
    <glyph glyph-name="uniFD0C" unicode="&#xfd0c;" horiz-adv-x="2920" arabic-form="isolated" 
d="M2187 1171h-10l-131 99v10l94 123h10l131 -98v-9zM2216 1040v11l96 127h10l136 -103v-8l-97 -129h-10zM2079 907h-8l-138 103v10l97 127h12l135 -103v-8zM2808 399q4 -198 -77 -299.5t-234 -101.5q-176 0 -316 137q-59 -68 -156 -104t-215 -33q-218 2 -344.5 136
t-136.5 407q0 13 -1 35.5t-1 31.5q0 33 -10 43.5t-37 10.5q-55 0 -139 -19.5t-166 -58.5q128 -56 204 -171.5t76 -275.5q0 -205 -103.5 -323.5t-260.5 -118.5q-162 0 -270.5 125.5t-108.5 322.5q0 146 53 271q-130 -41 -209.5 -143.5t-79.5 -264.5v-637l-163 -22v649
q0 148 52.5 270t139.5 199t195 120t225 46q120 108 280.5 162.5t307.5 54.5q166 0 172 -139q0 -17 1 -53.5t1 -55.5q4 -193 84 -294t225 -103q103 -2 184.5 27.5t112.5 84.5q28 46 38 113t21 264l136 -4q-3 -126 -4.5 -180.5t-7.5 -117t-17 -103.5q103 -84 233 -84
q86 0 124.5 42t37.5 138q-1 57 -16.5 141.5t-57.5 290.5l160 55q65 -301 68 -471zM1102 137q0 133 -92 211t-232 88q-102 -124 -102 -289q0 -117 61.5 -187.5t153.5 -70.5q89 0 150 65.5t61 182.5z" />
    <glyph glyph-name="uniFD0D" unicode="&#xfd0d;" horiz-adv-x="2906" arabic-form="isolated" 
d="M2230 1176h-10l-131 98v12l94 123h10l131 -98v-11zM2259 1044v11l96 127h10l136 -101v-10l-97 -129h-10zM2124 911h-10l-138 103v10l97 127h12l135 -100v-11zM2806 399q4 -200 -76.5 -300.5t-235.5 -100.5q-175 0 -315 137q-59 -68 -156 -104t-215 -33q-219 3 -344.5 136
t-132.5 405l-2 75q0 40 -47 37q-61 -3 -136 -22t-147.5 -50t-120 -79.5t-44.5 -102.5q1 -17 5 -82.5t6.5 -130.5t0.5 -112q-20 -286 -192.5 -437.5t-471.5 -156.5h-65l-4 157q9 1 27.5 2.5t27.5 2.5q491 30 512 448q5 130 -16 277q-12 96 30.5 177.5t117 134.5t170.5 91
t187 54.5t170 17.5q64 0 101.5 -38.5t42.5 -107.5q4 -70 4 -106q3 -187 80 -285.5t227 -99.5q103 -2 184.5 27.5t112.5 84.5q28 46 38 113t21 264l138 -4q-4 -138 -6 -184t-8 -111t-17 -106q103 -84 233 -84q87 0 125 41.5t37 138.5q-1 57 -16.5 141.5t-57.5 290.5l160 55
q65 -301 68 -471z" />
    <glyph glyph-name="uniFD0E" unicode="&#xfd0e;" horiz-adv-x="2906" arabic-form="isolated" 
d="M2806 399q4 -200 -76.5 -300.5t-235.5 -100.5q-175 0 -315 137q-59 -68 -156 -104t-215 -33q-219 3 -344.5 136t-132.5 405l-2 75q0 40 -47 37q-61 -3 -136 -22t-147.5 -50t-120 -79.5t-44.5 -102.5q1 -17 5 -82.5t6.5 -130.5t0.5 -112q-20 -286 -192.5 -437.5
t-471.5 -156.5h-65l-4 157q9 1 27.5 2.5t27.5 2.5q491 30 512 448q5 130 -16 277q-12 96 30.5 177.5t117 134.5t170.5 91t187 54.5t170 17.5q64 0 101.5 -38.5t42.5 -107.5q4 -70 4 -106q3 -187 80 -285.5t227 -99.5q103 -2 184.5 27.5t112.5 84.5q28 46 38 113t21 264
l138 -4q-4 -138 -6 -184t-8 -111t-17 -106q103 -84 233 -84q87 0 125 41.5t37 138.5q-1 57 -16.5 141.5t-57.5 290.5l160 55q65 -301 68 -471z" />
    <glyph glyph-name="uniFD0F" unicode="&#xfd0f;" horiz-adv-x="2856" arabic-form="isolated" 
d="M180 -522h-63l-4 157q24 3 45 3q293 22 410.5 150t117.5 417q0 36 -0.5 91.5t-1 87.5t0.5 66.5t5 53.5q13 76 87 143t174 108t205.5 64t189.5 21q127 -3 137 -144q1 -12 2 -54t2 -54q9 -230 151 -318q56 201 120 334.5t141 205.5t157.5 100t186.5 28q122 0 220 -50.5
t159.5 -137.5t92.5 -200t29 -241q-2 -100 -101.5 -175.5t-246 -111.5t-311.5 -36q-75 0 -138 3.5t-133 13t-126.5 28t-112.5 46t-97.5 69t-75 95t-52 126.5t-21.5 161q-1 14 -2 43t-2 43q0 40 -43 37q-81 -5 -179.5 -35t-174 -75.5t-82.5 -89.5q-4 -36 -3.5 -69.5t4 -113.5
t3.5 -127q0 -321 -175.5 -489.5t-494.5 -173.5zM1776 223q109 -35 333 -35q78 0 160.5 10t153.5 28.5t117 48.5t47 65v18q0 157 -72 263q-87 120 -274 120q-85 0 -148.5 -22.5t-121.5 -80t-105 -159t-90 -256.5z" />
    <glyph glyph-name="uniFD10" unicode="&#xfd10;" horiz-adv-x="2856" arabic-form="isolated" 
d="M2232 1151l-147 113v10l104 139h13l147 -110v-11l-106 -141h-11zM180 -522h-63l-4 157q24 3 45 3q293 22 410.5 150t117.5 417q0 36 -0.5 91.5t-1 87.5t0.5 66.5t5 53.5q13 76 87 143t174 108t205.5 64t189.5 21q127 -3 137 -144q1 -12 2 -54t2 -54q9 -230 151 -318
q56 201 120 334.5t141 205.5t157.5 100t186.5 28q122 0 220 -50.5t159.5 -137.5t92.5 -200t29 -241q-2 -100 -101.5 -175.5t-246 -111.5t-311.5 -36q-75 0 -138 3.5t-133 13t-126.5 28t-112.5 46t-97.5 69t-75 95t-52 126.5t-21.5 161q-1 14 -2 43t-2 43q0 40 -43 37
q-81 -5 -179.5 -35t-174 -75.5t-82.5 -89.5q-4 -36 -3.5 -69.5t4 -113.5t3.5 -127q0 -321 -175.5 -489.5t-494.5 -173.5zM1776 223q109 -35 333 -35q78 0 160.5 10t153.5 28.5t117 48.5t47 65v18q0 157 -72 263q-87 120 -274 120q-85 0 -148.5 -22.5t-121.5 -80t-105 -159
t-90 -256.5z" />
    <glyph glyph-name="uniFD17" unicode="&#xfd17;" horiz-adv-x="3254" arabic-form="final" 
d="M3254 203q42 0 72.5 -30.5t30.5 -72.5t-30.5 -72t-72.5 -30q-147 0 -243.5 38.5t-153.5 119.5q-79 -158 -262 -158q-84 0 -166.5 36t-149.5 103q-58 -67 -154 -103t-212 -36q-242 0 -362.5 136t-133.5 378q-4 54 -4 78q-3 21 -11 30t-26 9q-101 0 -249 -77.5t-216 -168.5
q-20 -29 -20 -51q0 -20 11.5 -33t51.5 -28t121 -33q202 -40 295.5 -107.5t93.5 -191.5q0 -34 -2 -50q-11 -89 -61 -166.5t-138 -140.5t-228 -99.5t-316 -37.5q-299 3 -452.5 136.5t-153.5 365.5q0 242 155 626l133 -51q-124 -343 -127 -542q0 -155 115.5 -241.5t347.5 -86.5
q105 0 197.5 17t155 44t108.5 60t67 64.5t21 58.5q0 34 -20 58t-87.5 52t-191.5 55q-87 18 -146 41.5t-88.5 51.5t-41 55.5t-11.5 62.5q0 103 70 201q64 96 181 178t241 126t221 44q69 0 112 -38.5t44 -104.5q4 -74 8 -117q9 -172 88 -265t229 -93q102 0 184 28.5t113 83.5
q30 49 41.5 123.5t20.5 253.5l135 -2q-3 -172 -9 -258.5t-22 -144.5q52 -42 115 -63t117 -21q106 0 143 73q17 33 21.5 79.5t1.5 138.5l-9 268l148 24l20 -264q7 -100 24.5 -160t58 -96.5t100 -49.5t157.5 -13z" />
    <glyph glyph-name="uniFD18" unicode="&#xfd18;" horiz-adv-x="3254" arabic-form="final" 
d="M3254 203q42 0 72.5 -30.5t30.5 -72.5t-30.5 -72t-72.5 -30q-147 0 -243.5 38.5t-153.5 119.5q-79 -158 -262 -158q-84 0 -166.5 36t-149.5 103q-58 -67 -154 -103t-212 -36q-242 0 -362.5 136t-133.5 378q-4 54 -4 78q-3 21 -11 30t-26 9q-101 0 -249 -77.5t-216 -168.5
q-20 -29 -20 -51q0 -20 11.5 -33t51.5 -28t121 -33q202 -40 295.5 -107.5t93.5 -191.5q0 -34 -2 -50q-11 -89 -61 -166.5t-138 -140.5t-228 -99.5t-316 -37.5q-299 3 -452.5 136.5t-153.5 365.5q0 242 155 626l133 -51q-124 -343 -127 -542q0 -155 115.5 -241.5t347.5 -86.5
q105 0 197.5 17t155 44t108.5 60t67 64.5t21 58.5q0 34 -20 58t-87.5 52t-191.5 55q-87 18 -146 41.5t-88.5 51.5t-41 55.5t-11.5 62.5q0 103 70 201q64 96 181 178t241 126t221 44q69 0 112 -38.5t44 -104.5q4 -74 8 -117q9 -172 88 -265t229 -93q102 0 184 28.5t113 83.5
q30 49 41.5 123.5t20.5 253.5l135 -2q-3 -172 -9 -258.5t-22 -144.5q52 -42 115 -63t117 -21q106 0 143 73q17 33 21.5 79.5t1.5 138.5l-9 268l148 24l20 -264q7 -100 24.5 -160t58 -96.5t100 -49.5t157.5 -13zM930 -709h10l137 -102v-10l-98 -129h-10l-135 102v12z
M649 -739h10l136 -103v-10l-97 -129h-10l-137 102v13z" />
    <glyph glyph-name="uniFD19" unicode="&#xfd19;" horiz-adv-x="3254" arabic-form="final" 
d="M2300 1176h-8l-131 98v12l92 123h10l133 -98v-11zM2329 1044v11l96 127h10l137 -101v-10l-98 -129h-10zM2193 911h-10l-135 103v10l96 127h10l138 -100v-11zM3254 203q42 0 72.5 -30.5t30.5 -72.5t-30.5 -72t-72.5 -30q-147 0 -243.5 38.5t-153.5 119.5
q-79 -158 -262 -158q-84 0 -166.5 36t-149.5 103q-58 -67 -154 -103t-212 -36q-242 0 -362.5 136t-133.5 378q-4 54 -4 78q-3 21 -11 30t-26 9q-101 0 -249 -77.5t-216 -168.5q-20 -29 -20 -51q0 -20 11.5 -33t51.5 -28t121 -33q202 -40 295.5 -107.5t93.5 -191.5
q0 -34 -2 -50q-11 -89 -61 -166.5t-138 -140.5t-228 -99.5t-316 -37.5q-299 3 -452.5 136.5t-153.5 365.5q0 242 155 626l133 -51q-124 -343 -127 -542q0 -155 115.5 -241.5t347.5 -86.5q105 0 197.5 17t155 44t108.5 60t67 64.5t21 58.5q0 34 -20 58t-87.5 52t-191.5 55
q-87 18 -146 41.5t-88.5 51.5t-41 55.5t-11.5 62.5q0 103 70 201q64 96 181 178t241 126t221 44q69 0 112 -38.5t44 -104.5q4 -74 8 -117q9 -172 88 -265t229 -93q102 0 184 28.5t113 83.5q30 49 41.5 123.5t20.5 253.5l135 -2q-3 -172 -9 -258.5t-22 -144.5q52 -42 115 -63
t117 -21q106 0 143 73q17 33 21.5 79.5t1.5 138.5l-9 268l148 24l20 -264q7 -100 24.5 -160t58 -96.5t100 -49.5t157.5 -13z" />
    <glyph glyph-name="uniFD1A" unicode="&#xfd1a;" horiz-adv-x="3254" arabic-form="final" 
d="M2304 1176h-10l-131 98v12l92 123h10l133 -98v-11zM2331 1044v11l96 127h12l135 -101v-10l-98 -129h-10zM2195 911h-10l-135 103v10l96 127h11l137 -100v-11zM3254 203q42 0 72.5 -30.5t30.5 -72.5t-30.5 -72t-72.5 -30q-147 0 -243.5 38.5t-153.5 119.5
q-79 -158 -262 -158q-84 0 -166.5 36t-149.5 103q-58 -67 -154 -103t-212 -36q-242 0 -362.5 136t-133.5 378q-4 54 -4 78q-3 21 -11 30t-26 9q-101 0 -249 -77.5t-216 -168.5q-20 -29 -20 -51q0 -20 11.5 -33t51.5 -28t121 -33q202 -40 295.5 -107.5t93.5 -191.5
q0 -34 -2 -50q-11 -89 -61 -166.5t-138 -140.5t-228 -99.5t-316 -37.5q-299 3 -452.5 136.5t-153.5 365.5q0 242 155 626l133 -51q-124 -343 -127 -542q0 -155 115.5 -241.5t347.5 -86.5q105 0 197.5 17t155 44t108.5 60t67 64.5t21 58.5q0 34 -20 58t-87.5 52t-191.5 55
q-87 18 -146 41.5t-88.5 51.5t-41 55.5t-11.5 62.5q0 103 70 201q64 96 181 178t241 126t221 44q69 0 112 -38.5t44 -104.5q4 -74 8 -117q9 -172 88 -265t229 -93q102 0 184 28.5t113 83.5q30 49 41.5 123.5t20.5 253.5l135 -2q-3 -172 -9 -258.5t-22 -144.5q52 -42 115 -63
t117 -21q106 0 143 73q17 33 21.5 79.5t1.5 138.5l-9 268l148 24l20 -264q7 -100 24.5 -160t58 -96.5t100 -49.5t157.5 -13zM887 -698h10l135 -103v-8l-96 -129h-10l-135 102v11zM604 -729h12l136 -102v-11l-97 -129h-10l-137 103v12z" />
    <glyph glyph-name="uniFD1B" unicode="&#xfd1b;" horiz-adv-x="2373" arabic-form="final" 
d="M2374 203q41 0 70.5 -30.5t29.5 -72.5q0 -40 -30 -71t-70 -31q-228 0 -349.5 94.5t-148.5 313.5q-74 -41 -188 -113q-78 -46 -125.5 -71.5t-119 -56.5t-138.5 -48q139 -49 139 -185q0 -96 -48.5 -181.5t-138.5 -152.5t-231.5 -106t-314.5 -39q-294 0 -446 133t-152 369
q0 243 155 627l133 -52q-124 -348 -127 -544q0 -326 445 -326q110 0 202.5 16t155.5 42t107.5 59.5t65 69.5t20.5 71q0 30 -18 52t-48 30q-20 6 -39 10t-51.5 9t-57 8t-87 10.5t-109.5 13.5l-59 2l45 180h49q114 0 212.5 15t187.5 46t154.5 62t154.5 80q8 5 36 21.5t40 23
t37 20.5t42 22t40.5 19t45.5 19q-81 42 -170 98q-87 51 -129 74.5t-100 44.5t-103 21q-24 0 -45.5 -5t-39 -10t-36.5 -19.5t-30.5 -22.5t-29 -30.5t-25 -32t-25 -38.5t-22.5 -38t-23.5 -43t-22.5 -42l-114 70q38 92 77 161t88 127t109 88.5t129 30.5q61 0 136 -25.5
t130.5 -54.5t153.5 -86q108 -67 197 -110q76 -37 129.5 -55t118.5 -25l-39 -176q-16 0 -35.5 1t-28.5 1q-27 0 -67 -4q13 -152 89.5 -205t256.5 -53z" />
    <glyph glyph-name="uniFD1D" unicode="&#xfd1d;" horiz-adv-x="2373" arabic-form="final" 
d="M2374 203q41 0 70.5 -30.5t29.5 -72.5q0 -40 -30 -71t-70 -31q-228 0 -349.5 94.5t-148.5 313.5q-74 -41 -188 -113q-78 -46 -125.5 -71.5t-119 -56.5t-138.5 -48q139 -49 139 -185q0 -96 -48.5 -181.5t-138.5 -152.5t-231.5 -106t-314.5 -39q-294 0 -446 133t-152 369
q0 243 155 627l133 -52q-124 -348 -127 -544q0 -326 445 -326q110 0 202.5 16t155.5 42t107.5 59.5t65 69.5t20.5 71q0 30 -18 52t-48 30q-20 6 -39 10t-51.5 9t-57 8t-87 10.5t-109.5 13.5l-59 2l45 180h49q114 0 212.5 15t187.5 46t154.5 62t154.5 80q8 5 36 21.5t40 23
t37 20.5t42 22t40.5 19t45.5 19q-81 42 -170 98q-87 51 -129 74.5t-100 44.5t-103 21q-24 0 -45.5 -5t-39 -10t-36.5 -19.5t-30.5 -22.5t-29 -30.5t-25 -32t-25 -38.5t-22.5 -38t-23.5 -43t-22.5 -42l-114 70q38 92 77 161t88 127t109 88.5t129 30.5q61 0 136 -25.5
t130.5 -54.5t153.5 -86q108 -67 197 -110q76 -37 129.5 -55t118.5 -25l-39 -176q-16 0 -35.5 1t-28.5 1q-27 0 -67 -4q13 -152 89.5 -205t256.5 -53zM1747 -35h12l148 -108v-13l-107 -139h-10l-148 111v12z" />
    <glyph glyph-name="uniFD1F" unicode="&#xfd1f;" horiz-adv-x="2373" arabic-form="final" 
d="M1333 1161h-10l-147 111v12l104 139h12l148 -110v-10zM2374 203q41 0 70.5 -30.5t29.5 -72.5q0 -40 -30 -71t-70 -31q-228 0 -349.5 94.5t-148.5 313.5q-74 -41 -188 -113q-78 -46 -125.5 -71.5t-119 -56.5t-138.5 -48q139 -49 139 -185q0 -96 -48.5 -181.5
t-138.5 -152.5t-231.5 -106t-314.5 -39q-294 0 -446 133t-152 369q0 243 155 627l133 -52q-124 -348 -127 -544q0 -326 445 -326q110 0 202.5 16t155.5 42t107.5 59.5t65 69.5t20.5 71q0 30 -18 52t-48 30q-20 6 -39 10t-51.5 9t-57 8t-87 10.5t-109.5 13.5l-59 2l45 180h49
q114 0 212.5 15t187.5 46t154.5 62t154.5 80q8 5 36 21.5t40 23t37 20.5t42 22t40.5 19t45.5 19q-81 42 -170 98q-87 51 -129 74.5t-100 44.5t-103 21q-24 0 -45.5 -5t-39 -10t-36.5 -19.5t-30.5 -22.5t-29 -30.5t-25 -32t-25 -38.5t-22.5 -38t-23.5 -43t-22.5 -42l-114 70
q38 92 77 161t88 127t109 88.5t129 30.5q61 0 136 -25.5t130.5 -54.5t153.5 -86q108 -67 197 -110q76 -37 129.5 -55t118.5 -25l-39 -176q-16 0 -35.5 1t-28.5 1q-27 0 -67 -4q13 -152 89.5 -205t256.5 -53z" />
    <glyph glyph-name="uniFD20" unicode="&#xfd20;" horiz-adv-x="2373" arabic-form="final" 
d="M1333 1161h-10l-147 111v12l104 139h12l148 -110v-10zM2374 203q41 0 70.5 -30.5t29.5 -72.5q0 -40 -30 -71t-70 -31q-228 0 -349.5 94.5t-148.5 313.5q-74 -41 -188 -113q-78 -46 -125.5 -71.5t-119 -56.5t-138.5 -48q139 -49 139 -185q0 -96 -48.5 -181.5
t-138.5 -152.5t-231.5 -106t-314.5 -39q-294 0 -446 133t-152 369q0 243 155 627l133 -52q-124 -348 -127 -544q0 -326 445 -326q110 0 202.5 16t155.5 42t107.5 59.5t65 69.5t20.5 71q0 30 -18 52t-48 30q-20 6 -39 10t-51.5 9t-57 8t-87 10.5t-109.5 13.5l-59 2l45 180h49
q114 0 212.5 15t187.5 46t154.5 62t154.5 80q8 5 36 21.5t40 23t37 20.5t42 22t40.5 19t45.5 19q-81 42 -170 98q-87 51 -129 74.5t-100 44.5t-103 21q-24 0 -45.5 -5t-39 -10t-36.5 -19.5t-30.5 -22.5t-29 -30.5t-25 -32t-25 -38.5t-22.5 -38t-23.5 -43t-22.5 -42l-114 70
q38 92 77 161t88 127t109 88.5t129 30.5q61 0 136 -25.5t130.5 -54.5t153.5 -86q108 -67 197 -110q76 -37 129.5 -55t118.5 -25l-39 -176q-16 0 -35.5 1t-28.5 1q-27 0 -67 -4q13 -152 89.5 -205t256.5 -53zM836 -645h12l135 -103v-8l-98 -129h-11l-135 103v10zM555 -676h10
l137 -102v-10l-98 -127h-10l-135 100v12z" />
    <glyph glyph-name="uniFD21" unicode="&#xfd21;" horiz-adv-x="2988" arabic-form="final" 
d="M2988 203q40 0 70 -31t30 -72q0 -40 -30 -71t-70 -31q-109 0 -183 21.5t-126 70.5q-186 -108 -518 -108q-167 0 -292.5 24t-210 67.5t-138 111t-78.5 148t-29 185.5v72q0 37 -37 37q-93 0 -228.5 -66t-219.5 -153q-37 -42 -37 -76q0 -21 11.5 -34.5t51.5 -28t121 -31.5
q191 -37 288 -105.5t101 -187.5q0 -23 -2 -33q-4 -92 -49.5 -173t-132.5 -148t-231.5 -107t-329.5 -41q-299 3 -452.5 136.5t-153.5 365.5q0 244 155 628l133 -51q-124 -343 -127 -545q0 -155 115 -240t348 -85q105 0 198 17.5t155.5 45t108 60.5t66.5 64t21 55q0 33 -23 59
t-91 53.5t-185 52.5q-87 18 -146 41.5t-88.5 51.5t-41 55.5t-11.5 62.5q0 108 82 219q68 93 183.5 170t234.5 118.5t213 41.5q70 0 113 -38t43 -103q0 -55 2 -88q3 -245 149 -322q46 162 97 279.5t104.5 192t119 118t131.5 60t150 16.5q123 0 222 -50.5t160.5 -137.5
t93 -200t28.5 -241q0 -41 -20 -86q55 -16 182 -16zM1860 221q105 -37 325 -37q108 0 216 17.5t186.5 53.5t81.5 81v33q0 146 -72 247q-88 121 -277 121q-85 0 -147 -21.5t-119 -78t-104 -158t-90 -258.5z" />
    <glyph glyph-name="uniFD22" unicode="&#xfd22;" horiz-adv-x="2988" arabic-form="final" 
d="M2988 203q40 0 70 -31t30 -72q0 -40 -30 -71t-70 -31q-109 0 -183 21.5t-126 70.5q-186 -108 -518 -108q-167 0 -292.5 24t-210 67.5t-138 111t-78.5 148t-29 185.5v72q0 37 -37 37q-93 0 -228.5 -66t-219.5 -153q-37 -42 -37 -76q0 -21 11.5 -34.5t51.5 -28t121 -31.5
q191 -37 288 -105.5t101 -187.5q0 -23 -2 -33q-4 -92 -49.5 -173t-132.5 -148t-231.5 -107t-329.5 -41q-299 3 -452.5 136.5t-153.5 365.5q0 244 155 628l133 -51q-124 -343 -127 -545q0 -155 115 -240t348 -85q105 0 198 17.5t155.5 45t108 60.5t66.5 64t21 55q0 33 -23 59
t-91 53.5t-185 52.5q-87 18 -146 41.5t-88.5 51.5t-41 55.5t-11.5 62.5q0 108 82 219q68 93 183.5 170t234.5 118.5t213 41.5q70 0 113 -38t43 -103q0 -55 2 -88q3 -245 149 -322q46 162 97 279.5t104.5 192t119 118t131.5 60t150 16.5q123 0 222 -50.5t160.5 -137.5
t93 -200t28.5 -241q0 -41 -20 -86q55 -16 182 -16zM1860 221q105 -37 325 -37q108 0 216 17.5t186.5 53.5t81.5 81v33q0 146 -72 247q-88 121 -277 121q-85 0 -147 -21.5t-119 -78t-104 -158t-90 -258.5zM856 -696h12l136 -101v-10l-99 -129h-8l-137 102v11zM575 -727h11
l137 -100v-11l-98 -129h-11l-135 103v10z" />
    <glyph glyph-name="uniFD23" unicode="&#xfd23;" horiz-adv-x="2988" arabic-form="final" 
d="M2290 1147h-11l-147 110v13l104 137h13l147 -111v-10zM2988 203q40 0 70 -31t30 -72q0 -40 -30 -71t-70 -31q-109 0 -183 21.5t-126 70.5q-186 -108 -518 -108q-167 0 -292.5 24t-210 67.5t-138 111t-78.5 148t-29 185.5v72q0 37 -37 37q-93 0 -228.5 -66t-219.5 -153
q-37 -42 -37 -76q0 -21 11.5 -34.5t51.5 -28t121 -31.5q191 -37 288 -105.5t101 -187.5q0 -23 -2 -33q-4 -92 -49.5 -173t-132.5 -148t-231.5 -107t-329.5 -41q-299 3 -452.5 136.5t-153.5 365.5q0 244 155 628l133 -51q-124 -343 -127 -545q0 -155 115 -240t348 -85
q105 0 198 17.5t155.5 45t108 60.5t66.5 64t21 55q0 33 -23 59t-91 53.5t-185 52.5q-87 18 -146 41.5t-88.5 51.5t-41 55.5t-11.5 62.5q0 108 82 219q68 93 183.5 170t234.5 118.5t213 41.5q70 0 113 -38t43 -103q0 -55 2 -88q3 -245 149 -322q46 162 97 279.5t104.5 192
t119 118t131.5 60t150 16.5q123 0 222 -50.5t160.5 -137.5t93 -200t28.5 -241q0 -41 -20 -86q55 -16 182 -16zM1860 221q105 -37 325 -37q108 0 216 17.5t186.5 53.5t81.5 81v33q0 146 -72 247q-88 121 -277 121q-85 0 -147 -21.5t-119 -78t-104 -158t-90 -258.5z" />
    <glyph glyph-name="uniFD24" unicode="&#xfd24;" horiz-adv-x="2988" arabic-form="final" 
d="M2288 1147h-11l-147 110v13l104 137h13l147 -111v-10zM2988 203q40 0 70 -31t30 -72q0 -40 -30 -71t-70 -31q-109 0 -183 21.5t-126 70.5q-186 -108 -518 -108q-167 0 -292.5 24t-210 67.5t-138 111t-78.5 148t-29 185.5v72q0 37 -37 37q-93 0 -228.5 -66t-219.5 -153
q-37 -42 -37 -76q0 -21 11.5 -34.5t51.5 -28t121 -31.5q191 -37 288 -105.5t101 -187.5q0 -23 -2 -33q-4 -92 -49.5 -173t-132.5 -148t-231.5 -107t-329.5 -41q-299 3 -452.5 136.5t-153.5 365.5q0 244 155 628l133 -51q-124 -343 -127 -545q0 -155 115 -240t348 -85
q105 0 198 17.5t155.5 45t108 60.5t66.5 64t21 55q0 33 -23 59t-91 53.5t-185 52.5q-87 18 -146 41.5t-88.5 51.5t-41 55.5t-11.5 62.5q0 108 82 219q68 93 183.5 170t234.5 118.5t213 41.5q70 0 113 -38t43 -103q0 -55 2 -88q3 -245 149 -322q46 162 97 279.5t104.5 192
t119 118t131.5 60t150 16.5q123 0 222 -50.5t160.5 -137.5t93 -200t28.5 -241q0 -41 -20 -86q55 -16 182 -16zM1860 221q105 -37 325 -37q108 0 216 17.5t186.5 53.5t81.5 81v33q0 146 -72 247q-88 121 -277 121q-85 0 -147 -21.5t-119 -78t-104 -158t-90 -258.5zM889 -705
h10l137 -102v-8l-98 -129h-10l-135 102v11zM608 -735h10l138 -103v-10l-99 -127h-10l-135 101v12z" />
    <glyph glyph-name="uniFD28" unicode="&#xfd28;" horiz-adv-x="3155" arabic-form="final" 
d="M2187 1171h-10l-131 99v10l94 123h10l131 -98v-9zM2216 1040v11l96 127h10l136 -103v-8l-97 -129h-10zM2079 907h-8l-138 103v10l97 127h12l135 -103v-8zM3156 203q41 0 70.5 -30.5t29.5 -72.5q0 -41 -29.5 -71.5t-70.5 -30.5q-147 0 -244 38t-155 120
q-74 -158 -260 -158q-85 0 -167.5 35.5t-148.5 101.5q-59 -66 -155 -102t-214 -35q-225 3 -355 143t-130 424v66q-1 19 -12.5 25t-36.5 6q-55 0 -138.5 -19t-164.5 -57q128 -58 204 -173.5t76 -275.5q0 -204 -103.5 -323t-260.5 -119q-161 0 -270 125.5t-109 320.5
q0 150 55 273q-130 -40 -210.5 -142t-80.5 -266v-637l-163 -24v651q0 120 35 224t95 178.5t139 127.5t168.5 79.5t182.5 27.5q121 107 280.5 161t299.5 54q165 0 172 -137q0 -19 1 -56t1 -55q4 -192 83.5 -293t225.5 -104q101 -2 183.5 27.5t113.5 84.5q28 47 38 113.5
t21 263.5l136 -2q-3 -127 -4.5 -181.5t-7.5 -117.5t-17 -104q52 -41 114.5 -62.5t118.5 -21.5q106 0 142 73q17 33 21 79t1 139l-8 268l148 24l18 -264q7 -100 25 -160t59 -96.5t100.5 -49.5t157.5 -13zM1102 137q0 134 -92.5 211.5t-233.5 87.5q-100 -122 -100 -286
q0 -118 61.5 -188.5t153.5 -70.5q88 0 149.5 65t61.5 181z" />
    <glyph glyph-name="uniFD29" unicode="&#xfd29;" horiz-adv-x="3153" arabic-form="final" 
d="M2230 1176h-10l-131 98v12l94 123h10l131 -98v-11zM2259 1044v11l96 127h10l136 -101v-10l-97 -129h-10zM2124 911h-10l-138 103v10l97 127h12l135 -100v-11zM3154 203q41 0 70.5 -30.5t29.5 -72.5q0 -41 -29.5 -71.5t-70.5 -30.5q-147 0 -244 38t-155 120
q-74 -158 -261 -158q-85 0 -167 35.5t-148 101.5q-59 -67 -156.5 -103.5t-214.5 -33.5q-439 6 -475 532q-4 40 -4 86q0 41 -47 35q-47 -2 -105 -13.5t-121.5 -34.5t-114.5 -54t-81.5 -76t-25.5 -96q17 -171 12 -307q-20 -283 -192.5 -434.5t-471.5 -157.5q-42 0 -65 2
l-4 158q39 0 59 2q487 30 508 448q5 130 -16 277q-10 81 18.5 152t84 121.5t127.5 90t153 63t156 35.5t140 13t100 -36.5t40 -107.5q4 -70 4 -106q6 -381 307 -387q103 -2 184.5 27.5t112.5 84.5q28 47 38 113.5t21 263.5l138 -2q-8 -270 -19 -342q-5 -34 -12 -61
q52 -41 114.5 -62.5t118.5 -21.5q106 0 142 73q17 33 21 79t1 139l-8 268l147 24l19 -264q7 -100 25 -160t59 -96.5t100.5 -49.5t157.5 -13z" />
    <glyph glyph-name="uniFD2A" unicode="&#xfd2a;" horiz-adv-x="3153" arabic-form="final" 
d="M3154 203q41 0 70.5 -30.5t29.5 -72.5q0 -41 -29.5 -71.5t-70.5 -30.5q-147 0 -244 38t-155 120q-74 -158 -261 -158q-85 0 -167 35.5t-148 101.5q-59 -67 -156.5 -103.5t-214.5 -33.5q-439 6 -475 532q-4 40 -4 86q0 41 -47 35q-47 -2 -105 -13.5t-121.5 -34.5
t-114.5 -54t-81.5 -76t-25.5 -96q17 -171 12 -307q-20 -283 -192.5 -434.5t-471.5 -157.5q-42 0 -65 2l-4 158q39 0 59 2q487 30 508 448q5 130 -16 277q-10 81 18.5 152t84 121.5t127.5 90t153 63t156 35.5t140 13t100 -36.5t40 -107.5q4 -70 4 -106q6 -381 307 -387
q103 -2 184.5 27.5t112.5 84.5q28 47 38 113.5t21 263.5l138 -2q-8 -270 -19 -342q-5 -34 -12 -61q52 -41 114.5 -62.5t118.5 -21.5q106 0 142 73q17 33 21 79t1 139l-8 268l147 24l19 -264q7 -100 25 -160t59 -96.5t100.5 -49.5t157.5 -13z" />
    <glyph glyph-name="uniFD2B" unicode="&#xfd2b;" horiz-adv-x="2906" arabic-form="final" 
d="M2906 213q41 0 72 -30.5t31 -71.5q0 -40 -31 -71.5t-72 -31.5q-109 0 -182.5 22t-126.5 72q-95 -56 -231.5 -86t-280.5 -30q-75 0 -138 3.5t-133 13t-126.5 28t-112.5 46t-97.5 69t-75 95t-52 126.5t-21.5 161q-1 14 -2 43t-2 43q0 40 -43 37q-81 -5 -179.5 -35
t-174 -75.5t-82.5 -89.5q-4 -36 -3.5 -69.5t4 -113.5t3.5 -127q0 -321 -175.5 -489.5t-494.5 -173.5h-63l-4 157q24 3 45 3q293 22 410.5 150t117.5 417q0 36 -0.5 91.5t-1 87.5t0.5 66.5t5 53.5q13 76 87 143t174 108t205.5 64t189.5 21q127 -3 137 -144q1 -12 2 -54t2 -54
q9 -230 151 -318q56 201 120 334.5t141 205.5t157.5 100t186.5 28q122 0 220 -50.5t159.5 -137.5t92.5 -200t29 -241q0 -35 -18 -80q52 -16 180 -16zM1776 223q109 -35 333 -35q78 0 160.5 10t153.5 28.5t117 48.5t47 65v18q0 157 -72 263q-87 120 -274 120
q-85 0 -148.5 -22.5t-121.5 -80t-105 -159t-90 -256.5z" />
    <glyph glyph-name="uniFD2C" unicode="&#xfd2c;" horiz-adv-x="2906" arabic-form="final" 
d="M2238 1145h-10l-147 110v13l104 137h13l147 -111v-10zM2906 213q41 0 72 -30.5t31 -71.5q0 -40 -31 -71.5t-72 -31.5q-109 0 -182.5 22t-126.5 72q-95 -56 -231.5 -86t-280.5 -30q-75 0 -138 3.5t-133 13t-126.5 28t-112.5 46t-97.5 69t-75 95t-52 126.5t-21.5 161
q-1 14 -2 43t-2 43q0 40 -43 37q-81 -5 -179.5 -35t-174 -75.5t-82.5 -89.5q-4 -36 -3.5 -69.5t4 -113.5t3.5 -127q0 -321 -175.5 -489.5t-494.5 -173.5h-63l-4 157q24 3 45 3q293 22 410.5 150t117.5 417q0 36 -0.5 91.5t-1 87.5t0.5 66.5t5 53.5q13 76 87 143t174 108
t205.5 64t189.5 21q127 -3 137 -144q1 -12 2 -54t2 -54q9 -230 151 -318q56 201 120 334.5t141 205.5t157.5 100t186.5 28q122 0 220 -50.5t159.5 -137.5t92.5 -200t29 -241q0 -35 -18 -80q52 -16 180 -16zM1776 223q109 -35 333 -35q78 0 160.5 10t153.5 28.5t117 48.5
t47 65v18q0 157 -72 263q-87 120 -274 120q-85 0 -148.5 -22.5t-121.5 -80t-105 -159t-90 -256.5z" />
    <glyph glyph-name="uniFD30" unicode="&#xfd30;" horiz-adv-x="2445" arabic-form="initial" 
d="M1726 1176h-10l-131 98v12l92 123h11l133 -98v-11zM1753 1044v11l96 127h13l135 -101v-10l-99 -129h-10zM1618 911h-10l-135 103v10l96 127h10l137 -100v-11zM2333 399q3 -198 -78 -299.5t-234 -101.5q-175 0 -315 137q-59 -66 -156.5 -101.5t-212.5 -35.5
q-158 0 -264 65t-156 177t-57 270q-4 58 -4 74q-1 26 -11.5 33.5t-35.5 5.5q-49 -2 -106.5 -21.5t-118 -58t-114 -89t-96 -120t-61.5 -146.5l54 -6q108 -14 190.5 -40t151 -71t105 -118t36.5 -172q0 -176 -95 -273.5t-245 -97.5q-104 0 -185.5 42.5t-133 118.5t-78 175
t-27.5 217q0 6 1 17t1 16h-88q-40 0 -70 31.5t-30 72.5q0 40 29.5 70.5t70.5 30.5h133q32 136 115.5 253.5t189 193t220 118t216.5 43.5q65 1 100 -34t40 -99q5 -113 6 -119q9 -173 88.5 -262.5t224.5 -91.5q95 -2 174.5 27.5t110.5 84.5q29 46 39 118t20 259l135 -4
q-3 -136 -4 -183t-7 -112t-17 -106q51 -42 113.5 -63t117.5 -21q87 0 126 42.5t38 137.5q-1 57 -16.5 141.5t-57.5 290.5l160 55q65 -301 68 -471zM332 -4h-80q-2 -6 -2 -23q-5 -163 63.5 -263.5t200.5 -100.5q82 0 131 45.5t49 128.5q0 59 -25.5 100t-76 64.5t-112.5 34.5
t-148 14z" />
    <glyph glyph-name="uniFDFC" unicode="&#xfdfc;" horiz-adv-x="2772" arabic-form="isolated" 
d="M494 -123q-189 2 -293.5 100.5t-104.5 276.5q0 185 121 500l105 -39q-97 -289 -97 -428q0 -118 69.5 -180.5t205.5 -65.5q46 -1 95 5.5t105 26.5t98.5 51.5t71 86.5t27.5 125l-16 950q0 54 36 89t93 40l243 21q54 3 90.5 -34t36.5 -93l4 -613q0 -72 12.5 -118.5
t39.5 -70.5t60.5 -33t84.5 -9h145q162 0 246.5 40.5t83.5 133.5q-2 111 -69 397l133 45q37 -168 49.5 -252.5t15.5 -175.5q3 -172 -115 -263t-344 -91h-145q-170 0 -250.5 95t-83.5 298l-10 596q0 8 -4 12t-10 3l-189 -19q-14 -3 -14 -14l4 -924q1 -115 -41 -206t-115 -148
t-168.5 -86.5t-205.5 -28.5zM2075 -98l-2 129q209 -6 338 87t139 259q9 171 -90 420l131 63q86 -242 86 -448q0 -160 -71 -280.5t-209 -183t-322 -46.5zM1313 -104v143l659 -8v-123z" />
    <glyph glyph-name="uniFE80" unicode="&#x621;" horiz-adv-x="1239" arabic-form="isolated" 
d="M1102 356l16 -163l-1012 -297l-16 165l244 72q-98 163 -98 334q5 171 102.5 291t253.5 119q188 0 369 -205l-68 -97q-80 65 -144.5 97t-142.5 33q-97 2 -163 -66.5t-66 -173.5q-1 -73 27.5 -149t80.5 -140z" />
    <glyph glyph-name="uniFE81" unicode="&#x622;" horiz-adv-x="393" arabic-form="isolated" 
d="M444 1530l80 -19q-6 -86 -45 -133t-108 -47q-63 0 -185 39q-10 4 -32 12t-30.5 10.5t-24.5 8t-25 7.5t-21 3.5t-22 1.5q-33 0 -51.5 -20.5t-30.5 -67.5l-80 18q24 190 166 193q59 5 174 -37q11 -4 44.5 -14.5t47.5 -15t34.5 -9t33.5 -4.5q35 0 50.5 16t24.5 58zM123 -4
l-8 1239l161 16l3 -1249z" />
    <glyph glyph-name="uniFE82" unicode="&#x622;" horiz-adv-x="546" arabic-form="final" 
d="M432 1526l80 -19q-16 -180 -154 -180q-62 0 -184 39q-8 3 -32 11.5t-31 11t-24.5 8t-25.5 7t-20.5 3.5t-22.5 2q-34 0 -51 -19.5t-30 -66.5l-80 16q24 189 166 195q60 2 174 -39q13 -4 44.5 -14.5t46.5 -15t35 -9t33 -4.5q35 0 51 16.5t25 57.5zM547 -2q-220 0 -321 121
t-103 377l-6 739l162 16l2 -749q0 -91 15.5 -150t50.5 -91.5t81.5 -45t118.5 -12.5q41 0 71.5 -31t30.5 -72q0 -40 -30.5 -71t-71.5 -31z" />
    <glyph glyph-name="uniFE83" unicode="&#x623;" horiz-adv-x="393" arabic-form="isolated" 
d="M475 1497l2 -96l-561 -127v96l129 29q-38 68 -35 155q3 96 57.5 162t139.5 62q95 -3 192 -111l-47 -61q-33 25 -47.5 35t-40 20.5t-51.5 11.5q-51 1 -81 -29.5t-32 -84.5q-3 -76 43 -138zM117 1235l162 16l2 -1249l-156 -6z" />
    <glyph glyph-name="uniFE84" unicode="&#x623;" horiz-adv-x="546" arabic-form="final" 
d="M475 1497l2 -96l-561 -127v96l129 29q-38 68 -35 155q3 96 57.5 162t139.5 62q95 -3 192 -111l-47 -61q-33 25 -47.5 35t-40 20.5t-51.5 11.5q-51 1 -81 -29.5t-32 -84.5q-3 -76 43 -138zM547 203q41 0 71.5 -31t30.5 -72q0 -40 -30.5 -71t-71.5 -31q-220 0 -321 121
t-103 377l-6 739l162 16l2 -749q0 -91 15.5 -150t50.5 -91.5t81.5 -45t118.5 -12.5z" />
    <glyph glyph-name="uniFE85" unicode="&#x624;" horiz-adv-x="1089" arabic-form="isolated" 
d="M231 987l-4 94l129 35q-41 71 -41 156q0 95 52.5 161.5t138.5 65.5q95 3 196 -104l-45 -62q-45 33 -75 48t-66 16q-51 0 -80.5 -32.5t-29.5 -86.5q0 -75 49 -137l329 88l4 -96zM535 879q214 0 327 -190t113 -542q0 -171 -54 -299.5t-154 -208.5t-234.5 -121t-303.5 -46
q-20 -1 -112 4l-4 168h75q276 9 441 121.5t180 302.5q-128 -70 -317 -70q-175 0 -262 73.5t-87 233.5q0 83 10 158t36.5 153t69 134.5t113.5 92.5t163 36zM504 203q187 0 307 53q-32 432 -283 432q-44 0 -80 -13t-59 -33.5t-40.5 -51.5t-26 -60t-14 -67t-6.5 -64t-1 -59
q0 -76 44.5 -106.5t158.5 -30.5z" />
    <glyph glyph-name="uniFE86" unicode="&#x624;" horiz-adv-x="1095" arabic-form="final" 
d="M231 987l-4 94l129 35q-41 71 -41 156q0 95 52.5 161.5t138.5 65.5q95 3 196 -104l-45 -62q-45 33 -75 48t-66 16q-51 0 -80.5 -32.5t-29.5 -86.5q0 -75 49 -137l329 88l4 -96zM1094 203q41 0 71.5 -31t30.5 -72q0 -40 -30.5 -71t-71.5 -31h-131q-43 -258 -235.5 -388
t-494.5 -136q-19 -1 -116 4l-4 166h82q248 8 403.5 99t198.5 255h-303q-177 0 -264 73.5t-87 233.5q0 83 10 158t36.5 153t69 134.5t113.5 92.5t163 36q205 0 318 -175.5t122 -500.5h119zM301 340q0 -76 44.5 -106.5t158.5 -30.5h307q-4 86 -14.5 156t-31.5 132.5t-52 105
t-78 67t-107 24.5q-44 0 -80 -13t-59 -33.5t-40.5 -51.5t-26 -60t-14 -67t-6.5 -64t-1 -59z" />
    <glyph glyph-name="uniFE87" unicode="&#x625;" horiz-adv-x="675" arabic-form="isolated" 
d="M301 -8l-156 -12l-12 1495l166 20zM551 -342l4 -96l-557 -146l-4 97l129 34q-41 71 -41 154q2 96 53 162t137 65q96 3 197 -104l-45 -62q-32 23 -48.5 33.5t-41.5 20t-51 10.5q-51 0 -81 -32.5t-30 -86.5q0 -76 47 -135z" />
    <glyph glyph-name="uniFE88" unicode="&#x625;" horiz-adv-x="567" arabic-form="final" 
d="M567 203q40 0 71.5 -31t31.5 -72q0 -40 -31.5 -71t-71.5 -31q-228 0 -326 121t-100 383l-8 971l166 20l2 -985q0 -94 16.5 -155t52.5 -93.5t82 -44.5t115 -12zM289 -424l329 86l7 -94l-559 -148l-3 97l130 34q-44 70 -41 154q0 96 52 163t138 66q99 0 197 -104l-47 -63
q-44 33 -74 48t-66 15q-51 0 -80.5 -32.5t-29.5 -86.5q-3 -72 47 -135z" />
    <glyph glyph-name="uniFE89" unicode="&#x626;" horiz-adv-x="1611" arabic-form="isolated" 
d="M141 686l-2 94l129 35q-44 70 -41 156q0 95 52.5 161.5t138.5 65.5q95 0 196 -104l-47 -62q-43 33 -73 48t-68 16q-51 -2 -80 -34t-29 -87q-3 -72 50 -135l327 86l6 -95zM1135 205q70 -10 118 -20.5t93.5 -30t72 -47t42 -69.5t14.5 -99q-2 -64 -30.5 -131t-89.5 -133
t-146.5 -117t-212.5 -83t-277 -32q-301 0 -453.5 133.5t-152.5 368.5q0 244 155 628l133 -51q-124 -348 -127 -545q0 -160 110 -242.5t351 -82.5q107 0 204 20t164 50.5t117 67t73 70.5t22 60q-2 44 -52 62q-32 12 -180 33q-20 3 -36 5q-50 7 -78 11.5t-69.5 14.5
t-64.5 21.5t-51 32t-43 47t-26.5 64.5t-14.5 86q-5 86 16 181.5t64.5 183t102 159t135.5 114t158 42.5q91 0 161.5 -34t139.5 -91l-74 -123q-110 55 -205 55q-79 0 -148.5 -47t-112.5 -116t-65.5 -146.5t-17.5 -140.5q2 -19 8.5 -34t14.5 -26t25.5 -19.5t31 -14t43 -11
t49 -8.5t60.5 -9q32 -4 49 -7z" />
    <glyph glyph-name="uniFE8A" unicode="&#x626;" horiz-adv-x="1552" arabic-form="final" 
d="M559 403l-4 97l129 35q-41 71 -41 153q0 96 52.5 163.5t138.5 66.5q97 0 196 -105l-45 -63q-32 23 -49 34t-42 20t-50 9q-51 0 -81 -32.5t-30 -86.5q0 -77 49 -135l330 86l4 -94zM1552 203q42 0 71.5 -30.5t29.5 -72.5q0 -40 -29 -70.5t-70 -31.5q-88 0 -129 16
q15 -39 15 -96q-6 -91 -55.5 -174.5t-138 -151.5t-227.5 -108.5t-308 -40.5q-294 0 -446 133.5t-152 368.5q0 244 155 628l133 -51q-124 -348 -127 -545q0 -325 445 -325q141 0 266.5 33t203 92.5t77.5 130.5q0 29 -12.5 49.5t-32.5 26.5q-44 18 -344 53l34 182
q235 -11 332.5 -13.5t308.5 -2.5z" />
    <glyph glyph-name="uniFE8B" unicode="&#x626;" horiz-adv-x="741" arabic-form="initial" 
d="M109 1069l-7 94l129 39q-44 70 -47 154q-3 94 47.5 163t135.5 70q97 3 198 -98l-43 -64q-32 22 -49 32t-42 19t-50 9q-51 -3 -79.5 -36t-27.5 -87q0 -71 52 -133l327 96l6 -94zM549 993q47 -214 62.5 -322t17.5 -216q4 -227 -146.5 -342t-451.5 -115h-31
q-41 0 -70.5 30.5t-29.5 71.5q0 42 29 72.5t71 30.5h27q227 0 338 56.5t108 176.5q-6 165 -88 502z" />
    <glyph glyph-name="uniFE8C" unicode="&#x626;" horiz-adv-x="882" arabic-form="medial" 
d="M166 936l-2 96l131 31q-42 75 -39 156q2 96 55.5 162t139.5 63q94 0 194 -109l-47 -61q-43 34 -73 49.5t-66 15.5q-51 1 -81 -30.5t-32 -85.5q-3 -71 45 -136l332 80l4 -94zM883 203q41 0 70.5 -30.5t29.5 -72.5q0 -40 -30 -71t-70 -31q-158 0 -261 38.5t-161 121.5
q-89 -81 -211 -120.5t-250 -39.5q-41 0 -70.5 30.5t-29.5 71.5q0 42 29 72.5t71 30.5q261 0 395 110q-19 74 -22 191l-6 268l143 12l16 -260q5 -95 23 -154t59.5 -97.5t106.5 -54t168 -15.5z" />
    <glyph glyph-name="uniFE8D" unicode="&#x627;" horiz-adv-x="428" arabic-form="isolated" 
d="M145 -20l-12 1495l166 20l2 -1503z" />
    <glyph glyph-name="uniFE8E" unicode="&#x627;" horiz-adv-x="567" arabic-form="final" 
d="M567 -2q-228 0 -326 121t-100 383l-8 971l166 20l2 -985q0 -94 16.5 -155t52.5 -93.5t82 -44.5t115 -12q40 0 71.5 -31t31.5 -72q0 -40 -31.5 -71t-71.5 -31z" />
    <glyph glyph-name="uniFE8F" unicode="&#x628;" horiz-adv-x="1740" arabic-form="isolated" 
d="M731 -41q-312 6 -462.5 111.5t-155.5 316.5q-6 192 102 465l127 -41q-82 -257 -70 -389q5 -83 49 -135.5t149 -83t280 -35.5q136 -5 260 6.5t232 39.5t171 82.5t60 129.5q-3 85 -19 181.5t-57 291.5l164 55q38 -184 52.5 -296.5t16.5 -221.5q1 -240 -234 -362.5
t-665 -114.5zM786 -526l-147 110v13l106 137h11l147 -109v-12l-104 -139h-13z" />
    <glyph glyph-name="uniFE90" unicode="&#x628;" horiz-adv-x="1957" arabic-form="final" 
d="M1958 203q41 0 70.5 -30.5t29.5 -72.5q0 -41 -29.5 -71.5t-70.5 -30.5q-312 0 -424 164q-262 -206 -803 -203q-311 3 -462 110t-156 318q-6 192 102 465l127 -41q-72 -217 -72 -358q0 -66 19.5 -113.5t57 -80t100 -52t141 -28.5t188.5 -11q215 -6 395.5 30.5t298.5 114.5
q-19 74 -22 191l-6 264l143 14l17 -258q5 -101 23.5 -161.5t61.5 -97t105.5 -49.5t165.5 -13zM731 -279h12l148 -110v-10l-105 -140h-12l-147 111v12z" />
    <glyph glyph-name="uniFE91" unicode="&#x628;" horiz-adv-x="741" arabic-form="initial" 
d="M-100 100q0 42 29 72.5t71 30.5h27q227 0 338 56.5t108 176.5q-6 165 -88 502l164 55q47 -214 62.5 -322t17.5 -216q4 -227 -146.5 -342t-451.5 -115h-31q-41 0 -70.5 30.5t-29.5 71.5zM352 -502l-147 111v12l104 137h13l147 -108v-12l-104 -140h-13z" />
    <glyph glyph-name="uniFE92" unicode="&#x628;" horiz-adv-x="882" arabic-form="medial" 
d="M883 203q41 0 70.5 -30.5t29.5 -72.5q0 -40 -30 -71t-70 -31q-158 0 -261 38.5t-161 121.5q-89 -81 -211 -120.5t-250 -39.5q-41 0 -70.5 30.5t-29.5 71.5q0 42 29 72.5t71 30.5q261 0 395 110q-19 74 -22 191l-6 268l143 12l16 -260q5 -95 23 -154t59.5 -97.5t106.5 -54
t168 -15.5zM461 -221h12l148 -111v-10l-107 -139h-10l-148 110v13z" />
    <glyph glyph-name="uniFE93" unicode="&#x629;" horiz-adv-x="1077" arabic-form="isolated" 
d="M647 1194h-12l-141 109v10l100 133h12l142 -107v-10zM356 1163h-10l-143 107v12l102 133h10l144 -106v-11zM319 1018q120 -40 214 -84.5t178 -106t139 -134t86.5 -168t30.5 -208.5q-1 -117 -68 -198.5t-170 -117.5t-231 -36q-193 0 -287 89t-92 233q1 131 63.5 268
t175.5 264q-13 5 -82 29zM809 315q3 135 -69.5 247.5t-252.5 201.5q-101 -104 -158.5 -215t-54.5 -207q3 -176 234 -176q78 0 143 14t111.5 48.5t46.5 86.5z" />
    <glyph glyph-name="uniFE94" unicode="&#x629;" horiz-adv-x="1202" arabic-form="final" 
d="M725 1276l-143 106v13l100 133h12l144 -107v-10l-103 -135h-10zM434 1245l-141 107v12l100 133h10l144 -106v-11l-103 -135h-10zM113 428q0 189 148 317.5t439 206.5v164l164 29v-643q0 -95 12.5 -149t51 -90t102.5 -48t174 -12q40 0 71.5 -31t31.5 -72q0 -40 -31.5 -71
t-71.5 -31q-318 0 -428 174q-136 -63 -291 -63q-175 0 -273.5 82.5t-98.5 236.5zM268 453q0 -73 63 -109.5t167 -36.5q108 0 217 33q-13 80 -13 164l-2 268q-227 -61 -329.5 -138t-102.5 -181z" />
    <glyph glyph-name="uniFE95" unicode="&#x62a;" horiz-adv-x="1740" arabic-form="isolated" 
d="M997 948l-143 107v12l102 133h11l143 -106v-11l-102 -135h-11zM707 915l-142 109v10l101 133h12l141 -106v-10l-100 -136h-12zM731 -41q-312 6 -462.5 111.5t-155.5 316.5q-6 192 102 465l127 -41q-82 -257 -70 -389q5 -83 49 -135.5t149 -83t280 -35.5q136 -5 260 6.5
t232 39.5t171 82.5t60 129.5q-3 85 -19 181.5t-57 291.5l164 55q38 -184 52.5 -296.5t16.5 -221.5q1 -240 -234 -362.5t-665 -114.5z" />
    <glyph glyph-name="uniFE96" unicode="&#x62a;" horiz-adv-x="1957" arabic-form="final" 
d="M1018 946h-10l-142 109v10l101 133h12l141 -106v-11zM729 915h-10l-144 107v12l101 133h12l141 -106v-10zM1958 203q41 0 70.5 -30.5t29.5 -72.5q0 -41 -29.5 -71.5t-70.5 -30.5q-312 0 -424 164q-262 -206 -803 -203q-311 3 -462 110t-156 318q-6 192 102 465l127 -41
q-72 -217 -72 -358q0 -66 19.5 -113.5t57 -80t100 -52t141 -28.5t188.5 -11q215 -6 395.5 30.5t298.5 114.5q-19 74 -22 191l-6 264l143 14l17 -258q5 -101 23.5 -161.5t61.5 -97t105.5 -49.5t165.5 -13z" />
    <glyph glyph-name="uniFE97" unicode="&#x62a;" horiz-adv-x="741" arabic-form="initial" 
d="M453 1194l-142 106v13l101 133h12l141 -107v-10l-102 -135h-10zM164 1161l-144 109v10l103 133h10l143 -106v-11l-102 -135h-10zM-100 100q0 42 29 72.5t71 30.5h27q227 0 338 56.5t108 176.5q-6 165 -88 502l164 55q47 -214 62.5 -322t17.5 -216q4 -227 -146.5 -342
t-451.5 -115h-31q-41 0 -70.5 30.5t-29.5 71.5z" />
    <glyph glyph-name="uniFE98" unicode="&#x62a;" horiz-adv-x="882" arabic-form="medial" 
d="M477 985h-10l-143 107v12l100 131h12l144 -105v-10zM186 952h-10l-141 107v12l100 133h10l144 -106v-11zM883 203q41 0 70.5 -30.5t29.5 -72.5q0 -40 -30 -71t-70 -31q-158 0 -261 38.5t-161 121.5q-89 -81 -211 -120.5t-250 -39.5q-41 0 -70.5 30.5t-29.5 71.5
q0 42 29 72.5t71 30.5q261 0 395 110q-19 74 -22 191l-6 268l143 12l16 -260q5 -95 23 -154t59.5 -97.5t106.5 -54t168 -15.5z" />
    <glyph glyph-name="uniFE99" unicode="&#x62b;" horiz-adv-x="1740" arabic-form="isolated" 
d="M821 1137l-131 98v10l92 123h11l133 -98v-8l-97 -125h-8zM993 903l-135 103v10l96 127h11l137 -101v-10l-98 -129h-11zM713 872l-135 103v10l96 127h10l137 -100v-11l-98 -129h-10zM731 -41q-312 6 -462.5 111.5t-155.5 316.5q-6 192 102 465l127 -41q-82 -257 -70 -389
q5 -83 49 -135.5t149 -83t280 -35.5q136 -5 260 6.5t232 39.5t171 82.5t60 129.5q-3 85 -19 181.5t-57 291.5l164 55q38 -184 52.5 -296.5t16.5 -221.5q1 -240 -234 -362.5t-665 -114.5z" />
    <glyph glyph-name="uniFE9A" unicode="&#x62b;" horiz-adv-x="1957" arabic-form="final" 
d="M829 1161h-8l-131 101v10l92 123h11l133 -99v-10zM858 1030v12l96 127h11l137 -102v-10l-98 -129h-11zM723 897h-10l-135 102v13l96 127h10l137 -103v-10zM1958 203q41 0 70.5 -30.5t29.5 -72.5q0 -41 -29.5 -71.5t-70.5 -30.5q-312 0 -424 164q-262 -206 -803 -203
q-311 3 -462 110t-156 318q-6 192 102 465l127 -41q-72 -217 -72 -358q0 -66 19.5 -113.5t57 -80t100 -52t141 -28.5t188.5 -11q215 -6 395.5 30.5t298.5 114.5q-19 74 -22 191l-6 264l143 14l17 -258q5 -101 23.5 -161.5t61.5 -97t105.5 -49.5t165.5 -13z" />
    <glyph glyph-name="uniFE9B" unicode="&#x62b;" horiz-adv-x="741" arabic-form="initial" 
d="M379 1403l-131 98v10l92 123h10l133 -98v-8l-94 -125h-10zM551 1169l-135 103v10l96 127h12l135 -102v-9l-98 -129h-10zM270 1139l-135 102v10l96 127h11l137 -102v-8l-98 -129h-11zM-100 100q0 42 29 72.5t71 30.5h27q227 0 338 56.5t108 176.5q-6 165 -88 502l164 55
q47 -214 62.5 -322t17.5 -216q4 -227 -146.5 -342t-451.5 -115h-31q-41 0 -70.5 30.5t-29.5 71.5z" />
    <glyph glyph-name="uniFE9C" unicode="&#x62b;" horiz-adv-x="882" arabic-form="medial" 
d="M371 1274h-11l-131 100v10l93 123h12l131 -98v-10zM397 1143v12l97 127h12l135 -102v-11l-98 -127h-8zM262 1012h-10l-135 100v12l96 127h10l137 -102v-10zM883 203q41 0 70.5 -30.5t29.5 -72.5q0 -40 -30 -71t-70 -31q-158 0 -261 38.5t-161 121.5q-89 -81 -211 -120.5
t-250 -39.5q-41 0 -70.5 30.5t-29.5 71.5q0 42 29 72.5t71 30.5q261 0 395 110q-19 74 -22 191l-6 268l143 12l16 -260q5 -95 23 -154t59.5 -97.5t106.5 -54t168 -15.5z" />
    <glyph glyph-name="uniFE9D" unicode="&#x62c;" horiz-adv-x="1513" arabic-form="isolated" 
d="M813 -649q-340 0 -515 132t-175 396q0 196 112.5 360.5t309 277.5t461.5 175q-29 15 -146 82q-111 63 -181 94t-130 31q-50 0 -87.5 -14t-70.5 -48t-59 -76t-62 -114l-114 70q27 66 53 118.5t61.5 103t74 83.5t88.5 53.5t106 20.5q79 0 169 -37t232 -115
q133 -74 197 -102q161 -76 266 -86l-39 -174q-109 -1 -164 -9t-162 -34q-352 -86 -550 -255.5t-195 -383.5q6 -349 586 -349q232 0 460 43l13 -169q-246 -74 -539 -74zM907 -111l-147 113v10l104 140h13l147 -111v-10l-106 -142h-11z" />
    <glyph glyph-name="uniFE9E" unicode="&#x62c;" horiz-adv-x="1542" arabic-form="final" 
d="M813 -649q-340 0 -515 132t-175 396q0 148 64.5 279t182 233t279 178.5t359.5 122.5q-82 45 -140 80q-116 65 -187.5 96t-131.5 31q-50 0 -87.5 -14t-70.5 -48t-59 -76t-62 -114l-114 70q27 66 53 118.5t61.5 103t74 83.5t88.5 53.5t106 20.5q54 0 124.5 -23t124 -49
t150.5 -78q137 -77 201 -106q160 -74 264 -84l-39 -174q-97 0 -186 -13q2 -76 12 -130.5t34.5 -101.5t64.5 -75t103 -43.5t150 -15.5q41 0 70.5 -30.5t29.5 -72.5q0 -41 -29.5 -71.5t-70.5 -30.5q-261 0 -378.5 125.5t-123.5 411.5q-157 -39 -287.5 -96t-236.5 -134.5
t-165 -181t-58 -223.5q3 -177 155 -263t431 -86q232 0 460 43l13 -169q-246 -74 -539 -74zM831 -121l-147 113v10l104 139h13l147 -110v-11l-106 -141h-11z" />
    <glyph glyph-name="uniFE9F" unicode="&#x62c;" horiz-adv-x="1445" arabic-form="initial" 
d="M-100 100q0 42 29.5 72.5t70.5 30.5h78q213 0 363.5 49t316.5 145q178 105 276 146q-63 34 -198 112q-81 48 -121 70t-95.5 42.5t-97.5 20.5q-43 0 -79.5 -14t-63 -35.5t-52 -56t-44 -66.5t-42.5 -76q-12 -23 -18 -34l-114 69q37 92 75.5 161.5t87.5 127.5t109.5 88.5
t130.5 30.5q59 0 131.5 -25t123 -52t144.5 -81q125 -73 217 -118q132 -65 246 -80l-28 -183q-59 3 -101 0q-91 -7 -153 -45q-43 -24 -224 -131q-106 -64 -187.5 -106t-182.5 -83t-205.5 -61t-214.5 -20h-76q-41 0 -71.5 31t-30.5 71zM848 -381l-148 111v12l105 137h12
l148 -110v-11l-107 -139h-10z" />
    <glyph glyph-name="uniFEA0" unicode="&#x62c;" horiz-adv-x="1497" arabic-form="medial" 
d="M2 -2q-41 0 -71.5 31t-30.5 71q0 42 29.5 72.5t70.5 30.5h78q213 0 363.5 49t316.5 145q165 100 276 146q-63 34 -198 112q-84 50 -121.5 70.5t-93.5 41.5t-99 21q-24 0 -45.5 -4.5t-39 -10.5t-36 -19.5t-31 -23.5t-29 -30.5t-25.5 -32.5t-24.5 -38t-22.5 -39t-23 -42.5
t-23 -41.5l-114 69q37 92 75.5 161.5t87.5 127.5t109.5 88.5t130.5 30.5q84 0 174 -39.5t225 -118.5q125 -73 217 -118q136 -65 246 -80l-28 -185q-83 0 -148 -8q-22 -4 -61 -18q11 -113 91 -163t269 -50q42 0 71 -30.5t29 -72.5q0 -41 -29.5 -71.5t-70.5 -30.5
q-233 0 -357.5 85t-144.5 261q-53 -27 -127 -76q-107 -63 -187 -104.5t-183 -83t-210 -62t-220 -20.5h-66zM848 -381l-148 111v12l105 137h12l148 -110v-11l-107 -139h-10z" />
    <glyph glyph-name="uniFEA1" unicode="&#x62d;" horiz-adv-x="1513" arabic-form="isolated" 
d="M813 -649q-340 0 -515 132t-175 396q0 196 112.5 360.5t309 277.5t461.5 175q-29 15 -146 82q-111 63 -181 94t-130 31q-50 0 -87.5 -14t-70.5 -48t-59 -76t-62 -114l-114 70q27 66 53 118.5t61.5 103t74 83.5t88.5 53.5t106 20.5q79 0 169 -37t232 -115
q133 -74 197 -102q161 -76 266 -86l-39 -174q-109 -1 -164 -9t-162 -34q-352 -86 -550 -255.5t-195 -383.5q6 -349 586 -349q232 0 460 43l13 -169q-246 -74 -539 -74z" />
    <glyph glyph-name="uniFEA2" unicode="&#x62d;" horiz-adv-x="1542" arabic-form="final" 
d="M813 -649q-340 0 -515 132t-175 396q0 148 64.5 279t182 233t279 178.5t359.5 122.5q-82 45 -140 80q-116 65 -187.5 96t-131.5 31q-50 0 -87.5 -14t-70.5 -48t-59 -76t-62 -114l-114 70q27 66 53 118.5t61.5 103t74 83.5t88.5 53.5t106 20.5q54 0 124.5 -23t124 -49
t150.5 -78q137 -77 201 -106q160 -74 264 -84l-39 -174q-97 0 -186 -13q2 -76 12 -130.5t34.5 -101.5t64.5 -75t103 -43.5t150 -15.5q41 0 70.5 -30.5t29.5 -72.5q0 -41 -29.5 -71.5t-70.5 -30.5q-261 0 -378.5 125.5t-123.5 411.5q-157 -39 -287.5 -96t-236.5 -134.5
t-165 -181t-58 -223.5q3 -177 155 -263t431 -86q232 0 460 43l13 -169q-246 -74 -539 -74z" />
    <glyph glyph-name="uniFEA3" unicode="&#x62d;" horiz-adv-x="1445" arabic-form="initial" 
d="M-100 100q0 42 29.5 72.5t70.5 30.5h78q213 0 363.5 49t316.5 145q178 105 276 146q-63 34 -198 112q-81 48 -121 70t-95.5 42.5t-97.5 20.5q-43 0 -79.5 -14t-63 -35.5t-52 -56t-44 -66.5t-42.5 -76q-12 -23 -18 -34l-114 69q37 92 75.5 161.5t87.5 127.5t109.5 88.5
t130.5 30.5q59 0 131.5 -25t123 -52t144.5 -81q125 -73 217 -118q132 -65 246 -80l-28 -183q-59 3 -101 0q-91 -7 -153 -45q-43 -24 -224 -131q-106 -64 -187.5 -106t-182.5 -83t-205.5 -61t-214.5 -20h-76q-41 0 -71.5 31t-30.5 71z" />
    <glyph glyph-name="uniFEA4" unicode="&#x62d;" horiz-adv-x="1497" arabic-form="medial" 
d="M2 -2q-41 0 -71.5 31t-30.5 71q0 42 29.5 72.5t70.5 30.5h78q213 0 363.5 49t316.5 145q165 100 276 146q-63 34 -198 112q-84 50 -121.5 70.5t-93.5 41.5t-99 21q-24 0 -45.5 -4.5t-39 -10.5t-36 -19.5t-31 -23.5t-29 -30.5t-25.5 -32.5t-24.5 -38t-22.5 -39t-23 -42.5
t-23 -41.5l-114 69q37 92 75.5 161.5t87.5 127.5t109.5 88.5t130.5 30.5q84 0 174 -39.5t225 -118.5q125 -73 217 -118q136 -65 246 -80l-28 -185q-83 0 -148 -8q-22 -4 -61 -18q11 -113 91 -163t269 -50q42 0 71 -30.5t29 -72.5q0 -41 -29.5 -71.5t-70.5 -30.5
q-233 0 -357.5 85t-144.5 261q-53 -27 -127 -76q-107 -63 -187 -104.5t-183 -83t-210 -62t-220 -20.5h-66z" />
    <glyph glyph-name="uniFEA5" unicode="&#x62e;" horiz-adv-x="1513" arabic-form="isolated" 
d="M539 1298l-148 111v12l105 138h12l147 -111v-10l-106 -140h-10zM813 -649q-340 0 -515 132t-175 396q0 196 112.5 360.5t309 277.5t461.5 175q-29 15 -146 82q-111 63 -181 94t-130 31q-50 0 -87.5 -14t-70.5 -48t-59 -76t-62 -114l-114 70q27 66 53 118.5t61.5 103
t74 83.5t88.5 53.5t106 20.5q79 0 169 -37t232 -115q133 -74 197 -102q161 -76 266 -86l-39 -174q-109 -1 -164 -9t-162 -34q-352 -86 -550 -255.5t-195 -383.5q6 -349 586 -349q232 0 460 43l13 -169q-246 -74 -539 -74z" />
    <glyph glyph-name="uniFEA6" unicode="&#x62e;" horiz-adv-x="1542" arabic-form="final" 
d="M539 1298l-148 111v12l105 138h12l147 -111v-10l-106 -140h-10zM813 -649q-340 0 -515 132t-175 396q0 148 64.5 279t182 233t279 178.5t359.5 122.5q-82 45 -140 80q-116 65 -187.5 96t-131.5 31q-50 0 -87.5 -14t-70.5 -48t-59 -76t-62 -114l-114 70q27 66 53 118.5
t61.5 103t74 83.5t88.5 53.5t106 20.5q54 0 124.5 -23t124 -49t150.5 -78q137 -77 201 -106q160 -74 264 -84l-39 -174q-97 0 -186 -13q2 -76 12 -130.5t34.5 -101.5t64.5 -75t103 -43.5t150 -15.5q41 0 70.5 -30.5t29.5 -72.5q0 -41 -29.5 -71.5t-70.5 -30.5
q-261 0 -378.5 125.5t-123.5 411.5q-157 -39 -287.5 -96t-236.5 -134.5t-165 -181t-58 -223.5q3 -177 155 -263t431 -86q232 0 460 43l13 -169q-246 -74 -539 -74z" />
    <glyph glyph-name="uniFEA7" unicode="&#x62e;" horiz-adv-x="1445" arabic-form="initial" 
d="M504 1155l-148 111v12l105 137h12l148 -110v-11l-105 -139h-12zM-100 100q0 42 29.5 72.5t70.5 30.5h78q213 0 363.5 49t316.5 145q178 105 276 146q-63 34 -198 112q-81 48 -121 70t-95.5 42.5t-97.5 20.5q-43 0 -79.5 -14t-63 -35.5t-52 -56t-44 -66.5t-42.5 -76
q-12 -23 -18 -34l-114 69q37 92 75.5 161.5t87.5 127.5t109.5 88.5t130.5 30.5q59 0 131.5 -25t123 -52t144.5 -81q125 -73 217 -118q132 -65 246 -80l-28 -183q-59 3 -101 0q-91 -7 -153 -45q-43 -24 -224 -131q-106 -64 -187.5 -106t-182.5 -83t-205.5 -61t-214.5 -20h-76
q-41 0 -71.5 31t-30.5 71z" />
    <glyph glyph-name="uniFEA8" unicode="&#x62e;" horiz-adv-x="1497" arabic-form="medial" 
d="M504 1155l-148 111v12l105 137h12l148 -110v-11l-105 -139h-12zM2 -2q-41 0 -71.5 31t-30.5 71q0 42 29.5 72.5t70.5 30.5h78q213 0 363.5 49t316.5 145q165 100 276 146q-63 34 -198 112q-84 50 -121.5 70.5t-93.5 41.5t-99 21q-24 0 -45.5 -4.5t-39 -10.5t-36 -19.5
t-31 -23.5t-29 -30.5t-25.5 -32.5t-24.5 -38t-22.5 -39t-23 -42.5t-23 -41.5l-114 69q37 92 75.5 161.5t87.5 127.5t109.5 88.5t130.5 30.5q84 0 174 -39.5t225 -118.5q125 -73 217 -118q136 -65 246 -80l-28 -185q-83 0 -148 -8q-22 -4 -61 -18q11 -113 91 -163t269 -50
q42 0 71 -30.5t29 -72.5q0 -41 -29.5 -71.5t-70.5 -30.5q-233 0 -357.5 85t-144.5 261q-53 -27 -127 -76q-107 -63 -187 -104.5t-183 -83t-210 -62t-220 -20.5h-66z" />
    <glyph glyph-name="uniFEA9" unicode="&#x62f;" horiz-adv-x="1095" arabic-form="isolated" 
d="M446 -39q-164 3 -248.5 80.5t-84.5 218.5q0 130 67 307l125 -35q-45 -133 -45 -208q0 -83 52 -120.5t163 -39.5q114 -2 209.5 21.5t128.5 74.5q14 20 14 51q0 158 -87 308t-244 270l94 141q102 -75 179.5 -164.5t123 -182t68 -183.5t22.5 -181q0 -181 -141 -272t-396 -86
z" />
    <glyph glyph-name="uniFEAA" unicode="&#x62f;" horiz-adv-x="1294" arabic-form="final" 
d="M446 -39q-333 12 -333 297q0 130 67 309l125 -32q-45 -137 -45 -211q0 -81 52 -119.5t163 -40.5q242 -3 385 119q-33 60 -67 172l-152 516l150 82l155 -535q49 -171 129 -243t219 -72q42 0 71.5 -30.5t29.5 -72.5q0 -40 -30 -71t-71 -31q-220 0 -348 152
q-67 -92 -201.5 -144t-298.5 -45z" />
    <glyph glyph-name="uniFEAB" unicode="&#x630;" horiz-adv-x="1095" arabic-form="isolated" 
d="M551 1167l-148 111v12l105 137h12l148 -110v-10l-107 -140h-10zM446 -39q-164 3 -248.5 80.5t-84.5 218.5q0 130 67 307l125 -35q-45 -133 -45 -208q0 -83 52 -120.5t163 -39.5q114 -2 209.5 21.5t128.5 74.5q14 20 14 51q0 158 -87 308t-244 270l94 141
q102 -75 179.5 -164.5t123 -182t68 -183.5t22.5 -181q0 -181 -141 -272t-396 -86z" />
    <glyph glyph-name="uniFEAC" unicode="&#x630;" horiz-adv-x="1294" arabic-form="final" 
d="M659 1257l-147 111v12l104 138h13l147 -111v-10l-106 -140h-11zM446 -39q-333 12 -333 297q0 130 67 309l125 -32q-45 -137 -45 -211q0 -81 52 -119.5t163 -40.5q242 -3 385 119q-33 60 -67 172l-152 516l150 82l155 -535q49 -171 129 -243t219 -72q42 0 71.5 -30.5
t29.5 -72.5q0 -40 -30 -71t-71 -31q-220 0 -348 152q-67 -92 -201.5 -144t-298.5 -45z" />
    <glyph glyph-name="uniFEAD" unicode="&#x631;" horiz-adv-x="962" arabic-form="isolated" 
d="M117 -522l-4 166q575 9 575 473q0 194 -119 518l160 80q121 -345 121 -578q0 -322 -187 -496.5t-546 -162.5z" />
    <glyph glyph-name="uniFEAE" unicode="&#x631;" horiz-adv-x="1163" arabic-form="final" 
d="M113 -360q27 0 41 2q534 27 534 475q0 105 -25 230t-71 298l162 68l43 -189q23 -102 47.5 -161t67 -97t100 -50.5t151.5 -12.5q40 0 70.5 -31t30.5 -72q0 -40 -30.5 -71t-70.5 -31q-219 0 -319 106q-6 -253 -125 -405q-172 -221 -549 -221q-35 0 -53 2z" />
    <glyph glyph-name="uniFEAF" unicode="&#x632;" horiz-adv-x="962" arabic-form="isolated" 
d="M582 920l-148 112v10l105 140h12l147 -111v-10l-106 -141h-10zM117 -522l-4 166q575 9 575 473q0 194 -119 518l160 80q121 -345 121 -578q0 -322 -187 -496.5t-546 -162.5z" />
    <glyph glyph-name="uniFEB0" unicode="&#x632;" horiz-adv-x="1163" arabic-form="final" 
d="M629 920l-148 112v10l105 140h12l147 -111v-10l-104 -141h-12zM113 -360q27 0 41 2q534 27 534 475q0 105 -25 230t-71 298l162 68l43 -189q23 -102 47.5 -161t67 -97t100 -50.5t151.5 -12.5q40 0 70.5 -31t30.5 -72q0 -40 -30.5 -71t-70.5 -31q-219 0 -319 106
q-6 -253 -125 -405q-172 -221 -549 -221q-35 0 -53 2z" />
    <glyph glyph-name="uniFEB1" unicode="&#x633;" horiz-adv-x="2713" arabic-form="isolated" 
d="M2601 399q9 -401 -311 -401q-180 0 -316 139q-59 -68 -152.5 -103.5t-203.5 -35.5q-120 0 -201 41v-37q4 -262 -189.5 -405t-545.5 -138q-255 3 -397 135t-142 353q0 247 156 641l133 -51q-125 -348 -125 -570q-2 -137 94.5 -217t286.5 -84q61 -1 122 4.5t127 19
t122 39.5t101 62t71 90.5t26 120.5q0 211 -112 645l158 66q1 -5 37.5 -172t48.5 -232q20 -106 206 -106q100 0 180 28.5t111 83.5q29 49 39 114t21 263l137 -4q-8 -270 -19 -341q-5 -33 -12 -60q52 -41 115 -62.5t119 -21.5q88 0 125 41t36 139q-2 88 -73 432l161 55
q63 -308 66 -471z" />
    <glyph glyph-name="uniFEB2" unicode="&#x633;" horiz-adv-x="2951" arabic-form="final" 
d="M2951 203q41 0 71 -31t30 -72t-30 -71.5t-71 -30.5q-147 0 -244 38t-155 120q-74 -158 -262 -158q-180 0 -316 139q-59 -68 -152.5 -103.5t-203.5 -35.5q-120 0 -201 41v-37q4 -262 -189.5 -405t-545.5 -138q-266 3 -410.5 134.5t-144.5 353.5q0 247 156 641l133 -51
q-127 -372 -125 -570q2 -134 104.5 -215.5t292.5 -85.5q61 -1 122 4.5t127 19t122 39.5t101 62t71 91t26 122q0 209 -112 643l158 66q1 -5 37.5 -172t48.5 -232q21 -108 206 -108q100 0 180 29.5t111 84.5q29 49 39 114t21 263l137 -4q-8 -270 -19 -341q-5 -33 -12 -60
q52 -41 115 -62.5t119 -21.5q57 0 90.5 17.5t52.5 55.5q16 32 20 81.5t0 136.5l-8 268l150 24l18 -264q7 -100 25 -160t59 -96.5t100.5 -49.5t157.5 -13z" />
    <glyph glyph-name="uniFEB3" unicode="&#x633;" horiz-adv-x="1789" arabic-form="initial" 
d="M1679 399q6 -401 -313 -401q-176 0 -313 137q-59 -67 -153 -102t-206 -35q-177 0 -327 104q-115 -104 -367 -104q-40 0 -70 31.5t-30 72.5q0 40 30 70.5t70 30.5q126 0 200.5 27.5t108.5 84.5q29 47 39 112t21 265l137 -2q-5 -204 -12.5 -293.5t-30.5 -150.5
q93 -43 209 -43q102 0 181 28.5t110 83.5q28 45 38.5 109.5t22.5 267.5l135 -4q-6 -302 -29 -401q49 -42 112.5 -63t119.5 -21q89 0 127 41.5t35 138.5q0 57 -15.5 144.5t-58.5 287.5l164 53q62 -299 65 -469z" />
    <glyph glyph-name="uniFEB4" unicode="&#x633;" horiz-adv-x="2035" arabic-form="medial" 
d="M2028 203q40 0 71 -31t31 -72q0 -40 -31 -71t-71 -31q-288 0 -398 158q-79 -158 -264 -158q-176 0 -313 137q-59 -66 -154 -101.5t-205 -35.5q-179 0 -329 104q-116 -104 -365 -104q-40 0 -70 31.5t-30 72.5t30 71t70 30q126 0 200.5 27.5t108.5 84.5q29 49 39 113.5
t21 263.5l137 -2q-4 -150 -6.5 -208.5t-11 -125.5t-25.5 -110q98 -43 209 -43q102 0 181 28.5t110 83.5q30 48 39 109.5t22 267.5l135 -4q-3 -127 -4.5 -181.5t-7.5 -117t-17 -102.5q51 -41 114.5 -62.5t117.5 -21.5q109 0 143 73q17 33 21.5 79.5t1.5 138.5l-8 268l147 24
l21 -264q6 -100 23.5 -160t58.5 -96.5t100.5 -49.5t157.5 -13z" />
    <glyph glyph-name="uniFEB5" unicode="&#x634;" horiz-adv-x="2713" arabic-form="isolated" 
d="M1980 1169h-10l-131 99v10l94 123h11l131 -98v-9zM2009 1038v11l96 127h11l135 -101v-10l-97 -129h-10zM1872 905h-8l-138 103v10l97 127h12l135 -101v-10zM2601 399q9 -401 -311 -401q-180 0 -316 139q-59 -68 -152.5 -103.5t-203.5 -35.5q-120 0 -201 41v-37
q4 -262 -189.5 -405t-545.5 -138q-255 3 -397 135t-142 353q0 247 156 641l133 -51q-125 -348 -125 -570q-2 -137 94.5 -217t286.5 -84q61 -1 122 4.5t127 19t122 39.5t101 62t71 90.5t26 120.5q0 211 -112 645l158 66q1 -5 37.5 -172t48.5 -232q20 -106 206 -106
q100 0 180 28.5t111 83.5q29 49 39 114t21 263l137 -4q-8 -270 -19 -341q-5 -33 -12 -60q52 -41 115 -62.5t119 -21.5q88 0 125 41t36 139q-2 88 -73 432l161 55q63 -308 66 -471z" />
    <glyph glyph-name="uniFEB6" unicode="&#x634;" horiz-adv-x="2951" arabic-form="final" 
d="M1980 1163h-8l-133 99v12l94 123h11l131 -99v-10zM2009 1032v12l96 125h11l137 -100v-10l-99 -129h-10zM1874 899h-10l-135 102v11l96 127h10l135 -101v-10zM2951 203q41 0 71 -31t30 -72t-30 -71.5t-71 -30.5q-147 0 -244 38t-155 120q-74 -158 -262 -158
q-180 0 -316 139q-59 -68 -152.5 -103.5t-203.5 -35.5q-120 0 -201 41v-37q4 -262 -189.5 -405t-545.5 -138q-266 3 -410.5 134.5t-144.5 353.5q0 247 156 641l133 -51q-127 -372 -125 -570q2 -134 104.5 -215.5t292.5 -85.5q61 -1 122 4.5t127 19t122 39.5t101 62t71 91
t26 122q0 209 -112 643l158 66q1 -5 37.5 -172t48.5 -232q21 -108 206 -108q100 0 180 29.5t111 84.5q29 49 39 114t21 263l137 -4q-8 -270 -19 -341q-5 -33 -12 -60q52 -41 115 -62.5t119 -21.5q57 0 90.5 17.5t52.5 55.5q16 32 20 81.5t0 136.5l-8 268l150 24l18 -264
q7 -100 25 -160t59 -96.5t100.5 -49.5t157.5 -13z" />
    <glyph glyph-name="uniFEB7" unicode="&#x634;" horiz-adv-x="1789" arabic-form="initial" 
d="M1055 1165h-11l-131 99v10l95 123h10l131 -99v-8zM1083 1034v10l97 127h10l135 -100v-10l-96 -129h-10zM946 901h-8l-137 103v10l96 127h12l135 -101v-10zM1679 399q6 -401 -313 -401q-176 0 -313 137q-59 -67 -153 -102t-206 -35q-177 0 -327 104q-115 -104 -367 -104
q-40 0 -70 31.5t-30 72.5q0 40 30 70.5t70 30.5q126 0 200.5 27.5t108.5 84.5q29 47 39 112t21 265l137 -2q-5 -204 -12.5 -293.5t-30.5 -150.5q93 -43 209 -43q102 0 181 28.5t110 83.5q28 45 38.5 109.5t22.5 267.5l135 -4q-6 -302 -29 -401q49 -42 112.5 -63t119.5 -21
q89 0 127 41.5t35 138.5q0 57 -15.5 144.5t-58.5 287.5l164 53q62 -299 65 -469z" />
    <glyph glyph-name="uniFEB8" unicode="&#x634;" horiz-adv-x="2035" arabic-form="medial" 
d="M1055 1165h-11l-131 99v10l95 123h10l131 -99v-8zM1083 1034v10l97 127h10l135 -100v-10l-96 -129h-10zM946 901h-8l-137 103v10l96 127h12l135 -101v-10zM2028 203q40 0 71 -31t31 -72q0 -40 -31 -71t-71 -31q-288 0 -398 158q-79 -158 -264 -158q-176 0 -313 137
q-59 -66 -154 -101.5t-205 -35.5q-179 0 -329 104q-116 -104 -365 -104q-40 0 -70 31.5t-30 72.5t30 71t70 30q126 0 200.5 27.5t108.5 84.5q29 49 39 113.5t21 263.5l137 -2q-4 -150 -6.5 -208.5t-11 -125.5t-25.5 -110q98 -43 209 -43q102 0 181 28.5t110 83.5
q30 48 39 109.5t22 267.5l135 -4q-3 -127 -4.5 -181.5t-7.5 -117t-17 -102.5q51 -41 114.5 -62.5t117.5 -21.5q109 0 143 73q17 33 21.5 79.5t1.5 138.5l-8 268l147 24l21 -264q6 -100 23.5 -160t58.5 -96.5t100.5 -49.5t157.5 -13z" />
    <glyph glyph-name="uniFEB9" unicode="&#x635;" horiz-adv-x="2754" arabic-form="isolated" 
d="M682 -541q-276 3 -422.5 134t-146.5 354q0 250 155 641l133 -51q-124 -347 -127 -570q0 -140 101.5 -219t312.5 -82q61 -1 122 4.5t127 19t122 39.5t101 62t71 91t26 122q0 209 -112 643l158 66l57 -258q31 -129 176 -189q45 163 96 281t105 193t120 119.5t133 61.5
t152 17q123 0 220.5 -50.5t159 -138t92.5 -202t28 -244.5q-2 -97 -100.5 -171.5t-245.5 -111t-311 -36.5q-173 0 -324.5 38.5t-245.5 106.5q2 -51 2 -129q-5 -261 -195.5 -403t-539.5 -138zM2009 188q170 0 320 42.5t157 109.5v18q0 160 -73 263q-84 120 -275 120
q-82 0 -145 -23t-121 -79.5t-105 -157t-86 -250.5q125 -43 328 -43z" />
    <glyph glyph-name="uniFEBA" unicode="&#x635;" horiz-adv-x="2820" arabic-form="final" 
d="M2820 203q41 0 70.5 -30.5t29.5 -72.5q0 -40 -30 -71t-70 -31q-194 0 -311 111q-93 -60 -233 -92.5t-291 -32.5q-173 0 -324.5 38.5t-245.5 106.5q2 -51 2 -129q-5 -261 -195.5 -403t-539.5 -138q-266 3 -410.5 134.5t-144.5 353.5q0 247 156 641l133 -51
q-127 -372 -125 -570q2 -136 104 -217t293 -84q61 -1 122 4.5t127 19t122 39.5t101 62t71 91t26 122q0 209 -112 643l158 66l57 -258q31 -129 176 -189q45 163 96 281t105 193t120 119.5t133 61.5t152 17q123 0 220.5 -50.5t159 -138t92.5 -202t28 -244.5q0 -37 -16 -74
q62 -26 194 -26zM1681 231q125 -43 328 -43q170 0 320 42.5t157 109.5v18q0 160 -73 263q-84 120 -275 120q-82 0 -145 -23t-121 -79.5t-105 -157t-86 -250.5z" />
    <glyph glyph-name="uniFEBB" unicode="&#x635;" horiz-adv-x="1832" arabic-form="initial" 
d="M1221 938q122 0 219.5 -50.5t159 -137.5t92.5 -200t28 -241q-2 -100 -101.5 -176t-246.5 -112.5t-311 -36.5q-208 0 -374 46.5t-269 131.5q0 -2 -4 -6q-62 -84 -161.5 -121t-252.5 -37q-41 0 -70.5 30.5t-29.5 71.5q0 42 29 72t71 31q126 0 200.5 27.5t108.5 84.5
q21 36 30.5 75t18.5 128q1 7 3 36.5t4 72t4 65.5l137 -2l-6 -192q-3 -93 -15 -158q57 -45 129 -74q55 198 119.5 331t141.5 207t159 104t187 30zM1563 340q2 4 2 18q-3 164 -74 263q-84 120 -274 120q-83 0 -146 -23t-122 -80t-107 -160t-88 -257q143 -33 331 -33
q170 0 320.5 42.5t157.5 109.5z" />
    <glyph glyph-name="uniFEBC" unicode="&#x635;" horiz-adv-x="1898" arabic-form="medial" 
d="M1898 203q41 0 71 -31t30 -72q0 -40 -30.5 -71t-70.5 -31q-210 0 -315 108q-95 -59 -233.5 -90.5t-288.5 -31.5q-208 0 -374 46.5t-269 131.5q0 -2 -4 -6q-62 -84 -161.5 -121t-252.5 -37q-41 0 -70.5 30.5t-29.5 71.5q0 42 29 72t71 31q126 0 200.5 27.5t108.5 84.5
q21 36 30.5 75t18.5 128q1 7 3 36.5t4 72t4 65.5l137 -2l-6 -192q-3 -93 -15 -158q57 -45 129 -74q55 198 119.5 331t141.5 207t159 104t187 30q122 0 219.5 -50.5t159 -137.5t92.5 -200t28 -241q0 -43 -18 -80q62 -26 196 -26zM754 221q143 -33 331 -33q170 0 320.5 42.5
t157.5 109.5q2 4 2 18q-3 164 -74 263q-84 120 -274 120q-83 0 -146 -23t-122 -80t-107 -160t-88 -257z" />
    <glyph glyph-name="uniFEBD" unicode="&#x636;" horiz-adv-x="2754" arabic-form="isolated" 
d="M2081 1149l-148 111v12l105 139h12l148 -111v-12l-107 -139h-10zM682 -541q-276 3 -422.5 134t-146.5 354q0 250 155 641l133 -51q-124 -347 -127 -570q0 -140 101.5 -219t312.5 -82q61 -1 122 4.5t127 19t122 39.5t101 62t71 91t26 122q0 209 -112 643l158 66l57 -258
q31 -129 176 -189q45 163 96 281t105 193t120 119.5t133 61.5t152 17q123 0 220.5 -50.5t159 -138t92.5 -202t28 -244.5q-2 -97 -100.5 -171.5t-245.5 -111t-311 -36.5q-173 0 -324.5 38.5t-245.5 106.5q2 -51 2 -129q-5 -261 -195.5 -403t-539.5 -138zM2009 188
q170 0 320 42.5t157 109.5v18q0 160 -73 263q-84 120 -275 120q-82 0 -145 -23t-121 -79.5t-105 -157t-86 -250.5q125 -43 328 -43z" />
    <glyph glyph-name="uniFEBE" unicode="&#x636;" horiz-adv-x="2820" arabic-form="final" 
d="M2091 1149h-10l-148 111v12l105 139h12l148 -111v-12zM2820 203q41 0 70.5 -30.5t29.5 -72.5q0 -40 -30 -71t-70 -31q-194 0 -311 111q-93 -60 -233 -92.5t-291 -32.5q-173 0 -324.5 38.5t-245.5 106.5q2 -51 2 -129q-5 -261 -195.5 -403t-539.5 -138
q-266 3 -410.5 134.5t-144.5 353.5q0 247 156 641l133 -51q-127 -372 -125 -570q2 -136 104 -217t293 -84q61 -1 122 4.5t127 19t122 39.5t101 62t71 91t26 122q0 209 -112 643l158 66l57 -258q31 -129 176 -189q45 163 96 281t105 193t120 119.5t133 61.5t152 17
q123 0 220.5 -50.5t159 -138t92.5 -202t28 -244.5q0 -37 -16 -74q62 -26 194 -26zM1681 231q125 -43 328 -43q170 0 320 42.5t157 109.5v18q0 160 -73 263q-84 120 -275 120q-82 0 -145 -23t-121 -79.5t-105 -157t-86 -250.5z" />
    <glyph glyph-name="uniFEBF" unicode="&#x636;" horiz-adv-x="1832" arabic-form="initial" 
d="M1171 1149h-10l-147 111v12l104 139h12l148 -111v-12zM1221 938q122 0 219.5 -50.5t159 -137.5t92.5 -200t28 -241q-2 -100 -101.5 -176t-246.5 -112.5t-311 -36.5q-208 0 -374 46.5t-269 131.5q0 -2 -4 -6q-62 -84 -161.5 -121t-252.5 -37q-41 0 -70.5 30.5t-29.5 71.5
q0 42 29 72t71 31q126 0 200.5 27.5t108.5 84.5q21 36 30.5 75t18.5 128q1 7 3 36.5t4 72t4 65.5l137 -2l-6 -192q-3 -93 -15 -158q57 -45 129 -74q55 198 119.5 331t141.5 207t159 104t187 30zM1563 340q2 4 2 18q-3 164 -74 263q-84 120 -274 120q-83 0 -146 -23t-122 -80
t-107 -160t-88 -257q143 -33 331 -33q170 0 320.5 42.5t157.5 109.5z" />
    <glyph glyph-name="uniFEC0" unicode="&#x636;" horiz-adv-x="1898" arabic-form="medial" 
d="M1171 1149h-10l-147 111v12l104 139h12l148 -111v-12zM1898 203q41 0 71 -31t30 -72q0 -40 -30.5 -71t-70.5 -31q-210 0 -315 108q-95 -59 -233.5 -90.5t-288.5 -31.5q-208 0 -374 46.5t-269 131.5q0 -2 -4 -6q-62 -84 -161.5 -121t-252.5 -37q-41 0 -70.5 30.5
t-29.5 71.5q0 42 29 72t71 31q126 0 200.5 27.5t108.5 84.5q21 36 30.5 75t18.5 128q1 7 3 36.5t4 72t4 65.5l137 -2l-6 -192q-3 -93 -15 -158q57 -45 129 -74q55 198 119.5 331t141.5 207t159 104t187 30q122 0 219.5 -50.5t159 -137.5t92.5 -200t28 -241q0 -43 -18 -80
q62 -26 196 -26zM754 221q143 -33 331 -33q170 0 320.5 42.5t157.5 109.5q2 4 2 18q-3 164 -74 263q-84 120 -274 120q-83 0 -146 -23t-122 -80t-107 -160t-88 -257z" />
    <glyph glyph-name="uniFEC1" unicode="&#x637;" horiz-adv-x="1595" arabic-form="isolated" 
d="M719 0q-317 0 -588 43l-18 205q80 -12 247 -29q35 124 41.5 171.5t4.5 180.5l-9 897l172 27v-635q0 -53 -0.5 -73t-5.5 -57.5t-16 -86.5q78 156 183.5 226.5t250.5 70.5q121 0 219.5 -50t160 -134.5t93.5 -192.5t29 -227q-2 -111 -99.5 -187.5t-266 -112.5t-398.5 -36z
M752 205q268 0 421.5 41t153.5 119v10q0 72 -19.5 135.5t-59 116t-109.5 83.5t-162 31q-86 0 -149 -23t-120.5 -82t-104.5 -163t-91 -264q160 -4 240 -4z" />
    <glyph glyph-name="uniFEC2" unicode="&#x637;" horiz-adv-x="1658" arabic-form="final" 
d="M1659 203q41 0 70.5 -30.5t29.5 -72.5q0 -40 -29.5 -71t-70.5 -31q-224 0 -332 111q-203 -111 -608 -111q-305 0 -588 45l-18 203q141 -20 247 -29q35 126 41.5 173t4.5 179l-9 899l172 27v-637q0 -53 -0.5 -73t-5.5 -57.5t-16 -86.5q78 156 183.5 226.5t250.5 70.5
q121 0 219.5 -50t160 -134.5t93.5 -192t29 -225.5q0 -56 -29 -109q57 -24 205 -24zM512 209q120 -6 240 -6q269 0 422 40.5t153 118.5v11q0 73 -19.5 136.5t-59 116.5t-109.5 84t-162 31q-86 0 -149 -23t-120.5 -82t-104.5 -163t-91 -264z" />
    <glyph glyph-name="uniFEC3" unicode="&#x637;" horiz-adv-x="1435" arabic-form="initial" 
d="M0 -2q-41 0 -70.5 30.5t-29.5 71.5q0 42 29 72.5t71 30.5h195q39 131 46 181t5 185l-8 899l170 27v-637q0 -110 -21 -217q77 155 182.5 226t249.5 71q122 0 220.5 -50t160 -134.5t93.5 -192t30 -225.5q-3 -111 -100.5 -188t-266 -113.5t-399.5 -36.5h-557zM348 203h242
q269 0 422 40.5t153 118.5v11q0 169 -92.5 268.5t-257.5 99.5q-83 0 -146 -23.5t-122 -82.5t-108 -165.5t-91 -266.5z" />
    <glyph glyph-name="uniFEC4" unicode="&#x637;" horiz-adv-x="1497" arabic-form="medial" 
d="M1497 203q42 0 72 -30.5t30 -72.5q0 -40 -30.5 -71t-71.5 -31q-224 0 -332 111q-199 -111 -608 -111h-557q-41 0 -70.5 30.5t-29.5 71.5q0 42 29 72.5t71 30.5h195q39 131 46 181t5 185l-8 899l170 27v-637q0 -110 -21 -217q77 155 182.5 226t249.5 71q122 0 220.5 -50
t160 -134.5t93.5 -192t30 -225.5q-3 -57 -31 -109q60 -24 205 -24zM348 203h242q269 0 422 40.5t153 118.5v11q0 73 -19.5 136.5t-59 116.5t-109.5 84t-162 31q-83 0 -146 -23.5t-122 -82.5t-108 -165.5t-91 -266.5z" />
    <glyph glyph-name="uniFEC5" unicode="&#x638;" horiz-adv-x="1595" arabic-form="isolated" 
d="M719 0q-317 0 -588 43l-18 205q80 -12 247 -29q35 124 41.5 171.5t4.5 180.5l-9 897l172 27v-635q0 -53 -0.5 -73t-5.5 -57.5t-16 -86.5q78 156 183.5 226.5t250.5 70.5q121 0 219.5 -50t160 -134.5t93.5 -192.5t29 -227q-2 -111 -99.5 -187.5t-266 -112.5t-398.5 -36z
M965 1149l-148 111v12l105 139h12l147 -111v-10l-106 -141h-10zM752 205q268 0 421.5 41t153.5 119v10q0 72 -19.5 135.5t-59 116t-109.5 83.5t-162 31q-86 0 -149 -23t-120.5 -82t-104.5 -163t-91 -264q160 -4 240 -4z" />
    <glyph glyph-name="uniFEC6" unicode="&#x638;" horiz-adv-x="1658" arabic-form="final" 
d="M1659 203q41 0 70.5 -30.5t29.5 -72.5q0 -40 -29.5 -71t-70.5 -31q-224 0 -332 111q-203 -111 -608 -111q-305 0 -588 45l-18 203q141 -20 247 -29q35 126 41.5 173t4.5 179l-9 899l172 27v-637q0 -53 -0.5 -73t-5.5 -57.5t-16 -86.5q78 156 183.5 226.5t250.5 70.5
q121 0 219.5 -50t160 -134.5t93.5 -192t29 -225.5q0 -56 -29 -109q57 -24 205 -24zM975 1149h-10l-148 111v12l105 139h12l147 -111v-10zM512 209q120 -6 240 -6q269 0 422 40.5t153 118.5v11q0 73 -19.5 136.5t-59 116.5t-109.5 84t-162 31q-86 0 -149 -23t-120.5 -82
t-104.5 -163t-91 -264z" />
    <glyph glyph-name="uniFEC7" unicode="&#x638;" horiz-adv-x="1435" arabic-form="initial" 
d="M0 -2q-41 0 -70.5 30.5t-29.5 71.5q0 42 29 72.5t71 30.5h195q39 131 46 181t5 185l-8 899l170 27v-637q0 -110 -21 -217q77 155 182.5 226t249.5 71q122 0 220.5 -50t160 -134.5t93.5 -192t30 -225.5q-3 -111 -100.5 -188t-266 -113.5t-399.5 -36.5h-557zM793 1149
l-148 111v12l105 139h12l147 -111v-10l-106 -141h-10zM348 203h242q269 0 422 40.5t153 118.5v11q0 169 -92.5 268.5t-257.5 99.5q-83 0 -146 -23.5t-122 -82.5t-108 -165.5t-91 -266.5z" />
    <glyph glyph-name="uniFEC8" unicode="&#x638;" horiz-adv-x="1497" arabic-form="medial" 
d="M1497 203q42 0 72 -30.5t30 -72.5q0 -40 -30.5 -71t-71.5 -31q-224 0 -332 111q-199 -111 -608 -111h-557q-41 0 -70.5 30.5t-29.5 71.5q0 42 29 72.5t71 30.5h195q39 131 46 181t5 185l-8 899l170 27v-637q0 -110 -21 -217q77 155 182.5 226t249.5 71q122 0 220.5 -50
t160 -134.5t93.5 -192t30 -225.5q-3 -57 -31 -109q60 -24 205 -24zM803 1149h-10l-148 111v12l105 139h12l147 -111v-10zM348 203h242q269 0 422 40.5t153 118.5v11q0 73 -19.5 136.5t-59 116.5t-109.5 84t-162 31q-83 0 -146 -23.5t-122 -82.5t-108 -165.5t-91 -266.5z" />
    <glyph glyph-name="uniFEC9" unicode="&#x639;" horiz-adv-x="1468" arabic-form="isolated" 
d="M1343 -406l15 -169q-246 -74 -555 -74q-690 0 -690 522q0 277 221 477q-98 99 -145.5 218t-47.5 241q0 213 112.5 339t274.5 126q112 0 220 -61.5t196 -178.5l-78 -106q-74 74 -156 114.5t-159 40.5q-64 0 -113.5 -23t-78 -62t-42.5 -86.5t-14 -100.5q0 -87 41.5 -186
t126.5 -168q216 141 631 284l14 -184q-164 -57 -287 -109.5t-229.5 -114t-174 -126t-105 -142t-37.5 -165.5q0 -349 585 -349q247 0 475 43z" />
    <glyph glyph-name="uniFECA" unicode="&#x639;" horiz-adv-x="1382" arabic-form="final" 
d="M1380 203q41 0 72 -31t31 -72t-30 -71.5t-71 -30.5h-16q-194 0 -406.5 91t-406.5 247q-276 -192 -270 -436q1 -177 152.5 -263t432.5 -86q247 0 475 43l15 -169q-243 -74 -565 -74q-334 0 -507 133t-173 395q0 336 309 570q-171 163 -285 342l51 221q173 65 305.5 98
t249.5 33q182 0 276.5 -78t94.5 -209q0 -109 -54.5 -223t-187.5 -279q258 -151 488 -151h20zM293 848q184 -256 434 -422q227 245 227 393q0 62 -58 96.5t-159 34.5q-168 0 -444 -102z" />
    <glyph glyph-name="uniFECB" unicode="&#x639;" horiz-adv-x="1292" arabic-form="initial" 
d="M1165 438l15 -188q-276 -126 -553 -189t-623 -63q-41 0 -71.5 31t-30.5 71q0 42 29.5 72.5t70.5 30.5q158 0 270 8q-79 146 -79 309q0 215 113 340t276 125q111 0 220 -61t191 -179l-75 -110q-70 75 -154 116.5t-162 41.5q-84 0 -141.5 -40t-82 -99.5t-24.5 -131.5
q0 -159 105 -291q180 26 338.5 74.5t367.5 132.5z" />
    <glyph glyph-name="uniFECC" unicode="&#x639;" horiz-adv-x="1304" arabic-form="medial" 
d="M1303 203q41 0 71.5 -31t30.5 -72t-29.5 -71.5t-70.5 -30.5q-479 0 -770 184q-88 -90 -230 -137t-305 -47q-41 0 -70.5 30.5t-29.5 71.5q0 42 29 72.5t71 30.5q272 0 403 76q-126 111 -262 315l49 221q179 67 306 100t243 33q181 0 275 -80t94 -215q0 -96 -39.5 -191
t-134.5 -222q164 -37 369 -37zM293 651q99 -139 209.5 -231t263.5 -146q184 208 184 340q0 68 -57.5 104t-159.5 36q-166 0 -440 -103z" />
    <glyph glyph-name="uniFECD" unicode="&#x63a;" horiz-adv-x="1468" arabic-form="isolated" 
d="M469 1456h-10l-148 111v12l105 139h12l147 -110v-11zM1343 -406l15 -169q-246 -74 -555 -74q-690 0 -690 522q0 277 221 477q-98 99 -145.5 218t-47.5 241q0 213 112.5 339t274.5 126q112 0 220 -61.5t196 -178.5l-78 -106q-74 74 -156 114.5t-159 40.5q-64 0 -113.5 -23
t-78 -62t-42.5 -86.5t-14 -100.5q0 -87 41.5 -186t126.5 -168q216 141 631 284l14 -184q-164 -57 -287 -109.5t-229.5 -114t-174 -126t-105 -142t-37.5 -165.5q0 -349 585 -349q247 0 475 43z" />
    <glyph glyph-name="uniFECE" unicode="&#x63a;" horiz-adv-x="1382" arabic-form="final" 
d="M627 1319h-13l-147 111v12l104 139h13l147 -111v-10zM1380 203q41 0 72 -31t31 -72t-30 -71.5t-71 -30.5h-16q-194 0 -406.5 91t-406.5 247q-276 -192 -270 -436q1 -177 152.5 -263t432.5 -86q247 0 475 43l15 -169q-243 -74 -565 -74q-334 0 -507 133t-173 395
q0 336 309 570q-171 163 -285 342l51 221q173 65 305.5 98t249.5 33q182 0 276.5 -78t94.5 -209q0 -109 -54.5 -223t-187.5 -279q258 -151 488 -151h20zM293 848q184 -256 434 -422q227 245 227 393q0 62 -58 96.5t-159 34.5q-168 0 -444 -102z" />
    <glyph glyph-name="uniFECF" unicode="&#x63a;" horiz-adv-x="1292" arabic-form="initial" 
d="M551 1163h-10l-148 111v12l105 139h12l147 -110v-10zM1165 438l15 -188q-276 -126 -553 -189t-623 -63q-41 0 -71.5 31t-30.5 71q0 42 29.5 72.5t70.5 30.5q158 0 270 8q-79 146 -79 309q0 215 113 340t276 125q111 0 220 -61t191 -179l-75 -110q-70 75 -154 116.5
t-162 41.5q-84 0 -141.5 -40t-82 -99.5t-24.5 -131.5q0 -159 105 -291q180 26 338.5 74.5t367.5 132.5z" />
    <glyph glyph-name="uniFED0" unicode="&#x63a;" horiz-adv-x="1304" arabic-form="medial" 
d="M647 1141h-12l-148 110v13l105 139h12l148 -111v-12zM1303 203q41 0 71.5 -31t30.5 -72t-29.5 -71.5t-70.5 -30.5q-479 0 -770 184q-88 -90 -230 -137t-305 -47q-41 0 -70.5 30.5t-29.5 71.5q0 42 29 72.5t71 30.5q272 0 403 76q-126 111 -262 315l49 221q179 67 306 100
t243 33q181 0 275 -80t94 -215q0 -96 -39.5 -191t-134.5 -222q164 -37 369 -37zM293 651q99 -139 209.5 -231t263.5 -146q184 208 184 340q0 68 -57.5 104t-159.5 36q-166 0 -440 -103z" />
    <glyph glyph-name="uniFED1" unicode="&#x641;" horiz-adv-x="1820" arabic-form="isolated" 
d="M1270 1475h-10l-148 112v10l105 140h12l147 -111v-10zM1270 1280q203 0 321.5 -193t118.5 -507q0 -174 -49 -281q-33 -79 -103 -139t-157.5 -95t-203 -56.5t-226 -28t-240.5 -5.5q-316 3 -467 114t-151 331q0 191 102 450l125 -43q-70 -221 -70 -358q0 -158 118.5 -220.5
t397.5 -68.5q374 -6 568 72q100 39 145.5 97t48.5 157q-141 -72 -346 -72q-163 0 -240 65t-77 220q0 88 11.5 166.5t39.5 152t71 126.5t110 84.5t153 31.5zM1042 758q0 -75 42.5 -107.5t156.5 -32.5q179 0 301 54q-16 196 -84 307t-194 111q-222 0 -222 -332z" />
    <glyph glyph-name="uniFED2" unicode="&#x641;" horiz-adv-x="2123" arabic-form="final" 
d="M1554 1149h-10l-147 113v10l104 139h12l148 -111v-10zM2124 203q41 0 70.5 -30.5t29.5 -72.5q0 -40 -29.5 -71t-68.5 -31q-421 0 -676 121q-258 -150 -719 -144q-316 3 -467 114t-151 331q0 184 102 448l127 -41q-72 -220 -72 -358q0 -154 110.5 -217.5t369.5 -69.5
q307 -7 518 58q-125 128 -125 309q0 196 109.5 301.5t297.5 105.5q183 0 284 -103.5t101 -283.5q0 -162 -90 -352q140 -14 279 -14zM1548 760q-118 0 -180.5 -55t-62.5 -162q0 -62 30.5 -113t85.5 -87t121 -60.5t148 -40.5q82 180 82 305q0 104 -57 158.5t-167 54.5z" />
    <glyph glyph-name="uniFED3" unicode="&#x641;" horiz-adv-x="1067" arabic-form="initial" 
d="M498 1479l-148 110v13l107 137h10l147 -111v-10l-104 -139h-12zM-98 100q0 42 30 72.5t72 30.5h60.5h72.5t72 0.5t80 2.5t75 4.5t77.5 7.5t67.5 11t65 15t51 20q87 36 123.5 91.5t42.5 150.5q-131 -76 -345 -76q-164 0 -241.5 65t-77.5 220q0 111 21 208t65 178t121 128
t180 47q134 0 234.5 -87t153 -240.5t52.5 -350.5q0 -214 -71 -342q-71 -125 -230 -184q-81 -34 -196 -51t-205 -20t-248 -3q-42 0 -72 31t-30 71zM285 756q0 -74 43 -108t157 -34q72 0 155 14t142 42q-6 88 -24 159.5t-49.5 130.5t-82.5 92t-118 33q-53 0 -94 -21.5t-65 -55
t-39 -79t-20 -87t-5 -86.5z" />
    <glyph glyph-name="uniFED4" unicode="&#x641;" horiz-adv-x="1183" arabic-form="medial" 
d="M557 1151h-10l-148 111v12l105 137h12l148 -108v-13zM1184 203q41 0 70.5 -30.5t29.5 -72.5q0 -40 -29.5 -71t-68.5 -31q-419 0 -678 121q-87 -66 -204 -93.5t-304 -27.5q-41 0 -70.5 30.5t-29.5 71.5q0 42 29 72.5t71 30.5q242 0 336 30q-133 127 -133 316
q0 195 109 299t298 104q185 0 285 -101t100 -282q0 -160 -88 -352q137 -14 277 -14zM608 760q-117 0 -180 -55.5t-63 -161.5q0 -62 30.5 -113t86 -87t122 -60.5t148.5 -40.5q82 180 82 305q0 101 -59.5 157t-166.5 56z" />
    <glyph glyph-name="uniFED5" unicode="&#x642;" horiz-adv-x="1607" arabic-form="isolated" 
d="M1147 1077h-10l-142 107v12l101 133h12l141 -106v-11zM858 1044h-10l-143 109v10l102 133h10l144 -106v-10zM1044 862q210 0 331.5 -200t121.5 -578q0 -188 -47 -291q-71 -156 -266.5 -247t-489.5 -91q-282 1 -431.5 133t-149.5 359q0 232 143 606l135 -51
q-115 -337 -117 -522q0 -154 105.5 -233.5t337.5 -82.5q84 -2 167.5 8t165.5 36t144 64.5t100 99t37 134.5q0 45 -2 68q-155 -79 -340 -76q-169 0 -249.5 73.5t-80.5 231.5q0 88 12 166.5t41 151.5t72 125.5t110 84t150 31.5zM1016 203q170 0 303 59q-11 93 -30.5 164.5
t-52 128.5t-82.5 87t-116 30t-112.5 -31.5t-69 -84t-32 -104t-9.5 -108.5q0 -75 43.5 -108t157.5 -33z" />
    <glyph glyph-name="uniFED6" unicode="&#x642;" horiz-adv-x="1632" arabic-form="final" 
d="M1155 1077h-10l-141 107v12l100 133h12l141 -106v-11zM866 1044h-10l-143 109v10l102 133h10l144 -106v-10zM1630 203q43 0 74 -31t31 -72q0 -40 -32 -71t-73 -31h-135q-9 -126 -45 -205q-70 -155 -265.5 -246.5t-490.5 -91.5q-282 1 -431.5 133t-149.5 359
q0 232 143 606l135 -51q-115 -337 -117 -522q0 -154 105.5 -233.5t337.5 -82.5q83 -2 165.5 8t164 35t143.5 62.5t101 96.5t40 132h-342q-169 0 -249.5 73.5t-80.5 231.5q0 88 12 166.5t41 151.5t72 125.5t110 84t150 31.5q192 0 311.5 -170t137.5 -489h137zM815 344
q0 -75 43.5 -108t157.5 -33h307q-8 105 -26 186t-50.5 147t-85 101t-123.5 35q-66 0 -112.5 -31.5t-69 -84t-32 -104t-9.5 -108.5z" />
    <glyph glyph-name="uniFED7" unicode="&#x642;" horiz-adv-x="1067" arabic-form="initial" 
d="M621 1501l-144 107v12l103 133h10l143 -106v-11l-102 -135h-10zM330 1468l-142 109v10l101 133h12l141 -106v-10l-100 -136h-12zM-98 100q0 42 30 72.5t72 30.5h60.5h72.5t72 0.5t80 2.5t75 4.5t77.5 7.5t67.5 11t65 15t51 20q87 36 123.5 91.5t42.5 150.5
q-131 -76 -345 -76q-164 0 -241.5 65t-77.5 220q0 111 21 208t65 178t121 128t180 47q134 0 234.5 -87t153 -240.5t52.5 -350.5q0 -214 -71 -342q-71 -125 -230 -184q-81 -34 -196 -51t-205 -20t-248 -3q-42 0 -72 31t-30 71zM285 756q0 -74 43 -108t157 -34q72 0 155 14
t142 42q-6 88 -24 159.5t-49.5 130.5t-82.5 92t-118 33q-53 0 -94 -21.5t-65 -55t-39 -79t-20 -87t-5 -86.5z" />
    <glyph glyph-name="uniFED8" unicode="&#x642;" horiz-adv-x="1183" arabic-form="medial" 
d="M727 1159h-10l-142 107v12l101 133h12l141 -106v-11zM438 1126h-10l-143 109v10l102 133h10l144 -106v-10zM1184 203q41 0 70.5 -30.5t29.5 -72.5q0 -40 -29.5 -71t-68.5 -31q-419 0 -678 121q-87 -66 -204 -93.5t-304 -27.5q-41 0 -70.5 30.5t-29.5 71.5q0 42 29 72.5
t71 30.5q242 0 336 30q-133 127 -133 316q0 195 109 299t298 104q185 0 285 -101t100 -282q0 -160 -88 -352q137 -14 277 -14zM608 760q-117 0 -180 -55.5t-63 -161.5q0 -62 30.5 -113t86 -87t122 -60.5t148.5 -40.5q82 180 82 305q0 101 -59.5 157t-166.5 56z" />
    <glyph glyph-name="uniFED9" unicode="&#x643;" horiz-adv-x="1744" arabic-form="isolated" 
d="M717 -23q-294 3 -446.5 111.5t-157.5 314.5q-6 192 102 465l125 -41q-46 -147 -62 -234.5t-10 -152.5q8 -126 118.5 -187.5t350.5 -68.5q110 -4 211 2t198 25.5t167 52t113 86.5t42 123l-12 1006l174 26l2 -1042q0 -109 -46.5 -194t-127.5 -140t-198 -90.5t-250.5 -49.5
t-292.5 -12zM874 571q-71 0 -169 27l18 88q90 -16 151 -16q95 0 140 28q3 74 -72 120.5t-207 47.5v47q0 84 86.5 134.5t222.5 66.5l7 -88q-135 -20 -211 -82q124 -18 191 -83.5t65 -158.5q-6 -131 -222 -131z" />
    <glyph glyph-name="uniFEDA" unicode="&#x643;" horiz-adv-x="1900" arabic-form="final" 
d="M113 403q-6 192 102 465l125 -41q-46 -148 -62 -234.5t-10 -152.5q8 -126 118.5 -187.5t350.5 -68.5q139 -5 263.5 6.5t232.5 39.5t172 83t63 131l-8 1047l170 27l2 -1006q0 -97 15.5 -158t51 -94t82 -45t120.5 -12q41 0 70.5 -30.5t29.5 -72.5t-29 -72t-71 -30
q-277 0 -369 209q-188 -239 -813 -230q-295 3 -448 111.5t-158 314.5zM874 571q-71 0 -169 27l18 88q90 -16 151 -16q95 0 140 28q3 74 -72 120.5t-207 47.5v47q0 84 86.5 134.5t222.5 66.5l7 -88q-135 -20 -211 -82q124 -18 191 -83.5t65 -158.5q-6 -131 -222 -131z" />
    <glyph glyph-name="uniFEDB" unicode="&#x643;" horiz-adv-x="935" arabic-form="initial" 
d="M-100 100q0 42 29 72.5t71 30.5h119q122 0 228.5 18t179 55.5t75.5 88.5q4 32 -5.5 74t-47.5 109t-101.5 136.5t-181.5 156t-274 167.5l16 206l809 314l21 -182l-633 -259q587 -357 565 -739q-7 -109 -102 -190t-244 -120.5t-330 -39.5h-94q-41 0 -70.5 30.5t-29.5 71.5z
" />
    <glyph glyph-name="uniFEDC" unicode="&#x643;" horiz-adv-x="1239" arabic-form="medial" 
d="M-100 100q0 42 29 72.5t71 30.5h119q200 0 339.5 48.5t139.5 113.5q0 56 -74 155q-72 96 -228.5 241t-303.5 247l18 206l809 314l19 -182l-639 -261q310 -262 489 -485q156 -192 210 -248q102 -103 204 -132q59 -17 137 -17q42 0 71 -30.5t29 -72.5q0 -41 -29.5 -71.5
t-70.5 -30.5q-113 0 -199.5 29.5t-155 85t-149.5 153.5q-41 -123 -213.5 -195.5t-427.5 -72.5h-94q-41 0 -70.5 30.5t-29.5 71.5z" />
    <glyph glyph-name="uniFEDD" unicode="&#x644;" horiz-adv-x="1427" arabic-form="isolated" 
d="M631 -541q-251 3 -384.5 132.5t-133.5 351.5q0 241 153 645l133 -49q-125 -366 -125 -553q0 -310 365 -322q44 -1 86 2t95 13.5t98.5 28.5t90.5 51t76.5 76.5t50.5 109t19 145.5l-12 1383l168 20l4 -1387q1 -315 -181 -482.5t-503 -164.5z" />
    <glyph glyph-name="uniFEDE" unicode="&#x644;" horiz-adv-x="1626" arabic-form="final" 
d="M629 -541q-252 1 -384 131t-132 359q0 258 153 639l133 -51q-125 -353 -127 -541q-2 -160 89 -244t276 -88q44 -1 86 2t95.5 13.5t99 28.5t90.5 51t77 76.5t51 109t19 145.5l-12 1383l166 20l2 -985q0 -96 18 -156.5t60 -93t96 -44t141 -11.5q42 0 71 -30.5t29 -72.5
t-29 -72t-71 -30q-118 0 -188.5 23t-124.5 77q0 -6 -1 -19.5t-1 -19.5q-17 -296 -195 -449.5t-487 -150.5z" />
    <glyph glyph-name="uniFEDF" unicode="&#x644;" horiz-adv-x="571" arabic-form="initial" 
d="M0 -2q-41 0 -70.5 30.5t-29.5 71.5q0 42 29 72.5t71 30.5q166 0 240 73.5t73 237.5l-6 961l164 20l2 -983q0 -255 -119 -384.5t-354 -129.5z" />
    <glyph glyph-name="uniFEE0" unicode="&#x644;" horiz-adv-x="759" arabic-form="medial" 
d="M760 203q41 0 70.5 -30.5t29.5 -72.5q0 -41 -29.5 -71.5t-70.5 -30.5q-257 0 -365 131q-159 -137 -395 -131q-41 0 -70.5 30.5t-29.5 71.5q0 42 29 72.5t71 30.5q204 0 322 78q-29 106 -29 233l-6 961l166 20l2 -983q0 -94 15.5 -153t53.5 -94t93 -48.5t143 -13.5z" />
    <glyph glyph-name="uniFEE1" unicode="&#x645;" horiz-adv-x="1169" arabic-form="isolated" 
d="M637 887q100 0 182.5 -53.5t133.5 -141t78.5 -192t27.5 -213.5q0 -51 -12 -92t-32 -70t-54 -50.5t-69.5 -34.5t-87.5 -22t-99.5 -13t-112.5 -7q-50 -2 -79 -3.5t-63.5 -4.5t-52.5 -6t-40 -9.5t-31 -12.5t-21 -17.5t-15.5 -23.5t-8 -31t-5 -39t-0.5 -48v-430l-163 -22v461
q0 158 35.5 235t125.5 111q-20 76 -20 172q0 142 45 267.5t134.5 207.5t203.5 82zM612 201q168 6 226.5 26t58.5 82q0 41 -6.5 87t-24.5 100.5t-45 97.5t-72 71.5t-102 28.5q-108 0 -170.5 -98.5t-62.5 -237.5q0 -86 28 -168q112 9 170 11z" />
    <glyph glyph-name="uniFEE2" unicode="&#x645;" horiz-adv-x="1368" arabic-form="final" 
d="M1368 203q41 0 70.5 -30.5t29.5 -72.5q0 -41 -29.5 -71.5t-70.5 -30.5q-129 0 -215 34.5t-141 110.5q-45 -79 -147.5 -107.5t-284.5 -37.5q-50 -2 -79 -3.5t-64 -4.5t-53 -6t-39.5 -9t-31.5 -12.5t-21.5 -18t-15.5 -23.5t-8 -31t-5 -39t-1 -48v-430l-164 -22v461
q0 159 36 235.5t128 110.5q-20 76 -20 172q0 142 45 268t134 207.5t202 81.5q81 0 151 -35.5t119 -97t82.5 -136t50.5 -159.5h2q20 -98 52 -150t100.5 -79t187.5 -27zM600 201q168 6 225.5 26t57.5 82q0 53 -11.5 112.5t-37.5 124t-78 106.5t-123 42q-72 0 -126 -48
t-80 -123t-26 -165q0 -83 29 -168q112 9 170 11z" />
    <glyph glyph-name="uniFEE3" unicode="&#x645;" horiz-adv-x="1277" arabic-form="initial" 
d="M-100 100q0 42 29 72.5t71 30.5q133 0 215 70t186 255q48 85 88 141.5t90 105t107.5 72t126.5 23.5q89 0 158.5 -50.5t110 -133t61.5 -177.5t22 -196q3 -180 -72 -279.5t-216 -99.5q-150 0 -270.5 84.5t-190.5 225.5q-78 -117 -175 -181.5t-241 -64.5q-41 0 -70.5 30.5
t-29.5 71.5zM510 408q50 -115 149.5 -191t221.5 -76q77 0 105 42.5t28 133.5q0 65 -10 124t-32 114.5t-64 89t-99 33.5q-84 0 -150.5 -60t-148.5 -210z" />
    <glyph glyph-name="uniFEE4" unicode="&#x645;" horiz-adv-x="1497" arabic-form="medial" 
d="M-100 100q0 42 29 72.5t71 30.5q133 0 215 70t186 255q48 85 88 141.5t90 105t107.5 72t126.5 23.5q70 0 127.5 -29.5t97.5 -82.5t67.5 -117t45.5 -143q39 -172 113 -233.5t233 -61.5q41 0 70.5 -30.5t29.5 -72.5q0 -40 -30 -71t-70 -31q-254 0 -356 174
q-52 -238 -264 -238q-150 0 -270.5 84.5t-190.5 225.5q-38 -57 -75 -97.5t-86.5 -76t-113.5 -54t-141 -18.5q-41 0 -70.5 30.5t-29.5 71.5zM510 408q50 -115 149.5 -191t221.5 -76q79 0 106 42t27 134q0 65 -10 124t-32 114.5t-64 89t-99 33.5q-84 0 -150.5 -60t-148.5 -210
z" />
    </font>
</defs>
</svg>
