<?xml version="1.0" standalone="no"?>
<!DOCTYPE svg PUBLIC "-//W3C//DTD SVG 1.1//EN" "http://www.w3.org/Graphics/SVG/1.1/DTD/svg11.dtd" >
<svg xmlns="http://www.w3.org/2000/svg" xmlns:xlink="http://www.w3.org/1999/xlink" version="1.1">
<metadata>
Created by FontForge 20201107 at Sat Feb 27 00:37:11 2021
 By 
Copyright (c) 2021 by www.fontiran.com (Kamyab Jafari). All rights reserved.
</metadata>
<defs>
<font id="Pelak-Bold" horiz-adv-x="0" >
  <font-face 
    font-family="Pelak Bold"
    font-weight="700"
    font-stretch="normal"
    units-per-em="1000"
    panose-1="2 11 0 0 4 0 0 0 0 0"
    ascent="800"
    descent="-200"
    x-height="506"
    cap-height="710"
    bbox="-256 -601 1693 1007"
    underline-thickness="200"
    underline-position="-450"
    unicode-range="U+0020-FEFF"
  />
<missing-glyph horiz-adv-x="290" 
 />
    <glyph glyph-name="uniFDF2" unicode="&#x627;&#xfedf;&#xfee0;&#xfeea;" horiz-adv-x="1441" arabic-form="isolated" 
d="M714 888l58 16l1 -159l-48 -12zM627.5 581q-20.5 24 -20.5 66q0 28 12 79l43 -9q-6 -36 -6 -49q0 -44 34 -44q15 0 25 8t11 24l3 42h43l3 -41q1 -17 11 -25t25 -8q31 0 31 30q0 22 -12 74l52 20q14 -59 14 -95q0 -45 -20 -70t-60 -25q-19 0 -35.5 7.5t-27.5 21.5
q-24 -30 -64 -30q-41 0 -61.5 24zM1277 722l123 19l1 -742l-116 -9zM373 94q-67 -38 -148 -38q-84 0 -134.5 43.5t-51.5 121.5q-1 99 74 167t210 107v74l119 24l-1 -295q-1 -58 11.5 -91t42.5 -48t85 -15q73 0 123 35q-7 40 -9 92l-3 223l124 11l-1 -234q0 -52 10 -78.5
t34.5 -37.5t73.5 -11q51 0 79 11.5t39.5 37t10.5 69.5l-4 447l123 19l1 -467q0 -127 -62.5 -193t-186.5 -66q-116 0 -172 66q-37 -33 -81 -49.5t-99 -16.5q-144 0 -207 92zM332 210q-7 34 -7 83l-1 77q-178 -50 -175 -132q0 -22 27.5 -32.5t68.5 -10.5q48 0 87 15z" />
    <glyph glyph-name="uniFEF5" unicode="&#xfedf;&#xfe82;" horiz-adv-x="571" arabic-form="isolated" 
d="M531 760v-447q0 -158 -115 -248.5t-317 -134.5l-42 133q49 11 100 26q-6 113 -21 206.5t-59 297.5l114 49q45 -227 59 -322.5t14 -193.5q74 32 112 74.5t37 102.5l-5 437zM285 702.5q-20 -28.5 -62 -28.5q-37 0 -96 19q-8 3 -32 10.5t-39 7.5q-16 0 -23 -10t-13 -33
l-55 9q4 61 25.5 89.5t72.5 28.5q28 0 71 -15q18 -6 27 -8q47 -15 60 -15q16 0 22.5 8.5t11.5 29.5l54 -10q-4 -54 -24 -82.5z" />
    <glyph glyph-name="uniFEF6" unicode="&#xfee0;&#xfe82;" horiz-adv-x="633" arabic-form="final" 
d="M681 121q20 -21 20 -50t-20 -50.5t-48 -21.5q-76 0 -125 26t-74 80q-104 -127 -352 -175l-43 134q41 9 101 26q-6 110 -21 203.5t-60 299.5l115 49q45 -227 59 -322t14 -193q73 32 111 74t37 102l-5 440l124 19v-474q0 -76 26.5 -111t92.5 -35q28 0 48 -21zM264 708.5
q-20 -28.5 -62 -28.5q-37 0 -96 19q-8 3 -32 10.5t-39 7.5q-16 0 -23 -10t-13 -33l-55 9q4 61 25.5 89.5t72.5 28.5q28 0 71 -15q18 -6 27 -8q47 -15 60 -15q16 0 22.5 8.5t11.5 29.5l54 -10q-4 -54 -24 -82.5z" />
    <glyph glyph-name="uniFEF7" unicode="&#xfedf;&#xfe84;" horiz-adv-x="556" arabic-form="isolated" 
d="M252 749l-278 -101l-11 62l55 20q-23 34 -23 83q0 52 28.5 86.5t75.5 34.5q43 0 90 -39l-26 -49q-29 17 -53 17t-38 -14.5t-14 -37.5q0 -32 24 -58l158 58zM513 760v-447q0 -158 -115 -248.5t-317 -134.5l-42 133q49 11 100 26q-6 113 -21 206.5t-59 297.5l114 49
q45 -227 59 -322.5t14 -193.5q74 32 112 74.5t37 102.5l-5 437z" />
    <glyph glyph-name="uniFEF8" unicode="&#xfee0;&#xfe84;" horiz-adv-x="633" arabic-form="final" 
d="M252 749l-278 -101l-11 62l55 20q-23 34 -23 83q0 52 28.5 86.5t75.5 34.5q43 0 90 -39l-26 -49q-29 17 -53 17t-38 -14.5t-14 -37.5q0 -32 24 -58l158 58zM681 121q20 -21 20 -50t-20 -50.5t-48 -21.5q-76 0 -125 26t-74 80q-104 -127 -352 -175l-43 134q41 9 101 26
q-6 110 -21 203.5t-60 299.5l115 49q45 -227 59 -322t14 -193q73 32 111 74t37 102l-5 440l124 19v-474q0 -76 26.5 -111t92.5 -35q28 0 48 -21z" />
    <glyph glyph-name="uniFEF9" unicode="&#xfedf;&#xfe88;" horiz-adv-x="556" arabic-form="isolated" 
d="M513 760v-447q0 -158 -115 -248.5t-317 -134.5l-42 133q49 11 100 26q-6 113 -21 206.5t-59 297.5l114 49q45 -227 59 -322.5t14 -193.5q74 32 112 74.5t37 102.5l-5 437zM365 -314l-290 -66l-2 63l57 13q-14 28 -14 63q0 56 29 93.5t75 37.5q54 0 101 -51l-32 -45
q-20 13 -32.5 18.5t-27.5 5.5q-22 0 -35.5 -14.5t-15.5 -38.5q0 -28 18 -54l165 38z" />
    <glyph glyph-name="uniFEFA" unicode="&#xfee0;&#xfe88;" horiz-adv-x="633" arabic-form="final" 
d="M681 121q20 -21 20 -50t-20 -50.5t-48 -21.5q-76 0 -125 26t-74 80q-104 -127 -352 -175l-43 134q41 9 101 26q-6 110 -21 203.5t-60 299.5l115 49q45 -227 59 -322t14 -193q73 32 111 74t37 102l-5 440l124 19v-474q0 -76 26.5 -111t92.5 -35q28 0 48 -21zM378 -279
l-290 -66l-2 63l57 13q-14 28 -14 63q0 56 29 93.5t75 37.5q54 0 101 -51l-32 -45q-20 13 -32.5 18.5t-27.5 5.5q-22 0 -35.5 -14.5t-15.5 -38.5q0 -28 18 -54l165 38z" />
    <glyph glyph-name="uniFEFB" unicode="&#xfedf;&#xfe8e;" horiz-adv-x="556" arabic-form="isolated" 
d="M513 760v-447q0 -158 -115 -248.5t-317 -134.5l-42 133q49 11 100 26q-6 113 -21 206.5t-59 297.5l114 49q45 -227 59 -322.5t14 -193.5q74 32 112 74.5t37 102.5l-5 437z" />
    <glyph glyph-name="uniFEFC" unicode="&#xfee0;&#xfe8e;" horiz-adv-x="633" arabic-form="final" 
d="M681 121q20 -21 20 -50t-20 -50.5t-48 -21.5q-76 0 -125 26t-74 80q-104 -127 -352 -175l-43 134q41 9 101 26q-6 110 -21 203.5t-60 299.5l115 49q45 -227 59 -322t14 -193q73 32 111 74t37 102l-5 440l124 19v-474q0 -76 26.5 -111t92.5 -35q28 0 48 -21z" />
    <glyph glyph-name="meem_yehfarsiar.fina" unicode="&#xfee4;&#xfbfd;" horiz-adv-x="1440" 
d="M1488.5 123q20.5 -21 20.5 -49q0 -29 -20.5 -50.5t-48.5 -21.5q-108 0 -164 68q-21 -50 -60 -76.5t-91 -26.5q-64 0 -122.5 35.5t-97.5 98.5q-34 -46 -77 -73t-103 -30q2 -18 1 -27q-8 -69 -52 -125.5t-125.5 -90.5t-196.5 -34q-158 0 -234 69t-76 193q0 62 19 136.5
t57 171.5l96 -36q-55 -165 -55 -253q0 -67 44 -102.5t151 -35.5q65 0 121.5 13.5t90 35.5t33.5 47q0 20 -26 29q-25 9 -161 30l24 133q152 -12 273 -12q40 0 68 12.5t53 42.5t59 88q54 91 103 133.5t118 42.5q64 0 109 -47t63 -129l1 1q12 -58 29.5 -87.5t47 -41t80.5 -11.5
q28 0 48.5 -21zM1174 129q14 19 14 58q0 59 -20 98t-62 39q-35 0 -66 -24.5t-71 -91.5q32 -44 74 -71t85 -27q32 0 46 19z" />
    <glyph glyph-name="meem_yehfarsiar" unicode="&#xfee3;&#xfbfd;" horiz-adv-x="1330" 
d="M116 -210q-76 69 -76 193q0 62 19 135.5t57 171.5l94 -35q-26 -80 -40 -145t-15 -108q0 -68 45 -103.5t150 -35.5q66 0 122.5 13.5t90.5 36t34 47.5q0 10 -7 18t-19 12q-27 9 -162 29l25 132q155 -11 272 -11q40 0 68 12.5t53 42t59 87.5q54 92 103 134t117 42
q56 0 98 -35.5t64.5 -99t22.5 -146.5q0 -101 -46.5 -155t-122.5 -54q-65 0 -123 35.5t-97 99.5q-35 -48 -78 -75t-103 -29q2 -10 2 -28q-8 -69 -52 -125.5t-125.5 -90.5t-196.5 -34q-157 0 -233 69zM1171 128.5q14 19.5 14 58.5q0 60 -19.5 99t-62.5 39q-35 0 -66.5 -25
t-71.5 -92q32 -44 74.5 -71.5t85.5 -27.5q32 0 46 19.5z" />
    <glyph glyph-name="lellahar" unicode="&#xfedf;&#xfee0;&#xfeea;" horiz-adv-x="1220" 
d="M772 860l1 -159l-48 -11l-11 154zM628 538q-21 24 -21 66q0 27 12 79l43 -9q-6 -37 -6 -49q0 -45 35 -45q14 0 24 8.5t11 23.5l3 42h43l3 -41q1 -16 11.5 -24.5t25.5 -8.5t23 7.5t8 22.5q0 17 -13 75l52 20q15 -59 15 -96q0 -45 -20 -69.5t-60 -24.5q-19 0 -36 7t-28 21
q-11 -14 -27.5 -21.5t-35.5 -7.5q-41 0 -62 24zM374 51q-70 -38 -149 -38q-81 0 -132.5 43t-52.5 121q-1 100 74.5 168t209.5 106v74l118 23l-2 -294q0 -66 14 -99t42.5 -44t80.5 -11q42 0 72.5 8.5t56.5 27.5q-7 40 -9 91l-5 223l121 10v-233q0 -53 10.5 -80t35.5 -37
t73 -10q75 0 103.5 26.5t27.5 92.5l-5 467l121 18l1 -487q0 -127 -62.5 -192.5t-185.5 -65.5q-117 0 -172 67q-36 -34 -81 -50.5t-102 -16.5q-142 0 -203 92zM333 166q-7 34 -7 83l-1 78q-83 -23 -130.5 -56t-46.5 -76q1 -22 28.5 -33t68.5 -11q49 0 88 15z" />
    <glyph glyph-name="rieaar.fina" unicode="&#xfeae;&#xfbfe;&#xfeca;" horiz-adv-x="1502" 
d="M131 -246q-90 65 -90 198q0 162 143 278q-71 70 -120 148l26 145q107 34 174.5 48t126.5 14q58 0 100 -20.5t63.5 -55t21.5 -76.5q0 -57 -23.5 -111t-80.5 -130q57 -26 113 -38.5t127 -12.5h19q198 0 197 93q0 36 -10.5 89t-36.5 155l117 41q24 -114 32 -168t8 -113
q0 -117 -80.5 -177.5t-229.5 -60.5h-16q-121 0 -228 39.5t-209 114.5q-113 -79 -113 -178q0 -148 267 -148q51 0 115 4.5t117 12.5l8 -122q-63 -18 -138.5 -26t-143.5 -8q-166 0 -256 65zM465 399q0 26 -25 40.5t-67 14.5q-67 0 -204 -41q89 -107 199 -176q97 109 97 162z
M991 -258l-3 111q7 1 21 1q132 13 192 65.5t60 148.5q0 48 -13.5 109.5t-40.5 149.5l116 50q18 -73 25 -97q15 -60 31 -88.5t43.5 -39.5t79.5 -11q28 0 48 -20.5t20 -49.5t-20 -50t-48 -21q-85 0 -131 37q-13 -143 -99.5 -219.5t-248.5 -76.5q-21 0 -32 1zM887 -105l79 -70
v-4l-69 -78h-5l-64 57l-68 -75h-4l-80 71v4l70 77h4l64 -56l68 74h5z" />
    <glyph glyph-name="rieaar" unicode="&#x631;&#xfbfe;&#xfeca;" horiz-adv-x="1421" 
d="M184 230q-71 70 -120 148l26 145q107 34 174.5 48t126.5 14q58 0 100 -20.5t63.5 -55t21.5 -76.5q0 -57 -23.5 -111t-80.5 -130q57 -26 113 -38.5t127 -12.5h19q198 0 197 93q0 36 -10.5 89t-36.5 155l117 41q24 -114 32 -168t8 -113q0 -117 -80.5 -177.5t-229.5 -60.5
h-16q-121 0 -228 39.5t-209 114.5q-113 -79 -113 -178q0 -148 267 -148q51 0 115 4.5t117 12.5l8 -122q-63 -18 -138.5 -26t-143.5 -8q-166 0 -256 65t-90 198q0 162 143 278zM368 237q97 109 97 162q0 26 -25 40.5t-67 14.5q-67 0 -204 -41q89 -107 199 -176zM1195.5 -86.5
q65.5 53.5 65.5 154.5q0 47 -15 108.5t-45 148.5l116 53q29 -92 43.5 -162.5t14.5 -129.5q0 -160 -86.5 -252.5t-260.5 -93.5q-24 0 -36 1l-4 112q142 7 207.5 60.5zM890 -106l79 -70v-4l-69 -78h-5l-64 57l-68 -75h-4l-80 71v4l70 77h4l64 -56l68 74h5z" />
    <glyph glyph-name="zieaar.fina" unicode="&#xfeb0;&#xfbfe;&#xfeca;" horiz-adv-x="1502" 
d="M983.5 84q-54.5 -58 -158.5 -76l1 -1v-5l-72 -80h-5l-82 73v5l1 1q-108 7 -204.5 46t-188.5 107q-113 -79 -113 -178q0 -148 267 -148q51 0 115 4.5t117 12.5l8 -122q-63 -18 -138.5 -26t-143.5 -8q-166 0 -256 65t-90 198q0 162 143 278q-71 70 -120 148l26 145
q107 34 174.5 48t126.5 14q58 0 100 -20.5t63.5 -55t21.5 -76.5q0 -57 -23.5 -111t-80.5 -130q57 -26 113 -38.5t127 -12.5h19q198 0 197 93q0 36 -10.5 89t-36.5 155l117 41q24 -113 32 -167t8 -113q0 -97 -54.5 -155zM465 399q0 26 -25 40.5t-67 14.5q-67 0 -204 -41
q89 -107 199 -176q97 109 97 162zM1550 120.5q20 -20.5 20 -49.5t-20 -50t-48 -21q-85 0 -131 37q-13 -143 -99.5 -219.5t-248.5 -76.5q-21 0 -32 1l-3 111q7 1 21 1q132 13 192 65.5t60 148.5q0 48 -13.5 109.5t-40.5 149.5l116 50q18 -73 25 -97q15 -60 31 -88.5
t43.5 -39.5t79.5 -11q28 0 48 -20.5zM883 -106h4l80 -70v-5l-70 -77h-4l-65 57l-67 -76h-5l-79 71v5l69 76h5l64 -56z" />
    <glyph glyph-name="zieaar" unicode="&#x632;&#xfbfe;&#xfeca;" horiz-adv-x="1421" 
d="M980.5 81q-57.5 -58 -165.5 -75l12 -11v-5l-72 -80h-5l-82 73v5l11 13q-111 5 -210 44t-194 109q-113 -79 -113 -178q0 -148 267 -148q51 0 115 4.5t117 12.5l8 -122q-63 -18 -138.5 -26t-143.5 -8q-166 0 -256 65t-90 198q0 162 143 278q-71 70 -120 148l26 145
q107 34 174.5 48t126.5 14q58 0 100 -20.5t63.5 -55t21.5 -76.5q0 -57 -23.5 -111t-80.5 -130q57 -26 113 -38.5t127 -12.5h19q198 0 197 93q0 36 -10.5 89t-36.5 155l117 41q25 -115 32.5 -168.5t7.5 -113.5q0 -98 -57.5 -156zM465 399q0 26 -25 40.5t-67 14.5
q-67 0 -204 -41q89 -107 199 -176q97 109 97 162zM1360.5 215.5q14.5 -70.5 14.5 -129.5q0 -160 -86.5 -252.5t-260.5 -93.5q-24 0 -36 1l-4 112q142 7 207.5 60.5t65.5 154.5q0 47 -15 108.5t-45 148.5l116 53q29 -92 43.5 -162.5zM884 -118h5l79 -70v-4l-70 -78h-4l-64 58
l-68 -76h-5l-79 70v5l69 77h5l64 -57z" />
    <glyph glyph-name="zhieaar.fina" unicode="&#xfb8b;&#xfbfe;&#xfeca;" horiz-adv-x="1502" 
d="M131 -246q-90 65 -90 198q0 162 143 278q-71 70 -120 148l26 145q107 34 174.5 48t126.5 14q58 0 100 -20.5t63.5 -55t21.5 -76.5q0 -57 -23.5 -111t-80.5 -130q57 -26 113 -38.5t127 -12.5h19q198 0 197 93q0 36 -10.5 89t-36.5 155l117 41q24 -114 32 -168t8 -113
q0 -117 -80.5 -177.5t-229.5 -60.5h-16q-121 0 -228 39.5t-209 114.5q-113 -79 -113 -178q0 -148 267 -148q51 0 115 4.5t117 12.5l8 -122q-63 -18 -138.5 -26t-143.5 -8q-166 0 -256 65zM465 399q0 26 -25 40.5t-67 14.5q-67 0 -204 -41q89 -107 199 -176q97 109 97 162z
M991 -258l-3 111q7 1 21 1q132 13 192 65.5t60 148.5q0 48 -13.5 109.5t-40.5 149.5l116 50q18 -73 25 -97q15 -60 31 -88.5t43.5 -39.5t79.5 -11q28 0 48 -20.5t20 -49.5t-20 -50t-48 -21q-85 0 -131 37q-13 -143 -99.5 -219.5t-248.5 -76.5q-21 0 -32 1zM1225 584h-4
l-75 67v4l65 72h4l76 -66v-4zM1296 599l79 -70v-4l-69 -78h-5l-65 58l-67 -75h-4l-80 70v5l70 76h4l65 -57l67 75h5zM887 -121l79 -70v-4l-69 -78h-5l-64 57l-68 -75h-4l-80 71v4l70 77h4l64 -56l68 74h5z" />
    <glyph glyph-name="zhieaar" unicode="&#x698;&#xfbfe;&#xfeca;" horiz-adv-x="1421" 
d="M184 230q-71 70 -120 148l26 145q107 34 174.5 48t126.5 14q58 0 100 -20.5t63.5 -55t21.5 -76.5q0 -57 -23.5 -111t-80.5 -130q57 -26 113 -38.5t127 -12.5h19q198 0 197 93q0 36 -10.5 89t-36.5 155l117 41q24 -114 32 -168t8 -113q0 -117 -80.5 -177.5t-229.5 -60.5
h-16q-121 0 -228 39.5t-209 114.5q-113 -79 -113 -178q0 -148 267 -148q51 0 115 4.5t117 12.5l8 -122q-63 -18 -138.5 -26t-143.5 -8q-166 0 -256 65t-90 198q0 162 143 278zM368 237q97 109 97 162q0 26 -25 40.5t-67 14.5q-67 0 -204 -41q89 -107 199 -176zM1195.5 -86.5
q65.5 53.5 65.5 154.5q0 47 -15 108.5t-45 148.5l116 53q29 -92 43.5 -162.5t14.5 -129.5q0 -160 -86.5 -252.5t-260.5 -93.5q-24 0 -36 1l-4 112q142 7 207.5 60.5zM1228 585h-4l-75 67v4l65 72h4l76 -66v-4zM1299 600l79 -70v-4l-69 -78h-5l-65 58l-67 -75h-4l-80 70v5
l70 76h4l65 -57l67 75h5zM893 -105l79 -70v-4l-69 -78h-5l-64 57l-68 -75h-4l-80 71v4l70 77h4l64 -56l68 74h5z" />
    <glyph glyph-name="reeqar.fina" unicode="&#xfeae;&#xfbfe;&#xfece;" horiz-adv-x="1502" 
d="M131 -246q-90 65 -90 198q0 162 143 278q-71 70 -120 148l26 145q107 34 174.5 48t126.5 14q58 0 100 -20.5t63.5 -55t21.5 -76.5q0 -57 -23.5 -111t-80.5 -130q57 -26 113 -38.5t127 -12.5h19q198 0 197 93q0 36 -10.5 89t-36.5 155l117 41q24 -114 32 -168t8 -113
q0 -117 -80.5 -177.5t-229.5 -60.5h-16q-121 0 -228 39.5t-209 114.5q-113 -79 -113 -178q0 -148 267 -148q51 0 115 4.5t117 12.5l8 -122q-63 -18 -138.5 -26t-143.5 -8q-166 0 -256 65zM465 399q0 26 -25 40.5t-67 14.5q-67 0 -204 -41q89 -107 199 -176q97 109 97 162z
M991 -258l-3 111q7 1 21 1q132 13 192 65.5t60 148.5q0 48 -13.5 109.5t-40.5 149.5l116 50q18 -73 25 -97q15 -60 31 -88.5t43.5 -39.5t79.5 -11q28 0 48 -20.5t20 -49.5t-20 -50t-48 -21q-85 0 -131 37q-13 -143 -99.5 -219.5t-248.5 -76.5q-21 0 -32 1zM178 719v5l72 80
h5l82 -73v-5l-72 -80h-5zM890 -105l79 -70v-4l-69 -78h-5l-64 57l-68 -75h-4l-80 71v4l70 77h4l64 -56l68 74h5z" />
    <glyph glyph-name="reeqar" unicode="&#x631;&#xfbfe;&#xfece;" horiz-adv-x="1421" 
d="M184 230q-71 70 -120 148l26 145q107 34 174.5 48t126.5 14q58 0 100 -20.5t63.5 -55t21.5 -76.5q0 -57 -23.5 -111t-80.5 -130q57 -26 113 -38.5t127 -12.5h19q198 0 197 93q0 36 -10.5 89t-36.5 155l117 41q24 -114 32 -168t8 -113q0 -117 -80.5 -177.5t-229.5 -60.5
h-16q-121 0 -228 39.5t-209 114.5q-113 -79 -113 -178q0 -148 267 -148q51 0 115 4.5t117 12.5l8 -122q-63 -18 -138.5 -26t-143.5 -8q-166 0 -256 65t-90 198q0 162 143 278zM368 237q97 109 97 162q0 26 -25 40.5t-67 14.5q-67 0 -204 -41q89 -107 199 -176zM1195.5 -86.5
q65.5 53.5 65.5 154.5q0 47 -15 108.5t-45 148.5l116 53q29 -92 43.5 -162.5t14.5 -129.5q0 -160 -86.5 -252.5t-260.5 -93.5q-24 0 -36 1l-4 112q142 7 207.5 60.5zM178 719v5l72 80h5l82 -73v-5l-72 -80h-5zM884 -104l79 -70v-4l-69 -78h-5l-64 57l-68 -75h-4l-80 71v4
l70 77h4l64 -56l68 74h5z" />
    <glyph glyph-name="zeeqar.fina" unicode="&#xfeb0;&#xfbfe;&#xfece;" horiz-adv-x="1502" 
d="M131 -246q-90 65 -90 198q0 162 143 278q-71 70 -120 148l26 145q107 34 174.5 48t126.5 14q58 0 100 -20.5t63.5 -55t21.5 -76.5q0 -57 -23.5 -111t-80.5 -130q57 -26 113 -38.5t127 -12.5h19q198 0 197 93q0 36 -10.5 89t-36.5 155l117 41q24 -114 32 -168t8 -113
q0 -117 -80.5 -177.5t-229.5 -60.5h-16q-121 0 -228 39.5t-209 114.5q-113 -79 -113 -178q0 -148 267 -148q51 0 115 4.5t117 12.5l8 -122q-63 -18 -138.5 -26t-143.5 -8q-166 0 -256 65zM465 399q0 26 -25 40.5t-67 14.5q-67 0 -204 -41q89 -107 199 -176q97 109 97 162z
M991 -258l-3 111q7 1 21 1q132 13 192 65.5t60 148.5q0 48 -13.5 109.5t-40.5 149.5l116 50q18 -73 25 -97q15 -60 31 -88.5t43.5 -39.5t79.5 -11q28 0 48 -20.5t20 -49.5t-20 -50t-48 -21q-85 0 -131 37q-13 -143 -99.5 -219.5t-248.5 -76.5q-21 0 -32 1zM1146 524v5l72 80
h5l82 -73v-5l-72 -80h-5zM883 -104l79 -70v-4l-69 -78h-5l-64 57l-68 -75h-4l-80 71v4l70 77h4l64 -56l68 74h5zM173 716v5l72 80h5l82 -73v-5l-72 -80h-5z" />
    <glyph glyph-name="zeeqar" unicode="&#x632;&#xfbfe;&#xfece;" horiz-adv-x="1421" 
d="M184 230q-71 70 -120 148l26 145q107 34 174.5 48t126.5 14q58 0 100 -20.5t63.5 -55t21.5 -76.5q0 -57 -23.5 -111t-80.5 -130q57 -26 113 -38.5t127 -12.5h19q198 0 197 93q0 36 -10.5 89t-36.5 155l117 41q24 -114 32 -168t8 -113q0 -117 -80.5 -177.5t-229.5 -60.5
h-16q-121 0 -228 39.5t-209 114.5q-113 -79 -113 -178q0 -148 267 -148q51 0 115 4.5t117 12.5l8 -122q-63 -18 -138.5 -26t-143.5 -8q-166 0 -256 65t-90 198q0 162 143 278zM368 237q97 109 97 162q0 26 -25 40.5t-67 14.5q-67 0 -204 -41q89 -107 199 -176zM1195.5 -86.5
q65.5 53.5 65.5 154.5q0 47 -15 108.5t-45 148.5l116 53q29 -92 43.5 -162.5t14.5 -129.5q0 -160 -86.5 -252.5t-260.5 -93.5q-24 0 -36 1l-4 112q142 7 207.5 60.5zM1137 525v5l72 80h5l82 -73v-5l-72 -80h-5zM887 -104l79 -70v-4l-69 -78h-5l-64 57l-68 -75h-4l-80 71v4
l70 77h4l64 -56l68 74h5zM173 716v5l72 80h5l82 -73v-5l-72 -80h-5z" />
    <glyph glyph-name="zheeqar.fina" unicode="&#xfb8b;&#xfbfe;&#xfece;" horiz-adv-x="1502" 
d="M131 -246q-90 65 -90 198q0 162 143 278q-71 70 -120 148l26 145q107 34 174.5 48t126.5 14q58 0 100 -20.5t63.5 -55t21.5 -76.5q0 -57 -23.5 -111t-80.5 -130q57 -26 113 -38.5t127 -12.5h19q198 0 197 93q0 36 -10.5 89t-36.5 155l117 41q24 -114 32 -168t8 -113
q0 -117 -80.5 -177.5t-229.5 -60.5h-16q-121 0 -228 39.5t-209 114.5q-113 -79 -113 -178q0 -148 267 -148q51 0 115 4.5t117 12.5l8 -122q-63 -18 -138.5 -26t-143.5 -8q-166 0 -256 65zM465 399q0 26 -25 40.5t-67 14.5q-67 0 -204 -41q89 -107 199 -176q97 109 97 162z
M991 -258l-3 111q7 1 21 1q132 13 192 65.5t60 148.5q0 48 -13.5 109.5t-40.5 149.5l116 50q18 -73 25 -97q15 -60 31 -88.5t43.5 -39.5t79.5 -11q28 0 48 -20.5t20 -49.5t-20 -50t-48 -21q-85 0 -131 37q-13 -143 -99.5 -219.5t-248.5 -76.5q-21 0 -32 1zM1229 583h-4
l-75 67v4l65 72h4l76 -66v-4zM1300 598l79 -70v-4l-69 -78h-5l-65 58l-67 -75h-4l-80 70v5l70 76h4l65 -57l67 75h5zM888 -103l79 -70v-4l-69 -78h-5l-64 57l-68 -75h-4l-80 71v4l70 77h4l64 -56l68 74h5zM187 714v5l72 80h5l82 -73v-5l-72 -80h-5z" />
    <glyph glyph-name="zheeqar" unicode="&#x698;&#xfbfe;&#xfece;" horiz-adv-x="1421" 
d="M184 230q-71 70 -120 148l26 145q107 34 174.5 48t126.5 14q58 0 100 -20.5t63.5 -55t21.5 -76.5q0 -57 -23.5 -111t-80.5 -130q57 -26 113 -38.5t127 -12.5h19q198 0 197 93q0 36 -10.5 89t-36.5 155l117 41q24 -114 32 -168t8 -113q0 -117 -80.5 -177.5t-229.5 -60.5
h-16q-121 0 -228 39.5t-209 114.5q-113 -79 -113 -178q0 -148 267 -148q51 0 115 4.5t117 12.5l8 -122q-63 -18 -138.5 -26t-143.5 -8q-166 0 -256 65t-90 198q0 162 143 278zM368 237q97 109 97 162q0 26 -25 40.5t-67 14.5q-67 0 -204 -41q89 -107 199 -176zM1195.5 -86.5
q65.5 53.5 65.5 154.5q0 47 -15 108.5t-45 148.5l116 53q29 -92 43.5 -162.5t14.5 -129.5q0 -160 -86.5 -252.5t-260.5 -93.5q-24 0 -36 1l-4 112q142 7 207.5 60.5zM885 -103l79 -70v-4l-69 -78h-5l-64 57l-68 -75h-4l-80 71v4l70 77h4l64 -56l68 74h5zM1236 588h-4l-75 67
v4l65 72h4l76 -66v-4zM1307 603l79 -70v-4l-69 -78h-5l-65 58l-67 -75h-4l-80 70v5l70 76h4l65 -57l67 75h5zM187 714v5l72 80h5l82 -73v-5l-72 -80h-5z" />
    <glyph glyph-name="uni066E.init" unicode="&#x66e;" horiz-adv-x="365" 
d="M-49 121q20 21 49 21h8q102 0 153.5 22.5t50.5 69.5q-1 37 -11 88.5t-34 143.5l118 42q23 -105 30.5 -158.5t7.5 -111.5q0 -117 -79.5 -178t-233.5 -61h-10q-28 0 -48.5 21.5t-20.5 50.5t20 50z" />
    <glyph glyph-name="uni066E.medi" unicode="&#x66e;" horiz-adv-x="443" 
d="M491.5 121q20.5 -21 20.5 -50t-20.5 -50.5t-48.5 -21.5q-81 0 -135 18t-87 56q-43 -36 -101 -55t-120 -19q-28 0 -48.5 21.5t-20.5 50.5t20 50t49 21q116 0 174 40q-6 32 -8 83l-2 133l101 10l9 -127q4 -58 18 -86.5t48 -40.5t103 -12q28 0 48.5 -21z" />
    <glyph glyph-name="uni066E.fina" unicode="&#x66e;" horiz-adv-x="956" 
d="M1004.5 121q20.5 -21 20.5 -50t-20.5 -50.5t-48.5 -21.5q-80 0 -133.5 17.5t-86.5 55.5q-67 -51 -156 -74t-214 -23q-169 0 -246 57.5t-77 175.5q0 94 48 224l91 -27q-29 -99 -29 -156q0 -56 26.5 -84t79.5 -37t149 -9q88 0 159.5 14.5t120.5 42.5q-7 39 -9 89l-2 130
l101 10l9 -124q5 -60 19 -88.5t47.5 -39.5t102.5 -11q28 0 48.5 -21z" />
    <glyph glyph-name="uni066F.fina" unicode="&#x66f;" horiz-adv-x="807" 
d="M855.5 121q20.5 -21 20.5 -50t-21 -50.5t-49 -21.5h-55q-6 -53 -22 -88q-35 -78 -137 -128t-256 -50q-145 1 -219.5 68.5t-74.5 182.5q0 63 17 133.5t50 155.5l96 -35q-46 -147 -46 -232q0 -66 44.5 -98t159.5 -32q60 0 119.5 13.5t102 41.5t50.5 68h-153
q-92 0 -131.5 44t-39.5 130q0 126 52 205.5t151 79.5q63 0 113.5 -36t83 -107t40.5 -173h55q29 0 49.5 -21zM440 154.5q18 -12.5 63 -12.5h128q-22 184 -120 184q-48 0 -68.5 -37.5t-20.5 -89.5q0 -32 18 -44.5z" />
    <glyph glyph-name="uni0681.init" unicode="&#x681;" horiz-adv-x="711" 
d="M-48.5 121q20.5 21 48.5 21h35q99 0 172.5 20t149.5 60q82 45 121 63l-99 50q-50 26 -77.5 36.5t-51.5 10.5q-38 0 -64.5 -26.5t-63.5 -87.5l-78 50q41 103 92.5 151.5t109.5 48.5q37 0 79 -15t106 -47l60 -30l51 -25q89 -41 147 -55l-23 -129l-57 1q-19 -1 -33.5 -5.5
t-32.5 -15.5q-71 -42 -78 -46l-40 -24q-113 -65 -204 -96.5t-190 -31.5h-30q-28 0 -49 21.5t-21 50.5t20.5 50zM377 627l-290 -66l-2 63l57 13q-14 28 -14 63q0 56 29 93.5t75 37.5q54 0 101 -51l-32 -45q-20 13 -32.5 18.5t-27.5 5.5q-22 0 -35.5 -14.5t-15.5 -38.5
q0 -28 18 -54l165 38z" />
    <glyph glyph-name="uni0681.medi" unicode="&#x681;" horiz-adv-x="723" 
d="M-48 20.5q-21 21.5 -21 50.5t20.5 50t48.5 21h35q99 0 172.5 20t149.5 60q79 43 121 63l-99 50q-50 26 -77.5 36.5t-51.5 10.5q-38 0 -65 -27t-63 -87l-78 50q41 103 92.5 151.5t109.5 48.5q37 0 79 -15t106 -47l60 -30l51 -25q92 -42 147 -55l-23 -130l-29 1
q-11 0 -39 -2q-19 -2 -34 -9q13 -35 49.5 -49.5t109.5 -14.5q29 0 49 -21t20 -50t-20.5 -50.5t-48.5 -21.5q-111 0 -175.5 36.5t-85.5 112.5q-15 -8 -37 -21q-114 -65 -205.5 -96.5t-196.5 -31.5h-22q-28 0 -49 21.5zM377 627l-290 -66l-2 63l57 13q-14 28 -14 63
q0 56 29 93.5t75 37.5q54 0 101 -51l-32 -45q-20 13 -32.5 18.5t-27.5 5.5q-22 0 -35.5 -14.5t-15.5 -38.5q0 -28 18 -54l165 38z" />
    <glyph glyph-name="uni0681.fina" unicode="&#x681;" horiz-adv-x="736" 
d="M140.5 -246q-89.5 66 -89.5 198q0 134 103 239.5t289 160.5l-54 28q-52 25 -81 36.5t-53 11.5q-38 0 -64 -24t-59 -83l-79 50q40 98 90 145.5t107 47.5q38 0 82 -15.5t114 -48.5l31 -15q10 -5 66 -32q53 -25 86.5 -37.5t64.5 -19.5l-30 -123q-10 1 -30 1q-36 0 -60 -4
q5 -47 20.5 -74.5t49 -40.5t92.5 -13q28 0 48.5 -21t20.5 -50t-20.5 -50.5t-48.5 -21.5q-128 0 -189 58t-68 186q-137 -41 -221 -110t-84 -157q0 -77 71 -112.5t195 -35.5q98 0 219 17l8 -122q-119 -35 -267 -35q-170 0 -259.5 66zM381 685l-290 -66l-2 63l57 13
q-14 28 -14 63q0 56 29 93.5t75 37.5q54 0 101 -51l-32 -45q-20 13 -32.5 18.5t-27.5 5.5q-22 0 -35.5 -14.5t-15.5 -38.5q0 -28 18 -54l165 38z" />
    <glyph glyph-name="uni06A1.init" unicode="&#x6a1;" horiz-adv-x="544" 
d="M-48.5 121q20.5 21 49.5 21q114 0 196 3t120 17q30 9 44 19.5t19 26.5t6 47q-65 -32 -163 -32q-86 0 -123 37t-37 120q0 125 52.5 204.5t150.5 79.5q68 0 121.5 -42.5t84 -124t30.5 -192.5q0 -115 -34 -179q-34 -65 -131 -96q-60 -20 -137.5 -25.5t-198.5 -5.5
q-28 0 -49 21.5t-21 50.5t20.5 50zM192 361.5q18 -12.5 63 -12.5q69 0 124 18q-11 80 -39 123t-77 43q-48 0 -68.5 -37.5t-20.5 -89.5q0 -32 18 -44.5z" />
    <glyph glyph-name="uni06A1.medi" unicode="&#x6a1;" horiz-adv-x="594" 
d="M642.5 121q20.5 -21 20.5 -50t-20 -50.5t-48 -21.5q-210 0 -338 58q-44 -31 -103.5 -44.5t-153.5 -13.5q-28 0 -48.5 21.5t-20.5 50.5t20 50t49 21q89 0 134 7q-47 63 -47 147q0 100 61 153t159 53q101 0 156 -52.5t55 -144.5q0 -76 -38 -159q53 -4 114 -4q28 0 48.5 -21
zM230 348.5q-28 -21.5 -28 -61.5q0 -48 46 -78.5t122 -46.5q32 73 32 123q0 42 -24 63.5t-71 21.5q-49 0 -77 -21.5z" />
    <glyph glyph-name="uni06A1.fina" unicode="&#x6a1;" horiz-adv-x="1029" 
d="M1077.5 121q20.5 -21 20.5 -50t-20 -50.5t-48 -21.5q-207 0 -336 57q-60 -35 -140 -51t-187 -16q-169 0 -247 57t-78 175q0 92 49 225l91 -27q-29 -99 -29 -157q0 -50 22.5 -78t68 -39t123.5 -12h31q107 0 173 15q-48 62 -48 148q0 101 61 155.5t159 54.5
q100 0 155 -54.5t55 -146.5q0 -75 -37 -159q52 -4 113 -4q28 0 48.5 -21zM665.5 349q-27.5 -21 -27.5 -62q0 -91 168 -125q32 73 32 123q0 85 -95 85q-50 0 -77.5 -21z" />
    <glyph glyph-name="uni06C2.medi" unicode="&#x6c2;" horiz-adv-x="505" 
d="M-48.5 121q20.5 21 48.5 21q54 0 79.5 9t39 34t28.5 82l16 51l97 -25l-7 -53q-10 -65 -27.5 -110t-45.5 -73q11 -83 39 -126.5t82 -62.5l-1 25q0 116 55.5 182.5t149.5 66.5q28 0 48 -21t20 -50t-20 -50.5t-48 -21.5q-51 0 -73.5 -20t-22.5 -77q0 -35 11 -103l-102 -90
q-77 27 -124 66.5t-73 95.5t-38 139q-36 -11 -83 -11q-28 0 -48.5 21.5t-20.5 50.5t20.5 50zM351 420l-290 -66l-2 63l57 13q-14 28 -14 63q0 56 29 93.5t75 37.5q54 0 101 -51l-32 -45q-20 13 -32.5 18.5t-27.5 5.5q-22 0 -35.5 -14.5t-15.5 -38.5q0 -28 18 -54l165 38z
" />
    <glyph glyph-name="uni06CA.fina" unicode="&#x6ca;" horiz-adv-x="534" 
d="M582.5 121q20.5 -21 20.5 -50t-20.5 -50.5t-49.5 -21.5h-46q-23 -130 -119 -191.5t-265 -69.5q-17 0 -57 2l-3 118q27 0 40 1q119 6 189.5 40t94.5 100h-133q-94 0 -139 44t-45 132q0 124 52 206t155 82q106 0 167 -84t70 -237h39q29 0 49.5 -21zM181 154q20 -12 64 -12
h133q-16 190 -123 190q-52 0 -73 -39.5t-21 -91.5q0 -35 20 -47zM303 688l81 -71v-5l-71 -79h-5l-65 58l-69 -76h-5l-81 72v5l71 78h5l65 -58l69 76h5z" />
    <glyph glyph-name="uni06D5.fina" unicode="&#x6d5;" horiz-adv-x="596" 
d="M331 492v80l119 23l-1 -323q-1 -55 10.5 -82t42.5 -37.5t95 -10.5q28 0 48 -21t20 -50t-20 -50.5t-48 -21.5q-157 0 -219 86q-76 -33 -146 -33q-86 0 -138 45t-52 125q0 192 289 270zM175.5 203.5q23.5 -12.5 61.5 -12.5q50 0 99 11q-5 33 -5 66v100q-90 -24 -134.5 -54
t-44.5 -72q0 -26 23.5 -38.5z" />
    <glyph glyph-name="uniFB50" unicode="&#x671;" horiz-adv-x="277" arabic-form="isolated" 
d="M108 62.5q-55 63.5 -57 190.5l-4 359l118 12l1 -360q0 -51 11 -77t34.5 -35.5t65.5 -9.5q28 0 48.5 -21t20.5 -50t-20.5 -50.5t-48.5 -21.5q-114 0 -169 63.5zM250 839q22 -30 22 -77q0 -93 -79 -93q-18 0 -34 3t-47 12l-27 8q-19 6 -34 10t-25 4q-16 0 -23 -10t-13 -33
l-55 9q4 60 25 89t68 29q15 1 37 -5q35 49 63 66.5t58 17.5q42 0 64 -30zM213 751q7 5 7 17q0 33 -31 33q-36 0 -71 -34q51 -21 73 -21q15 0 22 5z" />
    <glyph glyph-name="uniFB51" unicode="&#x671;" horiz-adv-x="208" arabic-form="final" 
d="M47 612l118 12l1 -621l-112 -4zM254 839q22 -30 22 -77q0 -93 -79 -93q-18 0 -34 3t-47 12l-27 8q-19 6 -34 10t-25 4q-16 0 -23 -10t-13 -33l-55 9q4 60 25 89t68 29q15 1 37 -5q35 49 63 66.5t58 17.5q42 0 64 -30zM217 751q7 5 7 17q0 33 -31 33q-36 0 -71 -34
q51 -21 73 -21q15 0 22 5z" />
    <glyph glyph-name="uniFB56" unicode="&#x67e;" horiz-adv-x="852" arabic-form="isolated" 
d="M802.5 341q7.5 -55 7.5 -111q0 -123 -115.5 -189t-315.5 -66q-176 0 -256 56.5t-80 176.5q0 94 48 224l91 -27q-28 -99 -28 -152q0 -22 2 -32q4 -34 24.5 -55.5t65 -33t121.5 -13.5l40 -1q126 0 209.5 26.5t82.5 77.5q-1 37 -10.5 85t-33.5 148l118 42q22 -101 29.5 -156
zM453 -115h5l78 -71v-5l-71 -76h-4l-63 59l-70 -75h-4l-78 72v5l70 75h5l63 -58zM397 -270h4l75 -68v-5l-68 -72h-4l-74 69v4z" />
    <glyph glyph-name="uniFB57" unicode="&#x67e;" horiz-adv-x="956" arabic-form="final" 
d="M1004.5 121q20.5 -21 20.5 -50t-20.5 -50.5t-48.5 -21.5q-80 0 -133.5 17.5t-86.5 55.5q-67 -51 -156 -74t-214 -23q-169 0 -246 57.5t-77 175.5q0 94 48 224l91 -27q-29 -99 -29 -156q0 -56 26.5 -84t79.5 -37t149 -9q88 0 159.5 14.5t120.5 42.5q-7 39 -9 89l-2 130
l101 10l9 -124q5 -60 19 -88.5t47.5 -39.5t102.5 -11q28 0 48.5 -21zM453 -115h5l78 -71v-5l-71 -76h-4l-63 59l-70 -75h-4l-78 72v5l70 75h5l63 -58zM397 -270h4l75 -68v-5l-68 -72h-4l-74 69v4z" />
    <glyph glyph-name="uniFB58" unicode="&#x67e;" horiz-adv-x="365" arabic-form="initial" 
d="M-49 121q20 21 49 21h8q102 0 153.5 22.5t50.5 69.5q-1 37 -11 88.5t-34 143.5l118 42q23 -105 30.5 -158.5t7.5 -111.5q0 -117 -79.5 -178t-233.5 -61h-10q-28 0 -48.5 21.5t-20.5 50.5t20 50zM228 -94l79 -70v-4l-69 -78h-5l-64 58l-68 -76h-4l-80 70v5l70 77h4l64 -57
l68 75h5zM170 -250h4l76 -67v-4l-66 -74h-5l-75 68v4z" />
    <glyph glyph-name="uniFB59" unicode="&#x67e;" horiz-adv-x="443" arabic-form="medial" 
d="M491.5 121q20.5 -21 20.5 -50t-20.5 -50.5t-48.5 -21.5q-81 0 -135 18t-87 56q-43 -36 -101 -55t-120 -19q-28 0 -48.5 21.5t-20.5 50.5t20 50t49 21q116 0 174 40q-6 32 -8 83l-2 133l101 10l9 -127q4 -58 18 -86.5t48 -40.5t103 -12q28 0 48.5 -21zM217 -94h4l79 -70
v-4l-69 -77h-5l-64 57l-68 -76h-4l-79 71v5l69 76h5l64 -56zM163 -250h4l76 -66v-5l-67 -73h-4l-75 67v5z" />
    <glyph glyph-name="uniFB7A" unicode="&#x686;" horiz-adv-x="736" arabic-form="isolated" 
d="M659 -155l8 -122q-119 -35 -267 -35q-170 0 -259.5 66t-89.5 198q0 134 103 239t288 161q-40 20 -58 30q-50 24 -77.5 35t-51.5 11q-38 0 -64 -24t-59 -83l-79 50q40 98 90 145.5t107 47.5q39 0 84.5 -16t113.5 -49q62 -31 94 -46q53 -25 87 -37.5t65 -19.5l-30 -123
q-58 1 -81.5 -2t-76.5 -18q-153 -41 -242.5 -115t-89.5 -162q0 -77 70.5 -112.5t195.5 -35.5q98 0 219 17zM577 93v-4l-58 -65h-4l-54 49l-58 -65h-4l-67 60v4l59 65h4l54 -48l57 64h4zM461 20h4l64 -56v-4l-56 -62h-4l-64 57v4z" />
    <glyph glyph-name="uniFB7B" unicode="&#x686;" horiz-adv-x="736" arabic-form="final" 
d="M784.5 121q20.5 -21 20.5 -50t-20.5 -50.5t-48.5 -21.5q-128 0 -189 58t-68 186q-137 -41 -221 -110t-84 -157q0 -77 71 -112.5t195 -35.5q79 0 198 17l8 -122q-118 -35 -246 -35q-170 0 -259.5 66t-89.5 198q0 134 103 239.5t289 160.5l-54 28q-52 25 -81 36.5t-53 11.5
q-38 0 -64 -24t-59 -83l-79 50q40 98 90 145.5t107 47.5q38 0 82 -15.5t114 -48.5l31 -15q10 -5 66 -32q53 -25 86.5 -37.5t64.5 -19.5l-30 -123q-10 1 -30 1q-36 0 -60 -4q5 -47 20.5 -74.5t49 -40.5t92.5 -13q28 0 48.5 -21zM488 69v-3l-54 -60h-4l-49 44l-53 -59h-4
l-61 55v4l53 60h4l50 -45l52 59h4zM381 2h3l59 -51v-4l-51 -57h-4l-58 52v4z" />
    <glyph glyph-name="uniFB7C" unicode="&#x686;" horiz-adv-x="711" arabic-form="initial" 
d="M689 346l-23 -129l-57 1q-19 -1 -33.5 -5.5t-32.5 -15.5q-71 -42 -78 -46l-40 -24q-113 -65 -204 -96.5t-190 -31.5h-30q-28 0 -49 21.5t-21 50.5t20.5 50t48.5 21h35q99 0 172.5 20t149.5 60q82 45 121 63l-99 50q-50 26 -77.5 36.5t-51.5 10.5q-38 0 -64.5 -26.5
t-63.5 -87.5l-78 50q41 103 92.5 151.5t109.5 48.5q37 0 79 -15t106 -47l60 -30l51 -25q89 -41 147 -55zM432 -29h4l77 -68v-4l-67 -75h-5l-63 55l-65 -73h-4l-77 68v5l67 74h4l62 -55zM380 -181h4l73 -64v-4l-64 -72h-4l-73 65v5z" />
    <glyph glyph-name="uniFB7D" unicode="&#x686;" horiz-adv-x="723" arabic-form="medial" 
d="M772 121q20 -21 20 -50t-20.5 -50.5t-48.5 -21.5q-111 0 -175.5 36.5t-85.5 112.5q-15 -8 -37 -21q-114 -65 -205.5 -96.5t-196.5 -31.5h-22q-28 0 -49 21.5t-21 50.5t20.5 50t48.5 21h35q99 0 172.5 20t149.5 60q79 43 121 63l-99 50q-50 26 -77.5 36.5t-51.5 10.5
q-38 0 -65 -27t-63 -87l-78 50q41 103 92.5 151.5t109.5 48.5q37 0 79 -15t106 -47l60 -30l51 -25q92 -42 147 -55l-23 -130l-29 1q-11 0 -39 -2q-19 -2 -34 -9q13 -35 49.5 -49.5t109.5 -14.5q29 0 49 -21zM432 -29h4l77 -68v-4l-67 -75h-5l-63 55l-65 -73h-4l-77 68v5
l67 74h4l62 -55zM380 -181h4l73 -64v-4l-64 -72h-4l-73 65v5z" />
    <glyph glyph-name="uniFB8A" unicode="&#x698;" horiz-adv-x="473" arabic-form="isolated" 
d="M250 -86q66 52 66 154q0 46 -15 108t-45 149l116 53q29 -90 44 -161.5t15 -130.5q0 -169 -96.5 -261.5t-288.5 -84.5l-4 118q142 4 208 56zM287 598h-4l-75 67v4l65 72h4l76 -66v-4zM358 613l79 -70v-4l-69 -78h-5l-65 58l-67 -75h-4l-80 70v5l70 76h4l65 -57l67 75h5z
" />
    <glyph glyph-name="uniFB8B" unicode="&#x698;" horiz-adv-x="557" arabic-form="final" 
d="M64 -144q131 13 191.5 64t60.5 148q0 48 -14 110t-41 150l118 50l25 -98q14 -59 30 -87.5t43.5 -39.5t79.5 -11q28 0 48.5 -21t20.5 -50t-20.5 -50.5t-48.5 -21.5q-82 0 -130 36q-11 -115 -68 -185q-88 -110 -281 -110q-21 0 -32 1l-4 114q15 0 22 1zM303 598h-4l-75 67
v4l65 72h4l76 -66v-4zM374 613l79 -70v-4l-69 -78h-5l-65 58l-67 -75h-4l-80 70v5l70 76h4l65 -57l67 75h5z" />
    <glyph glyph-name="uniFB8E" unicode="&#x6a9;" horiz-adv-x="873" arabic-form="isolated" 
d="M91 446l91 -27q-28 -99 -28 -152q0 -22 2 -32q4 -34 24.5 -55.5t65 -33t121.5 -13.5l40 -1q82 0 144.5 10.5t97 28t37.5 37.5q1 3 1 11q0 48 -67 119t-222 153l12 140l412 136l9 -131l-272 -96q137 -91 193 -170.5t56 -155.5q0 -15 -1 -22q-6 -65 -63.5 -111t-157 -69.5
t-229.5 -22.5q-164 1 -239 59t-75 174q0 94 48 224z" />
    <glyph glyph-name="uniFB8F" unicode="&#x6a9;" horiz-adv-x="1018" arabic-form="final" 
d="M120 46.5q-77 57.5 -77 175.5q0 94 48 224l90 -27q-27 -100 -27 -152q0 -22 2 -32q4 -34 24.5 -55.5t65 -33t121.5 -13.5l40 -1q82 0 145 10t97.5 26.5t34.5 34.5q0 26 -33 68q-34 44 -103.5 105.5t-148.5 114.5l12 140l413 136l8 -131l-277 -97q125 -106 217 -217
q67 -80 101 -114t67 -50t78 -16q29 0 48.5 -21t19.5 -50t-20 -50.5t-48 -21.5q-68 0 -126 28.5t-114 92.5q-33 -66 -146.5 -98.5t-267.5 -32.5q-167 0 -244 57.5z" />
    <glyph glyph-name="uniFB90" unicode="&#x6a9;" horiz-adv-x="458" arabic-form="initial" 
d="M-49 121q20 21 49 21h58q94 0 153.5 17t62.5 47q1 3 1 11q0 49 -67 121t-222 153l12 140l413 136l8 -131l-272 -96q137 -92 193.5 -172t56.5 -156q0 -15 -1 -22q-6 -58 -52.5 -101.5t-124 -66.5t-173.5 -23h-46q-28 0 -48.5 21.5t-20.5 50.5t20 50z" />
    <glyph glyph-name="uniFB91" unicode="&#x6a9;" horiz-adv-x="605" arabic-form="medial" 
d="M-49 121q20 21 49 21h58q61 0 109.5 8.5t76 22.5t27.5 30q0 30 -40 76q-34 43 -102 102t-143 110l12 140l413 136l8 -131l-277 -97q125 -106 217 -217q67 -79 101 -113.5t67 -50.5t78 -16q29 0 49 -21t20 -50t-20.5 -50.5t-48.5 -21.5q-76 0 -130.5 27t-111.5 91
q-32 -56 -115 -87t-202 -31h-46q-28 0 -48.5 21.5t-20.5 50.5t20 50z" />
    <glyph glyph-name="uniFB92" unicode="&#x6af;" horiz-adv-x="873" arabic-form="isolated" 
d="M91 446l91 -27q-28 -99 -28 -152q0 -22 2 -32q4 -34 24.5 -55.5t65 -33t121.5 -13.5l40 -1q82 0 144.5 10.5t97 28t37.5 37.5q1 3 1 11q0 48 -67 119t-222 153l12 140l412 136l9 -131l-272 -96q137 -91 193 -170.5t56 -155.5q0 -15 -1 -22q-6 -65 -63.5 -111t-157 -69.5
t-229.5 -22.5q-164 1 -239 59t-75 174q0 94 48 224zM416 777l378 123l6 -77l-392 -128z" />
    <glyph glyph-name="uniFB93" unicode="&#x6af;" horiz-adv-x="1018" arabic-form="final" 
d="M120 46.5q-77 57.5 -77 175.5q0 94 48 224l90 -27q-27 -100 -27 -152q0 -22 2 -32q4 -34 24.5 -55.5t65 -33t121.5 -13.5l40 -1q82 0 145 10t97.5 26.5t34.5 34.5q0 26 -33 68q-34 44 -103.5 105.5t-148.5 114.5l12 140l413 136l8 -131l-277 -97q125 -106 217 -217
q67 -80 101 -114t67 -50t78 -16q29 0 48.5 -21t19.5 -50t-20 -50.5t-48 -21.5q-68 0 -126 28.5t-114 92.5q-33 -66 -146.5 -98.5t-267.5 -32.5q-167 0 -244 57.5zM417 780l378 123l6 -77l-392 -128z" />
    <glyph glyph-name="uniFB94" unicode="&#x6af;" horiz-adv-x="458" arabic-form="initial" 
d="M-49 121q20 21 49 21h58q94 0 153.5 17t62.5 47q1 3 1 11q0 49 -67 121t-222 153l12 140l413 136l8 -131l-272 -96q137 -92 193.5 -172t56.5 -156q0 -15 -1 -22q-6 -58 -52.5 -101.5t-124 -66.5t-173.5 -23h-46q-28 0 -48.5 21.5t-20.5 50.5t20 50zM10 780l378 123l6 -77
l-392 -128z" />
    <glyph glyph-name="uniFB95" unicode="&#x6af;" horiz-adv-x="605" arabic-form="medial" 
d="M-49 121q20 21 49 21h58q61 0 109.5 8.5t76 22.5t27.5 30q0 30 -40 76q-34 43 -102 102t-143 110l12 140l413 136l8 -131l-277 -97q125 -106 217 -217q67 -79 101 -113.5t67 -50.5t78 -16q29 0 49 -21t20 -50t-20.5 -50.5t-48.5 -21.5q-76 0 -130.5 27t-111.5 91
q-32 -56 -115 -87t-202 -31h-46q-28 0 -48.5 21.5t-20.5 50.5t20 50zM7 780l378 123l6 -77l-392 -128z" />
    <glyph glyph-name="uniFB9F" unicode="&#x6ba;" horiz-adv-x="839" arabic-form="final" 
d="M75 128.5q19 76.5 57 174.5l96 -36q-59 -178 -55 -268q2 -54 46.5 -88t130.5 -34q56 0 114 14t97.5 44.5t39.5 76.5q0 66 -18 214q-7 57 -12 114l105 21l9 -76q7 -59 22 -88.5t45 -42t87 -12.5q28 0 48.5 -21t20.5 -50t-20.5 -50.5t-48.5 -21.5q-74 0 -124 27v-26
q0 -81 -45.5 -141.5t-131 -92.5t-201.5 -32q-136 0 -208.5 68t-72.5 182q0 68 19 144.5z" />
    <glyph glyph-name="uniFBA4" unicode="&#x6c0;" horiz-adv-x="538" arabic-form="isolated" 
d="M495 176q0 -98 -72 -148t-181 -50q-98 0 -145.5 42.5t-47.5 115.5q1 60 26.5 125.5t72.5 128.5q-16 6 -45 13l26 118q367 -91 366 -345zM236 357q-36 -43 -57 -88.5t-21 -81.5q0 -37 22 -54t71 -17q56 0 95 15.5t39 42.5q2 114 -149 183zM378 653l-290 -66l-2 63l57 13
q-14 28 -14 63q0 56 29 93.5t75 37.5q54 0 101 -51l-32 -45q-20 13 -32.5 18.5t-27.5 5.5q-22 0 -35.5 -14.5t-15.5 -38.5q0 -28 18 -54l165 38z" />
    <glyph glyph-name="uniFBA5" unicode="&#x6c0;" horiz-adv-x="596" arabic-form="final" 
d="M154 683l57 12q-13 29 -13 62q0 56 29.5 93.5t76.5 37.5q54 0 100 -52l-32 -45q-17 13 -30.5 19t-28.5 6q-24 0 -38 -15.5t-14 -41.5q0 -25 17 -49l166 35l3 -63l-291 -63zM645 121q20 -21 20 -50t-20 -50.5t-48 -21.5q-157 0 -219 86q-76 -33 -146 -33q-86 0 -138 45
t-52 125q0 192 289 270v80l119 23l-1 -323q-1 -55 10.5 -82t42.5 -37.5t95 -10.5q28 0 48 -21zM336 202q-5 33 -5 66v100q-90 -24 -134.5 -54t-44.5 -72q0 -26 23.5 -38.5t61.5 -12.5q50 0 99 11z" />
    <glyph glyph-name="uniFBA6" unicode="&#x6c1;" horiz-adv-x="538" arabic-form="isolated" 
d="M495 176q0 -98 -72 -148t-181 -50q-98 0 -145.5 42.5t-47.5 115.5q1 60 26.5 125.5t72.5 128.5q-16 6 -45 13l26 118q367 -91 366 -345zM236 357q-36 -43 -57 -88.5t-21 -81.5q0 -37 22 -54t71 -17q56 0 95 15.5t39 42.5q2 114 -149 183z" />
    <glyph glyph-name="uniFBAC" unicode="&#x6be;" horiz-adv-x="730" arabic-form="initial" 
d="M676 59q-12 -46 -39 -64.5t-81 -18.5q-22 0 -34 1q-78 3 -157.5 20t-143.5 44q-101 -42 -221 -42q-28 0 -48.5 21.5t-20.5 50.5t20 50t49 21q48 0 84 4q-23 38 -23 83q0 65 33.5 139t82.5 117l20 74q244 -64 366.5 -158.5t123.5 -240.5q1 -50 -11 -101zM231 178
q104 38 121 105q2 10 2 17q0 24 -13.5 48.5t-35 40.5t-43.5 16q-24 0 -48 -21t-39.5 -53.5t-15.5 -63.5q0 -50 72 -89zM577 159q0 57 -32.5 101t-93.5 79q0 -29 -8 -58q-23 -88 -88 -152q80 -22 158 -28h28q15 1 21.5 6t10.5 20q4 11 4 32z" />
    <glyph glyph-name="uniFBAE" unicode="&#x6d2;" horiz-adv-x="938" arabic-form="isolated" 
d="M788.5 -174q-23.5 3 -99.5 3h-436q-100 0 -155.5 48t-55.5 137q0 50 21.5 89t57.5 70t94 67q75 41 132 95q31 26 62 41t55 15q39 0 71 -24t83 -95l-72 -67q-28 29 -45.5 40.5t-33.5 11.5q-14 0 -30.5 -10.5t-34.5 -24.5t-24 -19q-22 -22 -58.5 -47.5t-66.5 -42.5
q-42 -26 -62 -46t-20 -45q0 -24 19 -37t52 -13h457q64 0 90 -3t46.5 -15t59.5 -45l-34 -102q-49 16 -72.5 19z" />
    <glyph glyph-name="uniFBAF" unicode="&#x6d2;" horiz-adv-x="587" arabic-form="final" 
d="M618 -248q-24 3 -100 3l-280 1q-92 0 -144 43.5t-52 120.5q0 62 30.5 112.5t87.5 80t134 29.5h293q28 0 48.5 -21t20.5 -50t-20.5 -50.5t-48.5 -21.5h-351q-35 0 -56 -14.5t-21 -39.5q0 -22 16.5 -34.5t43.5 -12.5h315q64 0 90.5 -3t47.5 -15t59 -45l-34 -102
q-55 16 -79 19z" />
    <glyph glyph-name="uniFBB0" unicode="&#x6d3;" horiz-adv-x="938" arabic-form="isolated" 
d="M546 500l-293 -51l1 63l57 10q-12 29 -12 57q0 56 30.5 94t77.5 38q56 0 102 -56l-35 -43q-17 14 -30.5 20.5t-29.5 6.5q-23 0 -37 -15t-14 -41t15 -49l166 29zM789 -31q26 -3 46.5 -15t59.5 -45l-34 -102q-49 16 -72.5 19t-99.5 3h-436q-100 0 -155.5 48t-55.5 137
q0 50 21.5 89t57.5 70t94 67q75 41 132 95q31 26 62 41t55 15q39 0 71 -24t83 -95l-72 -67q-28 29 -45.5 40.5t-33.5 11.5q-14 0 -30.5 -10.5t-34.5 -24.5t-24 -19q-22 -22 -58.5 -47.5t-66.5 -42.5q-42 -26 -62 -46t-20 -45q0 -24 19 -37t52 -13h457q64 0 90 -3z" />
    <glyph glyph-name="uniFBB1" unicode="&#x6d3;" horiz-adv-x="587" arabic-form="final" 
d="M86 226l57 12q-12 26 -12 58q0 57 29 95.5t76 38.5q54 0 101 -53l-33 -45q-19 14 -31.5 20t-27.5 6q-23 0 -37.5 -15.5t-14.5 -41.5q0 -27 17 -50l166 34l3 -63l-292 -59zM624.5 -105q26.5 -3 47.5 -15t59 -45l-34 -102q-55 16 -79 19t-100 3l-280 1q-92 0 -144 43.5
t-52 120.5q0 62 30.5 112.5t87.5 80t134 29.5h293q28 0 48.5 -21t20.5 -50t-20.5 -50.5t-48.5 -21.5h-351q-35 0 -56 -14.5t-21 -39.5q0 -22 16.5 -34.5t43.5 -12.5h315q64 0 90.5 -3z" />
    <glyph glyph-name="uniFBD7" unicode="&#x6c7;" horiz-adv-x="539" arabic-form="isolated" 
d="M78 -141q134 8 208.5 50t89.5 121q-62 -31 -143 -31q-93 0 -138 44t-45 132q0 124 52 206t155 82q115 0 176.5 -98t61.5 -274q0 -179 -98.5 -262t-297.5 -92q-10 -1 -18 -0.5t-13 0.5q-7 1 -22 1l-3 120q23 0 35 1zM181 154q20 -12 64 -12q75 0 132 19q-8 76 -37.5 123.5
t-84.5 47.5q-52 0 -73 -39.5t-21 -91.5q0 -35 20 -47zM143 565q54 16 66 21q-42 38 -42 90q0 47 31 76.5t76 29.5t74.5 -28t29.5 -76q0 -28 -13.5 -55.5t-37.5 -46.5q-29 -23 -70 -39t-131 -44l-4 66zM263 606l10 4q23 12 35.5 30.5t12.5 36.5t-13 29.5t-34 11.5t-34.5 -12
t-13.5 -32q0 -35 37 -68z" />
    <glyph glyph-name="uniFBD8" unicode="&#x6c7;" horiz-adv-x="534" arabic-form="final" 
d="M582.5 121q20.5 -21 20.5 -50t-20.5 -50.5t-49.5 -21.5h-46q-23 -130 -119 -191.5t-265 -69.5q-17 0 -57 2l-3 118q27 0 40 1q119 6 189.5 40t94.5 100h-133q-94 0 -139 44t-45 132q0 124 52 206t155 82q106 0 167 -84t70 -237h39q29 0 49.5 -21zM181 154q20 -12 64 -12
h133q-16 190 -123 190q-52 0 -73 -39.5t-21 -91.5q0 -35 20 -47zM143 565q54 16 66 21q-42 38 -42 90q0 47 31 76.5t76 29.5t74.5 -28t29.5 -76q0 -28 -13.5 -55.5t-37.5 -46.5q-29 -23 -70 -39t-131 -44l-4 66zM263 606l10 4q23 12 35.5 30.5t12.5 36.5t-13 29.5t-34 11.5
t-34.5 -12t-13.5 -32q0 -35 37 -68z" />
    <glyph glyph-name="uniFBDB" unicode="&#x6c8;" horiz-adv-x="539" arabic-form="isolated" 
d="M200 713l68 20l1 -195l-56 -14zM78 -141q134 8 208.5 50t89.5 121q-62 -31 -143 -31q-93 0 -138 44t-45 132q0 124 52 206t155 82q115 0 176.5 -98t61.5 -274q0 -179 -98.5 -262t-297.5 -92q-10 -1 -18 -0.5t-13 0.5q-7 1 -22 1l-3 120q23 0 35 1zM181 154q20 -12 64 -12
q75 0 132 19q-8 76 -37.5 123.5t-84.5 47.5q-52 0 -73 -39.5t-21 -91.5q0 -35 20 -47z" />
    <glyph glyph-name="uniFBDC" unicode="&#x6c8;" horiz-adv-x="534" arabic-form="final" 
d="M269 538l-56 -14l-13 189l68 20zM582.5 121q20.5 -21 20.5 -50t-20.5 -50.5t-49.5 -21.5h-46q-23 -130 -119 -191.5t-265 -69.5q-17 0 -57 2l-3 118q27 0 40 1q119 6 189.5 40t94.5 100h-133q-94 0 -139 44t-45 132q0 124 52 206t155 82q106 0 167 -84t70 -237h39
q29 0 49.5 -21zM181 154q20 -12 64 -12h133q-16 190 -123 190q-52 0 -73 -39.5t-21 -91.5q0 -35 20 -47z" />
    <glyph glyph-name="uniFBE8" unicode="&#x649;" horiz-adv-x="365" arabic-form="initial" 
d="M-49 121q20 21 49 21h8q102 0 153.5 22.5t50.5 69.5q-1 37 -11 88.5t-34 143.5l118 42q23 -105 30.5 -158.5t7.5 -111.5q0 -117 -79.5 -178t-233.5 -61h-10q-28 0 -48.5 21.5t-20.5 50.5t20 50z" />
    <glyph glyph-name="uniFBE9" unicode="&#x649;" horiz-adv-x="443" arabic-form="medial" 
d="M491.5 121q20.5 -21 20.5 -50t-20.5 -50.5t-48.5 -21.5q-81 0 -135 18t-87 56q-43 -36 -101 -55t-120 -19q-28 0 -48.5 21.5t-20.5 50.5t20 50t49 21q116 0 174 40q-6 32 -8 83l-2 133l101 10l9 -127q4 -58 18 -86.5t48 -40.5t103 -12q28 0 48.5 -21z" />
    <glyph glyph-name="uniFBFC" unicode="&#x6cc;" horiz-adv-x="786" arabic-form="isolated" 
d="M581 373q-42 0 -75 -29.5t-50.5 -73t-13.5 -82.5q1 -18 13.5 -26.5t36 -13t85.5 -13.5q83 -12 121.5 -44t38.5 -100q0 -69 -43.5 -131t-130 -100.5t-209.5 -38.5q-159 0 -235.5 69.5t-76.5 192.5q0 62 19 136.5t57 171.5l96 -36q-27 -79 -41 -145t-14 -108
q0 -68 44.5 -103t154.5 -35q75 0 135.5 17t94.5 41t33 43q-1 16 -19.5 21.5t-72.5 12.5l-30 4q-59 9 -94 23.5t-54.5 49t-19.5 98.5q0 77 32.5 156t87 130.5t118.5 51.5q59 0 100.5 -26t78.5 -66l-58 -81q-58 34 -109 34z" />
    <glyph glyph-name="uniFBFD" unicode="&#x6cc;" horiz-adv-x="786" arabic-form="final" 
d="M118 -210q-76 69 -76 193q0 62 19 136.5t57 171.5l96 -36q-27 -79 -41 -145t-14 -108q0 -67 44 -102.5t151 -35.5q65 0 121.5 13.5t90 35.5t33.5 47q0 20 -26 29q-25 9 -161 30l24 133q113 -7 172 -8.5t178 -1.5q29 0 49 -21t20 -50q0 -28 -18.5 -49t-45.5 -23
q-14 0 -34 1t-34 3q5 -18 3 -36q-7 -70 -55.5 -126t-131 -88t-187.5 -32q-158 0 -234 69z" />
    <glyph glyph-name="uniFBFE" unicode="&#x6cc;" horiz-adv-x="365" arabic-form="initial" 
d="M-49 121q20 21 49 21h8q102 0 153.5 22.5t50.5 69.5q-1 37 -11 88.5t-34 143.5l118 42q23 -105 30.5 -158.5t7.5 -111.5q0 -117 -79.5 -178t-233.5 -61h-10q-28 0 -48.5 21.5t-20.5 50.5t20 50zM237 -91l79 -70v-4l-69 -78h-5l-64 57l-68 -75h-4l-80 71v4l70 77h4l64 -56
l68 74h5z" />
    <glyph glyph-name="uniFBFF" unicode="&#x6cc;" horiz-adv-x="443" arabic-form="medial" 
d="M491.5 121q20.5 -21 20.5 -50t-20.5 -50.5t-48.5 -21.5q-81 0 -135 18t-87 56q-43 -36 -101 -55t-120 -19q-28 0 -48.5 21.5t-20.5 50.5t20 50t49 21q116 0 174 40q-6 32 -8 83l-2 133l101 10l9 -127q4 -58 18 -86.5t48 -40.5t103 -12q28 0 48.5 -21zM229 -88l79 -70v-4
l-69 -78h-5l-64 57l-68 -75h-4l-80 71v4l70 77h4l64 -56l68 74h5z" />
    <glyph glyph-name="uniFC02" unicode="&#xfc02;" horiz-adv-x="782" arabic-form="isolated" 
d="M473.5 489.5q114.5 50.5 266.5 48.5v-135q-85 2 -155 -14t-119 -48q84 -22 135 -88t51 -161q0 -71 -25 -125t-69.5 -83.5t-101.5 -29.5q-64 0 -111.5 36.5t-72 98.5t-24.5 137q0 34 4 62q-92 -49 -92 -165v-306l-118 -17v318q0 86 35 153.5t94.5 111t131.5 59.5
q56 97 170.5 147.5zM497.5 182.5q-45.5 33.5 -114.5 33.5h-6q-14 -47 -14 -89q0 -60 24.5 -98t70.5 -38q37 0 61 26.5t24 74.5q0 57 -45.5 90.5zM690 647l-290 -66l-2 63l57 13q-14 28 -14 63q0 56 29 93.5t75 37.5q54 0 101 -51l-32 -45q-20 13 -32.5 18.5t-27.5 5.5
q-22 0 -35.5 -14.5t-15.5 -38.5q0 -28 18 -54l165 38z" />
    <glyph glyph-name="uniFC03" unicode="&#xfc03;" horiz-adv-x="799" arabic-form="isolated" 
d="M61 77.5q19 73.5 57 170.5l94 -35q-54 -167 -54 -252q0 -68 44.5 -103.5t151.5 -35.5q74 0 131 15t87.5 38.5t30.5 49.5q0 10 -9.5 18.5t-23.5 12.5q-43 11 -176 30l26 125q44 0 70 1q83 3 121.5 24.5t37.5 67.5q-1 38 -11 89.5t-35 152.5l116 41q24 -114 32 -168t8 -115
q0 -119 -81 -174q22 -14 36.5 -39.5t14.5 -55.5q0 -74 -49.5 -132t-137 -90.5t-198.5 -32.5q-148 1 -225 69.5t-77 192.5q0 62 19 135.5zM774 586l-290 -66l-2 63l57 13q-14 28 -14 63q0 56 29 93.5t75 37.5q54 0 101 -51l-32 -45q-20 13 -32.5 18.5t-27.5 5.5
q-22 0 -35.5 -14.5t-15.5 -38.5q0 -28 18 -54l165 38z" />
    <glyph glyph-name="uniFC04" unicode="&#xfc04;" horiz-adv-x="799" arabic-form="isolated" 
d="M475 544l54 19q-21 36 -21 80q0 52 28.5 87t75.5 35q44 0 92 -40l-27 -48q-18 9 -30.5 13.5t-25.5 4.5q-23 0 -36.5 -14.5t-13.5 -37.5q0 -33 23 -58l160 55l11 -62l-281 -97zM678 30q22 -14 36.5 -39.5t14.5 -55.5q0 -74 -49.5 -132t-137 -90.5t-198.5 -32.5
q-148 1 -225 69.5t-77 192.5q0 62 19 135.5t57 170.5l94 -35q-54 -167 -54 -252q0 -68 44.5 -103.5t151.5 -35.5q74 0 131 15t87.5 38.5t30.5 49.5q0 10 -9.5 18.5t-23.5 12.5q-43 11 -176 30l26 125q44 0 70 1q83 3 121.5 24.5t37.5 67.5q-1 38 -11 89.5t-35 152.5l116 41
q24 -114 32 -168t8 -115q0 -119 -81 -174zM426 -368h5l79 -70v-4l-70 -78h-4l-65 57l-67 -75h-5l-79 70v5l69 77h5l64 -57z" />
    <glyph glyph-name="uniFC08" unicode="&#xfc08;" horiz-adv-x="782" arabic-form="isolated" 
d="M473.5 489.5q114.5 50.5 266.5 48.5v-135q-85 2 -155 -14t-119 -48q84 -22 135 -88t51 -161q0 -71 -25 -125t-69.5 -83.5t-101.5 -29.5q-64 0 -111.5 36.5t-72 98.5t-24.5 137q0 34 4 62q-92 -49 -92 -165v-306l-118 -17v318q0 86 35 153.5t94.5 111t131.5 59.5
q56 97 170.5 147.5zM497.5 182.5q-45.5 33.5 -114.5 33.5h-6q-14 -47 -14 -89q0 -60 24.5 -98t70.5 -38q37 0 61 26.5t24 74.5q0 57 -45.5 90.5zM673 -111v5l72 80h5l82 -73v-5l-72 -80h-5z" />
    <glyph glyph-name="uniFC09" unicode="&#xfc09;" horiz-adv-x="799" arabic-form="isolated" 
d="M61 77.5q19 73.5 57 170.5l94 -35q-54 -167 -54 -252q0 -68 44.5 -103.5t151.5 -35.5q74 0 131 15t87.5 38.5t30.5 49.5q0 10 -9.5 18.5t-23.5 12.5q-43 11 -176 30l26 125q44 0 70 1q83 3 121.5 24.5t37.5 67.5q-1 38 -11 89.5t-35 152.5l116 41q24 -114 32 -168t8 -115
q0 -119 -81 -174q22 -14 36.5 -39.5t14.5 -55.5q0 -74 -49.5 -132t-137 -90.5t-198.5 -32.5q-148 1 -225 69.5t-77 192.5q0 62 19 135.5zM694 -298v5l72 80h5l82 -73v-5l-72 -80h-5z" />
    <glyph glyph-name="uniFC0A" unicode="&#xfc0a;" horiz-adv-x="799" arabic-form="isolated" 
d="M61 77.5q19 73.5 57 170.5l94 -35q-54 -167 -54 -252q0 -68 44.5 -103.5t151.5 -35.5q74 0 131 15t87.5 38.5t30.5 49.5q0 10 -9.5 18.5t-23.5 12.5q-43 11 -176 30l26 125q44 0 70 1q83 3 121.5 24.5t37.5 67.5q-1 38 -11 89.5t-35 152.5l116 41q24 -114 32 -168t8 -115
q0 -119 -81 -174q22 -14 36.5 -39.5t14.5 -55.5q0 -74 -49.5 -132t-137 -90.5t-198.5 -32.5q-148 1 -225 69.5t-77 192.5q0 62 19 135.5zM431 -388l79 -70v-4l-69 -78h-5l-64 57l-68 -75h-4l-80 71v4l70 77h4l64 -56l68 74h5zM681 -300v5l72 80h5l82 -73v-5l-72 -80h-5z" />
    <glyph glyph-name="uniFC0E" unicode="&#xfc0e;" horiz-adv-x="782" arabic-form="isolated" 
d="M473.5 489.5q114.5 50.5 266.5 48.5v-135q-85 2 -155 -14t-119 -48q84 -22 135 -88t51 -161q0 -71 -25 -125t-69.5 -83.5t-101.5 -29.5q-64 0 -111.5 36.5t-72 98.5t-24.5 137q0 34 4 62q-92 -49 -92 -165v-306l-118 -17v318q0 86 35 153.5t94.5 111t131.5 59.5
q56 97 170.5 147.5zM497.5 182.5q-45.5 33.5 -114.5 33.5h-6q-14 -47 -14 -89q0 -60 24.5 -98t70.5 -38q37 0 61 26.5t24 74.5q0 57 -45.5 90.5zM641 772l81 -71v-5l-71 -79h-5l-65 58l-69 -76h-5l-81 72v5l71 78h5l65 -58l69 76h5z" />
    <glyph glyph-name="uniFC0F" unicode="&#xfc0f;" horiz-adv-x="799" arabic-form="isolated" 
d="M61 77.5q19 73.5 57 170.5l94 -35q-54 -167 -54 -252q0 -68 44.5 -103.5t151.5 -35.5q74 0 131 15t87.5 38.5t30.5 49.5q0 10 -9.5 18.5t-23.5 12.5q-43 11 -176 30l26 125q44 0 70 1q83 3 121.5 24.5t37.5 67.5q-1 38 -11 89.5t-35 152.5l116 41q24 -114 32 -168t8 -115
q0 -119 -81 -174q22 -14 36.5 -39.5t14.5 -55.5q0 -74 -49.5 -132t-137 -90.5t-198.5 -32.5q-148 1 -225 69.5t-77 192.5q0 62 19 135.5zM625 713l81 -71v-5l-71 -79h-5l-65 58l-69 -76h-5l-81 72v5l71 78h5l65 -58l69 76h5z" />
    <glyph glyph-name="uniFC10" unicode="&#xfc10;" horiz-adv-x="799" arabic-form="isolated" 
d="M61 77.5q19 73.5 57 170.5l94 -35q-54 -167 -54 -252q0 -68 44.5 -103.5t151.5 -35.5q74 0 131 15t87.5 38.5t30.5 49.5q0 10 -9.5 18.5t-23.5 12.5q-43 11 -176 30l26 125q44 0 70 1q83 3 121.5 24.5t37.5 67.5q-1 38 -11 89.5t-35 152.5l116 41q24 -114 32 -168t8 -115
q0 -119 -81 -174q22 -14 36.5 -39.5t14.5 -55.5q0 -74 -49.5 -132t-137 -90.5t-198.5 -32.5q-148 1 -225 69.5t-77 192.5q0 62 19 135.5zM632 716l81 -71v-5l-71 -79h-5l-65 58l-69 -76h-5l-81 72v5l71 78h5l65 -58l69 76h5zM433 -386l81 -71v-5l-71 -79h-5l-65 58l-69 -76
h-5l-81 72v5l71 78h5l65 -58l69 76h5z" />
    <glyph glyph-name="uniFC12" unicode="&#xfc12;" horiz-adv-x="782" arabic-form="isolated" 
d="M473.5 489.5q114.5 50.5 266.5 48.5v-135q-85 2 -155 -14t-119 -48q84 -22 135 -88t51 -161q0 -71 -25 -125t-69.5 -83.5t-101.5 -29.5q-64 0 -111.5 36.5t-72 98.5t-24.5 137q0 34 4 62q-92 -49 -92 -165v-306l-118 -17v318q0 86 35 153.5t94.5 111t131.5 59.5
q56 97 170.5 147.5zM497.5 182.5q-45.5 33.5 -114.5 33.5h-6q-14 -47 -14 -89q0 -60 24.5 -98t70.5 -38q37 0 61 26.5t24 74.5q0 57 -45.5 90.5zM558 773h-4l-75 67v4l65 72h4l76 -66v-4zM629 788l79 -70v-4l-69 -78h-5l-65 58l-67 -75h-4l-80 70v5l70 76h4l65 -57l67 75h5z
" />
    <glyph glyph-name="uniFC13" unicode="&#xfc13;" horiz-adv-x="799" arabic-form="isolated" 
d="M61 77.5q19 73.5 57 170.5l94 -35q-54 -167 -54 -252q0 -68 44.5 -103.5t151.5 -35.5q74 0 131 15t87.5 38.5t30.5 49.5q0 10 -9.5 18.5t-23.5 12.5q-43 11 -176 30l26 125q44 0 70 1q83 3 121.5 24.5t37.5 67.5q-1 38 -11 89.5t-35 152.5l116 41q24 -114 32 -168t8 -115
q0 -119 -81 -174q22 -14 36.5 -39.5t14.5 -55.5q0 -74 -49.5 -132t-137 -90.5t-198.5 -32.5q-148 1 -225 69.5t-77 192.5q0 62 19 135.5zM567 721h-4l-75 67v4l65 72h4l76 -66v-4zM638 736l79 -70v-4l-69 -78h-5l-65 58l-67 -75h-4l-80 70v5l70 76h4l65 -57l67 75h5z" />
    <glyph glyph-name="uniFC14" unicode="&#xfc14;" horiz-adv-x="799" arabic-form="isolated" 
d="M61 77.5q19 73.5 57 170.5l94 -35q-54 -167 -54 -252q0 -68 44.5 -103.5t151.5 -35.5q74 0 131 15t87.5 38.5t30.5 49.5q0 10 -9.5 18.5t-23.5 12.5q-43 11 -176 30l26 125q44 0 70 1q83 3 121.5 24.5t37.5 67.5q-1 38 -11 89.5t-35 152.5l116 41q24 -114 32 -168t8 -115
q0 -119 -81 -174q22 -14 36.5 -39.5t14.5 -55.5q0 -74 -49.5 -132t-137 -90.5t-198.5 -32.5q-148 1 -225 69.5t-77 192.5q0 62 19 135.5zM428 -385l79 -70v-4l-69 -78h-5l-64 57l-68 -75h-4l-80 71v4l70 77h4l64 -56l68 74h5zM563 727h-4l-75 67v4l65 72h4l76 -66v-4z
M634 742l79 -70v-4l-69 -78h-5l-65 58l-67 -75h-4l-80 70v5l70 76h4l65 -57l67 75h5z" />
    <glyph glyph-name="uniFC1F" unicode="&#xfc1f;" horiz-adv-x="1500" arabic-form="isolated" 
d="M1286 -1q-42 0 -82 17t-73 48q-31 -31 -77.5 -48t-103.5 -17q-105 0 -174.5 62.5t-78.5 191.5q-1 11 -1 32q0 26 -5 33.5t-24 7.5q-60 0 -126 -18q52 -34 81.5 -89.5t29.5 -126.5t-25 -125t-69.5 -83.5t-101.5 -29.5q-61 0 -108.5 33t-74 89.5t-26.5 123.5q0 45 10 90
q-45 -22 -71 -63t-26 -104v-306l-118 -17v318q0 95 43 167.5t113.5 114.5t153.5 49q66 59 157 85.5t180 26.5q57 0 86.5 -24.5t32.5 -66.5q0 -16 2 -48q4 -92 38.5 -136t101.5 -44q41 0 71.5 11.5t43.5 31.5q10 14 15.5 29t9 45.5t8.5 93.5l94 -4q0 -57 -2 -103.5t-6 -75.5
q24 -14 51.5 -21t50.5 -7q31 0 46 13.5t15 44.5q0 48 -33 206l116 39q26 -149 28 -229q1 -217 -172 -217zM519 17.5q24 26.5 24 74.5q0 54 -41 87t-105 37q-33 -48 -33 -111q0 -49 26.5 -81.5t67.5 -32.5q37 0 61 26.5z" />
    <glyph glyph-name="uniFC21" unicode="&#xfc21;" horiz-adv-x="1457" arabic-form="isolated" 
d="M83.5 183.5q41.5 71.5 110.5 113.5t150 50q67 67 163.5 98t193.5 31q40 0 61.5 -22.5t23.5 -63.5l3 -64q2 -105 64 -148q34 117 77 186t98 99t128 30q81 0 140.5 -41.5t90 -115t27.5 -165.5q-2 -57 -55 -96.5t-136 -59t-175 -19.5q-182 0 -277.5 69.5t-95.5 227.5l-1 33
q0 9 -4 12.5t-15 3.5q-26 0 -60 -8t-68 -23q57 -31 91 -87.5t34 -131.5q0 -71 -25 -125t-69.5 -83.5t-101.5 -29.5q-61 0 -108.5 33t-74 89.5t-26.5 123.5q0 46 20 89q-48 -17 -77.5 -59t-29.5 -107v-306l-118 -17v319q0 93 41.5 164.5zM1223.5 155.5q74.5 16.5 78.5 43.5
q1 3 1 10q0 26 -7 51t-19 42q-35 53 -121 53q-72 0 -122.5 -45.5t-83.5 -161.5q19 -6 43 -7.5t61 -1.5q95 0 169.5 16.5zM519 17.5q24 26.5 24 74.5q0 54 -41.5 87.5t-106.5 36.5q-31 -48 -31 -111q0 -49 26.5 -81.5t67.5 -32.5q37 0 61 26.5z" />
    <glyph glyph-name="uniFC25" unicode="&#xfc25;" horiz-adv-x="1457" arabic-form="isolated" 
d="M83.5 183.5q41.5 71.5 110.5 113.5t150 50q67 67 163.5 98t193.5 31q40 0 61.5 -22.5t23.5 -63.5l3 -64q2 -105 64 -148q34 117 77 186t98 99t128 30q81 0 140.5 -41.5t90 -115t27.5 -165.5q-2 -57 -55 -96.5t-136 -59t-175 -19.5q-182 0 -277.5 69.5t-95.5 227.5l-1 33
q0 9 -4 12.5t-15 3.5q-26 0 -60 -8t-68 -23q57 -31 91 -87.5t34 -131.5q0 -71 -25 -125t-69.5 -83.5t-101.5 -29.5q-61 0 -108.5 33t-74 89.5t-26.5 123.5q0 46 20 89q-48 -17 -77.5 -59t-29.5 -107v-306l-118 -17v319q0 93 41.5 164.5zM1223.5 155.5q74.5 16.5 78.5 43.5
q1 3 1 10q0 26 -7 51t-19 42q-35 53 -121 53q-72 0 -122.5 -45.5t-83.5 -161.5q19 -6 43 -7.5t61 -1.5q95 0 169.5 16.5zM519 17.5q24 26.5 24 74.5q0 54 -41.5 87.5t-106.5 36.5q-31 -48 -31 -111q0 -49 26.5 -81.5t67.5 -32.5q37 0 61 26.5zM1046 644v5l72 80h5l82 -73v-5
l-72 -80h-5z" />
    <glyph glyph-name="uniFC31" unicode="&#xfc31;" horiz-adv-x="893" arabic-form="isolated" 
d="M61 122.5q19 74.5 57 170.5l96 -36q-27 -79 -41 -145t-14 -108q0 -67 44 -102.5t151 -35.5q74 0 130.5 15t86.5 38.5t30 48.5q0 11 -8.5 19t-22.5 12q-51 13 -139 24q-7 1 -19 2.5t-18 3.5l26 126h29q76 0 130 4.5t78 10.5q39 8 56 24.5t20 48.5q2 14 2 22
q-69 -32 -163 -32q-85 0 -122.5 37.5t-37.5 119.5q0 127 50.5 206t153.5 79q68 0 121.5 -42.5t83.5 -123.5t30 -193q0 -116 -34 -180q-33 -60 -113 -88q24 -30 24 -68q0 -74 -48 -132.5t-133 -91.5t-193 -33q-159 0 -235.5 69.5t-76.5 192.5q0 63 19 137.5zM541 371.5
q18 -12.5 63 -12.5q69 0 124 18q-21 166 -115 166q-48 0 -69 -37.5t-21 -89.5q0 -32 18 -44.5zM513 818v5l72 80h5l82 -73v-5l-72 -80h-5z" />
    <glyph glyph-name="uniFC32" unicode="&#xfc32;" horiz-adv-x="893" arabic-form="isolated" 
d="M61 122.5q19 74.5 57 170.5l96 -36q-27 -79 -41 -145t-14 -108q0 -67 44 -102.5t151 -35.5q74 0 130.5 15t86.5 38.5t30 48.5q0 11 -8.5 19t-22.5 12q-51 13 -139 24q-7 1 -19 2.5t-18 3.5l26 126h29q76 0 130 4.5t78 10.5q39 8 56 24.5t20 48.5q2 14 2 22
q-69 -32 -163 -32q-85 0 -122.5 37.5t-37.5 119.5q0 127 50.5 206t153.5 79q68 0 121.5 -42.5t83.5 -123.5t30 -193q0 -116 -34 -180q-33 -60 -113 -88q24 -30 24 -68q0 -74 -48 -132.5t-133 -91.5t-193 -33q-159 0 -235.5 69.5t-76.5 192.5q0 63 19 137.5zM541 371.5
q18 -12.5 63 -12.5q69 0 124 18q-21 166 -115 166q-48 0 -69 -37.5t-21 -89.5q0 -32 18 -44.5zM427 -340l79 -70v-4l-69 -78h-5l-64 57l-68 -75h-4l-80 71v4l70 77h4l64 -56l68 74h5zM513 818v5l72 80h5l82 -73v-5l-72 -80h-5z" />
    <glyph glyph-name="uniFC35" unicode="&#xfc35;" horiz-adv-x="893" arabic-form="isolated" 
d="M61 122.5q19 74.5 57 170.5l96 -36q-27 -79 -41 -145t-14 -108q0 -67 44 -102.5t151 -35.5q74 0 130.5 15t86.5 38.5t30 48.5q0 11 -8.5 19t-22.5 12q-51 13 -139 24q-7 1 -19 2.5t-18 3.5l26 126h29q76 0 130 4.5t78 10.5q39 8 56 24.5t20 48.5q2 14 2 22
q-69 -32 -163 -32q-85 0 -122.5 37.5t-37.5 119.5q0 127 50.5 206t153.5 79q68 0 121.5 -42.5t83.5 -123.5t30 -193q0 -116 -34 -180q-33 -60 -113 -88q24 -30 24 -68q0 -74 -48 -132.5t-133 -91.5t-193 -33q-159 0 -235.5 69.5t-76.5 192.5q0 63 19 137.5zM541 371.5
q18 -12.5 63 -12.5q69 0 124 18q-21 166 -115 166q-48 0 -69 -37.5t-21 -89.5q0 -32 18 -44.5zM647 913l81 -71v-5l-71 -79h-5l-65 58l-69 -76h-5l-81 72v5l71 78h5l65 -58l69 76h5z" />
    <glyph glyph-name="uniFC36" unicode="&#xfc36;" horiz-adv-x="893" arabic-form="isolated" 
d="M61 122.5q19 74.5 57 170.5l96 -36q-27 -79 -41 -145t-14 -108q0 -67 44 -102.5t151 -35.5q74 0 130.5 15t86.5 38.5t30 48.5q0 11 -8.5 19t-22.5 12q-51 13 -139 24q-7 1 -19 2.5t-18 3.5l26 126h29q76 0 130 4.5t78 10.5q39 8 56 24.5t20 48.5q2 14 2 22
q-69 -32 -163 -32q-85 0 -122.5 37.5t-37.5 119.5q0 127 50.5 206t153.5 79q68 0 121.5 -42.5t83.5 -123.5t30 -193q0 -116 -34 -180q-33 -60 -113 -88q24 -30 24 -68q0 -74 -48 -132.5t-133 -91.5t-193 -33q-159 0 -235.5 69.5t-76.5 192.5q0 63 19 137.5zM541 371.5
q18 -12.5 63 -12.5q69 0 124 18q-21 166 -115 166q-48 0 -69 -37.5t-21 -89.5q0 -32 18 -44.5zM421 -340l79 -70v-4l-69 -78h-5l-64 57l-68 -75h-4l-80 71v4l70 77h4l64 -56l68 74h5zM647 913l81 -71v-5l-71 -79h-5l-65 58l-69 -76h-5l-81 72v5l71 78h5l65 -58l69 76h5z" />
    <glyph glyph-name="uniFC3D" unicode="&#xfc3d;" horiz-adv-x="851" arabic-form="isolated" 
d="M61 122.5q19 74.5 57 170.5l96 -36q-55 -165 -55 -253q0 -67 44 -102.5t151 -35.5q74 0 130.5 15t86.5 38.5t30 48.5q0 21 -31 31q-44 12 -176 30l26 126h29q100 0 158.5 16t58.5 49q0 26 -26 67t-91 94t-173 110l12 140l413 136l8 -131l-272 -96q137 -90 193.5 -170.5
t56.5 -156.5q0 -47 -26.5 -84t-73.5 -62q20 -17 30.5 -39.5t10.5 -47.5q0 -74 -48 -132.5t-133 -91.5t-193 -33q-159 0 -235.5 69.5t-76.5 192.5q0 63 19 137.5z" />
    <glyph glyph-name="uniFC3E" unicode="&#xfc3e;" horiz-adv-x="851" arabic-form="isolated" 
d="M61 122.5q19 74.5 57 170.5l96 -36q-55 -165 -55 -253q0 -67 44 -102.5t151 -35.5q74 0 130.5 15t86.5 38.5t30 48.5q0 21 -31 31q-44 12 -176 30l26 126h29q100 0 158.5 16t58.5 49q0 26 -26 67t-91 94t-173 110l12 140l413 136l8 -131l-272 -96q137 -90 193.5 -170.5
t56.5 -156.5q0 -47 -26.5 -84t-73.5 -62q20 -17 30.5 -39.5t10.5 -47.5q0 -74 -48 -132.5t-133 -91.5t-193 -33q-159 0 -235.5 69.5t-76.5 192.5q0 63 19 137.5zM465 -336l79 -70v-4l-69 -78h-5l-64 57l-68 -75h-4l-80 71v4l70 77h4l64 -56l68 74h5z" />
    <glyph glyph-name="uniFC43" unicode="&#xfc43;" horiz-adv-x="803" arabic-form="isolated" 
d="M61 121q19 74 57 172l96 -36q-55 -165 -55 -253q0 -67 44 -102.5t151 -35.5q74 0 131 15t87.5 38.5t30.5 48.5q0 11 -9.5 19t-23.5 12q-44 12 -176 30l26 126q93 -1 140 9t65 35t18 76l-2 453l119 13v-466q0 -134 -84 -199q24 -14 38 -40.5t14 -57.5q0 -73 -49 -131.5
t-136 -91t-198 -32.5q-148 1 -225.5 69.5t-77.5 192.5q0 62 19 136z" />
    <glyph glyph-name="uniFC44" unicode="&#xfc44;" horiz-adv-x="803" arabic-form="isolated" 
d="M61 121q19 74 57 172l96 -36q-55 -165 -55 -253q0 -67 44 -102.5t151 -35.5q74 0 131 15t87.5 38.5t30.5 48.5q0 11 -9.5 19t-23.5 12q-44 12 -176 30l26 126q93 -1 140 9t65 35t18 76l-2 453l119 13v-466q0 -134 -84 -199q24 -14 38 -40.5t14 -57.5q0 -73 -49 -131.5
t-136 -91t-198 -32.5q-148 1 -225.5 69.5t-77.5 192.5q0 62 19 136zM427 -320l79 -70v-4l-69 -78h-5l-64 57l-68 -75h-4l-80 71v4l70 77h4l64 -56l68 74h5z" />
    <glyph glyph-name="uniFC4E" unicode="&#xfc4e;" horiz-adv-x="782" arabic-form="isolated" 
d="M473.5 489.5q114.5 50.5 266.5 48.5v-135q-85 2 -155 -14t-119 -48q84 -22 135 -88t51 -161q0 -71 -25 -125t-69.5 -83.5t-101.5 -29.5q-64 0 -111.5 36.5t-72 98.5t-24.5 137q0 34 4 62q-92 -49 -92 -165v-306l-118 -17v318q0 86 35 153.5t94.5 111t131.5 59.5
q56 97 170.5 147.5zM497.5 182.5q-45.5 33.5 -114.5 33.5h-6q-14 -47 -14 -89q0 -60 24.5 -98t70.5 -38q37 0 61 26.5t24 74.5q0 57 -45.5 90.5zM451 686v5l72 80h5l82 -73v-5l-72 -80h-5z" />
    <glyph glyph-name="uniFC4F" unicode="&#xfc4f;" horiz-adv-x="799" arabic-form="isolated" 
d="M61 77.5q19 73.5 57 170.5l94 -35q-54 -167 -54 -252q0 -68 44.5 -103.5t151.5 -35.5q74 0 131 15t87.5 38.5t30.5 49.5q0 10 -9.5 18.5t-23.5 12.5q-43 11 -176 30l26 125q44 0 70 1q83 3 121.5 24.5t37.5 67.5q-1 38 -11 89.5t-35 152.5l116 41q24 -114 32 -168t8 -115
q0 -119 -81 -174q22 -14 36.5 -39.5t14.5 -55.5q0 -74 -49.5 -132t-137 -90.5t-198.5 -32.5q-148 1 -225 69.5t-77 192.5q0 62 19 135.5zM544 679v5l72 80h5l82 -73v-5l-72 -80h-5z" />
    <glyph glyph-name="uniFC50" unicode="&#xfc50;" horiz-adv-x="799" arabic-form="isolated" 
d="M61 77.5q19 73.5 57 170.5l94 -35q-54 -167 -54 -252q0 -68 44.5 -103.5t151.5 -35.5q74 0 131 15t87.5 38.5t30.5 49.5q0 10 -9.5 18.5t-23.5 12.5q-43 11 -176 30l26 125q44 0 70 1q83 3 121.5 24.5t37.5 67.5q-1 38 -11 89.5t-35 152.5l116 41q24 -114 32 -168t8 -115
q0 -119 -81 -174q22 -14 36.5 -39.5t14.5 -55.5q0 -74 -49.5 -132t-137 -90.5t-198.5 -32.5q-148 1 -225 69.5t-77 192.5q0 62 19 135.5zM544 679v5l72 80h5l82 -73v-5l-72 -80h-5zM419 -346l79 -70v-4l-69 -78h-5l-64 57l-68 -75h-4l-80 71v4l70 77h4l64 -56l68 74h5z" />
    <glyph glyph-name="uniFC58" unicode="&#xfc58;" horiz-adv-x="782" arabic-form="isolated" 
d="M473.5 489.5q114.5 50.5 266.5 48.5v-135q-85 2 -155 -14t-119 -48q84 -22 135 -88t51 -161q0 -71 -25 -125t-69.5 -83.5t-101.5 -29.5q-64 0 -111.5 36.5t-72 98.5t-24.5 137q0 34 4 62q-92 -49 -92 -165v-306l-118 -17v318q0 86 35 153.5t94.5 111t131.5 59.5
q56 97 170.5 147.5zM497.5 182.5q-45.5 33.5 -114.5 33.5h-6q-14 -47 -14 -89q0 -60 24.5 -98t70.5 -38q37 0 61 26.5t24 74.5q0 57 -45.5 90.5zM815 -89l79 -70v-4l-69 -78h-5l-64 57l-68 -75h-4l-80 71v4l70 77h4l64 -56l68 74h5z" />
    <glyph glyph-name="uniFC59" unicode="&#xfc59;" horiz-adv-x="799" arabic-form="isolated" 
d="M61 77.5q19 73.5 57 170.5l94 -35q-54 -167 -54 -252q0 -68 44.5 -103.5t151.5 -35.5q74 0 131 15t87.5 38.5t30.5 49.5q0 10 -9.5 18.5t-23.5 12.5q-43 11 -176 30l26 125q44 0 70 1q83 3 121.5 24.5t37.5 67.5q-1 38 -11 89.5t-35 152.5l116 41q24 -114 32 -168t8 -115
q0 -119 -81 -174q22 -14 36.5 -39.5t14.5 -55.5q0 -74 -49.5 -132t-137 -90.5t-198.5 -32.5q-148 1 -225 69.5t-77 192.5q0 62 19 135.5zM785 -290l79 -70v-4l-69 -78h-5l-64 57l-68 -75h-4l-80 71v4l70 77h4l64 -56l68 74h5z" />
    <glyph glyph-name="uniFC64" unicode="&#xfc64;" horiz-adv-x="952" arabic-form="final" 
d="M820 498l-293 -50l1 63l57 10q-11 27 -11 57q0 56 30.5 94t77.5 38q55 0 102 -56l-35 -44q-17 14 -30.5 21t-29.5 7q-23 0 -37 -15t-14 -41t15 -50l166 29zM1000.5 121q20.5 -21 20.5 -50t-20.5 -50.5t-48.5 -21.5q-120 0 -182.5 53t-71.5 158q-133 -32 -201 -32
q-48 0 -76 14q10 -54 10 -106q0 -161 -87.5 -253t-263.5 -93h-34l-4 114q12 0 30 2q124 10 180.5 62.5t56.5 149.5q0 39 -10.5 97.5t-36.5 165.5l118 44q11 -44 35 -62t77 -18q62 0 201 33l-3 82l101 10l13 -141q5 -57 17.5 -85.5t42 -40t88.5 -11.5q28 0 48.5 -21z" />
    <glyph glyph-name="uniFC65" unicode="&#xfc65;" horiz-adv-x="952" arabic-form="final" 
d="M822 500l-293 -50l1 63l57 10q-11 27 -11 57q0 56 30.5 94t77.5 38q55 0 102 -56l-35 -44q-17 14 -30.5 21t-29.5 7q-23 0 -37 -15t-14 -41t15 -50l166 29zM325 457h-5l-82 73v5l72 80h5l82 -73v-5zM1000.5 121q20.5 -21 20.5 -50t-20.5 -50.5t-48.5 -21.5
q-120 0 -182.5 53t-71.5 158q-133 -32 -201 -32q-48 0 -76 14q10 -54 10 -106q0 -161 -87.5 -253t-263.5 -93h-34l-4 114q12 0 30 2q124 10 180.5 62.5t56.5 149.5q0 39 -10.5 97.5t-36.5 165.5l118 44q11 -44 35 -62t77 -18q62 0 201 33l-3 82l101 10l13 -141
q5 -57 17.5 -85.5t42 -40t88.5 -11.5q28 0 48.5 -21z" />
    <glyph glyph-name="uniFC66" unicode="&#xfc66;" horiz-adv-x="964" arabic-form="final" 
d="M77 169q35 67 93.5 109.5t130.5 59.5q54 95 162 144.5t252 51.5q41 0 65 -23t25 -63l4 -136q3 -73 16.5 -108.5t45 -48.5t93.5 -13q28 0 48 -21t20 -50t-20 -50.5t-48 -21.5q-136 0 -201 70.5t-68 232.5l-1 78q0 11 -6 15t-20 3q-60 -3 -111 -19t-89 -42q2 -1 6 -2t9 -4
q76 -29 122.5 -91.5t46.5 -150.5q0 -71 -25 -125t-69.5 -83.5t-101.5 -29.5q-63 0 -109 36t-70.5 96t-24.5 132q0 35 6 69q-44 -18 -71 -59.5t-27 -103.5l-1 -303l-117 -17v315q0 86 35 153zM364 119q0 -57 24.5 -94t69.5 -37q37 0 61 27t24 74q0 53 -41.5 87t-109.5 37h-11
q-17 -48 -17 -94zM675 649l-290 -66l-2 63l57 13q-14 28 -14 63q0 56 29 93.5t75 37.5q54 0 101 -51l-32 -45q-20 13 -32.5 18.5t-27.5 5.5q-22 0 -35.5 -14.5t-15.5 -38.5q0 -28 18 -54l165 38z" />
    <glyph glyph-name="uniFC67" unicode="&#xfc67;" horiz-adv-x="1246" arabic-form="final" 
d="M1092 494l-293 -51v64l58 10q-11 25 -11 53q0 57 30 96t77 39q56 0 102 -56l-34 -43q-19 14 -32 20.5t-29 6.5q-23 0 -37 -15t-14 -40q0 -26 15 -50l167 29zM356 316h-5l-82 73v5l72 80h5l82 -73v-5zM1294.5 121q20.5 -21 20.5 -50t-20.5 -50.5t-48.5 -21.5
q-239 0 -256 212q-129 -33 -200 -33q-54 0 -88 19q14 -93 14 -163q0 -24 -1 -34q-6 -82 -51.5 -142t-129 -92t-197.5 -32q-146 0 -220.5 67.5t-74.5 182.5q0 68 19 144.5t57 174.5l96 -36q-55 -163 -55 -255q0 -64 41 -99.5t150 -35.5q55 0 113 14t98 44.5t40 76.5
q0 41 -13 129t-34 193l116 41q11 -42 37 -61t77 -19q66 0 201 33l-3 82l101 10l12 -141q5 -56 18.5 -84.5t43.5 -40.5t89 -12q28 0 48.5 -21z" />
    <glyph glyph-name="uniFC68" unicode="&#xfc68;" horiz-adv-x="971" arabic-form="final" 
d="M118.5 -208.5q-76.5 69.5 -76.5 191.5q0 63 19 137.5t57 170.5l95 -36q-26 -78 -40 -144t-15 -109q0 -66 46 -102t153 -36q73 0 129 15t87 37t31 41t-24 30.5t-95 26.5q-81 16 -115 41.5t-34 65.5q0 68 49 135q55 78 152.5 125.5t194.5 47.5q42 0 68 -24t29 -64
q2 -34 7 -56q12 -143 135 -143q28 0 48.5 -21t20.5 -50t-20.5 -50.5t-48.5 -21.5q-120 0 -181 65t-73 166q-2 12 -4 38q-1 15 -4.5 20.5t-13.5 5.5q-51 0 -111 -28t-94 -67q-12 -13 -12 -25q0 -10 10.5 -16t42.5 -13q71 -14 113 -30.5t64.5 -44.5t23.5 -73v-9
q0 -74 -42.5 -134.5t-128 -96.5t-208.5 -36q-158 1 -234.5 70.5zM745 476l-290 -66l-2 63l57 13q-14 28 -14 63q0 56 29 93.5t75 37.5q54 0 101 -51l-32 -45q-20 13 -32.5 18.5t-27.5 5.5q-22 0 -35.5 -14.5t-15.5 -38.5q0 -28 18 -54l165 38z" />
    <glyph glyph-name="uniFC69" unicode="&#xfc69;" horiz-adv-x="971" arabic-form="final" 
d="M118.5 -208.5q-76.5 69.5 -76.5 191.5q0 63 19 137.5t57 170.5l95 -36q-26 -78 -40 -144t-15 -109q0 -66 46 -102t153 -36q73 0 129 15t87 37t31 41t-24 30.5t-95 26.5q-81 16 -115 41.5t-34 65.5q0 68 49 135q55 78 152.5 125.5t194.5 47.5q42 0 68 -24t29 -64
q2 -34 7 -56q12 -143 135 -143q28 0 48.5 -21t20.5 -50t-20.5 -50.5t-48.5 -21.5q-120 0 -181 65t-73 166q-2 12 -4 38q-1 15 -4.5 20.5t-13.5 5.5q-51 0 -111 -28t-94 -67q-12 -13 -12 -25q0 -10 10.5 -16t42.5 -13q71 -14 113 -30.5t64.5 -44.5t23.5 -73v-9
q0 -74 -42.5 -134.5t-128 -96.5t-208.5 -36q-158 1 -234.5 70.5zM765 480l-290 -66l-2 63l57 13q-14 28 -14 63q0 56 29 93.5t75 37.5q54 0 101 -51l-32 -45q-20 13 -32.5 18.5t-27.5 5.5q-22 0 -35.5 -14.5t-15.5 -38.5q0 -28 18 -54l165 38zM438 -374l79 -70v-4l-69 -78
h-5l-64 57l-68 -75h-4l-80 71v4l70 77h4l64 -56l68 74h5z" />
    <glyph glyph-name="uniFC6A" unicode="&#xfc6a;" horiz-adv-x="952" arabic-form="final" 
d="M1000.5 121q20.5 -21 20.5 -50t-20.5 -50.5t-48.5 -21.5q-120 0 -182.5 53t-71.5 158q-133 -32 -201 -32q-48 0 -76 14q10 -54 10 -106q0 -161 -87.5 -253t-263.5 -93h-34l-4 114q12 0 30 2q124 10 180.5 62.5t56.5 149.5q0 39 -10.5 97.5t-36.5 165.5l118 44
q11 -44 35 -62t77 -18q62 0 201 33l-3 82l101 10l13 -141q5 -57 17.5 -85.5t42 -40t88.5 -11.5q28 0 48.5 -21zM573 -116v5l72 80h5l82 -73v-5l-72 -80h-5z" />
    <glyph glyph-name="uniFC6B" unicode="&#xfc6b;" horiz-adv-x="952" arabic-form="final" 
d="M1000.5 121q20.5 -21 20.5 -50t-20.5 -50.5t-48.5 -21.5q-120 0 -182.5 53t-71.5 158q-133 -32 -201 -32q-48 0 -76 14q10 -54 10 -106q0 -161 -87.5 -253t-263.5 -93h-34l-4 114q12 0 30 2q124 10 180.5 62.5t56.5 149.5q0 39 -10.5 97.5t-36.5 165.5l118 44
q11 -44 35 -62t77 -18q62 0 201 33l-3 82l101 10l13 -141q5 -57 17.5 -85.5t42 -40t88.5 -11.5q28 0 48.5 -21zM573 -116v5l72 80h5l82 -73v-5l-72 -80h-5zM239 520v5l72 80h5l82 -73v-5l-72 -80h-5z" />
    <glyph glyph-name="uniFC6C" unicode="&#xfc6c;" horiz-adv-x="964" arabic-form="final" 
d="M77 169q35 67 93.5 109.5t130.5 59.5q54 95 162 144.5t252 51.5q41 0 65 -23t25 -63l4 -136q3 -73 16.5 -108.5t45 -48.5t93.5 -13q28 0 48 -21t20 -50t-20 -50.5t-48 -21.5q-136 0 -201 70.5t-68 232.5l-1 78q0 11 -6 15t-20 3q-60 -3 -111 -19t-89 -42q2 -1 6 -2t9 -4
q76 -29 122.5 -91.5t46.5 -150.5q0 -71 -25 -125t-69.5 -83.5t-101.5 -29.5q-63 0 -109 36t-70.5 96t-24.5 132q0 35 6 69q-44 -18 -71 -59.5t-27 -103.5l-1 -303l-117 -17v315q0 86 35 153zM364 119q0 -57 24.5 -94t69.5 -37q37 0 61 27t24 74q0 53 -41.5 87t-109.5 37h-11
q-17 -48 -17 -94zM666 -159v5l72 80h5l82 -73v-5l-72 -80h-5z" />
    <glyph glyph-name="uniFC6D" unicode="&#xfc6d;" horiz-adv-x="1246" arabic-form="final" 
d="M1294.5 121q20.5 -21 20.5 -50t-20.5 -50.5t-48.5 -21.5q-239 0 -256 212q-129 -33 -200 -33q-54 0 -88 19q14 -93 14 -163q0 -24 -1 -34q-6 -82 -51.5 -142t-129 -92t-197.5 -32q-146 0 -220.5 67.5t-74.5 182.5q0 68 19 144.5t57 174.5l96 -36q-55 -163 -55 -255
q0 -64 41 -99.5t150 -35.5q55 0 113 14t98 44.5t40 76.5q0 41 -13 129t-34 193l116 41q11 -42 37 -61t77 -19q66 0 201 33l-3 82l101 10l12 -141q5 -56 18.5 -84.5t43.5 -40.5t89 -12q28 0 48.5 -21zM269 389v5l72 80h5l82 -73v-5l-72 -80h-5zM832 -117v5l72 80h5l82 -73v-5
l-72 -80h-5z" />
    <glyph glyph-name="uniFC6E" unicode="&#xfc6e;" horiz-adv-x="971" arabic-form="final" 
d="M118.5 -208.5q-76.5 69.5 -76.5 191.5q0 63 19 137.5t57 170.5l95 -36q-26 -78 -40 -144t-15 -109q0 -66 46 -102t153 -36q73 0 129 15t87 37t31 41t-24 30.5t-95 26.5q-81 16 -115 41.5t-34 65.5q0 68 49 135q55 78 152.5 125.5t194.5 47.5q42 0 68 -24t29 -64
q2 -34 7 -56q12 -143 135 -143q28 0 48.5 -21t20.5 -50t-20.5 -50.5t-48.5 -21.5q-120 0 -181 65t-73 166q-2 12 -4 38q-1 15 -4.5 20.5t-13.5 5.5q-51 0 -111 -28t-94 -67q-12 -13 -12 -25q0 -10 10.5 -16t42.5 -13q71 -14 113 -30.5t64.5 -44.5t23.5 -73v-9
q0 -74 -42.5 -134.5t-128 -96.5t-208.5 -36q-158 1 -234.5 70.5zM745 -208v5l72 80h5l82 -73v-5l-72 -80h-5z" />
    <glyph glyph-name="uniFC6F" unicode="&#xfc6f;" horiz-adv-x="971" arabic-form="final" 
d="M118.5 -208.5q-76.5 69.5 -76.5 191.5q0 63 19 137.5t57 170.5l95 -36q-26 -78 -40 -144t-15 -109q0 -66 46 -102t153 -36q73 0 129 15t87 37t31 41t-24 30.5t-95 26.5q-81 16 -115 41.5t-34 65.5q0 68 49 135q55 78 152.5 125.5t194.5 47.5q42 0 68 -24t29 -64
q2 -34 7 -56q12 -143 135 -143q28 0 48.5 -21t20.5 -50t-20.5 -50.5t-48.5 -21.5q-120 0 -181 65t-73 166q-2 12 -4 38q-1 15 -4.5 20.5t-13.5 5.5q-51 0 -111 -28t-94 -67q-12 -13 -12 -25q0 -10 10.5 -16t42.5 -13q71 -14 113 -30.5t64.5 -44.5t23.5 -73v-9
q0 -74 -42.5 -134.5t-128 -96.5t-208.5 -36q-158 1 -234.5 70.5zM768 -255v5l72 80h5l82 -73v-5l-72 -80h-5zM439 -391l79 -70v-4l-69 -78h-5l-64 57l-68 -75h-4l-80 71v4l70 77h4l64 -56l68 74h5z" />
    <glyph glyph-name="uniFC70" unicode="&#xfc70;" horiz-adv-x="952" arabic-form="final" 
d="M1000.5 121q20.5 -21 20.5 -50t-20.5 -50.5t-48.5 -21.5q-120 0 -182.5 53t-71.5 158q-133 -32 -201 -32q-48 0 -76 14q10 -54 10 -106q0 -161 -87.5 -253t-263.5 -93h-34l-4 114q12 0 30 2q124 10 180.5 62.5t56.5 149.5q0 39 -10.5 97.5t-36.5 165.5l118 44
q11 -44 35 -62t77 -18q62 0 201 33l-3 82l101 10l13 -141q5 -57 17.5 -85.5t42 -40t88.5 -11.5q28 0 48.5 -21zM743 649l79 -70v-4l-69 -78h-5l-64 57l-68 -75h-4l-80 71v4l70 77h4l64 -56l68 74h5z" />
    <glyph glyph-name="uniFC71" unicode="&#xfc71;" horiz-adv-x="952" arabic-form="final" 
d="M1000.5 121q20.5 -21 20.5 -50t-20.5 -50.5t-48.5 -21.5q-120 0 -182.5 53t-71.5 158q-133 -32 -201 -32q-48 0 -76 14q10 -54 10 -106q0 -161 -87.5 -253t-263.5 -93h-34l-4 114q12 0 30 2q124 10 180.5 62.5t56.5 149.5q0 39 -10.5 97.5t-36.5 165.5l118 44
q11 -44 35 -62t77 -18q62 0 201 33l-3 82l101 10l13 -141q5 -57 17.5 -85.5t42 -40t88.5 -11.5q28 0 48.5 -21zM754 650l79 -70v-4l-69 -78h-5l-64 57l-68 -75h-4l-80 71v4l70 77h4l64 -56l68 74h5zM228 538v5l72 80h5l82 -73v-5l-72 -80h-5z" />
    <glyph glyph-name="uniFC72" unicode="&#xfc72;" horiz-adv-x="964" arabic-form="final" 
d="M77 169q35 67 93.5 109.5t130.5 59.5q54 95 162 144.5t252 51.5q41 0 65 -23t25 -63l4 -136q3 -73 16.5 -108.5t45 -48.5t93.5 -13q28 0 48 -21t20 -50t-20 -50.5t-48 -21.5q-136 0 -201 70.5t-68 232.5l-1 78q0 11 -6 15t-20 3q-60 -3 -111 -19t-89 -42q2 -1 6 -2t9 -4
q76 -29 122.5 -91.5t46.5 -150.5q0 -71 -25 -125t-69.5 -83.5t-101.5 -29.5q-63 0 -109 36t-70.5 96t-24.5 132q0 35 6 69q-44 -18 -71 -59.5t-27 -103.5l-1 -303l-117 -17v315q0 86 35 153zM364 119q0 -57 24.5 -94t69.5 -37q37 0 61 27t24 74q0 53 -41.5 87t-109.5 37h-11
q-17 -48 -17 -94zM646 772l81 -71v-5l-71 -79h-5l-65 58l-69 -76h-5l-81 72v5l71 78h5l65 -58l69 76h5z" />
    <glyph glyph-name="uniFC73" unicode="&#xfc73;" horiz-adv-x="1246" arabic-form="final" 
d="M1294.5 121q20.5 -21 20.5 -50t-20.5 -50.5t-48.5 -21.5q-239 0 -256 212q-129 -33 -200 -33q-54 0 -88 19q14 -93 14 -163q0 -24 -1 -34q-6 -82 -51.5 -142t-129 -92t-197.5 -32q-146 0 -220.5 67.5t-74.5 182.5q0 68 19 144.5t57 174.5l96 -36q-55 -163 -55 -255
q0 -64 41 -99.5t150 -35.5q55 0 113 14t98 44.5t40 76.5q0 41 -13 129t-34 193l116 41q11 -42 37 -61t77 -19q66 0 201 33l-3 82l101 10l12 -141q5 -56 18.5 -84.5t43.5 -40.5t89 -12q28 0 48.5 -21zM269 389v5l72 80h5l82 -73v-5l-72 -80h-5zM1005 670l81 -71v-5l-71 -79
h-5l-65 58l-69 -76h-5l-81 72v5l71 78h5l65 -58l69 76h5z" />
    <glyph glyph-name="uniFC74" unicode="&#xfc74;" horiz-adv-x="971" arabic-form="final" 
d="M118.5 -208.5q-76.5 69.5 -76.5 191.5q0 63 19 137.5t57 170.5l95 -36q-26 -78 -40 -144t-15 -109q0 -66 46 -102t153 -36q73 0 129 15t87 37t31 41t-24 30.5t-95 26.5q-81 16 -115 41.5t-34 65.5q0 68 49 135q55 78 152.5 125.5t194.5 47.5q42 0 68 -24t29 -64
q2 -34 7 -56q12 -143 135 -143q28 0 48.5 -21t20.5 -50t-20.5 -50.5t-48.5 -21.5q-120 0 -181 65t-73 166q-2 12 -4 38q-1 15 -4.5 20.5t-13.5 5.5q-51 0 -111 -28t-94 -67q-12 -13 -12 -25q0 -10 10.5 -16t42.5 -13q71 -14 113 -30.5t64.5 -44.5t23.5 -73v-9
q0 -74 -42.5 -134.5t-128 -96.5t-208.5 -36q-158 1 -234.5 70.5zM635 658l81 -71v-5l-71 -79h-5l-65 58l-69 -76h-5l-81 72v5l71 78h5l65 -58l69 76h5z" />
    <glyph glyph-name="uniFC75" unicode="&#xfc75;" horiz-adv-x="971" arabic-form="final" 
d="M118.5 -208.5q-76.5 69.5 -76.5 191.5q0 63 19 137.5t57 170.5l95 -36q-26 -78 -40 -144t-15 -109q0 -66 46 -102t153 -36q73 0 129 15t87 37t31 41t-24 30.5t-95 26.5q-81 16 -115 41.5t-34 65.5q0 68 49 135q55 78 152.5 125.5t194.5 47.5q42 0 68 -24t29 -64
q2 -34 7 -56q12 -143 135 -143q28 0 48.5 -21t20.5 -50t-20.5 -50.5t-48.5 -21.5q-120 0 -181 65t-73 166q-2 12 -4 38q-1 15 -4.5 20.5t-13.5 5.5q-51 0 -111 -28t-94 -67q-12 -13 -12 -25q0 -10 10.5 -16t42.5 -13q71 -14 113 -30.5t64.5 -44.5t23.5 -73v-9
q0 -74 -42.5 -134.5t-128 -96.5t-208.5 -36q-158 1 -234.5 70.5zM429 -385l79 -70v-4l-69 -78h-5l-64 57l-68 -75h-4l-80 71v4l70 77h4l64 -56l68 74h5zM655 658l81 -71v-5l-71 -79h-5l-65 58l-69 -76h-5l-81 72v5l71 78h5l65 -58l69 76h5z" />
    <glyph glyph-name="uniFC76" unicode="&#xfc76;" horiz-adv-x="952" arabic-form="final" 
d="M1000.5 121q20.5 -21 20.5 -50t-20.5 -50.5t-48.5 -21.5q-120 0 -182.5 53t-71.5 158q-133 -32 -201 -32q-48 0 -76 14q10 -54 10 -106q0 -161 -87.5 -253t-263.5 -93h-34l-4 114q12 0 30 2q124 10 180.5 62.5t56.5 149.5q0 39 -10.5 97.5t-36.5 165.5l118 44
q11 -44 35 -62t77 -18q62 0 201 33l-3 82l101 10l13 -141q5 -57 17.5 -85.5t42 -40t88.5 -11.5q28 0 48.5 -21zM693 612h-4l-75 67v4l65 72h4l76 -66v-4zM764 627l79 -70v-4l-69 -78h-5l-65 58l-67 -75h-4l-80 70v5l70 76h4l65 -57l67 75h5z" />
    <glyph glyph-name="uniFC77" unicode="&#xfc77;" horiz-adv-x="952" arabic-form="final" 
d="M1000.5 121q20.5 -21 20.5 -50t-20.5 -50.5t-48.5 -21.5q-120 0 -182.5 53t-71.5 158q-133 -32 -201 -32q-48 0 -76 14q10 -54 10 -106q0 -161 -87.5 -253t-263.5 -93h-34l-4 114q12 0 30 2q124 10 180.5 62.5t56.5 149.5q0 39 -10.5 97.5t-36.5 165.5l118 44
q11 -44 35 -62t77 -18q62 0 201 33l-3 82l101 10l13 -141q5 -57 17.5 -85.5t42 -40t88.5 -11.5q28 0 48.5 -21zM694 614h-4l-75 67v4l65 72h4l76 -66v-4zM765 629l79 -70v-4l-69 -78h-5l-65 58l-67 -75h-4l-80 70v5l70 76h4l65 -57l67 75h5zM237 518v5l72 80h5l82 -73v-5
l-72 -80h-5z" />
    <glyph glyph-name="uniFC78" unicode="&#xfc78;" horiz-adv-x="964" arabic-form="final" 
d="M77 169q35 67 93.5 109.5t130.5 59.5q54 95 162 144.5t252 51.5q41 0 65 -23t25 -63l4 -136q3 -73 16.5 -108.5t45 -48.5t93.5 -13q28 0 48 -21t20 -50t-20 -50.5t-48 -21.5q-136 0 -201 70.5t-68 232.5l-1 78q0 11 -6 15t-20 3q-60 -3 -111 -19t-89 -42q2 -1 6 -2t9 -4
q76 -29 122.5 -91.5t46.5 -150.5q0 -71 -25 -125t-69.5 -83.5t-101.5 -29.5q-63 0 -109 36t-70.5 96t-24.5 132q0 35 6 69q-44 -18 -71 -59.5t-27 -103.5l-1 -303l-117 -17v315q0 86 35 153zM364 119q0 -57 24.5 -94t69.5 -37q37 0 61 27t24 74q0 53 -41.5 87t-109.5 37h-11
q-17 -48 -17 -94zM558 771h-4l-75 67v4l65 72h4l76 -66v-4zM629 786l79 -70v-4l-69 -78h-5l-65 58l-67 -75h-4l-80 70v5l70 76h4l65 -57l67 75h5z" />
    <glyph glyph-name="uniFC79" unicode="&#xfc79;" horiz-adv-x="1246" arabic-form="final" 
d="M1294.5 121q20.5 -21 20.5 -50t-20.5 -50.5t-48.5 -21.5q-239 0 -256 212q-129 -33 -200 -33q-54 0 -88 19q14 -93 14 -163q0 -24 -1 -34q-6 -82 -51.5 -142t-129 -92t-197.5 -32q-146 0 -220.5 67.5t-74.5 182.5q0 68 19 144.5t57 174.5l96 -36q-55 -163 -55 -255
q0 -64 41 -99.5t150 -35.5q55 0 113 14t98 44.5t40 76.5q0 41 -13 129t-34 193l116 41q11 -42 37 -61t77 -19q66 0 201 33l-3 82l101 10l12 -141q5 -56 18.5 -84.5t43.5 -40.5t89 -12q28 0 48.5 -21zM269 389v5l72 80h5l82 -73v-5l-72 -80h-5zM918 632h-4l-75 67v4l65 72h4
l76 -66v-4zM989 647l79 -70v-4l-69 -78h-5l-65 58l-67 -75h-4l-80 70v5l70 76h4l65 -57l67 75h5z" />
    <glyph glyph-name="uniFC7A" unicode="&#xfc7a;" horiz-adv-x="971" arabic-form="final" 
d="M118.5 -208.5q-76.5 69.5 -76.5 191.5q0 63 19 137.5t57 170.5l95 -36q-26 -78 -40 -144t-15 -109q0 -66 46 -102t153 -36q73 0 129 15t87 37t31 41t-24 30.5t-95 26.5q-81 16 -115 41.5t-34 65.5q0 68 49 135q55 78 152.5 125.5t194.5 47.5q42 0 68 -24t29 -64
q2 -34 7 -56q12 -143 135 -143q28 0 48.5 -21t20.5 -50t-20.5 -50.5t-48.5 -21.5q-120 0 -181 65t-73 166q-2 12 -4 38q-1 15 -4.5 20.5t-13.5 5.5q-51 0 -111 -28t-94 -67q-12 -13 -12 -25q0 -10 10.5 -16t42.5 -13q71 -14 113 -30.5t64.5 -44.5t23.5 -73v-9
q0 -74 -42.5 -134.5t-128 -96.5t-208.5 -36q-158 1 -234.5 70.5zM564 643h-4l-75 67v4l65 72h4l76 -66v-4zM635 658l79 -70v-4l-69 -78h-5l-65 58l-67 -75h-4l-80 70v5l70 76h4l65 -57l67 75h5z" />
    <glyph glyph-name="uniFC7B" unicode="&#xfc7b;" horiz-adv-x="971" arabic-form="final" 
d="M118.5 -208.5q-76.5 69.5 -76.5 191.5q0 63 19 137.5t57 170.5l95 -36q-26 -78 -40 -144t-15 -109q0 -66 46 -102t153 -36q73 0 129 15t87 37t31 41t-24 30.5t-95 26.5q-81 16 -115 41.5t-34 65.5q0 68 49 135q55 78 152.5 125.5t194.5 47.5q42 0 68 -24t29 -64
q2 -34 7 -56q12 -143 135 -143q28 0 48.5 -21t20.5 -50t-20.5 -50.5t-48.5 -21.5q-120 0 -181 65t-73 166q-2 12 -4 38q-1 15 -4.5 20.5t-13.5 5.5q-51 0 -111 -28t-94 -67q-12 -13 -12 -25q0 -10 10.5 -16t42.5 -13q71 -14 113 -30.5t64.5 -44.5t23.5 -73v-9
q0 -74 -42.5 -134.5t-128 -96.5t-208.5 -36q-158 1 -234.5 70.5zM584 642h-4l-75 67v4l65 72h4l76 -66v-4zM655 657l79 -70v-4l-69 -78h-5l-65 58l-67 -75h-4l-80 70v5l70 76h4l65 -57l67 75h5zM428 -389l79 -70v-4l-69 -78h-5l-64 57l-68 -75h-4l-80 71v4l70 77h4l64 -56
l68 74h5z" />
    <glyph glyph-name="uniFC83" unicode="&#xfc83;" horiz-adv-x="994" arabic-form="final" 
d="M118.5 -207.5q-76.5 69.5 -76.5 192.5q0 62 19 136t57 172l96 -36q-55 -165 -55 -253q0 -67 44 -102.5t151 -35.5q74 0 131 15t87.5 38.5t30.5 48.5q0 21 -33 31q-44 12 -176 30l26 126h29q56 0 105.5 6.5t76.5 17.5q12 5 18 11t8 18q3 15 -16 45q-29 44 -102.5 110.5
t-162.5 127.5l12 140l412 136l9 -131l-277 -97q72 -61 121.5 -111.5t95.5 -105.5q66 -79 100 -113.5t67 -50.5t78 -16q29 0 49 -21t20 -50t-20 -50.5t-49 -21.5q-76 0 -133 28.5t-113 97.5q-16 -36 -60 -59q19 -16 29.5 -39t10.5 -49q0 -73 -48.5 -131t-133.5 -91t-192 -33
q-159 0 -235.5 69.5z" />
    <glyph glyph-name="uniFC84" unicode="&#xfc84;" horiz-adv-x="994" arabic-form="final" 
d="M118.5 -207.5q-76.5 69.5 -76.5 192.5q0 62 19 136t57 172l96 -36q-55 -165 -55 -253q0 -67 44 -102.5t151 -35.5q74 0 131 15t87.5 38.5t30.5 48.5q0 21 -33 31q-44 12 -176 30l26 126h29q56 0 105.5 6.5t76.5 17.5q12 5 18 11t8 18q3 15 -16 45q-29 44 -102.5 110.5
t-162.5 127.5l12 140l412 136l9 -131l-277 -97q72 -61 121.5 -111.5t95.5 -105.5q66 -79 100 -113.5t67 -50.5t78 -16q29 0 49 -21t20 -50t-20 -50.5t-49 -21.5q-76 0 -133 28.5t-113 97.5q-16 -36 -60 -59q19 -16 29.5 -39t10.5 -49q0 -73 -48.5 -131t-133.5 -91t-192 -33
q-159 0 -235.5 69.5zM457 -336l79 -70v-4l-69 -78h-5l-64 57l-68 -75h-4l-80 71v4l70 77h4l64 -56l68 74h5z" />
    <glyph glyph-name="uniFC86" unicode="&#xfc86;" horiz-adv-x="926" arabic-form="final" 
d="M61 121q19 74 57 172l96 -36q-55 -165 -55 -253q0 -67 44 -102.5t151 -35.5q74 0 131 15t87.5 38.5t30.5 48.5q0 11 -9.5 19t-23.5 12q-44 12 -176 30l26 126h33q75 1 115.5 11t59 35.5t17.5 73.5l-5 452l120 14v-431q0 -45 -1 -67q50 -99 167 -99q29 0 49 -21t20 -49
q0 -29 -20.5 -50.5t-48.5 -21.5q-61 0 -115 32t-90 90q-17 -30 -45 -48q24 -14 38 -40.5t14 -57.5q0 -73 -49 -131.5t-136 -91t-198 -32.5q-148 1 -225.5 69.5t-77.5 192.5q0 62 19 136z" />
    <glyph glyph-name="uniFC87" unicode="&#xfc87;" horiz-adv-x="926" arabic-form="final" 
d="M61 121q19 74 57 172l96 -36q-55 -165 -55 -253q0 -67 44 -102.5t151 -35.5q74 0 131 15t87.5 38.5t30.5 48.5q0 11 -9.5 19t-23.5 12q-44 12 -176 30l26 126h33q75 1 115.5 11t59 35.5t17.5 73.5l-5 452l120 14v-431q0 -45 -1 -67q50 -99 167 -99q29 0 49 -21t20 -49
q0 -29 -20.5 -50.5t-48.5 -21.5q-61 0 -115 32t-90 90q-17 -30 -45 -48q24 -14 38 -40.5t14 -57.5q0 -73 -49 -131.5t-136 -91t-198 -32.5q-148 1 -225.5 69.5t-77.5 192.5q0 62 19 136z" />
    <glyph glyph-name="uniFC8A" unicode="&#xfc8a;" horiz-adv-x="952" arabic-form="final" 
d="M1000.5 121q20.5 -21 20.5 -50t-20.5 -50.5t-48.5 -21.5q-120 0 -182.5 53t-71.5 158q-133 -32 -201 -32q-48 0 -76 14q10 -54 10 -106q0 -161 -87.5 -253t-263.5 -93h-34l-4 114q12 0 30 2q124 10 180.5 62.5t56.5 149.5q0 39 -10.5 97.5t-36.5 165.5l118 44
q11 -44 35 -62t77 -18q62 0 201 33l-3 82l101 10l13 -141q5 -57 17.5 -85.5t42 -40t88.5 -11.5q28 0 48.5 -21zM668 561v5l72 80h5l82 -73v-5l-72 -80h-5z" />
    <glyph glyph-name="uniFC8B" unicode="&#xfc8b;" horiz-adv-x="952" arabic-form="final" 
d="M1000.5 121q20.5 -21 20.5 -50t-20.5 -50.5t-48.5 -21.5q-120 0 -182.5 53t-71.5 158q-133 -32 -201 -32q-48 0 -76 14q10 -54 10 -106q0 -161 -87.5 -253t-263.5 -93h-34l-4 114q12 0 30 2q124 10 180.5 62.5t56.5 149.5q0 39 -10.5 97.5t-36.5 165.5l118 44
q11 -44 35 -62t77 -18q62 0 201 33l-3 82l101 10l13 -141q5 -57 17.5 -85.5t42 -40t88.5 -11.5q28 0 48.5 -21zM234 521v5l72 80h5l82 -73v-5l-72 -80h-5zM665 561v5l72 80h5l82 -73v-5l-72 -80h-5z" />
    <glyph glyph-name="uniFC8C" unicode="&#xfc8c;" horiz-adv-x="964" arabic-form="final" 
d="M77 169q35 67 93.5 109.5t130.5 59.5q54 95 162 144.5t252 51.5q41 0 65 -23t25 -63l4 -136q3 -73 16.5 -108.5t45 -48.5t93.5 -13q28 0 48 -21t20 -50t-20 -50.5t-48 -21.5q-136 0 -201 70.5t-68 232.5l-1 78q0 11 -6 15t-20 3q-60 -3 -111 -19t-89 -42q2 -1 6 -2t9 -4
q76 -29 122.5 -91.5t46.5 -150.5q0 -71 -25 -125t-69.5 -83.5t-101.5 -29.5q-63 0 -109 36t-70.5 96t-24.5 132q0 35 6 69q-44 -18 -71 -59.5t-27 -103.5l-1 -303l-117 -17v315q0 86 35 153zM364 119q0 -57 24.5 -94t69.5 -37q37 0 61 27t24 74q0 53 -41.5 87t-109.5 37h-11
q-17 -48 -17 -94zM507 694v5l72 80h5l82 -73v-5l-72 -80h-5z" />
    <glyph glyph-name="uniFC8D" unicode="&#xfc8d;" horiz-adv-x="1246" arabic-form="final" 
d="M1294.5 121q20.5 -21 20.5 -50t-20.5 -50.5t-48.5 -21.5q-239 0 -256 212q-129 -33 -200 -33q-54 0 -88 19q14 -93 14 -163q0 -24 -1 -34q-6 -82 -51.5 -142t-129 -92t-197.5 -32q-146 0 -220.5 67.5t-74.5 182.5q0 68 19 144.5t57 174.5l96 -36q-55 -163 -55 -255
q0 -64 41 -99.5t150 -35.5q55 0 113 14t98 44.5t40 76.5q0 41 -13 129t-34 193l116 41q11 -42 37 -61t77 -19q66 0 201 33l-3 82l101 10l12 -141q5 -56 18.5 -84.5t43.5 -40.5t89 -12q28 0 48.5 -21zM269 389v5l72 80h5l82 -73v-5l-72 -80h-5zM872 528v5l72 80h5l82 -73v-5
l-72 -80h-5z" />
    <glyph glyph-name="uniFC8E" unicode="&#xfc8e;" horiz-adv-x="971" arabic-form="final" 
d="M118.5 -208.5q-76.5 69.5 -76.5 191.5q0 63 19 137.5t57 170.5l95 -36q-26 -78 -40 -144t-15 -109q0 -66 46 -102t153 -36q73 0 129 15t87 37t31 41t-24 30.5t-95 26.5q-81 16 -115 41.5t-34 65.5q0 68 49 135q55 78 152.5 125.5t194.5 47.5q42 0 68 -24t29 -64
q2 -34 7 -56q12 -143 135 -143q28 0 48.5 -21t20.5 -50t-20.5 -50.5t-48.5 -21.5q-120 0 -181 65t-73 166q-2 12 -4 38q-1 15 -4.5 20.5t-13.5 5.5q-51 0 -111 -28t-94 -67q-12 -13 -12 -25q0 -10 10.5 -16t42.5 -13q71 -14 113 -30.5t64.5 -44.5t23.5 -73v-9
q0 -74 -42.5 -134.5t-128 -96.5t-208.5 -36q-158 1 -234.5 70.5zM505 601v5l72 80h5l82 -73v-5l-72 -80h-5z" />
    <glyph glyph-name="uniFC8F" unicode="&#xfc8f;" horiz-adv-x="971" arabic-form="final" 
d="M118.5 -208.5q-76.5 69.5 -76.5 191.5q0 63 19 137.5t57 170.5l95 -36q-26 -78 -40 -144t-15 -109q0 -66 46 -102t153 -36q73 0 129 15t87 37t31 41t-24 30.5t-95 26.5q-81 16 -115 41.5t-34 65.5q0 68 49 135q55 78 152.5 125.5t194.5 47.5q42 0 68 -24t29 -64
q2 -34 7 -56q12 -143 135 -143q28 0 48.5 -21t20.5 -50t-20.5 -50.5t-48.5 -21.5q-120 0 -181 65t-73 166q-2 12 -4 38q-1 15 -4.5 20.5t-13.5 5.5q-51 0 -111 -28t-94 -67q-12 -13 -12 -25q0 -10 10.5 -16t42.5 -13q71 -14 113 -30.5t64.5 -44.5t23.5 -73v-9
q0 -74 -42.5 -134.5t-128 -96.5t-208.5 -36q-158 1 -234.5 70.5zM432 -348l79 -70v-4l-69 -78h-5l-64 57l-68 -75h-4l-80 71v4l70 77h4l64 -56l68 74h5zM544 611v5l72 80h5l82 -73v-5l-72 -80h-5z" />
    <glyph glyph-name="uniFC91" unicode="&#xfc91;" horiz-adv-x="952" arabic-form="final" 
d="M1000.5 121q20.5 -21 20.5 -50t-20.5 -50.5t-48.5 -21.5q-120 0 -182.5 53t-71.5 158q-133 -32 -201 -32q-48 0 -76 14q10 -54 10 -106q0 -161 -87.5 -253t-263.5 -93h-34l-4 114q12 0 30 2q124 10 180.5 62.5t56.5 149.5q0 39 -10.5 97.5t-36.5 165.5l118 44
q11 -44 35 -62t77 -18q62 0 201 33l-3 82l101 10l13 -141q5 -57 17.5 -85.5t42 -40t88.5 -11.5q28 0 48.5 -21zM703 -4l79 -70v-4l-69 -78h-5l-64 57l-68 -75h-4l-80 71v4l70 77h4l64 -56l68 74h5z" />
    <glyph glyph-name="uniFC92" unicode="&#xfc92;" horiz-adv-x="952" arabic-form="final" 
d="M1000.5 121q20.5 -21 20.5 -50t-20.5 -50.5t-48.5 -21.5q-120 0 -182.5 53t-71.5 158q-133 -32 -201 -32q-48 0 -76 14q10 -54 10 -106q0 -161 -87.5 -253t-263.5 -93h-34l-4 114q12 0 30 2q124 10 180.5 62.5t56.5 149.5q0 39 -10.5 97.5t-36.5 165.5l118 44
q11 -44 35 -62t77 -18q62 0 201 33l-3 82l101 10l13 -141q5 -57 17.5 -85.5t42 -40t88.5 -11.5q28 0 48.5 -21zM238 523v5l72 80h5l82 -73v-5l-72 -80h-5zM703 -4l79 -70v-4l-69 -78h-5l-64 57l-68 -75h-4l-80 71v4l70 77h4l64 -56l68 74h5z" />
    <glyph glyph-name="uniFC93" unicode="&#xfc93;" horiz-adv-x="964" arabic-form="final" 
d="M77 169q35 67 93.5 109.5t130.5 59.5q54 95 162 144.5t252 51.5q41 0 65 -23t25 -63l4 -136q3 -73 16.5 -108.5t45 -48.5t93.5 -13q28 0 48 -21t20 -50t-20 -50.5t-48 -21.5q-136 0 -201 70.5t-68 232.5l-1 78q0 11 -6 15t-20 3q-60 -3 -111 -19t-89 -42q2 -1 6 -2t9 -4
q76 -29 122.5 -91.5t46.5 -150.5q0 -71 -25 -125t-69.5 -83.5t-101.5 -29.5q-63 0 -109 36t-70.5 96t-24.5 132q0 35 6 69q-44 -18 -71 -59.5t-27 -103.5l-1 -303l-117 -17v315q0 86 35 153zM364 119q0 -57 24.5 -94t69.5 -37q37 0 61 27t24 74q0 53 -41.5 87t-109.5 37h-11
q-17 -48 -17 -94zM818 -81l79 -70v-4l-69 -78h-5l-64 57l-68 -75h-4l-80 71v4l70 77h4l64 -56l68 74h5z" />
    <glyph glyph-name="uniFC94" unicode="&#xfc94;" horiz-adv-x="1246" arabic-form="final" 
d="M1294.5 121q20.5 -21 20.5 -50t-20.5 -50.5t-48.5 -21.5q-239 0 -256 212q-129 -33 -200 -33q-54 0 -88 19q14 -93 14 -163q0 -24 -1 -34q-6 -82 -51.5 -142t-129 -92t-197.5 -32q-146 0 -220.5 67.5t-74.5 182.5q0 68 19 144.5t57 174.5l96 -36q-55 -163 -55 -255
q0 -64 41 -99.5t150 -35.5q55 0 113 14t98 44.5t40 76.5q0 41 -13 129t-34 193l116 41q11 -42 37 -61t77 -19q66 0 201 33l-3 82l101 10l12 -141q5 -56 18.5 -84.5t43.5 -40.5t89 -12q28 0 48.5 -21zM269 389v5l72 80h5l82 -73v-5l-72 -80h-5zM983 -14l81 -71v-5l-71 -79h-5
l-65 58l-69 -76h-5l-81 72v5l71 78h5l65 -58l69 76h5z" />
    <glyph glyph-name="uniFC95" unicode="&#xfc95;" horiz-adv-x="971" arabic-form="final" 
d="M118.5 -208.5q-76.5 69.5 -76.5 191.5q0 63 19 137.5t57 170.5l95 -36q-26 -78 -40 -144t-15 -109q0 -66 46 -102t153 -36q73 0 129 15t87 37t31 41t-24 30.5t-95 26.5q-81 16 -115 41.5t-34 65.5q0 68 49 135q55 78 152.5 125.5t194.5 47.5q42 0 68 -24t29 -64
q2 -34 7 -56q12 -143 135 -143q28 0 48.5 -21t20.5 -50t-20.5 -50.5t-48.5 -21.5q-120 0 -181 65t-73 166q-2 12 -4 38q-1 15 -4.5 20.5t-13.5 5.5q-51 0 -111 -28t-94 -67q-12 -13 -12 -25q0 -10 10.5 -16t42.5 -13q71 -14 113 -30.5t64.5 -44.5t23.5 -73v-9
q0 -74 -42.5 -134.5t-128 -96.5t-208.5 -36q-158 1 -234.5 70.5zM906 -180l79 -70v-4l-69 -78h-5l-64 57l-68 -75h-4l-80 71v4l70 77h4l64 -56l68 74h5z" />
    <glyph glyph-name="uniFC9A" unicode="&#xfc9a;" horiz-adv-x="571" arabic-form="initial" 
d="M328.5 246q-79.5 -39 -123.5 -105q111 -8 177 -70.5t66 -169.5q0 -101 -52 -158.5t-138 -57.5q-65 0 -115 34t-77.5 97.5t-27.5 150.5q0 21 1 32h-39q-28 0 -48.5 21.5t-20.5 50.5t20.5 50t48.5 21h72q51 124 168 198.5t271 78.5v-129q-103 -5 -182.5 -44zM156 -1
q-1 -9 -1 -28q0 -73 29 -111t79 -38q35 0 55.5 20t20.5 59q0 50 -43 74t-119 24h-21zM502 537l-290 -66l-2 63l57 13q-14 28 -14 63q0 56 29 93.5t75 37.5q54 0 101 -51l-32 -45q-20 13 -32.5 18.5t-27.5 5.5q-22 0 -35.5 -14.5t-15.5 -38.5q0 -28 18 -54l165 38z" />
    <glyph glyph-name="uniFC9F" unicode="&#xfc9f;" horiz-adv-x="571" arabic-form="initial" 
d="M382 70.5q66 -62.5 66 -169.5q0 -101 -52 -158.5t-138 -57.5q-65 0 -115 34t-77.5 97.5t-27.5 150.5q0 21 1 32h-39q-28 0 -48.5 21.5t-20.5 50.5t20.5 50t48.5 21h72q51 124 168 198.5t271 78.5v-129q-103 -5 -182.5 -44t-123.5 -105q111 -8 177 -70.5zM318.5 -158
q20.5 20 20.5 59q0 50 -43 74t-119 24h-21q-1 -9 -1 -28q0 -73 29 -111t79 -38q35 0 55.5 20zM569 -111l86 -76v-5l-76 -84h-4l-86 77v5l75 83h5z" />
    <glyph glyph-name="uniFCA4" unicode="&#xfca4;" horiz-adv-x="732" arabic-form="initial" 
d="M328.5 246q-79.5 -39 -123.5 -105q111 -8 177 -70.5t66 -169.5q0 -101 -52 -158.5t-138 -57.5q-65 0 -115 34t-77.5 97.5t-27.5 150.5q0 21 1 32h-39q-28 0 -48.5 21.5t-20.5 50.5t20.5 50t48.5 21h72q51 124 168 198.5t271 78.5v-129q-103 -5 -182.5 -44zM156 -1
q-1 -9 -1 -28q0 -73 29 -111t79 -38q35 0 55.5 20t20.5 59q0 50 -43 74t-119 24h-21zM393 675l81 -71v-5l-71 -79h-5l-65 58l-69 -76h-5l-81 72v5l71 78h5l65 -58l69 76h5z" />
    <glyph glyph-name="uniFCA6" unicode="&#xfca6;" horiz-adv-x="571" arabic-form="initial" 
d="M328.5 246q-79.5 -39 -123.5 -105q111 -8 177 -70.5t66 -169.5q0 -101 -52 -158.5t-138 -57.5q-65 0 -115 34t-77.5 97.5t-27.5 150.5q0 21 1 32h-39q-28 0 -48.5 21.5t-20.5 50.5t20.5 50t48.5 21h72q51 124 168 198.5t271 78.5v-129q-103 -5 -182.5 -44zM156 -1
q-1 -9 -1 -28q0 -73 29 -111t79 -38q35 0 55.5 20t20.5 59q0 50 -43 74t-119 24h-21zM335 656h-4l-75 67v4l65 72h4l76 -66v-4zM406 671l79 -70v-4l-69 -78h-5l-65 58l-67 -75h-4l-80 70v5l70 76h4l65 -57l67 75h5z" />
    <glyph glyph-name="uniFCB0" unicode="&#xfcb0;" horiz-adv-x="1237" arabic-form="initial" 
d="M1152 52.5q-44 -53.5 -128 -53.5q-85 0 -156 65q-32 -31 -81 -48t-108 -17q-112 0 -170 64t-69 164q-1 11 -4 38q-1 16 -5 22t-13 6q-34 0 -75.5 -21t-77.5 -58.5t-55 -84.5q10 -2 22 -4q98 -25 157 -80.5t59 -143.5q0 -101 -52 -158.5t-138 -57.5q-70 0 -119.5 38
t-74 104.5t-25.5 149.5l1 22h-40q-28 0 -48.5 21.5t-20.5 50.5t20.5 50t48.5 21h78q30 82 91.5 147t138.5 101t151 37q40 0 62.5 -22.5t25.5 -63.5q5 -52 6 -59q9 -71 43 -105.5t95 -34.5q38 0 68.5 11.5t43.5 31.5q16 21 21.5 54t10.5 114l95 -4l-1 -38q-1 -43 -2.5 -80
t-5.5 -60q24 -15 51.5 -22t50.5 -7q31 0 46.5 14.5t15.5 46.5q-1 44 -34 203l116 39q26 -149 28 -229q1 -110 -43 -163.5zM300.5 -30q-38.5 22 -111.5 28q-10 1 -31 1q-1 -5 -1 -15q-1 -8 -1 -24q0 -62 28.5 -100t79.5 -38q34 0 54.5 20t20.5 59q0 47 -38.5 69z" />
    <glyph glyph-name="uniFCB3" unicode="&#xfcb3;" horiz-adv-x="1216" arabic-form="initial" 
d="M-48.5 121q20.5 21 48.5 21h78q30 82 91.5 147t138.5 101t151 37q41 0 64.5 -23t23.5 -63q0 -33 2 -49q4 -40 18.5 -68.5t44.5 -45.5q34 117 77 186t98 99t128 30q82 0 141.5 -41.5t90 -115t26.5 -165.5q-2 -57 -54.5 -96.5t-135.5 -59t-176 -19.5q-195 0 -278.5 62
t-91.5 176q-2 28 -2 38q0 11 -4 15.5t-14 4.5q-34 0 -75 -21t-77 -58t-54 -84l12 -1q65 0 116.5 -30.5t80 -82.5t28.5 -114q0 -101 -52 -158.5t-138 -57.5q-67 0 -117 35t-76 95.5t-27 137.5q0 16 2 46h-40q-28 0 -48.5 21.5t-20.5 50.5t20.5 50zM814 139q97 0 171 16.5
t77 43.5q2 8 -1 24t-9 27q-9 50 -43 77.5t-94 27.5q-72 0 -121.5 -45.5t-82.5 -161.5q35 -9 103 -9zM155 -35q0 -64 28.5 -103.5t80.5 -39.5q34 0 54.5 20t20.5 59q0 49 -43.5 73.5t-119.5 24.5h-18q-3 -18 -3 -34z" />
    <glyph glyph-name="uniFCB7" unicode="&#xfcb7;" horiz-adv-x="1216" arabic-form="initial" 
d="M-48.5 121q20.5 21 48.5 21h78q30 82 91.5 147t138.5 101t151 37q41 0 64.5 -23t23.5 -63q0 -33 2 -49q4 -40 18.5 -68.5t44.5 -45.5q34 117 77 186t98 99t128 30q82 0 141.5 -41.5t90 -115t26.5 -165.5q-2 -57 -54.5 -96.5t-135.5 -59t-176 -19.5q-195 0 -278.5 62
t-91.5 176q-2 28 -2 38q0 11 -4 15.5t-14 4.5q-34 0 -75 -21t-77 -58t-54 -84l12 -1q65 0 116.5 -30.5t80 -82.5t28.5 -114q0 -101 -52 -158.5t-138 -57.5q-67 0 -117 35t-76 95.5t-27 137.5q0 16 2 46h-40q-28 0 -48.5 21.5t-20.5 50.5t20.5 50zM814 139q97 0 171 16.5
t77 43.5q2 8 -1 24t-9 27q-9 50 -43 77.5t-94 27.5q-72 0 -121.5 -45.5t-82.5 -161.5q35 -9 103 -9zM155 -35q0 -64 28.5 -103.5t80.5 -39.5q34 0 54.5 20t20.5 59q0 49 -43.5 73.5t-119.5 24.5h-18q-3 -18 -3 -34zM803 644v5l72 80h5l82 -73v-5l-72 -80h-5z" />
    <glyph glyph-name="uniFCD5" unicode="&#xfcd5;" horiz-adv-x="571" arabic-form="initial" 
d="M328.5 246q-79.5 -39 -123.5 -105q111 -8 177 -70.5t66 -169.5q0 -101 -52 -158.5t-138 -57.5q-65 0 -115 34t-77.5 97.5t-27.5 150.5q0 21 1 32h-39q-28 0 -48.5 21.5t-20.5 50.5t20.5 50t48.5 21h72q51 124 168 198.5t271 78.5v-129q-103 -5 -182.5 -44zM156 -1
q-1 -9 -1 -28q0 -73 29 -111t79 -38q35 0 55.5 20t20.5 59q0 50 -43 74t-119 24h-21zM234 550v5l72 80h5l82 -73v-5l-72 -80h-5z" />
    <glyph glyph-name="uniFCDD" unicode="&#xfcdd;" horiz-adv-x="571" arabic-form="initial" 
d="M328.5 246q-79.5 -39 -123.5 -105q111 -8 177 -70.5t66 -169.5q0 -101 -52 -158.5t-138 -57.5q-65 0 -115 34t-77.5 97.5t-27.5 150.5q0 21 1 32h-39q-28 0 -48.5 21.5t-20.5 50.5t20.5 50t48.5 21h72q51 124 168 198.5t271 78.5v-129q-103 -5 -182.5 -44zM156 -1
q-1 -9 -1 -28q0 -73 29 -111t79 -38q35 0 55.5 20t20.5 59q0 50 -43 74t-119 24h-21zM600 -258l79 -70v-4l-69 -78h-5l-64 57l-68 -75h-4l-80 71v4l70 77h4l64 -56l68 74h5z" />
    <glyph glyph-name="uniFCDF" unicode="&#xfcdf;" horiz-adv-x="734" arabic-form="medial" 
d="M-48.5 121q20.5 21 48.5 21h78q30 84 95 148.5t150 100t172 35.5q40 0 63.5 -23t23.5 -62q0 -33 1 -48q4 -68 40 -109.5t111 -41.5q28 0 48.5 -21t20.5 -50t-20.5 -50.5t-48.5 -21.5q-130 1 -192.5 65t-69.5 167q-2 15 -2 38q0 13 -6 17t-20 3q-65 -4 -131 -46t-95 -107
h12q64 0 113.5 -30t77 -83.5t27.5 -121.5q0 -101 -52 -158.5t-138 -57.5q-66 0 -116 33.5t-77.5 92t-27.5 131.5q0 13 2 39q1 6 1 18h-40q-28 0 -48.5 21.5t-20.5 50.5t20.5 50zM155 -39q3 -63 30.5 -100.5t78.5 -37.5q34 0 54.5 20t20.5 58q0 51 -42.5 74.5t-112.5 23.5
h-26q-4 -26 -3 -38zM502 548l-290 -66l-2 63l57 13q-14 28 -14 63q0 56 29 93.5t75 37.5q54 0 101 -51l-32 -45q-20 13 -32.5 18.5t-27.5 5.5q-22 0 -35.5 -14.5t-15.5 -38.5q0 -28 18 -54l165 38z" />
    <glyph glyph-name="uniFCE1" unicode="&#xfce1;" horiz-adv-x="734" arabic-form="medial" 
d="M-48.5 121q20.5 21 48.5 21h78q30 84 95 148.5t150 100t172 35.5q40 0 63.5 -23t23.5 -62q0 -33 1 -48q4 -68 40 -109.5t111 -41.5q28 0 48.5 -21t20.5 -50t-20.5 -50.5t-48.5 -21.5q-130 1 -192.5 65t-69.5 167q-2 15 -2 38q0 13 -6 17t-20 3q-65 -4 -131 -46t-95 -107
h12q64 0 113.5 -30t77 -83.5t27.5 -121.5q0 -101 -52 -158.5t-138 -57.5q-66 0 -116 33.5t-77.5 92t-27.5 131.5q0 13 2 39q1 6 1 18h-40q-28 0 -48.5 21.5t-20.5 50.5t20.5 50zM155 -39q3 -63 30.5 -100.5t78.5 -37.5q34 0 54.5 20t20.5 58q0 51 -42.5 74.5t-112.5 23.5
h-26q-4 -26 -3 -38zM502 -199v5l75 83h5l86 -76v-4l-76 -84h-4z" />
    <glyph glyph-name="uniFCE3" unicode="&#xfce3;" horiz-adv-x="734" arabic-form="medial" 
d="M-48.5 121q20.5 21 48.5 21h78q30 84 95 148.5t150 100t172 35.5q40 0 63.5 -23t23.5 -62q0 -33 1 -48q4 -68 40 -109.5t111 -41.5q28 0 48.5 -21t20.5 -50t-20.5 -50.5t-48.5 -21.5q-130 1 -192.5 65t-69.5 167q-2 15 -2 38q0 13 -6 17t-20 3q-65 -4 -131 -46t-95 -107
h12q64 0 113.5 -30t77 -83.5t27.5 -121.5q0 -101 -52 -158.5t-138 -57.5q-66 0 -116 33.5t-77.5 92t-27.5 131.5q0 13 2 39q1 6 1 18h-40q-28 0 -48.5 21.5t-20.5 50.5t20.5 50zM155 -39q3 -63 30.5 -100.5t78.5 -37.5q34 0 54.5 20t20.5 58q0 51 -42.5 74.5t-112.5 23.5
h-26q-4 -26 -3 -38zM393 675l81 -71v-5l-71 -79h-5l-65 58l-69 -76h-5l-81 72v5l71 78h5l65 -58l69 76h5z" />
    <glyph glyph-name="uniFCE5" unicode="&#xfce5;" horiz-adv-x="734" arabic-form="medial" 
d="M-48.5 121q20.5 21 48.5 21h78q30 84 95 148.5t150 100t172 35.5q40 0 63.5 -23t23.5 -62q0 -33 1 -48q4 -68 40 -109.5t111 -41.5q28 0 48.5 -21t20.5 -50t-20.5 -50.5t-48.5 -21.5q-130 1 -192.5 65t-69.5 167q-2 15 -2 38q0 13 -6 17t-20 3q-65 -4 -131 -46t-95 -107
h12q64 0 113.5 -30t77 -83.5t27.5 -121.5q0 -101 -52 -158.5t-138 -57.5q-66 0 -116 33.5t-77.5 92t-27.5 131.5q0 13 2 39q1 6 1 18h-40q-28 0 -48.5 21.5t-20.5 50.5t20.5 50zM155 -39q3 -63 30.5 -100.5t78.5 -37.5q34 0 54.5 20t20.5 58q0 51 -42.5 74.5t-112.5 23.5
h-26q-4 -26 -3 -38zM341 656h-4l-75 67v4l65 72h4l76 -66v-4zM412 671l79 -70v-4l-69 -78h-5l-65 58l-67 -75h-4l-80 70v5l70 76h4l65 -57l67 75h5z" />
    <glyph glyph-name="uniFCE7" unicode="&#xfce7;" horiz-adv-x="1348" arabic-form="medial" 
d="M1396.5 121q20.5 -21 20.5 -50t-20.5 -50.5t-48.5 -21.5q-134 0 -194 66q-22 -32 -55 -48.5t-75 -16.5q-85 0 -156 65q-32 -32 -81 -48.5t-108 -16.5q-115 0 -173 66.5t-67 167.5q-2 11 -2 18.5t-1 12.5q-2 17 -6 22.5t-13 5.5q-34 0 -75 -21t-77 -58.5t-55 -84.5l23 -4
q98 -21 156.5 -78t58.5 -146q0 -100 -52 -157.5t-138 -57.5q-66 0 -116 33.5t-77.5 92t-27.5 131.5q0 12 2 40q1 6 1 17h-40q-28 0 -48.5 21.5t-20.5 50.5t20.5 49.5t48.5 20.5h78q30 83 92 148t140 101t151 36q40 0 62 -23t24 -63q2 -31 4 -46q13 -152 136 -152
q40 0 71.5 11.5t44.5 31.5q16 20 21.5 53t10.5 114l95 -3l-1 -38q-1 -43 -2.5 -80t-5.5 -60q24 -15 51.5 -22t50.5 -7q40 0 52 23q5 9 7 21.5t2 35.5q0 25 -1 42l-4 124l104 20l13 -130q6 -59 19.5 -87t43 -39t89.5 -11q28 0 48.5 -21zM298 -24.5q-41 24.5 -112 24.5h-28
q-2 -14 -2 -21q0 -71 27 -113.5t81 -42.5q34 0 54.5 20t20.5 59q0 49 -41 73.5z" />
    <glyph glyph-name="uniFCE9" unicode="&#xfce9;" horiz-adv-x="1348" arabic-form="medial" 
d="M1396.5 121q20.5 -21 20.5 -50t-20.5 -50.5t-48.5 -21.5q-134 0 -194 66q-22 -32 -55 -48.5t-75 -16.5q-85 0 -156 65q-32 -32 -81 -48.5t-108 -16.5q-115 0 -173 66.5t-67 167.5q-2 11 -2 18.5t-1 12.5q-2 17 -6 22.5t-13 5.5q-34 0 -75 -21t-77 -58.5t-55 -84.5l23 -4
q98 -21 156.5 -78t58.5 -146q0 -100 -52 -157.5t-138 -57.5q-66 0 -116 33.5t-77.5 92t-27.5 131.5q0 12 2 40q1 6 1 17h-40q-28 0 -48.5 21.5t-20.5 50.5t20.5 49.5t48.5 20.5h78q30 83 92 148t140 101t151 36q40 0 62 -23t24 -63q2 -31 4 -46q13 -152 136 -152
q40 0 71.5 11.5t44.5 31.5q16 20 21.5 53t10.5 114l95 -3l-1 -38q-1 -43 -2.5 -80t-5.5 -60q24 -15 51.5 -22t50.5 -7q40 0 52 23q5 9 7 21.5t2 35.5q0 25 -1 42l-4 124l104 20l13 -130q6 -59 19.5 -87t43 -39t89.5 -11q28 0 48.5 -21zM298 -24.5q-41 24.5 -112 24.5h-28
q-2 -14 -2 -21q0 -71 27 -113.5t81 -42.5q34 0 54.5 20t20.5 59q0 49 -41 73.5zM868 599h-4l-75 67v4l65 72h4l76 -66v-4zM939 614l79 -70v-4l-69 -78h-5l-65 58l-67 -75h-4l-80 70v5l70 76h4l65 -57l67 75h5z" />
    <glyph glyph-name="uniFCEE" unicode="&#xfcee;" horiz-adv-x="734" arabic-form="medial" 
d="M-48.5 121q20.5 21 48.5 21h78q30 84 95 148.5t150 100t172 35.5q40 0 63.5 -23t23.5 -62q0 -33 1 -48q4 -68 40 -109.5t111 -41.5q28 0 48.5 -21t20.5 -50t-20.5 -50.5t-48.5 -21.5q-130 1 -192.5 65t-69.5 167q-2 15 -2 38q0 13 -6 17t-20 3q-65 -4 -131 -46t-95 -107
h12q64 0 113.5 -30t77 -83.5t27.5 -121.5q0 -101 -52 -158.5t-138 -57.5q-66 0 -116 33.5t-77.5 92t-27.5 131.5q0 13 2 39q1 6 1 18h-40q-28 0 -48.5 21.5t-20.5 50.5t20.5 50zM155 -39q3 -63 30.5 -100.5t78.5 -37.5q34 0 54.5 20t20.5 58q0 51 -42.5 74.5t-112.5 23.5
h-26q-4 -26 -3 -38zM237 550v5l72 80h5l82 -73v-5l-72 -80h-5z" />
    <glyph glyph-name="uniFCF0" unicode="&#xfcf0;" horiz-adv-x="734" arabic-form="medial" 
d="M-48.5 121q20.5 21 48.5 21h78q30 84 95 148.5t150 100t172 35.5q40 0 63.5 -23t23.5 -62q0 -33 1 -48q4 -68 40 -109.5t111 -41.5q28 0 48.5 -21t20.5 -50t-20.5 -50.5t-48.5 -21.5q-130 1 -192.5 65t-69.5 167q-2 15 -2 38q0 13 -6 17t-20 3q-65 -4 -131 -46t-95 -107
h12q64 0 113.5 -30t77 -83.5t27.5 -121.5q0 -101 -52 -158.5t-138 -57.5q-66 0 -116 33.5t-77.5 92t-27.5 131.5q0 13 2 39q1 6 1 18h-40q-28 0 -48.5 21.5t-20.5 50.5t20.5 50zM155 -39q3 -63 30.5 -100.5t78.5 -37.5q34 0 54.5 20t20.5 58q0 51 -42.5 74.5t-112.5 23.5
h-26q-4 -26 -3 -38zM673 -174l79 -70v-4l-69 -78h-5l-64 57l-68 -75h-4l-80 71v4l70 77h4l64 -56l68 74h5z" />
    <glyph glyph-name="uniFCFB" unicode="&#xfcfb;" horiz-adv-x="1514" arabic-form="isolated" 
d="M1463.5 312.5q7.5 -62.5 7.5 -100.5q0 -213 -170 -213q-42 0 -82.5 17t-74.5 48q-31 -31 -79.5 -48t-106.5 -17q-120 0 -178.5 64.5t-75.5 169.5q-4 17 -7 37q-2 14 -7 19t-15 5q-37 0 -92 -28t-96 -67q-13 -14 -13 -25q0 -10 10.5 -16t43.5 -13q104 -18 153 -50t52 -98
q0 -18 -1 -28q-5 -69 -49.5 -125.5t-128 -89.5t-200.5 -33q-159 1 -235.5 70.5t-76.5 191.5q0 62 19 136.5t57 171.5l96 -36q-27 -79 -41 -145t-14 -108q0 -67 45.5 -102.5t153.5 -35.5q72 0 128.5 15t87.5 37t31 41q0 18 -25 30t-97 27q-81 16 -115 41.5t-34 65.5
q0 69 48 135q37 51 94 90.5t120 61t116 21.5q79 0 97 -88l6 -44q16 -155 139 -155q44 0 77.5 11t47.5 32q16 21 21.5 54t10.5 114l95 -4l-1 -38q-1 -43 -2.5 -80t-5.5 -60q24 -15 51.5 -22t50.5 -7q32 0 47 13.5t15 45.5q0 25 -7.5 71t-25.5 134l115 39q13 -70 20.5 -132.5z
" />
    <glyph glyph-name="uniFCFC" unicode="&#xfcfc;" horiz-adv-x="1514" arabic-form="isolated" 
d="M1463.5 312.5q7.5 -62.5 7.5 -100.5q0 -213 -170 -213q-42 0 -82.5 17t-74.5 48q-31 -31 -79.5 -48t-106.5 -17q-120 0 -178.5 64.5t-75.5 169.5q-4 17 -7 37q-2 14 -7 19t-15 5q-37 0 -92 -28t-96 -67q-13 -14 -13 -25q0 -10 10.5 -16t43.5 -13q104 -18 153 -50t52 -98
q0 -18 -1 -28q-5 -69 -49.5 -125.5t-128 -89.5t-200.5 -33q-159 1 -235.5 70.5t-76.5 191.5q0 62 19 136.5t57 171.5l96 -36q-27 -79 -41 -145t-14 -108q0 -67 45.5 -102.5t153.5 -35.5q72 0 128.5 15t87.5 37t31 41q0 18 -25 30t-97 27q-81 16 -115 41.5t-34 65.5
q0 69 48 135q37 51 94 90.5t120 61t116 21.5q79 0 97 -88l6 -44q16 -155 139 -155q44 0 77.5 11t47.5 32q16 21 21.5 54t10.5 114l95 -4l-1 -38q-1 -43 -2.5 -80t-5.5 -60q24 -15 51.5 -22t50.5 -7q32 0 47 13.5t15 45.5q0 25 -7.5 71t-25.5 134l115 39q13 -70 20.5 -132.5z
M455 -335l79 -70v-4l-69 -78h-5l-64 57l-68 -75h-4l-80 71v4l70 77h4l64 -56l68 74h5z" />
    <glyph glyph-name="uniFCFD" unicode="&#xfcfd;" horiz-adv-x="1514" arabic-form="isolated" 
d="M1463.5 312.5q7.5 -62.5 7.5 -100.5q0 -213 -170 -213q-42 0 -82.5 17t-74.5 48q-31 -31 -79.5 -48t-106.5 -17q-120 0 -178.5 64.5t-75.5 169.5q-4 17 -7 37q-2 14 -7 19t-15 5q-37 0 -92 -28t-96 -67q-13 -14 -13 -25q0 -10 10.5 -16t43.5 -13q104 -18 153 -50t52 -98
q0 -18 -1 -28q-5 -69 -49.5 -125.5t-128 -89.5t-200.5 -33q-159 1 -235.5 70.5t-76.5 191.5q0 62 19 136.5t57 171.5l96 -36q-27 -79 -41 -145t-14 -108q0 -67 45.5 -102.5t153.5 -35.5q72 0 128.5 15t87.5 37t31 41q0 18 -25 30t-97 27q-81 16 -115 41.5t-34 65.5
q0 69 48 135q37 51 94 90.5t120 61t116 21.5q79 0 97 -88l6 -44q16 -155 139 -155q44 0 77.5 11t47.5 32q16 21 21.5 54t10.5 114l95 -4l-1 -38q-1 -43 -2.5 -80t-5.5 -60q24 -15 51.5 -22t50.5 -7q32 0 47 13.5t15 45.5q0 25 -7.5 71t-25.5 134l115 39q13 -70 20.5 -132.5z
M1147 599h-4l-75 67v4l65 72h4l76 -66v-4zM1218 614l79 -70v-4l-69 -78h-5l-65 58l-67 -75h-4l-80 70v5l70 76h4l65 -57l67 75h5z" />
    <glyph glyph-name="uniFCFE" unicode="&#xfcfe;" horiz-adv-x="1514" arabic-form="isolated" 
d="M1463.5 312.5q7.5 -62.5 7.5 -100.5q0 -213 -170 -213q-42 0 -82.5 17t-74.5 48q-31 -31 -79.5 -48t-106.5 -17q-120 0 -178.5 64.5t-75.5 169.5q-4 17 -7 37q-2 14 -7 19t-15 5q-37 0 -92 -28t-96 -67q-13 -14 -13 -25q0 -10 10.5 -16t43.5 -13q104 -18 153 -50t52 -98
q0 -18 -1 -28q-5 -69 -49.5 -125.5t-128 -89.5t-200.5 -33q-159 1 -235.5 70.5t-76.5 191.5q0 62 19 136.5t57 171.5l96 -36q-27 -79 -41 -145t-14 -108q0 -67 45.5 -102.5t153.5 -35.5q72 0 128.5 15t87.5 37t31 41q0 18 -25 30t-97 27q-81 16 -115 41.5t-34 65.5
q0 69 48 135q37 51 94 90.5t120 61t116 21.5q79 0 97 -88l6 -44q16 -155 139 -155q44 0 77.5 11t47.5 32q16 21 21.5 54t10.5 114l95 -4l-1 -38q-1 -43 -2.5 -80t-5.5 -60q24 -15 51.5 -22t50.5 -7q32 0 47 13.5t15 45.5q0 25 -7.5 71t-25.5 134l115 39q13 -70 20.5 -132.5z
M1147 599h-4l-75 67v4l65 72h4l76 -66v-4zM1218 614l79 -70v-4l-69 -78h-5l-65 58l-67 -75h-4l-80 70v5l70 76h4l65 -57l67 75h5zM457 -334l79 -70v-4l-69 -78h-5l-64 57l-68 -75h-4l-80 71v4l70 77h4l64 -56l68 74h5z" />
    <glyph glyph-name="uniFCFF" unicode="&#xfcff;" horiz-adv-x="1148" arabic-form="isolated" 
d="M61 122.5q19 74.5 57 170.5l96 -36q-27 -79 -41 -145t-14 -108q0 -67 44 -102.5t151 -35.5q74 0 130.5 15t86.5 38.5t30 48.5q0 21 -31 31q-8 2 -56 11q-5 1 -101 17l-19 2l26 126h24q97 0 176.5 23.5t167.5 70.5l32 17q31 19 64 33q-36 18 -71 38q-61 31 -90 42.5
t-56 11.5q-38 0 -65 -27t-63 -87l-79 50q42 102 93.5 151t108.5 49q40 0 86.5 -17t116.5 -52q6 -3 38 -20l56 -28q54 -25 85 -36.5t62 -18.5l-30 -123l-48 2q-23 0 -39 -4.5t-36 -16.5q-14 -7 -57 -34l-53 -31q-50 -29 -87.5 -48t-75.5 -32q48 -28 48 -85q0 -75 -48 -134.5
t-133.5 -92.5t-194.5 -33q-158 0 -234 69.5t-76 192.5q0 63 19 137.5z" />
    <glyph glyph-name="uniFD01" unicode="&#xfd01;" horiz-adv-x="1148" arabic-form="isolated" 
d="M61 122.5q19 74.5 57 170.5l96 -36q-27 -79 -41 -145t-14 -108q0 -67 44 -102.5t151 -35.5q74 0 130.5 15t86.5 38.5t30 48.5q0 21 -31 31q-8 2 -56 11q-5 1 -101 17l-19 2l26 126h24q97 0 176.5 23.5t167.5 70.5l32 17q31 19 64 33q-36 18 -71 38q-61 31 -90 42.5
t-56 11.5q-38 0 -65 -27t-63 -87l-79 50q42 102 93.5 151t108.5 49q40 0 86.5 -17t116.5 -52q6 -3 38 -20l56 -28q54 -25 85 -36.5t62 -18.5l-30 -123l-48 2q-23 0 -39 -4.5t-36 -16.5q-14 -7 -57 -34l-53 -31q-50 -29 -87.5 -48t-75.5 -32q48 -28 48 -85q0 -75 -48 -134.5
t-133.5 -92.5t-194.5 -33q-158 0 -234 69.5t-76 192.5q0 63 19 137.5zM817 -85v5l72 80h5l82 -73v-5l-72 -80h-5z" />
    <glyph glyph-name="uniFD03" unicode="&#xfd03;" horiz-adv-x="1148" arabic-form="isolated" 
d="M61 122.5q19 74.5 57 170.5l96 -36q-27 -79 -41 -145t-14 -108q0 -67 44 -102.5t151 -35.5q74 0 130.5 15t86.5 38.5t30 48.5q0 21 -31 31q-8 2 -56 11q-5 1 -101 17l-19 2l26 126h24q97 0 176.5 23.5t167.5 70.5l32 17q31 19 64 33q-36 18 -71 38q-61 31 -90 42.5
t-56 11.5q-38 0 -65 -27t-63 -87l-79 50q42 102 93.5 151t108.5 49q40 0 86.5 -17t116.5 -52q6 -3 38 -20l56 -28q54 -25 85 -36.5t62 -18.5l-30 -123l-48 2q-23 0 -39 -4.5t-36 -16.5q-14 -7 -57 -34l-53 -31q-50 -29 -87.5 -48t-75.5 -32q48 -28 48 -85q0 -75 -48 -134.5
t-133.5 -92.5t-194.5 -33q-158 0 -234 69.5t-76 192.5q0 63 19 137.5zM578 669v5l72 80h5l82 -73v-5l-72 -80h-5z" />
    <glyph glyph-name="uniFD05" unicode="&#xfd05;" horiz-adv-x="1474" arabic-form="isolated" 
d="M118.5 -208.5q-76.5 69.5 -76.5 191.5q0 62 19 136.5t57 171.5l96 -36q-27 -79 -41 -145t-14 -108q0 -67 45.5 -102.5t153.5 -35.5q72 0 128.5 15t87.5 37t31 41q0 18 -26.5 30.5t-95.5 26.5q-81 16 -115 41.5t-34 65.5q0 69 50 137q37 50 93.5 89t119 60.5t115.5 21.5
q42 0 69.5 -24.5t27.5 -63.5q0 -23 1 -36q2 -45 15.5 -76.5t44.5 -50.5q34 117 77 186t97.5 98.5t127.5 29.5q82 0 141.5 -41.5t90 -115t27.5 -165.5q-2 -57 -55 -96.5t-136 -59t-176 -19.5q-195 0 -275 66t-90 178q-2 11 -2 33t-22 22q-36 0 -89 -26.5t-96 -65.5
q-16 -16 -16 -28q0 -10 10.5 -16t43.5 -13q104 -19 154.5 -52.5t51.5 -100.5q0 -7 -2 -23q-5 -70 -49.5 -126t-128 -89t-200.5 -33q-159 1 -235.5 70.5zM1241.5 154.5q73.5 16.5 77.5 43.5q1 4 1 15q0 23 -7.5 47t-18.5 41q-34 53 -122 53q-72 0 -121.5 -44.5t-82.5 -162.5
q35 -9 103 -9q97 0 170.5 16.5z" />
    <glyph glyph-name="uniFD06" unicode="&#xfd06;" horiz-adv-x="1474" arabic-form="isolated" 
d="M118.5 -208.5q-76.5 69.5 -76.5 191.5q0 62 19 136.5t57 171.5l96 -36q-27 -79 -41 -145t-14 -108q0 -67 45.5 -102.5t153.5 -35.5q72 0 128.5 15t87.5 37t31 41q0 18 -26.5 30.5t-95.5 26.5q-81 16 -115 41.5t-34 65.5q0 69 50 137q37 50 93.5 89t119 60.5t115.5 21.5
q42 0 69.5 -24.5t27.5 -63.5q0 -23 1 -36q2 -45 15.5 -76.5t44.5 -50.5q34 117 77 186t97.5 98.5t127.5 29.5q82 0 141.5 -41.5t90 -115t27.5 -165.5q-2 -57 -55 -96.5t-136 -59t-176 -19.5q-195 0 -275 66t-90 178q-2 11 -2 33t-22 22q-36 0 -89 -26.5t-96 -65.5
q-16 -16 -16 -28q0 -10 10.5 -16t43.5 -13q104 -19 154.5 -52.5t51.5 -100.5q0 -7 -2 -23q-5 -70 -49.5 -126t-128 -89t-200.5 -33q-159 1 -235.5 70.5zM1241.5 154.5q73.5 16.5 77.5 43.5q1 4 1 15q0 23 -7.5 47t-18.5 41q-34 53 -122 53q-72 0 -121.5 -44.5t-82.5 -162.5
q35 -9 103 -9q97 0 170.5 16.5zM412 -329l79 -70v-4l-69 -78h-5l-64 57l-68 -75h-4l-80 71v4l70 77h4l64 -56l68 74h5z" />
    <glyph glyph-name="uniFD07" unicode="&#xfd07;" horiz-adv-x="1474" arabic-form="isolated" 
d="M118.5 -208.5q-76.5 69.5 -76.5 191.5q0 62 19 136.5t57 171.5l96 -36q-27 -79 -41 -145t-14 -108q0 -67 45.5 -102.5t153.5 -35.5q72 0 128.5 15t87.5 37t31 41q0 18 -26.5 30.5t-95.5 26.5q-81 16 -115 41.5t-34 65.5q0 69 50 137q37 50 93.5 89t119 60.5t115.5 21.5
q42 0 69.5 -24.5t27.5 -63.5q0 -23 1 -36q2 -45 15.5 -76.5t44.5 -50.5q34 117 77 186t97.5 98.5t127.5 29.5q82 0 141.5 -41.5t90 -115t27.5 -165.5q-2 -57 -55 -96.5t-136 -59t-176 -19.5q-195 0 -275 66t-90 178q-2 11 -2 33t-22 22q-36 0 -89 -26.5t-96 -65.5
q-16 -16 -16 -28q0 -10 10.5 -16t43.5 -13q104 -19 154.5 -52.5t51.5 -100.5q0 -7 -2 -23q-5 -70 -49.5 -126t-128 -89t-200.5 -33q-159 1 -235.5 70.5zM1241.5 154.5q73.5 16.5 77.5 43.5q1 4 1 15q0 23 -7.5 47t-18.5 41q-34 53 -122 53q-72 0 -121.5 -44.5t-82.5 -162.5
q35 -9 103 -9q97 0 170.5 16.5zM1043 644v5l72 80h5l82 -73v-5l-72 -80h-5z" />
    <glyph glyph-name="uniFD08" unicode="&#xfd08;" horiz-adv-x="1474" arabic-form="isolated" 
d="M118.5 -208.5q-76.5 69.5 -76.5 191.5q0 62 19 136.5t57 171.5l96 -36q-27 -79 -41 -145t-14 -108q0 -67 45.5 -102.5t153.5 -35.5q72 0 128.5 15t87.5 37t31 41q0 18 -26.5 30.5t-95.5 26.5q-81 16 -115 41.5t-34 65.5q0 69 50 137q37 50 93.5 89t119 60.5t115.5 21.5
q42 0 69.5 -24.5t27.5 -63.5q0 -23 1 -36q2 -45 15.5 -76.5t44.5 -50.5q34 117 77 186t97.5 98.5t127.5 29.5q82 0 141.5 -41.5t90 -115t27.5 -165.5q-2 -57 -55 -96.5t-136 -59t-176 -19.5q-195 0 -275 66t-90 178q-2 11 -2 33t-22 22q-36 0 -89 -26.5t-96 -65.5
q-16 -16 -16 -28q0 -10 10.5 -16t43.5 -13q104 -19 154.5 -52.5t51.5 -100.5q0 -7 -2 -23q-5 -70 -49.5 -126t-128 -89t-200.5 -33q-159 1 -235.5 70.5zM1241.5 154.5q73.5 16.5 77.5 43.5q1 4 1 15q0 23 -7.5 47t-18.5 41q-34 53 -122 53q-72 0 -121.5 -44.5t-82.5 -162.5
q35 -9 103 -9q97 0 170.5 16.5zM422 -337l79 -70v-4l-69 -78h-5l-64 57l-68 -75h-4l-80 71v4l70 77h4l64 -56l68 74h5zM1043 644v5l72 80h5l82 -73v-5l-72 -80h-5z" />
    <glyph glyph-name="uniFD0C" unicode="&#xfd0c;" horiz-adv-x="1500" arabic-form="isolated" 
d="M1286 -1q-42 0 -82 17t-73 48q-31 -31 -77.5 -48t-103.5 -17q-105 0 -174.5 62.5t-78.5 191.5q-1 11 -1 32q0 26 -5 33.5t-24 7.5q-60 0 -126 -18q52 -34 81.5 -89.5t29.5 -126.5t-25 -125t-69.5 -83.5t-101.5 -29.5q-61 0 -108.5 33t-74 89.5t-26.5 123.5q0 45 10 90
q-45 -22 -71 -63t-26 -104v-306l-118 -17v318q0 95 43 167.5t113.5 114.5t153.5 49q66 59 157 85.5t180 26.5q57 0 86.5 -24.5t32.5 -66.5q0 -16 2 -48q4 -92 38.5 -136t101.5 -44q41 0 71.5 11.5t43.5 31.5q10 14 15.5 29t9 45.5t8.5 93.5l94 -4q0 -57 -2 -103.5t-6 -75.5
q24 -14 51.5 -21t50.5 -7q31 0 46 13.5t15 44.5q0 48 -33 206l116 39q26 -149 28 -229q1 -217 -172 -217zM519 17.5q24 26.5 24 74.5q0 54 -41 87t-105 37q-33 -48 -33 -111q0 -49 26.5 -81.5t67.5 -32.5q37 0 61 26.5zM1132 592h-4l-75 67v4l65 72h4l76 -66v-4zM1203 607
l79 -70v-4l-69 -78h-5l-65 58l-67 -75h-4l-80 70v5l70 76h4l65 -57l67 75h5z" />
    <glyph glyph-name="uniFD0D" unicode="&#xfd0d;" horiz-adv-x="1438" arabic-form="isolated" 
d="M1228 -1q-42 0 -82 17t-73 48q-31 -31 -76.5 -48t-101.5 -17q-106 0 -176 61t-77 190q-2 20 -2 37q-2 26 -29 23q-71 -7 -130 -38.5t-55 -94.5q4 -50 4 -91q0 -32 -3 -59q-17 -142 -107 -214t-240 -73h-34l-4 114q10 0 30 2q110 8 168 53t67 134q2 30 2 44q0 32 -5 74
q-2 22 -2 31q0 92 57.5 148.5t140 80.5t160.5 24q40 0 62.5 -23.5t26.5 -65.5l4 -52q5 -162 139 -162q41 0 71.5 11.5t43.5 31.5q10 14 15 29t8.5 44.5t8.5 94.5l95 -4l-1 -37q-1 -44 -2.5 -81t-5.5 -60q24 -15 51.5 -22t50.5 -7q32 0 47 14t15 47q0 24 -7.5 68t-26.5 135
l116 39q12 -66 19.5 -127.5t8.5 -101.5q1 -217 -171 -217zM1088 599h-4l-75 67v4l65 72h4l76 -66v-4zM1159 614l79 -70v-4l-69 -78h-5l-65 58l-67 -75h-4l-80 70v5l70 76h4l65 -57l67 75h5z" />
    <glyph glyph-name="uniFD0E" unicode="&#xfd0e;" horiz-adv-x="1438" arabic-form="isolated" 
d="M1228 -1q-42 0 -82 17t-73 48q-31 -31 -76.5 -48t-101.5 -17q-106 0 -176 61t-77 190q-2 20 -2 37q-2 26 -29 23q-71 -7 -130 -38.5t-55 -94.5q4 -50 4 -91q0 -32 -3 -59q-17 -142 -107 -214t-240 -73h-34l-4 114q10 0 30 2q110 8 168 53t67 134q2 30 2 44q0 32 -5 74
q-2 22 -2 31q0 92 57.5 148.5t140 80.5t160.5 24q40 0 62.5 -23.5t26.5 -65.5l4 -52q5 -162 139 -162q41 0 71.5 11.5t43.5 31.5q10 14 15 29t8.5 44.5t8.5 94.5l95 -4l-1 -37q-1 -44 -2.5 -81t-5.5 -60q24 -15 51.5 -22t50.5 -7q32 0 47 14t15 47q0 24 -7.5 68t-26.5 135
l116 39q12 -66 19.5 -127.5t8.5 -101.5q1 -217 -171 -217z" />
    <glyph glyph-name="uniFD0F" unicode="&#xfd0f;" horiz-adv-x="1416" arabic-form="isolated" 
d="M46 -260l-4 114q18 0 26 1q103 10 154.5 38t71 85.5t19.5 165.5q0 97 15 139q19 54 74 90.5t124 54t131 17.5q42 0 65 -23.5t27 -65.5l4 -52q2 -45 16 -76t43 -51q34 118 77 187t98 99t129 30q81 0 140.5 -41.5t90 -115t26.5 -165.5q-2 -55 -54.5 -94.5t-135 -59.5
t-174.5 -21q-162 0 -260 54.5t-108 191.5q-2 13 -4 45q-2 26 -26 23q-62 -7 -113 -30t-60 -52q-7 -14 -7 -64l1 -75q0 -173 -93 -260.5t-259 -88.5h-34zM1015 139q97 0 170.5 16.5t76.5 43.5q1 2 1 9q0 25 -7 50.5t-19 43.5q-34 53 -121 53q-72 0 -122.5 -45.5t-83.5 -161.5
q32 -9 105 -9z" />
    <glyph glyph-name="uniFD10" unicode="&#xfd10;" horiz-adv-x="1416" arabic-form="isolated" 
d="M46 -260l-4 114q18 0 26 1q103 10 154.5 38t71 85.5t19.5 165.5q0 97 15 139q19 54 74 90.5t124 54t131 17.5q42 0 65 -23.5t27 -65.5l4 -52q2 -45 16 -76t43 -51q34 118 77 187t98 99t129 30q81 0 140.5 -41.5t90 -115t26.5 -165.5q-2 -55 -54.5 -94.5t-135 -59.5
t-174.5 -21q-162 0 -260 54.5t-108 191.5q-2 13 -4 45q-2 26 -26 23q-62 -7 -113 -30t-60 -52q-7 -14 -7 -64l1 -75q0 -173 -93 -260.5t-259 -88.5h-34zM1015 139q97 0 170.5 16.5t76.5 43.5q1 2 1 9q0 25 -7 50.5t-19 43.5q-34 53 -121 53q-72 0 -122.5 -45.5t-83.5 -161.5
q32 -9 105 -9zM1020 646v5l72 80h5l82 -73v-5l-72 -80h-5z" />
    <glyph glyph-name="uniFD17" unicode="&#xfd17;" horiz-adv-x="1624" arabic-form="final" 
d="M1672.5 121q20.5 -21 20.5 -50t-20.5 -50.5t-48.5 -21.5q-68 0 -115.5 16t-78.5 50q-45 -65 -130 -65t-156 65q-31 -31 -79.5 -48t-106.5 -17q-121 0 -182 65t-74 168l-5 38q-1 13 -6 18t-16 5q-38 0 -94.5 -29t-95.5 -69q-11 -11 -11 -21t10.5 -16t43.5 -13
q107 -19 156.5 -53t49.5 -102q0 -8 -2 -28q-7 -68 -52.5 -122.5t-128 -87t-197.5 -32.5q-159 1 -235.5 70.5t-76.5 192.5q0 62 19 136.5t57 170.5l96 -35q-27 -79 -41 -145t-14 -108q0 -67 45.5 -102.5t153.5 -35.5q72 0 128.5 15t87.5 37t31 41q0 18 -25 30t-97 27
q-81 16 -115 41.5t-34 64.5q0 69 47 134q36 51 93 91t120.5 62t117.5 22q42 0 69 -24t28 -64q2 -34 7 -61q8 -64 42 -101t96 -37q44 0 77.5 11t47.5 32q16 20 21.5 53t10.5 114l95 -3l-1 -38q-1 -43 -2.5 -80t-5.5 -60q24 -15 51.5 -22t50.5 -7q40 0 52 23q10 19 10 63
l-1 36l-4 124l103 20l13 -130q6 -59 19.5 -87t43 -39t89.5 -11q28 0 48.5 -21z" />
    <glyph glyph-name="uniFD18" unicode="&#xfd18;" horiz-adv-x="1624" arabic-form="final" 
d="M1672.5 121q20.5 -21 20.5 -50t-20.5 -50.5t-48.5 -21.5q-68 0 -115.5 16t-78.5 50q-45 -65 -130 -65t-156 65q-31 -31 -79.5 -48t-106.5 -17q-121 0 -182 65t-74 168l-5 38q-1 13 -6 18t-16 5q-38 0 -94.5 -29t-95.5 -69q-11 -11 -11 -21t10.5 -16t43.5 -13
q107 -19 156.5 -53t49.5 -102q0 -8 -2 -28q-7 -68 -52.5 -122.5t-128 -87t-197.5 -32.5q-159 1 -235.5 70.5t-76.5 192.5q0 62 19 136.5t57 170.5l96 -35q-27 -79 -41 -145t-14 -108q0 -67 45.5 -102.5t153.5 -35.5q72 0 128.5 15t87.5 37t31 41q0 18 -25 30t-97 27
q-81 16 -115 41.5t-34 64.5q0 69 47 134q36 51 93 91t120.5 62t117.5 22q42 0 69 -24t28 -64q2 -34 7 -61q8 -64 42 -101t96 -37q44 0 77.5 11t47.5 32q16 20 21.5 53t10.5 114l95 -3l-1 -38q-1 -43 -2.5 -80t-5.5 -60q24 -15 51.5 -22t50.5 -7q40 0 52 23q10 19 10 63
l-1 36l-4 124l103 20l13 -130q6 -59 19.5 -87t43 -39t89.5 -11q28 0 48.5 -21zM430 -340l79 -70v-4l-69 -78h-5l-64 57l-68 -75h-4l-80 71v4l70 77h4l64 -56l68 74h5z" />
    <glyph glyph-name="uniFD19" unicode="&#xfd19;" horiz-adv-x="1624" arabic-form="final" 
d="M1672.5 121q20.5 -21 20.5 -50t-20.5 -50.5t-48.5 -21.5q-68 0 -115.5 16t-78.5 50q-45 -65 -130 -65t-156 65q-31 -31 -79.5 -48t-106.5 -17q-121 0 -182 65t-74 168l-5 38q-1 13 -6 18t-16 5q-38 0 -94.5 -29t-95.5 -69q-11 -11 -11 -21t10.5 -16t43.5 -13
q107 -19 156.5 -53t49.5 -102q0 -8 -2 -28q-7 -68 -52.5 -122.5t-128 -87t-197.5 -32.5q-159 1 -235.5 70.5t-76.5 192.5q0 62 19 136.5t57 170.5l96 -35q-27 -79 -41 -145t-14 -108q0 -67 45.5 -102.5t153.5 -35.5q72 0 128.5 15t87.5 37t31 41q0 18 -25 30t-97 27
q-81 16 -115 41.5t-34 64.5q0 69 47 134q36 51 93 91t120.5 62t117.5 22q42 0 69 -24t28 -64q2 -34 7 -61q8 -64 42 -101t96 -37q44 0 77.5 11t47.5 32q16 20 21.5 53t10.5 114l95 -3l-1 -38q-1 -43 -2.5 -80t-5.5 -60q24 -15 51.5 -22t50.5 -7q40 0 52 23q10 19 10 63
l-1 36l-4 124l103 20l13 -130q6 -59 19.5 -87t43 -39t89.5 -11q28 0 48.5 -21zM1147 599h-4l-75 67v4l65 72h4l76 -66v-4zM1218 614l79 -70v-4l-69 -78h-5l-65 58l-67 -75h-4l-80 70v5l70 76h4l65 -57l67 75h5z" />
    <glyph glyph-name="uniFD1A" unicode="&#xfd1a;" horiz-adv-x="1624" arabic-form="final" 
d="M1672.5 121q20.5 -21 20.5 -50t-20.5 -50.5t-48.5 -21.5q-68 0 -115.5 16t-78.5 50q-45 -65 -130 -65t-156 65q-31 -31 -79.5 -48t-106.5 -17q-121 0 -182 65t-74 168l-5 38q-1 13 -6 18t-16 5q-38 0 -94.5 -29t-95.5 -69q-11 -11 -11 -21t10.5 -16t43.5 -13
q107 -19 156.5 -53t49.5 -102q0 -8 -2 -28q-7 -68 -52.5 -122.5t-128 -87t-197.5 -32.5q-159 1 -235.5 70.5t-76.5 192.5q0 62 19 136.5t57 170.5l96 -35q-27 -79 -41 -145t-14 -108q0 -67 45.5 -102.5t153.5 -35.5q72 0 128.5 15t87.5 37t31 41q0 18 -25 30t-97 27
q-81 16 -115 41.5t-34 64.5q0 69 47 134q36 51 93 91t120.5 62t117.5 22q42 0 69 -24t28 -64q2 -34 7 -61q8 -64 42 -101t96 -37q44 0 77.5 11t47.5 32q16 20 21.5 53t10.5 114l95 -3l-1 -38q-1 -43 -2.5 -80t-5.5 -60q24 -15 51.5 -22t50.5 -7q40 0 52 23q10 19 10 63
l-1 36l-4 124l103 20l13 -130q6 -59 19.5 -87t43 -39t89.5 -11q28 0 48.5 -21zM442 -332l79 -70v-4l-69 -78h-5l-64 57l-68 -75h-4l-80 71v4l70 77h4l64 -56l68 74h5zM1150 599h-4l-75 67v4l65 72h4l76 -66v-4zM1221 614l79 -70v-4l-69 -78h-5l-65 58l-67 -75h-4l-80 70v5
l70 76h4l65 -57l67 75h5z" />
    <glyph glyph-name="uniFD1B" unicode="&#xfd1b;" horiz-adv-x="1170" arabic-form="final" 
d="M1218.5 121q20.5 -21 20.5 -50t-20.5 -50.5t-48.5 -21.5q-113 0 -176 45.5t-82 144.5l-30 -18q-26 -16 -39 -23q-50 -29 -87.5 -48t-75.5 -32q48 -28 48 -85q0 -75 -48 -134.5t-133.5 -92.5t-194.5 -33q-158 0 -234 69.5t-76 192.5q0 63 19 137.5t57 170.5l96 -36
q-27 -79 -41 -145t-14 -108q0 -67 44 -102.5t151 -35.5q74 0 130.5 15t86.5 38.5t30 48.5q0 21 -31 31q-8 2 -56 11q-5 1 -101 17l-19 2l26 126h24q97 0 176.5 23.5t167.5 70.5l32 17q31 19 64 33q-36 18 -71 38q-61 31 -90 42.5t-56 11.5q-38 0 -65 -27t-63 -87l-79 50
q42 102 93.5 151t108.5 49q40 0 86.5 -17t116.5 -52q6 -3 38 -20l56 -28q54 -25 85 -36.5t62 -18.5l-30 -123l-48 2h-6q6 -38 21.5 -57.5t45 -27t81.5 -7.5q28 0 48.5 -21z" />
    <glyph glyph-name="uniFD1D" unicode="&#xfd1d;" horiz-adv-x="1170" arabic-form="final" 
d="M1218.5 121q20.5 -21 20.5 -50t-20.5 -50.5t-48.5 -21.5q-113 0 -176 45.5t-82 144.5l-30 -18q-26 -16 -39 -23q-50 -29 -87.5 -48t-75.5 -32q48 -28 48 -85q0 -75 -48 -134.5t-133.5 -92.5t-194.5 -33q-158 0 -234 69.5t-76 192.5q0 63 19 137.5t57 170.5l96 -36
q-27 -79 -41 -145t-14 -108q0 -67 44 -102.5t151 -35.5q74 0 130.5 15t86.5 38.5t30 48.5q0 21 -31 31q-8 2 -56 11q-5 1 -101 17l-19 2l26 126h24q97 0 176.5 23.5t167.5 70.5l32 17q31 19 64 33q-36 18 -71 38q-61 31 -90 42.5t-56 11.5q-38 0 -65 -27t-63 -87l-79 50
q42 102 93.5 151t108.5 49q40 0 86.5 -17t116.5 -52q6 -3 38 -20l56 -28q54 -25 85 -36.5t62 -18.5l-30 -123l-48 2h-6q6 -38 21.5 -57.5t45 -27t81.5 -7.5q28 0 48.5 -21zM808 -85v5l72 80h5l82 -73v-5l-72 -80h-5z" />
    <glyph glyph-name="uniFD1F" unicode="&#xfd1f;" horiz-adv-x="1170" arabic-form="final" 
d="M1218.5 121q20.5 -21 20.5 -50t-20.5 -50.5t-48.5 -21.5q-113 0 -176 45.5t-82 144.5l-30 -18q-26 -16 -39 -23q-50 -29 -87.5 -48t-75.5 -32q48 -28 48 -85q0 -75 -48 -134.5t-133.5 -92.5t-194.5 -33q-158 0 -234 69.5t-76 192.5q0 63 19 137.5t57 170.5l96 -36
q-27 -79 -41 -145t-14 -108q0 -67 44 -102.5t151 -35.5q74 0 130.5 15t86.5 38.5t30 48.5q0 21 -31 31q-8 2 -56 11q-5 1 -101 17l-19 2l26 126h24q97 0 176.5 23.5t167.5 70.5l32 17q31 19 64 33q-36 18 -71 38q-61 31 -90 42.5t-56 11.5q-38 0 -65 -27t-63 -87l-79 50
q42 102 93.5 151t108.5 49q40 0 86.5 -17t116.5 -52q6 -3 38 -20l56 -28q54 -25 85 -36.5t62 -18.5l-30 -123l-48 2h-6q6 -38 21.5 -57.5t45 -27t81.5 -7.5q28 0 48.5 -21zM578 669v5l72 80h5l82 -73v-5l-72 -80h-5z" />
    <glyph glyph-name="uniFD20" unicode="&#xfd20;" horiz-adv-x="1170" arabic-form="final" 
d="M1218.5 121q20.5 -21 20.5 -50t-20.5 -50.5t-48.5 -21.5q-113 0 -176 45.5t-82 144.5l-30 -18q-26 -16 -39 -23q-50 -29 -87.5 -48t-75.5 -32q48 -28 48 -85q0 -75 -48 -134.5t-133.5 -92.5t-194.5 -33q-158 0 -234 69.5t-76 192.5q0 63 19 137.5t57 170.5l96 -36
q-27 -79 -41 -145t-14 -108q0 -67 44 -102.5t151 -35.5q74 0 130.5 15t86.5 38.5t30 48.5q0 21 -31 31q-8 2 -56 11q-5 1 -101 17l-19 2l26 126h24q97 0 176.5 23.5t167.5 70.5l32 17q31 19 64 33q-36 18 -71 38q-61 31 -90 42.5t-56 11.5q-38 0 -65 -27t-63 -87l-79 50
q42 102 93.5 151t108.5 49q40 0 86.5 -17t116.5 -52q6 -3 38 -20l56 -28q54 -25 85 -36.5t62 -18.5l-30 -123l-48 2h-6q6 -38 21.5 -57.5t45 -27t81.5 -7.5q28 0 48.5 -21zM578 669v5l72 80h5l82 -73v-5l-72 -80h-5zM424 -319l79 -70v-4l-69 -78h-5l-64 57l-68 -75h-4
l-80 71v4l70 77h4l64 -56l68 74h5z" />
    <glyph glyph-name="uniFD21" unicode="&#xfd21;" horiz-adv-x="1498" arabic-form="final" 
d="M1546.5 121q20.5 -21 20.5 -50t-20.5 -50.5t-48.5 -21.5q-53 0 -91.5 12.5t-67.5 38.5q-52 -27 -124.5 -41t-150.5 -14q-195 0 -275 66t-90 178q-2 11 -2 33t-22 22q-36 0 -89 -26.5t-96 -65.5q-16 -16 -16 -28q0 -10 10.5 -16t43.5 -13q104 -19 154.5 -52.5t51.5 -100.5
q0 -7 -2 -23q-5 -70 -49.5 -126t-128 -89t-200.5 -33q-159 1 -235.5 70.5t-76.5 191.5q0 62 19 136.5t57 171.5l96 -36q-27 -79 -41 -145t-14 -108q0 -67 45.5 -102.5t153.5 -35.5q72 0 128.5 15t87.5 37t31 41q0 18 -26.5 30.5t-95.5 26.5q-81 16 -115 41.5t-34 65.5
q0 69 50 137q37 50 93.5 89t119 60.5t115.5 21.5q42 0 69.5 -24.5t27.5 -63.5q0 -23 1 -36q2 -45 15.5 -76.5t44.5 -50.5q34 117 77 186t97.5 98.5t127.5 29.5q82 0 141.5 -41.5t90 -115t27.5 -165.5q0 -9 -4 -25q26 -3 71 -3q28 0 48.5 -21zM1071 138q97 0 170.5 16.5
t77.5 43.5q1 4 1 15q0 23 -7.5 47t-18.5 41q-34 53 -122 53q-72 0 -121.5 -44.5t-82.5 -162.5q35 -9 103 -9z" />
    <glyph glyph-name="uniFD22" unicode="&#xfd22;" horiz-adv-x="1498" arabic-form="final" 
d="M1546.5 121q20.5 -21 20.5 -50t-20.5 -50.5t-48.5 -21.5q-53 0 -91.5 12.5t-67.5 38.5q-52 -27 -124.5 -41t-150.5 -14q-195 0 -275 66t-90 178q-2 11 -2 33t-22 22q-36 0 -89 -26.5t-96 -65.5q-16 -16 -16 -28q0 -10 10.5 -16t43.5 -13q104 -19 154.5 -52.5t51.5 -100.5
q0 -7 -2 -23q-5 -70 -49.5 -126t-128 -89t-200.5 -33q-159 1 -235.5 70.5t-76.5 191.5q0 62 19 136.5t57 171.5l96 -36q-27 -79 -41 -145t-14 -108q0 -67 45.5 -102.5t153.5 -35.5q72 0 128.5 15t87.5 37t31 41q0 18 -26.5 30.5t-95.5 26.5q-81 16 -115 41.5t-34 65.5
q0 69 50 137q37 50 93.5 89t119 60.5t115.5 21.5q42 0 69.5 -24.5t27.5 -63.5q0 -23 1 -36q2 -45 15.5 -76.5t44.5 -50.5q34 117 77 186t97.5 98.5t127.5 29.5q82 0 141.5 -41.5t90 -115t27.5 -165.5q0 -9 -4 -25q26 -3 71 -3q28 0 48.5 -21zM1071 138q97 0 170.5 16.5
t77.5 43.5q1 4 1 15q0 23 -7.5 47t-18.5 41q-34 53 -122 53q-72 0 -121.5 -44.5t-82.5 -162.5q35 -9 103 -9zM425 -328l79 -70v-4l-69 -78h-5l-64 57l-68 -75h-4l-80 71v4l70 77h4l64 -56l68 74h5z" />
    <glyph glyph-name="uniFD23" unicode="&#xfd23;" horiz-adv-x="1498" arabic-form="final" 
d="M1546.5 121q20.5 -21 20.5 -50t-20.5 -50.5t-48.5 -21.5q-53 0 -91.5 12.5t-67.5 38.5q-52 -27 -124.5 -41t-150.5 -14q-195 0 -275 66t-90 178q-2 11 -2 33t-22 22q-36 0 -89 -26.5t-96 -65.5q-16 -16 -16 -28q0 -10 10.5 -16t43.5 -13q104 -19 154.5 -52.5t51.5 -100.5
q0 -7 -2 -23q-5 -70 -49.5 -126t-128 -89t-200.5 -33q-159 1 -235.5 70.5t-76.5 191.5q0 62 19 136.5t57 171.5l96 -36q-27 -79 -41 -145t-14 -108q0 -67 45.5 -102.5t153.5 -35.5q72 0 128.5 15t87.5 37t31 41q0 18 -26.5 30.5t-95.5 26.5q-81 16 -115 41.5t-34 65.5
q0 69 50 137q37 50 93.5 89t119 60.5t115.5 21.5q42 0 69.5 -24.5t27.5 -63.5q0 -23 1 -36q2 -45 15.5 -76.5t44.5 -50.5q34 117 77 186t97.5 98.5t127.5 29.5q82 0 141.5 -41.5t90 -115t27.5 -165.5q0 -9 -4 -25q26 -3 71 -3q28 0 48.5 -21zM1071 138q97 0 170.5 16.5
t77.5 43.5q1 4 1 15q0 23 -7.5 47t-18.5 41q-34 53 -122 53q-72 0 -121.5 -44.5t-82.5 -162.5q35 -9 103 -9zM1057 644v5l72 80h5l82 -73v-5l-72 -80h-5z" />
    <glyph glyph-name="uniFD24" unicode="&#xfd24;" horiz-adv-x="1498" arabic-form="final" 
d="M1546.5 121q20.5 -21 20.5 -50t-20.5 -50.5t-48.5 -21.5q-53 0 -91.5 12.5t-67.5 38.5q-52 -27 -124.5 -41t-150.5 -14q-195 0 -275 66t-90 178q-2 11 -2 33t-22 22q-36 0 -89 -26.5t-96 -65.5q-16 -16 -16 -28q0 -10 10.5 -16t43.5 -13q104 -19 154.5 -52.5t51.5 -100.5
q0 -7 -2 -23q-5 -70 -49.5 -126t-128 -89t-200.5 -33q-159 1 -235.5 70.5t-76.5 191.5q0 62 19 136.5t57 171.5l96 -36q-27 -79 -41 -145t-14 -108q0 -67 45.5 -102.5t153.5 -35.5q72 0 128.5 15t87.5 37t31 41q0 18 -26.5 30.5t-95.5 26.5q-81 16 -115 41.5t-34 65.5
q0 69 50 137q37 50 93.5 89t119 60.5t115.5 21.5q42 0 69.5 -24.5t27.5 -63.5q0 -23 1 -36q2 -45 15.5 -76.5t44.5 -50.5q34 117 77 186t97.5 98.5t127.5 29.5q82 0 141.5 -41.5t90 -115t27.5 -165.5q0 -9 -4 -25q26 -3 71 -3q28 0 48.5 -21zM1071 138q97 0 170.5 16.5
t77.5 43.5q1 4 1 15q0 23 -7.5 47t-18.5 41q-34 53 -122 53q-72 0 -121.5 -44.5t-82.5 -162.5q35 -9 103 -9zM428 -336l79 -70v-4l-69 -78h-5l-64 57l-68 -75h-4l-80 71v4l70 77h4l64 -56l68 74h5zM1055 644v5l72 80h5l82 -73v-5l-72 -80h-5z" />
    <glyph glyph-name="uniFD28" unicode="&#xfd28;" horiz-adv-x="1610" arabic-form="final" 
d="M1658.5 121q20.5 -21 20.5 -50t-20.5 -50.5t-48.5 -21.5q-132 0 -194 66q-44 -65 -130 -65q-41 0 -81 17t-74 48q-31 -31 -76 -48t-100 -17q-72 0 -130.5 28.5t-93.5 90t-35 157.5q0 22 -1 30q-1 12 -7 16.5t-21 4.5q-60 0 -126 -18q52 -34 81.5 -90t29.5 -127
t-25 -124.5t-69.5 -83t-101.5 -29.5q-61 0 -108.5 33t-74 89t-26.5 123q0 48 11 92q-98 -48 -98 -168v-306l-118 -17v318q0 95 43 168t114.5 115t154.5 49q66 57 157 83.5t178 26.5q57 0 86.5 -24.5t32.5 -66.5q0 -14 2 -48q7 -176 131 -179q43 -1 76.5 10.5t47.5 32.5
q15 20 20.5 48.5t12.5 118.5l94 -3q0 -57 -2 -103.5t-6 -74.5q24 -15 51.5 -22t50.5 -7q21 0 33.5 6t18.5 18q9 18 9 61l-1 37l-4 124l103 20l14 -130q6 -59 19 -87t42.5 -39t89.5 -11q28 0 48.5 -21zM519 18q24 27 24 74q0 55 -41 88t-105 37q-33 -48 -33 -111
q0 -49 26.5 -82t67.5 -33q37 0 61 27zM1132 592h-4l-75 67v4l65 72h4l76 -66v-4zM1203 607l79 -70v-4l-69 -78h-5l-65 58l-67 -75h-4l-80 70v5l70 76h4l65 -57l67 75h5z" />
    <glyph glyph-name="uniFD29" unicode="&#xfd29;" horiz-adv-x="1552" arabic-form="final" 
d="M1600.5 121q20.5 -21 20.5 -50t-20.5 -50.5t-48.5 -21.5q-134 0 -194 66q-44 -65 -130 -65q-42 0 -82 17t-73 48q-31 -31 -76.5 -48t-101.5 -17q-102 0 -168.5 58.5t-83.5 183.5q-3 20 -3 46q0 13 -7.5 19t-21.5 4q-72 -7 -131 -39.5t-53 -98.5q3 -36 3 -76q0 -35 -3 -71
q-16 -140 -106.5 -212t-240.5 -74q-22 0 -34 1l-4 113l33 3q108 8 166 53t66 133q2 32 2 45q0 31 -5 74q-2 22 -2 30q0 91 57.5 147.5t139 81t161.5 25.5q40 0 62.5 -23.5t26.5 -65.5l4 -52q2 -77 35 -119t95 -43q43 -1 76.5 10.5t47.5 32.5q10 14 15 29t8.5 44.5t8.5 93.5
l95 -3l-1 -37q-1 -44 -2.5 -81t-5.5 -60q24 -15 51.5 -22t50.5 -7q22 0 34.5 6t18.5 18q8 16 8 55q0 26 -1 43l-4 124l104 20l13 -130q6 -59 19.5 -87t43 -39t89.5 -11q28 0 48.5 -21zM1088 599h-4l-75 67v4l65 72h4l76 -66v-4zM1159 614l79 -70v-4l-69 -78h-5l-65 58
l-67 -75h-4l-80 70v5l70 76h4l65 -57l67 75h5z" />
    <glyph glyph-name="uniFD2A" unicode="&#xfd2a;" horiz-adv-x="1552" arabic-form="final" 
d="M1600.5 121q20.5 -21 20.5 -50t-20.5 -50.5t-48.5 -21.5q-134 0 -194 66q-44 -65 -130 -65q-42 0 -82 17t-73 48q-31 -31 -76.5 -48t-101.5 -17q-102 0 -168.5 58.5t-83.5 183.5q-3 20 -3 46q0 13 -7.5 19t-21.5 4q-72 -7 -131 -39.5t-53 -98.5q3 -36 3 -76q0 -35 -3 -71
q-16 -140 -106.5 -212t-240.5 -74q-22 0 -34 1l-4 113l33 3q108 8 166 53t66 133q2 32 2 45q0 31 -5 74q-2 22 -2 30q0 91 57.5 147.5t139 81t161.5 25.5q40 0 62.5 -23.5t26.5 -65.5l4 -52q2 -77 35 -119t95 -43q43 -1 76.5 10.5t47.5 32.5q10 14 15 29t8.5 44.5t8.5 93.5
l95 -3l-1 -37q-1 -44 -2.5 -81t-5.5 -60q24 -15 51.5 -22t50.5 -7q22 0 34.5 6t18.5 18q8 16 8 55q0 26 -1 43l-4 124l104 20l13 -130q6 -59 19.5 -87t43 -39t89.5 -11q28 0 48.5 -21z" />
    <glyph glyph-name="uniFD2B" unicode="&#xfd2b;" horiz-adv-x="1441" arabic-form="final" 
d="M1489.5 123.5q20.5 -20.5 20.5 -49.5t-20.5 -50.5t-48.5 -21.5q-52 0 -90.5 12.5t-68.5 38.5q-51 -27 -123 -41.5t-150 -15.5q-162 0 -260 54.5t-108 191.5q-2 13 -4 45q-2 26 -26 23q-62 -7 -113 -30t-60 -52q-7 -14 -7 -64l1 -75q0 -173 -93 -260.5t-259 -88.5h-34
l-4 114q18 0 26 1q103 10 154.5 38t71 85.5t19.5 165.5q0 97 15 139q19 54 74 90.5t124 54t131 17.5q42 0 65 -23.5t27 -65.5l4 -52q2 -45 16 -76t43 -51q34 118 77 187t98 99t129 30q81 0 140.5 -41.5t90 -115t26.5 -165.5q0 -13 -4 -24q27 -3 72 -3q28 0 48.5 -20.5z
M1015 139q97 0 170.5 16.5t76.5 43.5q1 2 1 9q0 25 -7 50.5t-19 43.5q-34 53 -121 53q-72 0 -122.5 -45.5t-83.5 -161.5q32 -9 105 -9z" />
    <glyph glyph-name="uniFD2C" unicode="&#xfd2c;" horiz-adv-x="1441" arabic-form="final" 
d="M1489.5 123.5q20.5 -20.5 20.5 -49.5t-20.5 -50.5t-48.5 -21.5q-52 0 -90.5 12.5t-68.5 38.5q-51 -27 -123 -41.5t-150 -15.5q-162 0 -260 54.5t-108 191.5q-2 13 -4 45q-2 26 -26 23q-62 -7 -113 -30t-60 -52q-7 -14 -7 -64l1 -75q0 -173 -93 -260.5t-259 -88.5h-34
l-4 114q18 0 26 1q103 10 154.5 38t71 85.5t19.5 165.5q0 97 15 139q19 54 74 90.5t124 54t131 17.5q42 0 65 -23.5t27 -65.5l4 -52q2 -45 16 -76t43 -51q34 118 77 187t98 99t129 30q81 0 140.5 -41.5t90 -115t26.5 -165.5q0 -13 -4 -24q27 -3 72 -3q28 0 48.5 -20.5z
M1015 139q97 0 170.5 16.5t76.5 43.5q1 2 1 9q0 25 -7 50.5t-19 43.5q-34 53 -121 53q-72 0 -122.5 -45.5t-83.5 -161.5q32 -9 105 -9zM1019 644v5l72 80h5l82 -73v-5l-72 -80h-5z" />
    <glyph glyph-name="uniFD30" unicode="&#xfd30;" horiz-adv-x="1237" arabic-form="initial" 
d="M1152 52.5q-44 -53.5 -128 -53.5q-85 0 -156 65q-32 -31 -81 -48t-108 -17q-112 0 -170 64t-69 164q-1 11 -4 38q-1 16 -5 22t-13 6q-34 0 -75.5 -21t-77.5 -58.5t-55 -84.5q10 -2 22 -4q98 -25 157 -80.5t59 -143.5q0 -101 -52 -158.5t-138 -57.5q-70 0 -119.5 38
t-74 104.5t-25.5 149.5l1 22h-40q-28 0 -48.5 21.5t-20.5 50.5t20.5 50t48.5 21h78q30 82 91.5 147t138.5 101t151 37q40 0 62.5 -22.5t25.5 -63.5q5 -52 6 -59q9 -71 43 -105.5t95 -34.5q38 0 68.5 11.5t43.5 31.5q16 21 21.5 54t10.5 114l95 -4l-1 -38q-1 -43 -2.5 -80
t-5.5 -60q24 -15 51.5 -22t50.5 -7q31 0 46.5 14.5t15.5 46.5q-1 44 -34 203l116 39q26 -149 28 -229q1 -110 -43 -163.5zM300.5 -30q-38.5 22 -111.5 28q-10 1 -31 1q-1 -5 -1 -15q-1 -8 -1 -24q0 -62 28.5 -100t79.5 -38q34 0 54.5 20t20.5 59q0 47 -38.5 69zM868 599h-4
l-75 67v4l65 72h4l76 -66v-4zM939 614l79 -70v-4l-69 -78h-5l-65 58l-67 -75h-4l-80 70v5l70 76h4l65 -57l67 75h5z" />
    <glyph glyph-name="uniFDFC" unicode="&#xfdfc;" horiz-adv-x="1405" arabic-form="isolated" 
d="M101 -29.5q-54 50.5 -54 144.5q0 98 58 248l77 -28q-43 -134 -43 -196q0 -52 29.5 -78t90.5 -28q41 0 82 12t68.5 39.5t27.5 70.5l-7 453q-1 34 21 56t59 25l120 10q33 2 56 -21t23 -58l2 -287q0 -56 18 -74.5t64 -18.5h93q142 0 141 69q0 29 -7.5 66t-28.5 122l95 34
q20 -89 26 -131.5t6 -89.5q0 -88 -60.5 -136t-172.5 -48h-94q-176 0 -178 199l-4 280q0 3 -1.5 5t-3.5 1l-69 -7q-6 -1 -6 -6l2 -436q0 -76 -36.5 -131t-99.5 -83.5t-139 -28.5q-101 1 -155 51.5zM1210 62.5q56 41.5 56 118.5q0 37 -11.5 85t-34.5 114l94 43
q44 -138 44 -228q0 -126 -72 -197.5t-202 -71.5q-22 0 -34 1l-3 92q107 2 163 43.5zM654 17l332 -2v-83l-332 -9v94z" />
    <glyph glyph-name="uniFE80" unicode="&#x621;" horiz-adv-x="605" arabic-form="isolated" 
d="M559 62l-518 -126l-8 119l106 25q-34 65 -34 137q0 69 25.5 122.5t69.5 83.5t99 30q50 0 100.5 -28.5t94.5 -84.5l-47 -68q-38 30 -70 45t-66 15q-47 0 -75.5 -33.5t-28.5 -78.5q0 -28 10.5 -57.5t31.5 -55.5l301 72z" />
    <glyph glyph-name="uniFE81" unicode="&#x622;" horiz-adv-x="208" arabic-form="isolated" 
d="M44 612l118 12l1 -621l-112 -4zM248 688.5q-20 -28.5 -62 -28.5q-37 0 -96 19q-8 3 -32 10.5t-39 7.5q-16 0 -23 -10t-13 -33l-55 9q4 61 25.5 89.5t72.5 28.5q28 0 71 -15q18 -6 27 -8q47 -15 60 -15q16 0 22.5 8.5t11.5 29.5l54 -10q-4 -54 -24 -82.5z" />
    <glyph glyph-name="uniFE82" unicode="&#x622;" horiz-adv-x="277" arabic-form="final" 
d="M108 62.5q-55 63.5 -57 190.5l-4 359l118 12l1 -360q0 -51 11 -77t34.5 -35.5t65.5 -9.5q28 0 48.5 -21t20.5 -50t-20.5 -50.5t-48.5 -21.5q-114 0 -169 63.5zM245 687.5q-20 -28.5 -62 -28.5q-37 0 -96 19q-8 3 -32 10.5t-39 7.5q-16 0 -23 -10t-13 -33l-55 9
q4 61 25.5 89.5t72.5 28.5q28 0 71 -15q18 -6 27 -8q47 -15 60 -15q16 0 22.5 8.5t11.5 29.5l54 -10q-4 -54 -24 -82.5z" />
    <glyph glyph-name="uniFE83" unicode="&#x623;" horiz-adv-x="208" arabic-form="isolated" 
d="M252 693l-294 -48l1 63l57 9q-10 27 -10 53q0 57 30 96.5t75 39.5q58 0 105 -57l-34 -44q-18 15 -31.5 21.5t-30.5 6.5q-24 0 -37 -15.5t-13 -42.5q0 -24 14 -47l167 28zM47 612l118 12l1 -621l-112 -4z" />
    <glyph glyph-name="uniFE84" unicode="&#x623;" horiz-adv-x="277" arabic-form="final" 
d="M252 693l-294 -48l1 63l57 9q-10 27 -10 53q0 57 30 96.5t75 39.5q58 0 105 -57l-34 -44q-18 15 -31.5 21.5t-30.5 6.5q-24 0 -37 -15.5t-13 -42.5q0 -24 14 -47l167 28zM325.5 121q20.5 -21 20.5 -50t-20.5 -50.5t-48.5 -21.5q-114 0 -169 63.5t-57 190.5l-4 359l118 12
l1 -360q0 -51 11 -77t34.5 -35.5t65.5 -9.5q28 0 48.5 -21z" />
    <glyph glyph-name="uniFE85" unicode="&#x624;" horiz-adv-x="539" arabic-form="isolated" 
d="M78 -141q134 8 208.5 50t89.5 121q-62 -31 -143 -31q-93 0 -138 44t-45 132q0 124 52 206t155 82q115 0 176.5 -98t61.5 -274q0 -179 -98.5 -262t-297.5 -92q-10 -1 -18 -0.5t-13 0.5q-7 1 -22 1l-3 120q23 0 35 1zM181 154q20 -12 64 -12q75 0 132 19q-8 76 -37.5 123.5
t-84.5 47.5q-52 0 -73 -39.5t-21 -91.5q0 -35 20 -47zM394 582l-290 -66l-2 63l57 13q-14 28 -14 63q0 56 29 93.5t75 37.5q54 0 101 -51l-32 -45q-20 13 -32.5 18.5t-27.5 5.5q-22 0 -35.5 -14.5t-15.5 -38.5q0 -28 18 -54l165 38z" />
    <glyph glyph-name="uniFE86" unicode="&#x624;" horiz-adv-x="534" arabic-form="final" 
d="M582.5 121q20.5 -21 20.5 -50t-20.5 -50.5t-49.5 -21.5h-46q-23 -130 -119 -191.5t-265 -69.5q-17 0 -57 2l-3 118q27 0 40 1q119 6 189.5 40t94.5 100h-133q-94 0 -139 44t-45 132q0 124 52 206t155 82q106 0 167 -84t70 -237h39q29 0 49.5 -21zM181 154q20 -12 64 -12
h133q-16 190 -123 190q-52 0 -73 -39.5t-21 -91.5q0 -35 20 -47zM394 582l-290 -66l-2 63l57 13q-14 28 -14 63q0 56 29 93.5t75 37.5q54 0 101 -51l-32 -45q-20 13 -32.5 18.5t-27.5 5.5q-22 0 -35.5 -14.5t-15.5 -38.5q0 -28 18 -54l165 38z" />
    <glyph glyph-name="uniFE87" unicode="&#x625;" horiz-adv-x="330" arabic-form="isolated" 
d="M61 728l119 13l1 -742l-112 -9zM289 -239l-290 -66l-2 63l57 13q-14 28 -14 63q0 56 29 93.5t75 37.5q54 0 101 -51l-32 -45q-20 13 -32.5 18.5t-27.5 5.5q-22 0 -35.5 -14.5t-15.5 -38.5q0 -28 18 -54l165 38z" />
    <glyph glyph-name="uniFE88" unicode="&#x625;" horiz-adv-x="292" arabic-form="final" 
d="M118.5 62q-51.5 63 -52.5 193l-5 473l119 13l1 -476q0 -51 10.5 -77.5t34 -36t66.5 -9.5q28 0 48.5 -21t20.5 -50t-20.5 -50.5t-48.5 -21.5q-122 0 -173.5 63zM325 -237l-290 -66l-2 63l57 13q-14 28 -14 63q0 56 29 93.5t75 37.5q54 0 101 -51l-32 -45
q-20 13 -32.5 18.5t-27.5 5.5q-22 0 -35.5 -14.5t-15.5 -38.5q0 -28 18 -54l165 38z" />
    <glyph glyph-name="uniFE89" unicode="&#x626;" horiz-adv-x="786" arabic-form="isolated" 
d="M581 373q-42 0 -75 -29.5t-50.5 -73t-13.5 -82.5q1 -18 13.5 -26.5t36 -13t85.5 -13.5q83 -12 121.5 -44t38.5 -100q0 -69 -43.5 -131t-130 -100.5t-209.5 -38.5q-159 0 -235.5 69.5t-76.5 192.5q0 62 19 136.5t57 171.5l96 -36q-27 -79 -41 -145t-14 -108
q0 -68 44.5 -103t154.5 -35q75 0 135.5 17t94.5 41t33 43q-1 16 -19.5 21.5t-72.5 12.5l-30 4q-59 9 -94 23.5t-54.5 49t-19.5 98.5q0 77 32.5 156t87 130.5t118.5 51.5q59 0 100.5 -26t78.5 -66l-58 -81q-58 34 -109 34zM337 400l-290 -66l-2 63l57 13q-14 28 -14 63
q0 56 29 93.5t75 37.5q54 0 101 -51l-32 -45q-20 13 -32.5 18.5t-27.5 5.5q-22 0 -35.5 -14.5t-15.5 -38.5q0 -28 18 -54l165 38z" />
    <glyph glyph-name="uniFE8A" unicode="&#x626;" horiz-adv-x="786" arabic-form="final" 
d="M118 -210q-76 69 -76 193q0 62 19 136.5t57 171.5l96 -36q-27 -79 -41 -145t-14 -108q0 -67 44 -102.5t151 -35.5q65 0 121.5 13.5t90 35.5t33.5 47q0 20 -26 29q-25 9 -161 30l24 133q113 -7 172 -8.5t178 -1.5q29 0 49 -21t20 -50q0 -28 -18.5 -49t-45.5 -23
q-14 0 -34 1t-34 3q5 -18 3 -36q-7 -70 -55.5 -126t-131 -88t-187.5 -32q-158 0 -234 69zM566 284l-290 -66l-2 63l57 13q-14 28 -14 63q0 56 29 93.5t75 37.5q54 0 101 -51l-32 -45q-20 13 -32.5 18.5t-27.5 5.5q-22 0 -35.5 -14.5t-15.5 -38.5q0 -28 18 -54l165 38z" />
    <glyph glyph-name="uniFE8B" unicode="&#x626;" horiz-adv-x="365" arabic-form="initial" 
d="M45 585l55 18q-20 34 -20 80q0 52 28 87t74 35q47 0 95 -42l-28 -48q-33 19 -55 19q-24 0 -38 -14.5t-14 -38.5q0 -32 22 -57l161 53l10 -62l-282 -93zM315.5 349.5q7.5 -53.5 7.5 -111.5q0 -117 -79.5 -178t-233.5 -61h-10q-28 0 -48.5 21.5t-20.5 50.5t20 50t49 21h8
q102 0 153.5 22.5t50.5 69.5q-1 37 -11 88.5t-34 143.5l118 42q23 -105 30.5 -158.5z" />
    <glyph glyph-name="uniFE8C" unicode="&#x626;" horiz-adv-x="443" arabic-form="medial" 
d="M357 519l-293 -51v64l57 10q-10 25 -10 52q0 58 30 97t77 39q56 0 102 -56l-34 -43q-19 14 -31.5 20.5t-28.5 6.5q-23 0 -37.5 -15.5t-14.5 -40.5t15 -49l167 29zM491.5 121q20.5 -21 20.5 -50t-20.5 -50.5t-48.5 -21.5q-81 0 -135 18t-87 56q-43 -36 -101 -55t-120 -19
q-28 0 -48.5 21.5t-20.5 50.5t20 50t49 21q116 0 174 40q-6 32 -8 83l-2 133l101 10l9 -127q4 -58 18 -86.5t48 -40.5t103 -12q28 0 48.5 -21z" />
    <glyph glyph-name="uniFE8D" unicode="&#x627;" horiz-adv-x="237" arabic-form="isolated" 
d="M61 728l119 13l1 -742l-112 -9z" />
    <glyph glyph-name="uniFE8E" unicode="&#x627;" horiz-adv-x="292" arabic-form="final" 
d="M118.5 62q-51.5 63 -52.5 193l-5 473l119 13l1 -476q0 -51 10.5 -77.5t34 -36t66.5 -9.5q28 0 48.5 -21t20.5 -50t-20.5 -50.5t-48.5 -21.5q-122 0 -173.5 63z" />
    <glyph glyph-name="uniFE8F" unicode="&#x628;" horiz-adv-x="852" arabic-form="isolated" 
d="M122.5 31.5q-79.5 56.5 -79.5 176.5q0 94 48 224l91 -27q-28 -99 -28 -152q0 -22 2 -32q4 -34 24.5 -55.5t65 -33t121.5 -13.5l40 -1q126 0 209.5 26.5t82.5 77.5q-1 37 -10.5 85t-33.5 148l118 42q22 -101 29.5 -156t7.5 -111q0 -123 -115.5 -189t-315.5 -66
q-177 0 -256.5 56.5zM297 -207v5l72 80h5l82 -73v-5l-72 -80h-5z" />
    <glyph glyph-name="uniFE90" unicode="&#x628;" horiz-adv-x="956" arabic-form="final" 
d="M1004.5 121q20.5 -21 20.5 -50t-20.5 -50.5t-48.5 -21.5q-80 0 -133.5 17.5t-86.5 55.5q-67 -51 -156 -74t-214 -23q-169 0 -246 57.5t-77 175.5q0 94 48 224l91 -27q-29 -99 -29 -156q0 -56 26.5 -84t79.5 -37t149 -9q88 0 159.5 14.5t120.5 42.5q-7 39 -9 89l-2 130
l101 10l9 -124q5 -60 19 -88.5t47.5 -39.5t102.5 -11q28 0 48.5 -21zM294 -211v5l72 80h5l82 -73v-5l-72 -80h-5z" />
    <glyph glyph-name="uniFE91" unicode="&#x628;" horiz-adv-x="365" arabic-form="initial" 
d="M-49 121q20 21 49 21h8q102 0 153.5 22.5t50.5 69.5q-1 37 -11 88.5t-34 143.5l118 42q23 -105 30.5 -158.5t7.5 -111.5q0 -117 -79.5 -178t-233.5 -61h-10q-28 0 -48.5 21.5t-20.5 50.5t20 50zM63 -187v5l72 80h5l82 -73v-5l-72 -80h-5z" />
    <glyph glyph-name="uniFE92" unicode="&#x628;" horiz-adv-x="443" arabic-form="medial" 
d="M491.5 121q20.5 -21 20.5 -50t-20.5 -50.5t-48.5 -21.5q-81 0 -135 18t-87 56q-43 -36 -101 -55t-120 -19q-28 0 -48.5 21.5t-20.5 50.5t20 50t49 21q116 0 174 40q-6 32 -8 83l-2 133l101 10l9 -127q4 -58 18 -86.5t48 -40.5t103 -12q28 0 48.5 -21zM153 -170v5l72 80h5
l82 -73v-5l-72 -80h-5z" />
    <glyph glyph-name="uniFE93" unicode="&#x629;" horiz-adv-x="538" arabic-form="isolated" 
d="M495 176q0 -98 -72 -148t-181 -50q-98 0 -145.5 42.5t-47.5 115.5q1 60 26.5 125.5t72.5 128.5q-16 6 -45 13l26 118q367 -91 366 -345zM236 357q-36 -43 -57 -88.5t-21 -81.5q0 -37 22 -54t71 -17q56 0 95 15.5t39 42.5q2 114 -149 183zM296 765l81 -71v-5l-71 -79h-5
l-65 58l-69 -76h-5l-81 72v5l71 78h5l65 -58l69 76h5z" />
    <glyph glyph-name="uniFE94" unicode="&#x629;" horiz-adv-x="596" arabic-form="final" 
d="M331 492v80l119 23l-1 -323q-1 -55 10.5 -82t42.5 -37.5t95 -10.5q28 0 48 -21t20 -50t-20 -50.5t-48 -21.5q-157 0 -219 86q-76 -33 -146 -33q-86 0 -138 45t-52 125q0 192 289 270zM175.5 203.5q23.5 -12.5 61.5 -12.5q50 0 99 11q-5 33 -5 66v100q-90 -24 -134.5 -54
t-44.5 -72q0 -26 23.5 -38.5zM361 795l81 -71v-5l-71 -79h-5l-65 58l-69 -76h-5l-81 72v5l71 78h5l65 -58l69 76h5z" />
    <glyph glyph-name="uniFE95" unicode="&#x62a;" horiz-adv-x="852" arabic-form="isolated" 
d="M122.5 31.5q-79.5 56.5 -79.5 176.5q0 94 48 224l91 -27q-28 -99 -28 -152q0 -22 2 -32q4 -34 24.5 -55.5t65 -33t121.5 -13.5l40 -1q126 0 209.5 26.5t82.5 77.5q-1 37 -10.5 85t-33.5 148l118 42q22 -101 29.5 -156t7.5 -111q0 -123 -115.5 -189t-315.5 -66
q-177 0 -256.5 56.5zM473 610l81 -71v-5l-71 -79h-5l-65 58l-69 -76h-5l-81 72v5l71 78h5l65 -58l69 76h5z" />
    <glyph glyph-name="uniFE96" unicode="&#x62a;" horiz-adv-x="956" arabic-form="final" 
d="M1004.5 121q20.5 -21 20.5 -50t-20.5 -50.5t-48.5 -21.5q-80 0 -133.5 17.5t-86.5 55.5q-67 -51 -156 -74t-214 -23q-169 0 -246 57.5t-77 175.5q0 94 48 224l91 -27q-29 -99 -29 -156q0 -56 26.5 -84t79.5 -37t149 -9q88 0 159.5 14.5t120.5 42.5q-7 39 -9 89l-2 130
l101 10l9 -124q5 -60 19 -88.5t47.5 -39.5t102.5 -11q28 0 48.5 -21zM477 609l81 -71v-5l-71 -79h-5l-65 58l-69 -76h-5l-81 72v5l71 78h5l65 -58l69 76h5z" />
    <glyph glyph-name="uniFE97" unicode="&#x62a;" horiz-adv-x="365" arabic-form="initial" 
d="M-49 121q20 21 49 21h8q102 0 153.5 22.5t50.5 69.5q-1 37 -11 88.5t-34 143.5l118 42q23 -105 30.5 -158.5t7.5 -111.5q0 -117 -79.5 -178t-233.5 -61h-10q-28 0 -48.5 21.5t-20.5 50.5t20 50zM230 743l81 -71v-5l-71 -79h-5l-65 58l-69 -76h-5l-81 72v5l71 78h5l65 -58
l69 76h5z" />
    <glyph glyph-name="uniFE98" unicode="&#x62a;" horiz-adv-x="443" arabic-form="medial" 
d="M491.5 121q20.5 -21 20.5 -50t-20.5 -50.5t-48.5 -21.5q-81 0 -135 18t-87 56q-43 -36 -101 -55t-120 -19q-28 0 -48.5 21.5t-20.5 50.5t20 50t49 21q116 0 174 40q-6 32 -8 83l-2 133l101 10l9 -127q4 -58 18 -86.5t48 -40.5t103 -12q28 0 48.5 -21zM207 648l81 -71v-5
l-71 -79h-5l-65 58l-69 -76h-5l-81 72v5l71 78h5l65 -58l69 76h5z" />
    <glyph glyph-name="uniFE99" unicode="&#x62b;" horiz-adv-x="852" arabic-form="isolated" 
d="M122.5 31.5q-79.5 56.5 -79.5 176.5q0 94 48 224l91 -27q-28 -99 -28 -152q0 -22 2 -32q4 -34 24.5 -55.5t65 -33t121.5 -13.5l40 -1q126 0 209.5 26.5t82.5 77.5q-1 37 -10.5 85t-33.5 148l118 42q22 -101 29.5 -156t7.5 -111q0 -123 -115.5 -189t-315.5 -66
q-177 0 -256.5 56.5zM401 579h-4l-75 67v4l65 72h4l76 -66v-4zM472 594l79 -70v-4l-69 -78h-5l-65 58l-67 -75h-4l-80 70v5l70 76h4l65 -57l67 75h5z" />
    <glyph glyph-name="uniFE9A" unicode="&#x62b;" horiz-adv-x="956" arabic-form="final" 
d="M1004.5 121q20.5 -21 20.5 -50t-20.5 -50.5t-48.5 -21.5q-80 0 -133.5 17.5t-86.5 55.5q-67 -51 -156 -74t-214 -23q-169 0 -246 57.5t-77 175.5q0 94 48 224l91 -27q-29 -99 -29 -156q0 -56 26.5 -84t79.5 -37t149 -9q88 0 159.5 14.5t120.5 42.5q-7 39 -9 89l-2 130
l101 10l9 -124q5 -60 19 -88.5t47.5 -39.5t102.5 -11q28 0 48.5 -21zM401 585h-4l-75 67v4l65 72h4l76 -66v-4zM472 600l79 -70v-4l-69 -78h-5l-65 58l-67 -75h-4l-80 70v5l70 76h4l65 -57l67 75h5z" />
    <glyph glyph-name="uniFE9B" unicode="&#x62b;" horiz-adv-x="365" arabic-form="initial" 
d="M-49 121q20 21 49 21h8q102 0 153.5 22.5t50.5 69.5q-1 37 -11 88.5t-34 143.5l118 42q23 -105 30.5 -158.5t7.5 -111.5q0 -117 -79.5 -178t-233.5 -61h-10q-28 0 -48.5 21.5t-20.5 50.5t20 50zM183 719h-4l-75 67v4l65 72h4l76 -66v-4zM254 734l79 -70v-4l-69 -78h-5
l-65 58l-67 -75h-4l-80 70v5l70 76h4l65 -57l67 75h5z" />
    <glyph glyph-name="uniFE9C" unicode="&#x62b;" horiz-adv-x="443" arabic-form="medial" 
d="M491.5 121q20.5 -21 20.5 -50t-20.5 -50.5t-48.5 -21.5q-81 0 -135 18t-87 56q-43 -36 -101 -55t-120 -19q-28 0 -48.5 21.5t-20.5 50.5t20 50t49 21q116 0 174 40q-6 32 -8 83l-2 133l101 10l9 -127q4 -58 18 -86.5t48 -40.5t103 -12q28 0 48.5 -21zM167 644h-4l-75 67
v4l65 72h4l76 -66v-4zM238 659l79 -70v-4l-69 -78h-5l-65 58l-67 -75h-4l-80 70v5l70 76h4l65 -57l67 75h5z" />
    <glyph glyph-name="uniFE9D" unicode="&#x62c;" horiz-adv-x="736" arabic-form="isolated" 
d="M140.5 -246q-89.5 66 -89.5 198q0 134 103 239t288 161q-40 20 -58 30q-50 24 -77.5 35t-51.5 11q-38 0 -64 -24t-59 -83l-79 50q40 98 90 145.5t107 47.5q39 0 84.5 -16t113.5 -49q62 -31 94 -46q53 -25 87 -37.5t65 -19.5l-30 -123q-58 1 -81.5 -2t-76.5 -18
q-153 -41 -242.5 -115t-89.5 -162q0 -77 70.5 -112.5t195.5 -35.5q98 0 219 17l8 -122q-119 -35 -267 -35q-170 0 -259.5 66zM357 22v5l72 80h5l82 -73v-5l-72 -80h-5z" />
    <glyph glyph-name="uniFE9E" unicode="&#x62c;" horiz-adv-x="736" arabic-form="final" 
d="M140.5 -246q-89.5 66 -89.5 198q0 134 103 239.5t289 160.5l-54 28q-52 25 -81 36.5t-53 11.5q-38 0 -64 -24t-59 -83l-79 50q40 98 90 145.5t107 47.5q38 0 82 -15.5t114 -48.5l31 -15q10 -5 66 -32q53 -25 86.5 -37.5t64.5 -19.5l-30 -123q-10 1 -30 1q-36 0 -60 -4
q5 -47 20.5 -74.5t49 -40.5t92.5 -13q28 0 48.5 -21t20.5 -50t-20.5 -50.5t-48.5 -21.5q-128 0 -189 58t-68 186q-137 -41 -221 -110t-84 -157q0 -77 71 -112.5t195 -35.5q98 0 219 17l8 -122q-119 -35 -267 -35q-170 0 -259.5 66zM307 7v5l72 80h5l82 -73v-5l-72 -80h-5z
" />
    <glyph glyph-name="uniFE9F" unicode="&#x62c;" horiz-adv-x="711" arabic-form="initial" 
d="M-48.5 121q20.5 21 48.5 21h35q99 0 172.5 20t149.5 60q82 45 121 63l-99 50q-50 26 -77.5 36.5t-51.5 10.5q-38 0 -64.5 -26.5t-63.5 -87.5l-78 50q41 103 92.5 151.5t109.5 48.5q37 0 79 -15t106 -47l60 -30l51 -25q89 -41 147 -55l-23 -129l-57 1q-19 -1 -33.5 -5.5
t-32.5 -15.5q-71 -42 -78 -46l-40 -24q-113 -65 -204 -96.5t-190 -31.5h-30q-28 0 -49 21.5t-21 50.5t20.5 50zM327 -124v5l72 80h5l82 -73v-5l-72 -80h-5z" />
    <glyph glyph-name="uniFEA0" unicode="&#x62c;" horiz-adv-x="723" arabic-form="medial" 
d="M-48 20.5q-21 21.5 -21 50.5t20.5 50t48.5 21h35q99 0 172.5 20t149.5 60q79 43 121 63l-99 50q-50 26 -77.5 36.5t-51.5 10.5q-38 0 -65 -27t-63 -87l-78 50q41 103 92.5 151.5t109.5 48.5q37 0 79 -15t106 -47l60 -30l51 -25q92 -42 147 -55l-23 -130l-29 1
q-11 0 -39 -2q-19 -2 -34 -9q13 -35 49.5 -49.5t109.5 -14.5q29 0 49 -21t20 -50t-20.5 -50.5t-48.5 -21.5q-111 0 -175.5 36.5t-85.5 112.5q-15 -8 -37 -21q-114 -65 -205.5 -96.5t-196.5 -31.5h-22q-28 0 -49 21.5zM327 -124v5l72 80h5l82 -73v-5l-72 -80h-5z" />
    <glyph glyph-name="uniFEA1" unicode="&#x62d;" horiz-adv-x="736" arabic-form="isolated" 
d="M140.5 -246q-89.5 66 -89.5 198q0 134 103 239t288 161q-40 20 -58 30q-50 24 -77.5 35t-51.5 11q-38 0 -64 -24t-59 -83l-79 50q40 98 90 145.5t107 47.5q39 0 84.5 -16t113.5 -49q62 -31 94 -46q53 -25 87 -37.5t65 -19.5l-30 -123q-58 1 -81.5 -2t-76.5 -18
q-153 -41 -242.5 -115t-89.5 -162q0 -77 70.5 -112.5t195.5 -35.5q98 0 219 17l8 -122q-119 -35 -267 -35q-170 0 -259.5 66z" />
    <glyph glyph-name="uniFEA2" unicode="&#x62d;" horiz-adv-x="736" arabic-form="final" 
d="M140.5 -246q-89.5 66 -89.5 198q0 134 103 239.5t289 160.5l-54 28q-52 25 -81 36.5t-53 11.5q-38 0 -64 -24t-59 -83l-79 50q40 98 90 145.5t107 47.5q38 0 82 -15.5t114 -48.5l31 -15q10 -5 66 -32q53 -25 86.5 -37.5t64.5 -19.5l-30 -123q-10 1 -30 1q-36 0 -60 -4
q5 -47 20.5 -74.5t49 -40.5t92.5 -13q28 0 48.5 -21t20.5 -50t-20.5 -50.5t-48.5 -21.5q-128 0 -189 58t-68 186q-137 -41 -221 -110t-84 -157q0 -77 71 -112.5t195 -35.5q98 0 219 17l8 -122q-119 -35 -267 -35q-170 0 -259.5 66z" />
    <glyph glyph-name="uniFEA3" unicode="&#x62d;" horiz-adv-x="711" arabic-form="initial" 
d="M-48.5 121q20.5 21 48.5 21h35q99 0 172.5 20t149.5 60q82 45 121 63l-99 50q-50 26 -77.5 36.5t-51.5 10.5q-38 0 -64.5 -26.5t-63.5 -87.5l-78 50q41 103 92.5 151.5t109.5 48.5q37 0 79 -15t106 -47l60 -30l51 -25q89 -41 147 -55l-23 -129l-57 1q-19 -1 -33.5 -5.5
t-32.5 -15.5q-71 -42 -78 -46l-40 -24q-113 -65 -204 -96.5t-190 -31.5h-30q-28 0 -49 21.5t-21 50.5t20.5 50z" />
    <glyph glyph-name="uniFEA4" unicode="&#x62d;" horiz-adv-x="723" arabic-form="medial" 
d="M-48 20.5q-21 21.5 -21 50.5t20.5 50t48.5 21h35q99 0 172.5 20t149.5 60q79 43 121 63l-99 50q-50 26 -77.5 36.5t-51.5 10.5q-38 0 -65 -27t-63 -87l-78 50q41 103 92.5 151.5t109.5 48.5q37 0 79 -15t106 -47l60 -30l51 -25q92 -42 147 -55l-23 -130l-29 1
q-11 0 -39 -2q-19 -2 -34 -9q13 -35 49.5 -49.5t109.5 -14.5q29 0 49 -21t20 -50t-20.5 -50.5t-48.5 -21.5q-111 0 -175.5 36.5t-85.5 112.5q-15 -8 -37 -21q-114 -65 -205.5 -96.5t-196.5 -31.5h-22q-28 0 -49 21.5z" />
    <glyph glyph-name="uniFEA5" unicode="&#x62e;" horiz-adv-x="736" arabic-form="isolated" 
d="M140.5 -246q-89.5 66 -89.5 198q0 134 103 239t288 161q-40 20 -58 30q-50 24 -77.5 35t-51.5 11q-38 0 -64 -24t-59 -83l-79 50q40 98 90 145.5t107 47.5q39 0 84.5 -16t113.5 -49q62 -31 94 -46q53 -25 87 -37.5t65 -19.5l-30 -123q-58 1 -81.5 -2t-76.5 -18
q-153 -41 -242.5 -115t-89.5 -162q0 -77 70.5 -112.5t195.5 -35.5q98 0 219 17l8 -122q-119 -35 -267 -35q-170 0 -259.5 66zM174 712v5l72 80h5l82 -73v-5l-72 -80h-5z" />
    <glyph glyph-name="uniFEA6" unicode="&#x62e;" horiz-adv-x="736" arabic-form="final" 
d="M140.5 -246q-89.5 66 -89.5 198q0 134 103 239.5t289 160.5l-54 28q-52 25 -81 36.5t-53 11.5q-38 0 -64 -24t-59 -83l-79 50q40 98 90 145.5t107 47.5q38 0 82 -15.5t114 -48.5l31 -15q10 -5 66 -32q53 -25 86.5 -37.5t64.5 -19.5l-30 -123q-10 1 -30 1q-36 0 -60 -4
q5 -47 20.5 -74.5t49 -40.5t92.5 -13q28 0 48.5 -21t20.5 -50t-20.5 -50.5t-48.5 -21.5q-128 0 -189 58t-68 186q-137 -41 -221 -110t-84 -157q0 -77 71 -112.5t195 -35.5q98 0 219 17l8 -122q-119 -35 -267 -35q-170 0 -259.5 66zM174 712v5l72 80h5l82 -73v-5l-72 -80h-5z
" />
    <glyph glyph-name="uniFEA7" unicode="&#x62e;" horiz-adv-x="711" arabic-form="initial" 
d="M-48.5 121q20.5 21 48.5 21h35q99 0 172.5 20t149.5 60q82 45 121 63l-99 50q-50 26 -77.5 36.5t-51.5 10.5q-38 0 -64.5 -26.5t-63.5 -87.5l-78 50q41 103 92.5 151.5t109.5 48.5q37 0 79 -15t106 -47l60 -30l51 -25q89 -41 147 -55l-23 -129l-57 1q-19 -1 -33.5 -5.5
t-32.5 -15.5q-71 -42 -78 -46l-40 -24q-113 -65 -204 -96.5t-190 -31.5h-30q-28 0 -49 21.5t-21 50.5t20.5 50zM158 652v5l72 80h5l82 -73v-5l-72 -80h-5z" />
    <glyph glyph-name="uniFEA8" unicode="&#x62e;" horiz-adv-x="723" arabic-form="medial" 
d="M-48 20.5q-21 21.5 -21 50.5t20.5 50t48.5 21h35q99 0 172.5 20t149.5 60q79 43 121 63l-99 50q-50 26 -77.5 36.5t-51.5 10.5q-38 0 -65 -27t-63 -87l-78 50q41 103 92.5 151.5t109.5 48.5q37 0 79 -15t106 -47l60 -30l51 -25q92 -42 147 -55l-23 -130l-29 1
q-11 0 -39 -2q-19 -2 -34 -9q13 -35 49.5 -49.5t109.5 -14.5q29 0 49 -21t20 -50t-20.5 -50.5t-48.5 -21.5q-111 0 -175.5 36.5t-85.5 112.5q-15 -8 -37 -21q-114 -65 -205.5 -96.5t-196.5 -31.5h-22q-28 0 -49 21.5zM158 652v5l72 80h5l82 -73v-5l-72 -80h-5z" />
    <glyph glyph-name="uniFEA9" unicode="&#x62f;" horiz-adv-x="537" arabic-form="isolated" 
d="M84 15.5q-42 39.5 -42 111.5q0 58 31 157l88 -21q-14 -53 -14 -88q0 -32 20 -45.5t63 -13.5q48 0 91.5 10t56.5 29q7 9 7 18q0 135 -164 259l70 102q112 -88 158 -175.5t46 -181.5q0 -102 -76.5 -152.5t-209.5 -49.5q-83 1 -125 40.5z" />
    <glyph glyph-name="uniFEAA" unicode="&#x62f;" horiz-adv-x="629" arabic-form="final" 
d="M42 126q0 60 31 158l88 -20q-14 -55 -14 -88q0 -32 19.5 -46t63.5 -14q98 0 169 43q-17 33 -30 79l-68 244l110 55l69 -258q20 -75 54 -106t95 -31q29 0 49 -21t20 -50t-20.5 -50.5t-48.5 -21.5q-106 0 -170 70q-34 -46 -98.5 -70t-138.5 -24q-180 0 -180 151z" />
    <glyph glyph-name="uniFEAB" unicode="&#x630;" horiz-adv-x="537" arabic-form="isolated" 
d="M84 15.5q-42 39.5 -42 111.5q0 58 31 157l88 -21q-14 -53 -14 -88q0 -32 20 -45.5t63 -13.5q48 0 91.5 10t56.5 29q7 9 7 18q0 135 -164 259l70 102q112 -88 158 -175.5t46 -181.5q0 -102 -76.5 -152.5t-209.5 -49.5q-83 1 -125 40.5zM183 657v5l72 80h5l82 -73v-5
l-72 -80h-5z" />
    <glyph glyph-name="uniFEAC" unicode="&#x630;" horiz-adv-x="629" arabic-form="final" 
d="M42 126q0 60 31 158l88 -20q-14 -55 -14 -88q0 -32 19.5 -46t63.5 -14q98 0 169 43q-17 33 -30 79l-68 244l110 55l69 -258q20 -75 54 -106t95 -31q29 0 49 -21t20 -50t-20.5 -50.5t-48.5 -21.5q-106 0 -170 70q-34 -46 -98.5 -70t-138.5 -24q-180 0 -180 151zM239 688v5
l72 80h5l82 -73v-5l-72 -80h-5z" />
    <glyph glyph-name="uniFEAD" unicode="&#x631;" horiz-adv-x="473" arabic-form="isolated" 
d="M250 -86q66 52 66 154q0 46 -15 108t-45 149l116 53q29 -90 44 -161.5t15 -130.5q0 -169 -96.5 -261.5t-288.5 -84.5l-4 118q142 4 208 56z" />
    <glyph glyph-name="uniFEAE" unicode="&#x631;" horiz-adv-x="557" arabic-form="final" 
d="M64 -144q131 13 191.5 64t60.5 148q0 48 -14 110t-41 150l118 50l25 -98q14 -59 30 -87.5t43.5 -39.5t79.5 -11q28 0 48.5 -21t20.5 -50t-20.5 -50.5t-48.5 -21.5q-82 0 -130 36q-11 -115 -68 -185q-88 -110 -281 -110q-21 0 -32 1l-4 114q15 0 22 1z" />
    <glyph glyph-name="uniFEAF" unicode="&#x632;" horiz-adv-x="473" arabic-form="isolated" 
d="M250 -86q66 52 66 154q0 46 -15 108t-45 149l116 53q29 -90 44 -161.5t15 -130.5q0 -169 -96.5 -261.5t-288.5 -84.5l-4 118q142 4 208 56zM203 527v5l72 80h5l82 -73v-5l-72 -80h-5z" />
    <glyph glyph-name="uniFEB0" unicode="&#x632;" horiz-adv-x="557" arabic-form="final" 
d="M64 -144q131 13 191.5 64t60.5 148q0 48 -14 110t-41 150l118 50l25 -98q14 -59 30 -87.5t43.5 -39.5t79.5 -11q28 0 48.5 -21t20.5 -50t-20.5 -50.5t-48.5 -21.5q-82 0 -130 36q-11 -115 -68 -185q-88 -110 -281 -110q-21 0 -32 1l-4 114q15 0 22 1zM215 527v5l72 80h5
l82 -73v-5l-72 -80h-5z" />
    <glyph glyph-name="uniFEB1" unicode="&#x633;" horiz-adv-x="1342" arabic-form="isolated" 
d="M1257.5 52.5q-43.5 -52.5 -128.5 -52.5q-43 0 -82.5 16.5t-72.5 48.5q-31 -32 -77 -48.5t-101 -16.5q-45 0 -80 14l-1 -14q0 -81 -46 -141.5t-131.5 -93t-199.5 -31.5q-85 0 -145.5 31.5t-91.5 88t-31 130.5q0 68 19 144.5t57 174.5l96 -36q-55 -166 -55 -272
q0 -55 39 -86.5t124 -31.5q57 0 115 14t97 44.5t39 76.5q0 45 -17 133.5t-41 180.5l113 47q27 -117 39 -177q7 -31 31.5 -42.5t61.5 -11.5q40 0 72.5 11.5t47.5 32.5q11 14 16 28.5t8 43.5t8 95l95 -4l-1 -42q-2 -100 -7 -136q24 -14 51 -21t50 -7q32 0 47 13.5t15 44.5
q0 43 -34 206l117 38q27 -150 27 -229q1 -111 -42.5 -163.5z" />
    <glyph glyph-name="uniFEB2" unicode="&#x633;" horiz-adv-x="1453" arabic-form="final" 
d="M1501.5 121q20.5 -21 20.5 -50t-20.5 -50.5t-48.5 -21.5q-132 0 -194 66q-45 -66 -130 -66q-42 0 -82 17t-73 48q-32 -32 -77.5 -48.5t-100.5 -16.5q-42 0 -80 15l-1 -14q0 -81 -46 -141.5t-131.5 -93t-199.5 -31.5q-137 1 -209.5 68.5t-72.5 181.5q0 68 19 144.5
t57 174.5l96 -36q-59 -177 -55 -270q2 -53 46.5 -86.5t130.5 -33.5q57 0 115 14t97 45t39 77q0 45 -17 133.5t-41 179.5l113 47q27 -117 39 -177q7 -31 31.5 -42.5t61.5 -11.5q40 0 72.5 11.5t47.5 32.5q11 14 16 28.5t8 43.5t8 95l95 -4l-1 -42q-2 -100 -7 -136
q24 -15 51 -22t50 -7q41 0 53 25q9 18 9 61l-1 37l-4 124l103 20l14 -130q5 -59 18.5 -87t43 -39t89.5 -11q28 0 48.5 -21z" />
    <glyph glyph-name="uniFEB3" unicode="&#x633;" horiz-adv-x="885" arabic-form="initial" 
d="M801 52q-43 -53 -129 -53q-85 0 -156 65q-31 -31 -78 -48t-99 -17q-80 0 -155 49q-61 -49 -183 -49q-28 0 -49 22t-21 51t20.5 49.5t49.5 20.5q105 0 134 44q10 14 15.5 28.5t9 45t8.5 93.5l94 -3q-1 -83 -3 -125t-9 -72q42 -11 81 -11q41 0 73 11t47 32q14 20 19.5 49
t12.5 119l95 -4l-1 -37q-1 -44 -2.5 -81t-5.5 -60q24 -15 51 -22t51 -7q32 0 47 14t15 47q-1 44 -34 203l116 39q26 -149 28 -229q1 -111 -42 -164z" />
    <glyph glyph-name="uniFEB4" unicode="&#x633;" horiz-adv-x="1003" arabic-form="medial" 
d="M1044.5 121q20.5 -21 20.5 -50t-20.5 -50.5t-48.5 -21.5q-68 0 -115.5 16t-78.5 50q-45 -65 -130 -65t-156 65q-31 -32 -76.5 -48.5t-100.5 -16.5q-80 0 -155 49q-61 -49 -183 -49q-28 0 -49 22t-21 51t20.5 49.5t49.5 20.5q105 0 134 44q11 15 16 29t8.5 43.5t8.5 93.5
l94 -3q-1 -90 -3 -128t-9 -68q39 -11 81 -11q41 0 73 11t47 32q10 15 15 29.5t8.5 44t8.5 93.5l95 -4l-1 -37q-1 -44 -2.5 -80.5t-5.5 -59.5q24 -15 51 -22t51 -7q22 0 34.5 6t18.5 18q8 16 8 55q0 26 -1 43l-4 124l104 20l13 -130q6 -59 19.5 -87t43 -39t89.5 -11
q28 0 48.5 -21z" />
    <glyph glyph-name="uniFEB5" unicode="&#x634;" horiz-adv-x="1342" arabic-form="isolated" 
d="M1257.5 52.5q-43.5 -52.5 -128.5 -52.5q-43 0 -82.5 16.5t-72.5 48.5q-31 -32 -77 -48.5t-101 -16.5q-45 0 -80 14l-1 -14q0 -81 -46 -141.5t-131.5 -93t-199.5 -31.5q-85 0 -145.5 31.5t-91.5 88t-31 130.5q0 68 19 144.5t57 174.5l96 -36q-55 -166 -55 -272
q0 -55 39 -86.5t124 -31.5q57 0 115 14t97 44.5t39 76.5q0 45 -17 133.5t-41 180.5l113 47q27 -117 39 -177q7 -31 31.5 -42.5t61.5 -11.5q40 0 72.5 11.5t47.5 32.5q11 14 16 28.5t8 43.5t8 95l95 -4l-1 -42q-2 -100 -7 -136q24 -14 51 -21t50 -7q32 0 47 13.5t15 44.5
q0 43 -34 206l117 38q27 -150 27 -229q1 -111 -42.5 -163.5zM977 592h-4l-75 67v4l65 72h4l76 -66v-4zM1048 607l79 -70v-4l-69 -78h-5l-65 58l-67 -75h-4l-80 70v5l70 76h4l65 -57l67 75h5z" />
    <glyph glyph-name="uniFEB6" unicode="&#x634;" horiz-adv-x="1453" arabic-form="final" 
d="M1501.5 121q20.5 -21 20.5 -50t-20.5 -50.5t-48.5 -21.5q-132 0 -194 66q-45 -66 -130 -66q-42 0 -82 17t-73 48q-32 -32 -77.5 -48.5t-100.5 -16.5q-42 0 -80 15l-1 -14q0 -81 -46 -141.5t-131.5 -93t-199.5 -31.5q-137 1 -209.5 68.5t-72.5 181.5q0 68 19 144.5
t57 174.5l96 -36q-59 -177 -55 -270q2 -53 46.5 -86.5t130.5 -33.5q57 0 115 14t97 45t39 77q0 45 -17 133.5t-41 179.5l113 47q27 -117 39 -177q7 -31 31.5 -42.5t61.5 -11.5q40 0 72.5 11.5t47.5 32.5q11 14 16 28.5t8 43.5t8 95l95 -4l-1 -42q-2 -100 -7 -136
q24 -15 51 -22t50 -7q41 0 53 25q9 18 9 61l-1 37l-4 124l103 20l14 -130q5 -59 18.5 -87t43 -39t89.5 -11q28 0 48.5 -21zM978 588h-4l-75 67v4l65 72h4l76 -66v-4zM1049 603l79 -70v-4l-69 -78h-5l-65 58l-67 -75h-4l-80 70v5l70 76h4l65 -57l67 75h5z" />
    <glyph glyph-name="uniFEB7" unicode="&#x634;" horiz-adv-x="885" arabic-form="initial" 
d="M801 52q-43 -53 -129 -53q-85 0 -156 65q-31 -31 -78 -48t-99 -17q-80 0 -155 49q-61 -49 -183 -49q-28 0 -49 22t-21 51t20.5 49.5t49.5 20.5q105 0 134 44q10 14 15.5 28.5t9 45t8.5 93.5l94 -3q-1 -83 -3 -125t-9 -72q42 -11 81 -11q41 0 73 11t47 32q14 20 19.5 49
t12.5 119l95 -4l-1 -37q-1 -44 -2.5 -81t-5.5 -60q24 -15 51 -22t51 -7q32 0 47 14t15 47q-1 44 -34 203l116 39q26 -149 28 -229q1 -111 -42 -164zM517 589h-4l-75 67v4l65 72h4l76 -66v-4zM588 604l79 -70v-4l-69 -78h-5l-65 58l-67 -75h-4l-80 70v5l70 76h4l65 -57l67 75
h5z" />
    <glyph glyph-name="uniFEB8" unicode="&#x634;" horiz-adv-x="1003" arabic-form="medial" 
d="M1044.5 121q20.5 -21 20.5 -50t-20.5 -50.5t-48.5 -21.5q-68 0 -115.5 16t-78.5 50q-45 -65 -130 -65t-156 65q-31 -32 -76.5 -48.5t-100.5 -16.5q-80 0 -155 49q-61 -49 -183 -49q-28 0 -49 22t-21 51t20.5 49.5t49.5 20.5q105 0 134 44q11 15 16 29t8.5 43.5t8.5 93.5
l94 -3q-1 -90 -3 -128t-9 -68q39 -11 81 -11q41 0 73 11t47 32q10 15 15 29.5t8.5 44t8.5 93.5l95 -4l-1 -37q-1 -44 -2.5 -80.5t-5.5 -59.5q24 -15 51 -22t51 -7q22 0 34.5 6t18.5 18q8 16 8 55q0 26 -1 43l-4 124l104 20l13 -130q6 -59 19.5 -87t43 -39t89.5 -11
q28 0 48.5 -21zM517 589h-4l-75 67v4l65 72h4l76 -66v-4zM588 604l79 -70v-4l-69 -78h-5l-65 58l-67 -75h-4l-80 70v5l70 76h4l65 -57l67 75h5z" />
    <glyph glyph-name="uniFEB9" unicode="&#x635;" horiz-adv-x="1370" arabic-form="isolated" 
d="M116.5 -198q-74.5 67 -74.5 182q0 68 19 144.5t57 174.5l96 -36q-55 -165 -55 -270q0 -57 43.5 -88.5t147.5 -31.5q57 0 115 14t97 45t39 77q0 45 -17 133.5t-41 179.5l113 47l28 -119q8 -33 27.5 -52.5t52.5 -31.5q34 120 77 191t99 101.5t130 30.5q81 0 140.5 -42
t89.5 -116t27 -168q-2 -53 -54.5 -92t-135.5 -59t-174 -20q-73 0 -137 14t-110 40q0 -34 -1 -50q-5 -81 -51 -141.5t-129 -93t-197 -31.5q-147 1 -221.5 68zM1136 156q73 17 80 43q1 2 1 9q0 25 -7 50.5t-19 43.5q-35 53 -122 53q-71 0 -121.5 -45.5t-81.5 -159.5
q46 -11 103 -11q94 0 167 17z" />
    <glyph glyph-name="uniFEBA" unicode="&#x635;" horiz-adv-x="1398" arabic-form="final" 
d="M1446.5 121q20.5 -21 20.5 -50t-20.5 -50.5t-48.5 -21.5q-92 0 -156 56q-52 -29 -126 -44t-153 -15q-73 0 -137 14t-110 40q0 -34 -1 -50q-5 -81 -51 -141.5t-129 -93t-197 -31.5q-137 1 -209.5 68.5t-72.5 181.5q0 68 19 144.5t57 174.5l96 -36q-59 -177 -55 -270
q2 -53 47 -86.5t130 -33.5q57 0 115 14t97 45t39 77q0 45 -17 133.5t-41 179.5l113 47l28 -119q8 -33 27.5 -52.5t52.5 -31.5q34 120 77 191t99 101.5t130 30.5q81 0 140.5 -42t89.5 -116t27 -168q0 -10 -3 -21q24 -4 74 -4q28 0 48.5 -21zM969 139q94 0 167 17t80 43
q1 2 1 9q0 25 -7 50.5t-19 43.5q-35 53 -122 53q-71 0 -121.5 -45.5t-81.5 -159.5q46 -11 103 -11z" />
    <glyph glyph-name="uniFEBB" unicode="&#x635;" horiz-adv-x="918" arabic-form="initial" 
d="M757.5 451.5q59.5 -41.5 90 -115t27.5 -165.5q-2 -55 -54.5 -94.5t-135 -60t-174.5 -20.5t-171 20t-133 56q-33 -37 -82.5 -55t-124.5 -18q-28 0 -48.5 21.5t-20.5 50.5t20 49.5t49 21.5q106 1 135 45q11 15 16 30.5t10 54.5l3 39l4 42l94 -3v-52q0 -31 -1 -44
q-2 -41 -4 -61q23 -12 55 -24q49 174 123 249t182 75q81 0 140.5 -41.5zM764 208q0 26 -6.5 51t-18.5 43q-35 53 -122 53q-70 0 -122.5 -46.5t-83.5 -162.5q50 -7 106 -7q94 0 167 17t80 43v9z" />
    <glyph glyph-name="uniFEBC" unicode="&#x635;" horiz-adv-x="946" arabic-form="medial" 
d="M994.5 121q20.5 -21 20.5 -50t-20.5 -50.5t-48.5 -21.5q-102 0 -160 55q-51 -28 -124.5 -43t-150.5 -15q-92 0 -171 20t-133 56q-33 -37 -82.5 -55t-124.5 -18q-28 0 -48.5 21.5t-20.5 50.5t20 49.5t49 21.5q106 1 135 45q11 15 16 30.5t10 54.5l3 39l4 42l94 -3v-52
q0 -31 -1 -44q-2 -41 -4 -61q23 -12 55 -24q49 174 123 249t182 75q81 0 140.5 -41.5t90 -115t27.5 -165.5q0 -10 -4 -24q24 -5 75 -5q28 0 48.5 -21zM517 139q94 0 167 17t80 43v9q0 26 -6.5 51t-18.5 43q-35 53 -122 53q-70 0 -122.5 -46.5t-83.5 -162.5q50 -7 106 -7z
" />
    <glyph glyph-name="uniFEBD" unicode="&#x636;" horiz-adv-x="1370" arabic-form="isolated" 
d="M116.5 -198q-74.5 67 -74.5 182q0 68 19 144.5t57 174.5l96 -36q-55 -165 -55 -270q0 -57 43.5 -88.5t147.5 -31.5q57 0 115 14t97 45t39 77q0 45 -17 133.5t-41 179.5l113 47l28 -119q8 -33 27.5 -52.5t52.5 -31.5q34 120 77 191t99 101.5t130 30.5q81 0 140.5 -42
t89.5 -116t27 -168q-2 -53 -54.5 -92t-135.5 -59t-174 -20q-73 0 -137 14t-110 40q0 -34 -1 -50q-5 -81 -51 -141.5t-129 -93t-197 -31.5q-147 1 -221.5 68zM1136 156q73 17 80 43q1 2 1 9q0 25 -7 50.5t-19 43.5q-35 53 -122 53q-71 0 -121.5 -45.5t-81.5 -159.5
q46 -11 103 -11q94 0 167 17zM951 645v5l72 80h5l82 -73v-5l-72 -80h-5z" />
    <glyph glyph-name="uniFEBE" unicode="&#x636;" horiz-adv-x="1398" arabic-form="final" 
d="M1446.5 121q20.5 -21 20.5 -50t-20.5 -50.5t-48.5 -21.5q-92 0 -156 56q-52 -29 -126 -44t-153 -15q-73 0 -137 14t-110 40q0 -34 -1 -50q-5 -81 -51 -141.5t-129 -93t-197 -31.5q-137 1 -209.5 68.5t-72.5 181.5q0 68 19 144.5t57 174.5l96 -36q-59 -177 -55 -270
q2 -53 47 -86.5t130 -33.5q57 0 115 14t97 45t39 77q0 45 -17 133.5t-41 179.5l113 47l28 -119q8 -33 27.5 -52.5t52.5 -31.5q34 120 77 191t99 101.5t130 30.5q81 0 140.5 -42t89.5 -116t27 -168q0 -10 -3 -21q24 -4 74 -4q28 0 48.5 -21zM969 139q94 0 167 17t80 43
q1 2 1 9q0 25 -7 50.5t-19 43.5q-35 53 -122 53q-71 0 -121.5 -45.5t-81.5 -159.5q46 -11 103 -11zM951 645v5l72 80h5l82 -73v-5l-72 -80h-5z" />
    <glyph glyph-name="uniFEBF" unicode="&#x636;" horiz-adv-x="918" arabic-form="initial" 
d="M757.5 451.5q59.5 -41.5 90 -115t27.5 -165.5q-2 -55 -54.5 -94.5t-135 -60t-174.5 -20.5t-171 20t-133 56q-33 -37 -82.5 -55t-124.5 -18q-28 0 -48.5 21.5t-20.5 50.5t20 49.5t49 21.5q106 1 135 45q11 15 16 30.5t10 54.5l3 39l4 42l94 -3v-52q0 -31 -1 -44
q-2 -41 -4 -61q23 -12 55 -24q49 174 123 249t182 75q81 0 140.5 -41.5zM764 208q0 26 -6.5 51t-18.5 43q-35 53 -122 53q-70 0 -122.5 -46.5t-83.5 -162.5q50 -7 106 -7q94 0 167 17t80 43v9zM500 645v5l72 80h5l82 -73v-5l-72 -80h-5z" />
    <glyph glyph-name="uniFEC0" unicode="&#x636;" horiz-adv-x="946" arabic-form="medial" 
d="M994.5 121q20.5 -21 20.5 -50t-20.5 -50.5t-48.5 -21.5q-102 0 -160 55q-51 -28 -124.5 -43t-150.5 -15q-92 0 -171 20t-133 56q-33 -37 -82.5 -55t-124.5 -18q-28 0 -48.5 21.5t-20.5 50.5t20 49.5t49 21.5q106 1 135 45q11 15 16 30.5t10 54.5l3 39l4 42l94 -3v-52
q0 -31 -1 -44q-2 -41 -4 -61q23 -12 55 -24q49 174 123 249t182 75q81 0 140.5 -41.5t90 -115t27.5 -165.5q0 -10 -4 -24q24 -5 75 -5q28 0 48.5 -21zM517 139q94 0 167 17t80 43v9q0 26 -6.5 51t-18.5 43q-35 53 -122 53q-70 0 -122.5 -46.5t-83.5 -162.5q50 -7 106 -7z
M500 645v5l72 80h5l82 -73v-5l-72 -80h-5z" />
    <glyph glyph-name="uniFEC1" unicode="&#x637;" horiz-adv-x="769" arabic-form="isolated" 
d="M51 24l-9 140l110 -12q10 35 13 52t3 44v31l-5 443l123 19l1 -236q0 -34 -2.5 -57t-10.5 -57q71 103 193 103q81 0 141 -41.5t90.5 -113t27.5 -160.5q-2 -58 -54.5 -98t-140 -60t-195.5 -20q-160 0 -285 23zM541.5 159.5q73.5 16.5 73.5 46.5v4q0 59 -32.5 102.5
t-114.5 43.5q-51 0 -87 -18t-64.5 -64t-53.5 -129q60 -2 91 -2q114 0 187.5 16.5z" />
    <glyph glyph-name="uniFEC2" unicode="&#x637;" horiz-adv-x="807" arabic-form="final" 
d="M855.5 121q20.5 -21 20.5 -50t-20.5 -50.5t-48.5 -21.5q-59 0 -101 13.5t-73 42.5q-53 -27 -130 -41.5t-167 -14.5q-154 0 -285 24l-9 140q53 -7 110 -12q10 35 13 52t3 44v31l-5 444l123 19l1 -238q0 -34 -2.5 -57t-10.5 -56q71 103 193 103q81 0 141 -41.5t90.5 -113
t27.5 -160.5q0 -15 -5 -32q25 -4 86 -4q28 0 48.5 -21zM354 142q114 0 187.5 16.5t73.5 46.5v4q0 59 -32.5 102.5t-114.5 43.5q-51 0 -87 -18t-64.5 -64t-53.5 -129q60 -2 91 -2z" />
    <glyph glyph-name="uniFEC3" unicode="&#x637;" horiz-adv-x="700" arabic-form="initial" 
d="M-48.5 20.5q-20.5 21.5 -20.5 50.5t20 50t49 21h79q15 41 18 63t2 73l-5 444l124 19v-238q0 -36 -2 -58t-11 -55q71 103 194 103q81 0 141 -41.5t90.5 -113t26.5 -160.5q-2 -58 -54.5 -98.5t-140 -60.5t-195.5 -20h-267q-28 0 -48.5 21.5zM472.5 158.5
q73.5 16.5 73.5 46.5v5q0 69 -38.5 107t-108.5 38q-72 0 -123 -46.5t-84 -166.5h93q114 0 187.5 16.5z" />
    <glyph glyph-name="uniFEC4" unicode="&#x637;" horiz-adv-x="738" arabic-form="medial" 
d="M786.5 121q20.5 -21 20.5 -50t-20.5 -50.5t-48.5 -21.5q-59 0 -101 13.5t-73 42.5q-53 -27 -130 -41.5t-167 -14.5h-267q-28 0 -48.5 21.5t-20.5 50.5t20 50t49 21h79q15 41 18 63t2 73l-5 444l124 19v-238q0 -36 -2 -58t-11 -55q71 103 194 103q81 0 141 -41.5
t90.5 -113t26.5 -160.5q0 -15 -5 -32q25 -4 86 -4q28 0 48.5 -21zM285 142q114 0 187.5 16.5t73.5 46.5v5q0 58 -33 101.5t-114 43.5q-72 0 -123 -46.5t-84 -166.5h93z" />
    <glyph glyph-name="uniFEC5" unicode="&#x638;" horiz-adv-x="769" arabic-form="isolated" 
d="M51 24l-9 140l110 -12q10 35 13 52t3 44v31l-5 443l123 19l1 -236q0 -34 -2.5 -57t-10.5 -57q71 103 193 103q81 0 141 -41.5t90.5 -113t27.5 -160.5q-2 -58 -54.5 -98t-140 -60t-195.5 -20q-160 0 -285 23zM541.5 159.5q73.5 16.5 73.5 46.5v4q0 59 -32.5 102.5
t-114.5 43.5q-51 0 -87 -18t-64.5 -64t-53.5 -129q60 -2 91 -2q114 0 187.5 16.5zM380 646v5l72 80h5l82 -73v-5l-72 -80h-5z" />
    <glyph glyph-name="uniFEC6" unicode="&#x638;" horiz-adv-x="807" arabic-form="final" 
d="M855.5 121q20.5 -21 20.5 -50t-20.5 -50.5t-48.5 -21.5q-59 0 -101 13.5t-73 42.5q-53 -27 -130 -41.5t-167 -14.5q-154 0 -285 24l-9 140q53 -7 110 -12q10 35 13 52t3 44v31l-5 444l123 19l1 -238q0 -34 -2.5 -57t-10.5 -56q71 103 193 103q81 0 141 -41.5t90.5 -113
t27.5 -160.5q0 -15 -5 -32q25 -4 86 -4q28 0 48.5 -21zM354 142q114 0 187.5 16.5t73.5 46.5v4q0 59 -32.5 102.5t-114.5 43.5q-51 0 -87 -18t-64.5 -64t-53.5 -129q60 -2 91 -2zM380 646v5l72 80h5l82 -73v-5l-72 -80h-5z" />
    <glyph glyph-name="uniFEC7" unicode="&#x638;" horiz-adv-x="700" arabic-form="initial" 
d="M-48.5 20.5q-20.5 21.5 -20.5 50.5t20 50t49 21h79q15 41 18 63t2 73l-5 444l124 19v-238q0 -36 -2 -58t-11 -55q71 103 194 103q81 0 141 -41.5t90.5 -113t26.5 -160.5q-2 -58 -54.5 -98.5t-140 -60.5t-195.5 -20h-267q-28 0 -48.5 21.5zM472.5 158.5
q73.5 16.5 73.5 46.5v5q0 69 -38.5 107t-108.5 38q-72 0 -123 -46.5t-84 -166.5h93q114 0 187.5 16.5zM308 646v5l72 80h5l82 -73v-5l-72 -80h-5z" />
    <glyph glyph-name="uniFEC8" unicode="&#x638;" horiz-adv-x="738" arabic-form="medial" 
d="M786.5 121q20.5 -21 20.5 -50t-20.5 -50.5t-48.5 -21.5q-59 0 -101 13.5t-73 42.5q-53 -27 -130 -41.5t-167 -14.5h-267q-28 0 -48.5 21.5t-20.5 50.5t20 50t49 21h79q15 41 18 63t2 73l-5 444l124 19v-238q0 -36 -2 -58t-11 -55q71 103 194 103q81 0 141 -41.5
t90.5 -113t26.5 -160.5q0 -15 -5 -32q25 -4 86 -4q28 0 48.5 -21zM285 142q114 0 187.5 16.5t73.5 46.5v5q0 58 -33 101.5t-114 43.5q-72 0 -123 -46.5t-84 -166.5h93zM308 646v5l72 80h5l82 -73v-5l-72 -80h-5z" />
    <glyph glyph-name="uniFEC9" unicode="&#x639;" horiz-adv-x="714" arabic-form="isolated" 
d="M671 -277q-63 -19 -137.5 -27t-142.5 -8q-171 0 -260 65t-89 197q0 134 98 229q-84 97 -84 218q0 79 28.5 137t76.5 89t105 31q58 0 114 -31t102 -91l-51 -77q-37 32 -74 49.5t-71 17.5q-58 0 -86.5 -37t-28.5 -88q0 -36 16 -74.5t51 -69.5q103 63 309 136l14 -129
q-147 -53 -231.5 -95t-124.5 -87t-40 -103q0 -78 71.5 -112.5t194.5 -34.5q51 0 115 4.5t118 12.5z" />
    <glyph glyph-name="uniFECA" unicode="&#x639;" horiz-adv-x="699" arabic-form="final" 
d="M747 121q21 -21 21 -50t-20.5 -50.5t-48.5 -21.5h-9q-102 0 -209.5 41t-203.5 113q-56 -40 -84 -83.5t-28 -93.5q0 -77 70.5 -112.5t195.5 -35.5q51 0 115 4.5t118 12.5l7 -122q-62 -19 -137 -27t-145 -8q-169 0 -258 66t-89 198q0 162 143 279q-70 69 -120 147l26 145
q110 35 177 49t126 14q60 0 101.5 -21t62.5 -56t21 -76q0 -56 -24 -110.5t-80 -130.5q109 -50 214 -50h9q28 0 49 -21zM467 399q0 26 -25 40t-67 14q-67 0 -203 -40q87 -105 198 -175q97 109 97 161z" />
    <glyph glyph-name="uniFECB" unicode="&#x639;" horiz-adv-x="648" arabic-form="initial" 
d="M606 106q-134 -52 -274.5 -79.5t-328.5 -27.5q-28 0 -49 21.5t-21 50.5t20.5 50t48.5 21q47 0 119 2q-24 59 -24 123q0 79 29 137.5t77 89t105 30.5t113.5 -31t100.5 -91l-49 -78q-76 68 -146 68q-58 0 -86.5 -37t-28.5 -88q0 -61 39 -114q86 10 159 28.5t182 54.5z" />
    <glyph glyph-name="uniFECC" unicode="&#x639;" horiz-adv-x="637" arabic-form="medial" 
d="M685 121q21 -21 21 -50t-20.5 -50.5t-48.5 -21.5q-124 0 -217.5 23t-165.5 70q-45 -44 -111.5 -68.5t-142.5 -24.5q-28 0 -48.5 21.5t-20.5 50.5t20 50t49 21q109 0 163 25q-49 49 -102 130l27 144q109 35 173 49t122 14q89 0 137 -45.5t48 -114.5q0 -47 -16.5 -92
t-54.5 -99q58 -11 139 -11q28 0 49 -21zM456 311q0 30 -24.5 45t-66.5 15q-68 0 -198 -40q48 -60 98 -98.5t115 -59.5q76 91 76 138z" />
    <glyph glyph-name="uniFECD" unicode="&#x63a;" horiz-adv-x="714" arabic-form="isolated" 
d="M671 -277q-63 -19 -137.5 -27t-142.5 -8q-171 0 -260 65t-89 197q0 134 98 229q-84 97 -84 218q0 79 28.5 137t76.5 89t105 31q58 0 114 -31t102 -91l-51 -77q-37 32 -74 49.5t-71 17.5q-58 0 -86.5 -37t-28.5 -88q0 -36 16 -74.5t51 -69.5q103 63 309 136l14 -129
q-147 -53 -231.5 -95t-124.5 -87t-40 -103q0 -78 71.5 -112.5t194.5 -34.5q51 0 115 4.5t118 12.5zM161 797v5l72 80h5l82 -73v-5l-72 -80h-5z" />
    <glyph glyph-name="uniFECE" unicode="&#x63a;" horiz-adv-x="699" arabic-form="final" 
d="M747 121q21 -21 21 -50t-20.5 -50.5t-48.5 -21.5h-9q-102 0 -209.5 41t-203.5 113q-56 -40 -84 -83.5t-28 -93.5q0 -77 70.5 -112.5t195.5 -35.5q51 0 115 4.5t118 12.5l7 -122q-62 -19 -137 -27t-145 -8q-169 0 -258 66t-89 198q0 162 143 279q-70 69 -120 147l26 145
q110 35 177 49t126 14q60 0 101.5 -21t62.5 -56t21 -76q0 -56 -24 -110.5t-80 -130.5q109 -50 214 -50h9q28 0 49 -21zM467 399q0 26 -25 40t-67 14q-67 0 -203 -40q87 -105 198 -175q97 109 97 161zM220 721v5l72 80h5l82 -73v-5l-72 -80h-5z" />
    <glyph glyph-name="uniFECF" unicode="&#x63a;" horiz-adv-x="648" arabic-form="initial" 
d="M606 106q-134 -52 -274.5 -79.5t-328.5 -27.5q-28 0 -49 21.5t-21 50.5t20.5 50t48.5 21q47 0 119 2q-24 59 -24 123q0 79 29 137.5t77 89t105 30.5t113.5 -31t100.5 -91l-49 -78q-76 68 -146 68q-58 0 -86.5 -37t-28.5 -88q0 -61 39 -114q86 10 159 28.5t182 54.5z
M213 666v5l72 80h5l82 -73v-5l-72 -80h-5z" />
    <glyph glyph-name="uniFED0" unicode="&#x63a;" horiz-adv-x="637" arabic-form="medial" 
d="M685 121q21 -21 21 -50t-20.5 -50.5t-48.5 -21.5q-124 0 -217.5 23t-165.5 70q-45 -44 -111.5 -68.5t-142.5 -24.5q-28 0 -48.5 21.5t-20.5 50.5t20 50t49 21q109 0 163 25q-49 49 -102 130l27 144q109 35 173 49t122 14q89 0 137 -45.5t48 -114.5q0 -47 -16.5 -92
t-54.5 -99q58 -11 139 -11q28 0 49 -21zM456 311q0 30 -24.5 45t-66.5 15q-68 0 -198 -40q48 -60 98 -98.5t115 -59.5q76 91 76 138zM222 645v5l72 80h5l82 -73v-5l-72 -80h-5z" />
    <glyph glyph-name="uniFED1" unicode="&#x641;" horiz-adv-x="894" arabic-form="isolated" 
d="M738.5 622q53.5 -43 83.5 -125t30 -196q0 -106 -28 -165q-40 -85 -163 -116t-291 -31q-171 0 -249.5 57t-78.5 175q0 92 49 225l90 -27q-28 -101 -28 -157q0 -55 27.5 -83t82 -38t150.5 -10q77 0 142 7.5t106 20.5q46 14 61 32.5t15 58.5v4q-69 -30 -163 -30
q-86 0 -123.5 37t-37.5 119q0 126 52 205.5t152 79.5q68 0 121.5 -43zM730 367q-21 167 -116 167q-50 0 -70 -37t-20 -91q0 -31 18 -43.5t64 -12.5q68 0 124 17zM528 816v5l72 80h5l82 -73v-5l-72 -80h-5z" />
    <glyph glyph-name="uniFED2" unicode="&#x641;" horiz-adv-x="1029" arabic-form="final" 
d="M1077.5 121q20.5 -21 20.5 -50t-20 -50.5t-48 -21.5q-207 0 -336 57q-60 -35 -140 -51t-187 -16q-169 0 -247 57t-78 175q0 92 49 225l91 -27q-29 -99 -29 -157q0 -50 22.5 -78t68 -39t123.5 -12h31q107 0 173 15q-48 62 -48 148q0 101 61 155.5t159 54.5
q100 0 155 -54.5t55 -146.5q0 -75 -37 -159q52 -4 113 -4q28 0 48.5 -21zM665.5 349q-27.5 -21 -27.5 -62q0 -91 168 -125q32 73 32 123q0 85 -95 85q-50 0 -77.5 -21zM652 653v5l72 80h5l82 -73v-5l-72 -80h-5z" />
    <glyph glyph-name="uniFED3" unicode="&#x641;" horiz-adv-x="544" arabic-form="initial" 
d="M-48.5 121q20.5 21 49.5 21q114 0 196 3t120 17q30 9 44 19.5t19 26.5t6 47q-65 -32 -163 -32q-86 0 -123 37t-37 120q0 125 52.5 204.5t150.5 79.5q68 0 121.5 -42.5t84 -124t30.5 -192.5q0 -115 -34 -179q-34 -65 -131 -96q-60 -20 -137.5 -25.5t-198.5 -5.5
q-28 0 -49 21.5t-21 50.5t20.5 50zM192 361.5q18 -12.5 63 -12.5q69 0 124 18q-11 80 -39 123t-77 43q-48 0 -68.5 -37.5t-20.5 -89.5q0 -32 18 -44.5zM176 816v5l72 80h5l82 -73v-5l-72 -80h-5z" />
    <glyph glyph-name="uniFED4" unicode="&#x641;" horiz-adv-x="594" arabic-form="medial" 
d="M642.5 121q20.5 -21 20.5 -50t-20 -50.5t-48 -21.5q-210 0 -338 58q-44 -31 -103.5 -44.5t-153.5 -13.5q-28 0 -48.5 21.5t-20.5 50.5t20 50t49 21q89 0 134 7q-47 63 -47 147q0 100 61 153t159 53q101 0 156 -52.5t55 -144.5q0 -76 -38 -159q53 -4 114 -4q28 0 48.5 -21
zM230 348.5q-28 -21.5 -28 -61.5q0 -48 46 -78.5t122 -46.5q32 73 32 123q0 42 -24 63.5t-71 21.5q-49 0 -77 -21.5zM190 653v5l72 80h5l82 -73v-5l-72 -80h-5z" />
    <glyph glyph-name="uniFED5" unicode="&#x642;" horiz-adv-x="796" arabic-form="isolated" 
d="M638 415q54 -43 85 -129.5t31 -211.5q0 -56 -6 -95t-19 -68q-35 -78 -137 -128t-256 -50q-145 1 -219.5 68.5t-74.5 182.5q0 63 17 133.5t50 155.5l96 -35q-46 -147 -46 -232q0 -66 44.5 -98t159.5 -32q64 0 127.5 15.5t105 47.5t41.5 78v14q-35 -15 -75.5 -23.5
t-79.5 -8.5q-92 1 -131.5 44.5t-39.5 129.5q0 125 52.5 205t150.5 80q70 0 124 -43zM628 161q-12 81 -40.5 123t-76.5 42t-68.5 -37.5t-20.5 -89.5q0 -32 18 -44.5t63 -12.5q62 0 125 19zM550 704l81 -71v-5l-71 -79h-5l-65 58l-69 -76h-5l-81 72v5l71 78h5l65 -58l69 76h5z
" />
    <glyph glyph-name="uniFED6" unicode="&#x642;" horiz-adv-x="807" arabic-form="final" 
d="M855.5 121q20.5 -21 20.5 -50t-21 -50.5t-49 -21.5h-55q-6 -53 -22 -88q-35 -78 -137 -128t-256 -50q-145 1 -219.5 68.5t-74.5 182.5q0 63 17 133.5t50 155.5l96 -35q-46 -147 -46 -232q0 -66 44.5 -98t159.5 -32q60 0 119.5 13.5t102 41.5t50.5 68h-153
q-92 0 -131.5 44t-39.5 130q0 126 52 205.5t151 79.5q63 0 113.5 -36t83 -107t40.5 -173h55q29 0 49.5 -21zM440 154.5q18 -12.5 63 -12.5h128q-22 184 -120 184q-48 0 -68.5 -37.5t-20.5 -89.5q0 -32 18 -44.5zM557 704l81 -71v-5l-71 -79h-5l-65 58l-69 -76h-5l-81 72v5
l71 78h5l65 -58l69 76h5z" />
    <glyph glyph-name="uniFED7" unicode="&#x642;" horiz-adv-x="544" arabic-form="initial" 
d="M-48.5 121q20.5 21 49.5 21q114 0 196 3t120 17q30 9 44 19.5t19 26.5t6 47q-65 -32 -163 -32q-86 0 -123 37t-37 120q0 125 52.5 204.5t150.5 79.5q68 0 121.5 -42.5t84 -124t30.5 -192.5q0 -115 -34 -179q-34 -65 -131 -96q-60 -20 -137.5 -25.5t-198.5 -5.5
q-28 0 -49 21.5t-21 50.5t20.5 50zM192 361.5q18 -12.5 63 -12.5q69 0 124 18q-11 80 -39 123t-77 43q-48 0 -68.5 -37.5t-20.5 -89.5q0 -32 18 -44.5zM305 913l81 -71v-5l-71 -79h-5l-65 58l-69 -76h-5l-81 72v5l71 78h5l65 -58l69 76h5z" />
    <glyph glyph-name="uniFED8" unicode="&#x642;" horiz-adv-x="594" arabic-form="medial" 
d="M642.5 121q20.5 -21 20.5 -50t-20 -50.5t-48 -21.5q-210 0 -338 58q-44 -31 -103.5 -44.5t-153.5 -13.5q-28 0 -48.5 21.5t-20.5 50.5t20 50t49 21q89 0 134 7q-47 63 -47 147q0 100 61 153t159 53q101 0 156 -52.5t55 -144.5q0 -76 -38 -159q53 -4 114 -4q28 0 48.5 -21
zM230 348.5q-28 -21.5 -28 -61.5q0 -48 46 -78.5t122 -46.5q32 73 32 123q0 42 -24 63.5t-71 21.5q-49 0 -77 -21.5zM349 749l81 -71v-5l-71 -79h-5l-65 58l-69 -76h-5l-81 72v5l71 78h5l65 -58l69 76h5z" />
    <glyph glyph-name="uniFED9" unicode="&#x643;" horiz-adv-x="854" arabic-form="isolated" 
d="M43 222q0 94 48 224l90 -27q-28 -100 -28 -152q0 -21 2 -31q6 -52 53 -75.5t155 -27.5l39 -1q130 0 210.5 32.5t79.5 99.5l-5 475l124 20l1 -510q0 -135 -125.5 -198t-332.5 -62q-311 3 -311 233zM328 302l11 58q47 -9 84 -9q43 0 56 14q2 28 -38 47t-97 21v22
q0 49 43.5 77t118.5 37l6 -59q-57 -10 -90 -30q53 -11 83.5 -41t30.5 -73q0 -41 -30 -60.5t-83 -19.5q-43 0 -95 16z" />
    <glyph glyph-name="uniFEDA" unicode="&#x643;" horiz-adv-x="924" arabic-form="final" 
d="M91 446l90 -27q-28 -100 -28 -152q0 -21 2 -31q6 -52 53 -75.5t155 -27.5l40 -1q127 0 208.5 27.5t80.5 78.5l-4 505l123 19l1 -490q0 -55 10.5 -82.5t33.5 -37.5t68 -10q28 0 48 -21t20 -50t-20 -50.5t-48 -21.5q-68 0 -113.5 22.5t-72.5 68.5q-53 -51 -149 -76
t-227 -25q-319 0 -319 233q0 94 48 224zM328 302l11 58q47 -9 84 -9q43 0 56 14q2 28 -38 47t-97 21v22q0 49 43.5 77t118.5 37l6 -59q-57 -10 -90 -30q53 -11 83.5 -41t30.5 -73q0 -41 -30 -60.5t-83 -19.5q-43 0 -95 16z" />
    <glyph glyph-name="uniFEDB" unicode="&#x643;" horiz-adv-x="458" arabic-form="initial" 
d="M-49 121q20 21 49 21h58q94 0 153.5 17t62.5 47q1 3 1 11q0 49 -67 121t-222 153l12 140l413 136l8 -131l-272 -96q137 -92 193.5 -172t56.5 -156q0 -15 -1 -22q-6 -58 -52.5 -101.5t-124 -66.5t-173.5 -23h-46q-28 0 -48.5 21.5t-20.5 50.5t20 50z" />
    <glyph glyph-name="uniFEDC" unicode="&#x643;" horiz-adv-x="605" arabic-form="medial" 
d="M-49 121q20 21 49 21h58q61 0 109.5 8.5t76 22.5t27.5 30q0 30 -40 76q-34 43 -102 102t-143 110l12 140l413 136l8 -131l-277 -97q125 -106 217 -217q67 -79 101 -113.5t67 -50.5t78 -16q29 0 49 -21t20 -50t-20.5 -50.5t-48.5 -21.5q-76 0 -130.5 27t-111.5 91
q-32 -56 -115 -87t-202 -31h-46q-28 0 -48.5 21.5t-20.5 50.5t20 50z" />
    <glyph glyph-name="uniFEDD" unicode="&#x644;" horiz-adv-x="709" arabic-form="isolated" 
d="M110 -198.5q-68 66.5 -68 183.5q0 123 75 318l95 -35q-26 -85 -40.5 -146t-14.5 -106q0 -70 40 -105t125 -35q91 0 161.5 38t69.5 132l-7 682l119 13l2 -684q0 -102 -45 -175t-125.5 -111t-184.5 -37q-134 1 -202 67.5z" />
    <glyph glyph-name="uniFEDE" unicode="&#x644;" horiz-adv-x="803" arabic-form="final" 
d="M109.5 -199q-67.5 67 -67.5 186q0 128 75 316l95 -36q-26 -82 -40.5 -141.5t-14.5 -106.5q0 -72 39.5 -107.5t124.5 -35.5q91 0 162 38t70 132l-7 682l118 13l1 -476q0 -52 13 -78t42 -35.5t83 -9.5q29 0 49 -21t20 -50t-20.5 -50.5t-48.5 -21.5q-46 0 -79 8.5t-59 25.5
l-2 -19q-9 -90 -56 -153t-123 -95.5t-172 -31.5q-135 0 -202.5 67z" />
    <glyph glyph-name="uniFEDF" unicode="&#x644;" horiz-adv-x="289" arabic-form="initial" 
d="M-48.5 20.5q-20.5 21.5 -20.5 50.5t20 50t49 21q74 0 105.5 30t30.5 100l-5 456l119 13v-469q0 -133 -63.5 -203t-186.5 -70q-28 0 -48.5 21.5z" />
    <glyph glyph-name="uniFEE0" unicode="&#x644;" horiz-adv-x="371" arabic-form="medial" 
d="M419.5 121q20.5 -21 20.5 -50t-20.5 -50.5t-48.5 -21.5q-121 0 -181 61q-76 -62 -190 -61q-28 0 -48.5 21.5t-20.5 50.5t20 50t49 21q86 0 137 25q-9 40 -11 105l-5 456l119 13l1 -469q0 -55 11.5 -82.5t38.5 -37.5t80 -10q28 0 48.5 -21z" />
    <glyph glyph-name="uniFEE1" unicode="&#x645;" horiz-adv-x="595" arabic-form="isolated" 
d="M446 429.5q51 -42.5 78.5 -113.5t27.5 -154q0 -61 -27 -95.5t-79.5 -49t-140.5 -18.5q-73 -3 -99 -6.5t-36 -16t-10 -44.5v-214l-118 -16v236q0 78 19.5 118.5t66.5 59.5q-7 39 -7 68q0 75 26 141.5t72.5 106.5t106.5 40q69 0 120 -42.5zM393.5 147q25.5 4 34.5 12t9 24
q0 58 -26 107.5t-80 49.5q-45 0 -71.5 -42.5t-26.5 -103.5q0 -27 8 -57q24 2 73 4q54 2 79.5 6z" />
    <glyph glyph-name="uniFEE2" unicode="&#x645;" horiz-adv-x="687" arabic-form="final" 
d="M735.5 121q20.5 -21 20.5 -50t-20.5 -50.5t-48.5 -21.5q-110 0 -165 68q-26 -34 -79 -49t-141 -19q-73 -3 -99 -6.5t-36 -16t-10 -44.5v-214l-118 -16v236q0 77 20 118t66 60q-7 39 -7 68q0 75 26 141.5t72.5 106.5t106.5 40q84 0 141 -62.5t76 -159.5q11 -43 27 -66
t44 -32.5t76 -9.5q28 0 48.5 -21zM389.5 147q25.5 4 35 12t9.5 24q0 58 -26 107.5t-80 49.5q-45 0 -72 -42.5t-27 -103.5q0 -27 8 -57q23 2 73 4q54 2 79.5 6z" />
    <glyph glyph-name="uniFEE3" unicode="&#x645;" horiz-adv-x="627" arabic-form="initial" 
d="M-49 121q20 21 49 21q38 0 65.5 13t53.5 44t60 88q55 92 104 134t117 42q55 0 97 -36.5t65 -101.5t23 -147q0 -100 -47 -155t-122 -55q-66 0 -124 36t-97 100q-36 -49 -82.5 -77t-112.5 -28q-28 0 -48.5 21.5t-20.5 50.5t20 50zM332.5 138.5q42.5 -27.5 85.5 -27.5
q32 0 46 19t14 58q0 60 -20 100t-62 40q-35 0 -66 -24.5t-71 -92.5q31 -45 73.5 -72.5z" />
    <glyph glyph-name="uniFEE4" unicode="&#x645;" horiz-adv-x="731" arabic-form="medial" 
d="M-49 121q20 21 49 21q38 0 65.5 13t53.5 44t60 88q55 92 104 134t117 42q67 0 113 -51.5t64 -142.5q11 -52 29 -79.5t47 -37.5t78 -10q28 0 48.5 -21t20.5 -50t-20.5 -50.5t-48.5 -21.5q-58 0 -99.5 18.5t-69.5 57.5q-20 -52 -57 -79.5t-89 -27.5q-66 0 -124 36t-97 100
q-36 -49 -82.5 -77t-112.5 -28q-28 0 -48.5 21.5t-20.5 50.5t20 50zM332.5 138.5q42.5 -27.5 85.5 -27.5q32 0 46 19t14 58q0 60 -20 100t-62 40q-35 0 -66 -24.5t-71 -92.5q31 -45 73.5 -72.5z" />
    <glyph glyph-name="uniFEE5" unicode="&#x646;" horiz-adv-x="756" arabic-form="isolated" 
d="M128.5 -197.5q-72.5 67.5 -72.5 181.5q0 68 19 144.5t57 174.5l96 -36q-59 -178 -55 -268q2 -54 46.5 -88t130.5 -34q56 0 114 14t97.5 44.5t39.5 76.5q0 48 -16.5 138t-41.5 176l114 47q27 -103 43 -186t16 -153q0 -23 -1 -34q-5 -82 -50.5 -142t-129 -92t-197.5 -32
q-137 1 -209.5 68.5zM279 442v5l72 80h5l82 -73v-5l-72 -80h-5z" />
    <glyph glyph-name="uniFEE6" unicode="&#x646;" horiz-adv-x="839" arabic-form="final" 
d="M75 128.5q19 76.5 57 174.5l96 -36q-59 -178 -55 -268q2 -54 46.5 -88t130.5 -34q56 0 114 14t97.5 44.5t39.5 76.5q0 66 -18 214q-7 57 -12 114l105 21l9 -76q7 -59 22 -88.5t45 -42t87 -12.5q28 0 48.5 -21t20.5 -50t-20.5 -50.5t-48.5 -21.5q-74 0 -124 27v-26
q0 -81 -45.5 -141.5t-131 -92.5t-201.5 -32q-136 0 -208.5 68t-72.5 182q0 68 19 144.5zM279 442v5l72 80h5l82 -73v-5l-72 -80h-5z" />
    <glyph glyph-name="uniFEE7" unicode="&#x646;" horiz-adv-x="365" arabic-form="initial" 
d="M110 653v5l66 85h4l88 -66v-5l-66 -85l-4 -1zM-49 121q20 21 49 21h8q102 0 153.5 22.5t50.5 69.5q-1 37 -11 88.5t-34 143.5l118 42q23 -105 30.5 -158.5t7.5 -111.5q0 -117 -79.5 -178t-233.5 -61h-10q-28 0 -48.5 21.5t-20.5 50.5t20 50z" />
    <glyph glyph-name="uniFEE8" unicode="&#x646;" horiz-adv-x="443" arabic-form="medial" 
d="M491.5 121q20.5 -21 20.5 -50t-20.5 -50.5t-48.5 -21.5q-81 0 -135 18t-87 56q-43 -36 -101 -55t-120 -19q-28 0 -48.5 21.5t-20.5 50.5t20 50t49 21q116 0 174 40q-6 32 -8 83l-2 133l101 10l9 -127q4 -58 18 -86.5t48 -40.5t103 -12q28 0 48.5 -21zM118 555v5l72 80h5
l82 -73v-5l-72 -80h-5z" />
    <glyph glyph-name="uniFEE9" unicode="&#x647;" horiz-adv-x="774" arabic-form="isolated" 
d="M607 401.5q124 -93.5 124 -236.5q0 -75 -23 -140q-13 -43 -60 -47q-24 -3 -55 -3q-69 0 -147.5 13.5t-145.5 38.5q-85 -58 -208 -100l-50 136q62 22 116 45q-54 52 -54 121q0 63 34 136t82 117l20 77q243 -64 367 -157.5zM224.5 215q22.5 -23 62.5 -44q94 56 108 112
q2 8 2 14q0 23 -14 48.5t-35.5 42.5t-42.5 17t-45.5 -21.5t-41 -54t-16.5 -62.5q0 -29 22.5 -52zM619 161q0 107 -125 178q0 -29 -8 -58q-21 -85 -77 -155q75 -19 147 -25h28q17 1 22.5 4.5t8.5 13.5q4 17 4 42z" />
    <glyph glyph-name="uniFEEA" unicode="&#x647;" horiz-adv-x="596" arabic-form="final" 
d="M331 492v80l119 23l-1 -323q-1 -55 10.5 -82t42.5 -37.5t95 -10.5q28 0 48 -21t20 -50t-20 -50.5t-48 -21.5q-157 0 -219 86q-76 -33 -146 -33q-86 0 -138 45t-52 125q0 192 289 270zM175.5 203.5q23.5 -12.5 61.5 -12.5q50 0 99 11q-5 33 -5 66v100q-90 -24 -134.5 -54
t-44.5 -72q0 -26 23.5 -38.5z" />
    <glyph glyph-name="uniFEEB" unicode="&#x647;" horiz-adv-x="730" arabic-form="initial" 
d="M676 59q-12 -46 -39 -64.5t-81 -18.5q-22 0 -34 1q-78 3 -157.5 20t-143.5 44q-101 -42 -221 -42q-28 0 -48.5 21.5t-20.5 50.5t20 50t49 21q48 0 84 4q-23 38 -23 83q0 65 33.5 139t82.5 117l20 74q244 -64 366.5 -158.5t123.5 -240.5q1 -50 -11 -101zM231 178
q104 38 121 105q2 10 2 17q0 24 -13.5 48.5t-35 40.5t-43.5 16q-24 0 -48 -21t-39.5 -53.5t-15.5 -63.5q0 -50 72 -89zM577 159q0 57 -32.5 101t-93.5 79q0 -29 -8 -58q-23 -88 -88 -152q80 -22 158 -28h28q15 1 21.5 6t10.5 20q4 11 4 32z" />
    <glyph glyph-name="uniFEEC" unicode="&#x647;" horiz-adv-x="526" arabic-form="medial" 
d="M-49 121q20 21 49 21h71q6 74 21 151t30 123q13 37 35.5 52t78.5 26q87 -75 140.5 -152t53.5 -125q0 -46 -34 -88q29 13 67 13h63q28 0 48.5 -21t20.5 -50t-20.5 -50.5t-48.5 -21.5h-58q18 -38 18 -84q1 -78 -37 -114t-121 -36q-100 0 -167 58.5t-85 175.5h-76
q-28 0 -48.5 21.5t-20.5 50.5t20 50zM278.5 158.5q39.5 23.5 39.5 54.5q0 47 -106 148q-17 -75 -26 -124.5t-13 -108.5q66 7 105.5 30.5zM336 -114q23 0 43 4q2 16 2 24q0 119 -111 119q-41 0 -92 -10q34 -135 158 -137z" />
    <glyph glyph-name="uniFEED" unicode="&#x648;" horiz-adv-x="539" arabic-form="isolated" 
d="M78 -141q134 8 208.5 50t89.5 121q-62 -31 -143 -31q-93 0 -138 44t-45 132q0 124 52 206t155 82q115 0 176.5 -98t61.5 -274q0 -179 -98.5 -262t-297.5 -92q-10 -1 -18 -0.5t-13 0.5q-7 1 -22 1l-3 120q23 0 35 1zM181 154q20 -12 64 -12q75 0 132 19q-8 76 -37.5 123.5
t-84.5 47.5q-52 0 -73 -39.5t-21 -91.5q0 -35 20 -47z" />
    <glyph glyph-name="uniFEEE" unicode="&#x648;" horiz-adv-x="534" arabic-form="final" 
d="M582.5 121q20.5 -21 20.5 -50t-20.5 -50.5t-49.5 -21.5h-46q-23 -130 -119 -191.5t-265 -69.5q-17 0 -57 2l-3 118q27 0 40 1q119 6 189.5 40t94.5 100h-133q-94 0 -139 44t-45 132q0 124 52 206t155 82q106 0 167 -84t70 -237h39q29 0 49.5 -21zM181 154q20 -12 64 -12
h133q-16 190 -123 190q-52 0 -73 -39.5t-21 -91.5q0 -35 20 -47z" />
    <glyph glyph-name="uniFEEF" unicode="&#x649;" horiz-adv-x="786" arabic-form="isolated" 
d="M581 373q-42 0 -75 -29.5t-50.5 -73t-13.5 -82.5q1 -18 13.5 -26.5t36 -13t85.5 -13.5q83 -12 121.5 -44t38.5 -100q0 -69 -43.5 -131t-130 -100.5t-209.5 -38.5q-159 0 -235.5 69.5t-76.5 192.5q0 62 19 136.5t57 171.5l96 -36q-27 -79 -41 -145t-14 -108
q0 -68 44.5 -103t154.5 -35q75 0 135.5 17t94.5 41t33 43q-1 16 -19.5 21.5t-72.5 12.5l-30 4q-59 9 -94 23.5t-54.5 49t-19.5 98.5q0 77 32.5 156t87 130.5t118.5 51.5q59 0 100.5 -26t78.5 -66l-58 -81q-58 34 -109 34z" />
    <glyph glyph-name="uniFEF0" unicode="&#x649;" horiz-adv-x="786" arabic-form="final" 
d="M118 -210q-76 69 -76 193q0 62 19 136.5t57 171.5l96 -36q-27 -79 -41 -145t-14 -108q0 -67 44 -102.5t151 -35.5q65 0 121.5 13.5t90 35.5t33.5 47q0 20 -26 29q-25 9 -161 30l24 133q113 -7 172 -8.5t178 -1.5q29 0 49 -21t20 -50q0 -28 -18.5 -49t-45.5 -23
q-14 0 -34 1t-34 3q5 -18 3 -36q-7 -70 -55.5 -126t-131 -88t-187.5 -32q-158 0 -234 69z" />
    <glyph glyph-name="uniFEF1" unicode="&#x64a;" horiz-adv-x="786" arabic-form="isolated" 
d="M581 373q-42 0 -75 -29.5t-50.5 -73t-13.5 -82.5q1 -18 13.5 -26.5t36 -13t85.5 -13.5q83 -12 121.5 -44t38.5 -100q0 -69 -43.5 -131t-130 -100.5t-209.5 -38.5q-159 0 -235.5 69.5t-76.5 192.5q0 62 19 136.5t57 171.5l96 -36q-27 -79 -41 -145t-14 -108
q0 -68 44.5 -103t154.5 -35q75 0 135.5 17t94.5 41t33 43q-1 16 -19.5 21.5t-72.5 12.5l-30 4q-59 9 -94 23.5t-54.5 49t-19.5 98.5q0 77 32.5 156t87 130.5t118.5 51.5q59 0 100.5 -26t78.5 -66l-58 -81q-58 34 -109 34zM444 -332l79 -70v-4l-69 -78h-5l-64 57l-68 -75h-4
l-80 71v4l70 77h4l64 -56l68 74h5z" />
    <glyph glyph-name="uniFEF2" unicode="&#x64a;" horiz-adv-x="786" arabic-form="final" 
d="M118 -210q-76 69 -76 193q0 62 19 136.5t57 171.5l96 -36q-27 -79 -41 -145t-14 -108q0 -67 44 -102.5t151 -35.5q65 0 121.5 13.5t90 35.5t33.5 47q0 20 -26 29q-25 9 -161 30l24 133q113 -7 172 -8.5t178 -1.5q29 0 49 -21t20 -50q0 -28 -18.5 -49t-45.5 -23
q-14 0 -34 1t-34 3q5 -18 3 -36q-7 -70 -55.5 -126t-131 -88t-187.5 -32q-158 0 -234 69zM444 -332l79 -70v-4l-69 -78h-5l-64 57l-68 -75h-4l-80 71v4l70 77h4l64 -56l68 74h5z" />
    <glyph glyph-name="uniFEF3" unicode="&#x64a;" horiz-adv-x="365" arabic-form="initial" 
d="M-49 121q20 21 49 21h8q102 0 153.5 22.5t50.5 69.5q-1 37 -11 88.5t-34 143.5l118 42q23 -105 30.5 -158.5t7.5 -111.5q0 -117 -79.5 -178t-233.5 -61h-10q-28 0 -48.5 21.5t-20.5 50.5t20 50zM237 -91l79 -70v-4l-69 -78h-5l-64 57l-68 -75h-4l-80 71v4l70 77h4l64 -56
l68 74h5z" />
    <glyph glyph-name="uniFEF4" unicode="&#x64a;" horiz-adv-x="443" arabic-form="medial" 
d="M491.5 121q20.5 -21 20.5 -50t-20.5 -50.5t-48.5 -21.5q-81 0 -135 18t-87 56q-43 -36 -101 -55t-120 -19q-28 0 -48.5 21.5t-20.5 50.5t20 50t49 21q116 0 174 40q-6 32 -8 83l-2 133l101 10l9 -127q4 -58 18 -86.5t48 -40.5t103 -12q28 0 48.5 -21zM244 -66l79 -70v-4
l-69 -78h-5l-64 57l-68 -75h-4l-80 71v4l70 77h4l64 -56l68 74h5z" />
    <glyph glyph-name=".notdef" horiz-adv-x="290" 
 />
    <glyph glyph-name=".null" 
 />
    <glyph glyph-name="nonmarkingreturn" horiz-adv-x="365" 
 />
    <glyph glyph-name="space" unicode=" " horiz-adv-x="200" 
 />
    <glyph glyph-name="exclam" unicode="!" horiz-adv-x="290" 
d="M73 759l143 2l-26 -508h-99zM73.5 16.5q-26.5 25.5 -26.5 64.5q0 40 26.5 65t67.5 25t67 -25t26 -65t-26 -65t-67 -25t-67.5 25.5z" />
    <glyph glyph-name="quotedbl" unicode="&#x22;" horiz-adv-x="457" 
d="M42 710h148l-29 -332h-90zM243 710h148l-29 -332h-90z" />
    <glyph glyph-name="numbersign" unicode="#" horiz-adv-x="600" 
d="M57 0l39 186h-87l23 109h87l25 119h-87l23 109h87l40 187h118l-39 -187h99l40 187h118l-39 -187h87l-23 -109h-88l-25 -119h88l-23 -109h-87l-40 -186h-118l39 186h-99l-40 -186h-118zM337 295l25 119h-100l-25 -119h100z" />
    <glyph glyph-name="dollar" unicode="$" horiz-adv-x="600" 
d="M97 23.5q-56 55.5 -65 151.5l140 20q8 -58 40.5 -86.5t96.5 -28.5q49 0 78 20.5t29 58.5q0 26 -16.5 42t-43.5 26t-76 23l-25 7q-98 27 -146 71.5t-48 132.5q0 82 52.5 141t137.5 74v117h98v-112q82 -10 135 -61t63 -133l-132 -23q-9 46 -35 69.5t-71 23.5q-41 0 -69 -23
t-28 -61q0 -30 20.5 -49t51 -30t91.5 -28q65 -18 106 -40t64 -59t23 -96q0 -87 -61 -144.5t-158 -69.5v-114h-98v114q-98 11 -154 66.5z" />
    <glyph glyph-name="percent" unicode="%" horiz-adv-x="817" 
d="M84 431.5q-48 43.5 -48 115.5q0 50 24.5 89.5t66.5 62t94 22.5q79 0 125.5 -43t46.5 -116q0 -51 -24 -91t-66 -61.5t-93 -21.5q-78 0 -126 43.5zM594 710h123l-494 -710h-123zM270.5 499.5q22.5 23.5 22.5 61.5q0 34 -20 53.5t-54 19.5q-38 0 -60.5 -23.5t-22.5 -62.5
q0 -35 19.5 -53.5t55.5 -18.5q37 0 59.5 23.5zM472.5 35.5q-47.5 43.5 -47.5 115.5q0 52 24.5 91t67 60.5t94.5 21.5q78 0 124 -42.5t46 -115.5q0 -51 -23.5 -90.5t-65 -61.5t-93.5 -22q-79 0 -126.5 43.5zM659.5 103.5q22.5 24.5 22.5 62.5q0 33 -20 52t-55 19
q-37 0 -60 -23.5t-23 -61.5q0 -34 20.5 -53.5t55.5 -19.5q37 0 59.5 24.5z" />
    <glyph glyph-name="ampersand" unicode="&#x26;" horiz-adv-x="827" 
d="M185 -21.5q-64 25.5 -101.5 74t-37.5 113.5t30 110.5t86 81.5q-35 40 -50.5 74.5t-15.5 75.5q0 52 27.5 91t75 60t104.5 21q86 0 136.5 -41t50.5 -113q0 -61 -33 -100t-104 -77l184 -182q30 44 41 116h-84v112h288v-112h-85q-15 -108 -73 -186q20 -15 39.5 -21.5
t42.5 -7.5q20 0 35 4.5t32 14.5l34 -101q-50 -35 -120 -35q-47 0 -87 14t-78 43q-86 -55 -196 -55q-77 0 -141 25.5zM347.5 466.5q22.5 22.5 22.5 53.5q0 27 -17.5 42t-47.5 15q-34 0 -54.5 -18t-20.5 -49q0 -22 10.5 -40.5t40.5 -49.5q44 24 66.5 46.5zM232 97
q41 -32 108 -32q52 0 91 24l-190 191q-24 -20 -37 -43t-13 -54q0 -54 41 -86z" />
    <glyph glyph-name="quotesingle" unicode="'" horiz-adv-x="232" 
d="M42 710h148l-29 -332h-90z" />
    <glyph glyph-name="parenleft" unicode="(" horiz-adv-x="347" 
d="M109.5 -9q-64.5 124 -64.5 273t64.5 273.5t193.5 209.5l55 -69q-85 -75 -126.5 -178t-43.5 -236q-2 -263 170 -414l-55 -69q-129 86 -193.5 210z" />
    <glyph glyph-name="parenright" unicode=")" horiz-adv-x="347" 
d="M-11 -150q172 151 170 414q-2 133 -43.5 236t-126.5 178l55 69q129 -85 193.5 -209.5t64.5 -273.5t-64.5 -273t-193.5 -210z" />
    <glyph glyph-name="asterisk" unicode="*" horiz-adv-x="496" 
d="M126 119q7 13 29 29q20 18 24 22q-9 3 -30 5q-16 2 -26 3.5t-18 5.5l-65 37l24 77l75 -10q13 -3 32 -15q30 -18 36 -21q-3 17 -8 36q-3 14 -4 23t0 18l14 74h82l14 -74q1 -3 1 -9q0 -9 -6 -33l-7 -35q13 6 31 18q12 8 20 12.5t16 5.5l75 10l27 -77l-68 -37q-8 -4 -17 -6
t-23 -3q-22 -2 -33 -5q13 -13 25 -22q21 -17 27 -28l32 -69l-65 -50l-56 52q-6 6 -10.5 15t-11.5 25q-8 20 -13 26l-12 -24q-13 -30 -22 -42l-54 -52l-66 50z" />
    <glyph glyph-name="plus" unicode="+" horiz-adv-x="584" 
d="M359 469v-189h185v-128h-185v-190h-135v190h-184v128h184v189h135z" />
    <glyph glyph-name="comma" unicode="," horiz-adv-x="275" 
d="M188.5 116.5q28.5 -39.5 28.5 -87.5q0 -46 -28 -99.5t-74 -99.5l-68 59q30 38 44 63.5t14 44.5t-14.5 34t-50.5 33v6l57 110h6q57 -24 85.5 -63.5z" />
    <glyph glyph-name="hyphen" unicode="-" horiz-adv-x="423" 
d="M57 326h309v-126h-309v126z" />
    <glyph glyph-name="period" unicode="." horiz-adv-x="272" 
d="M68.5 16.5q-26.5 25.5 -26.5 64.5q0 40 26.5 65t67.5 25t67.5 -25t26.5 -65t-26.5 -65t-67.5 -25t-67.5 25.5z" />
    <glyph glyph-name="slash" unicode="/" horiz-adv-x="382" 
d="M254 740h132l-250 -940h-132z" />
    <glyph glyph-name="zero" unicode="0" horiz-adv-x="600" 
d="M104 76q-68 88 -68 266q0 106 31.5 192t93.5 136t151 50q120 0 186 -90t66 -261q0 -104 -29.5 -189.5t-88.5 -137t-144 -52.5q-130 -2 -198 86zM388.5 186q29.5 68 29.5 182q0 104 -27 164.5t-83 60.5q-62 0 -93.5 -69t-31.5 -179t27.5 -168.5t88.5 -58.5q60 0 89.5 68z
" />
    <glyph glyph-name="one" unicode="1" horiz-adv-x="599" 
d="M99 117h160v402l-116 -80l-69 103l248 168h82v-593h150v-117h-455v117z" />
    <glyph glyph-name="two" unicode="2" horiz-adv-x="600" 
d="M290 298q88 104 88 198q0 46 -24.5 70.5t-69.5 24.5q-48 0 -81.5 -27.5t-50.5 -77.5l-106 57q26 81 95 129t159 48q101 0 162 -56.5t62 -151.5q1 -101 -68 -201t-196 -194h281v-117h-472v98q133 96 221 200z" />
    <glyph glyph-name="three" unicode="3" horiz-adv-x="600" 
d="M142.5 3.5q-54.5 13.5 -85.5 34.5l35 125q75 -44 172 -44q60 0 95 23.5t35 69.5q0 44 -34 66.5t-98 22.5h-44v116h35q62 0 94 25t32 70q0 36 -24 57.5t-69 21.5q-98 0 -134 -105l-106 57q26 81 95.5 129t159.5 48q99 0 161 -51.5t62 -140.5q0 -53 -29 -97t-81 -65
q61 -17 93 -57.5t32 -103.5q0 -66 -37 -114.5t-102 -74.5t-145 -26q-58 0 -112.5 13.5z" />
    <glyph glyph-name="four" unicode="4" horiz-adv-x="600" 
d="M344 175h-311v99l351 438h101v-427h100v-110h-100v-175h-141v175zM344 285v216l-172 -216h172z" />
    <glyph glyph-name="five" unicode="5" horiz-adv-x="600" 
d="M145.5 2.5q-54.5 12.5 -88.5 35.5l35 128q77 -47 169 -47q63 0 98 26t35 79t-46.5 77.5t-134.5 26.5l-114 4l30 378h374v-117h-242l-12 -145q144 -8 217 -62.5t73 -160.5q0 -72 -37 -125t-102.5 -81.5t-147.5 -28.5q-52 0 -106.5 12.5z" />
    <glyph glyph-name="six" unicode="6" horiz-adv-x="600" 
d="M118.5 80.5q-67.5 90.5 -67.5 257.5q0 108 35 195t102.5 137t160.5 50q166 0 228 -155l-120 -57q-16 43 -43.5 63t-70.5 20q-67 0 -107 -57.5t-41 -162.5q28 39 70 59.5t92 20.5q64 0 113.5 -27t77.5 -76.5t28 -113.5q0 -71 -33 -126.5t-91 -86.5t-130 -31
q-136 0 -203.5 90.5zM399.5 139.5q31.5 31.5 31.5 81.5q0 51 -28.5 81.5t-77.5 30.5q-50 0 -82 -32.5t-32 -81.5q0 -52 30.5 -81.5t78.5 -29.5t79.5 31.5z" />
    <glyph glyph-name="seven" unicode="7" horiz-adv-x="600" 
d="M109 0l285 593h-327v117h479v-110l-286 -600h-151z" />
    <glyph glyph-name="eight" unicode="8" horiz-adv-x="600" 
d="M158 14.5q-60 24.5 -92.5 69.5t-32.5 105q0 58 35.5 105.5t93.5 67.5q-53 21 -82 63t-29 97q0 57 33 102t89.5 70.5t126.5 25.5q73 0 128 -26q57 -26 89 -70.5t32 -101.5q0 -55 -29 -97t-82 -63q58 -20 93.5 -67.5t35.5 -105.5q0 -60 -32.5 -105t-92.5 -69.5t-142 -24.5
t-142 24.5zM376 440q29 25 29 67q0 43 -29 69t-76 26t-76 -26.5t-29 -69.5q0 -42 28.5 -66.5t76.5 -24.5q47 0 76 25zM390.5 133.5q32.5 25.5 32.5 70.5t-33.5 72t-89.5 27t-89.5 -27t-33.5 -73q0 -45 32.5 -70t90.5 -25t90.5 25.5z" />
    <glyph glyph-name="nine" unicode="9" horiz-adv-x="600" 
d="M481.5 631.5q67.5 -90.5 67.5 -257.5q0 -108 -35 -195t-102.5 -137t-160.5 -50q-166 0 -228 155l120 57q16 -43 43.5 -63t70.5 -20q67 0 107 57.5t41 162.5q-28 -39 -70 -59.5t-92 -20.5q-64 0 -113.5 27t-77.5 76.5t-28 113.5q0 71 33 126.5t91 86.5t130 31
q136 0 203.5 -90.5zM200.5 572.5q-31.5 -31.5 -31.5 -81.5q0 -51 28.5 -81.5t77.5 -30.5q50 0 82 32.5t32 81.5q0 52 -30.5 81.5t-78.5 29.5t-79.5 -31.5z" />
    <glyph glyph-name="colon" unicode=":" horiz-adv-x="285" 
d="M68.5 16.5q-26.5 25.5 -26.5 64.5q0 40 26.5 65t67.5 25t67.5 -25t26.5 -65t-26.5 -65t-67.5 -25t-67.5 25.5zM68.5 294.5q-26.5 25.5 -26.5 64.5q0 40 26.5 65t67.5 25t67.5 -25t26.5 -65t-26.5 -65t-67.5 -25t-67.5 25.5z" />
    <glyph glyph-name="semicolon" unicode=";" horiz-adv-x="285" 
d="M191.5 116.5q28.5 -39.5 28.5 -87.5q0 -46 -28 -99.5t-74 -99.5l-68 59q30 38 44 63.5t14 44.5t-14.5 34t-50.5 33v6l57 110h6q57 -24 85.5 -63.5zM68.5 294.5q-26.5 25.5 -26.5 64.5q0 40 26.5 65t67.5 25t67.5 -25t26.5 -65t-26.5 -65t-67.5 -25t-67.5 25.5z" />
    <glyph glyph-name="less" unicode="&#x3c;" horiz-adv-x="564" 
d="M30 162v103l504 214v-129l-324 -136l324 -137v-128z" />
    <glyph glyph-name="equal" unicode="=" horiz-adv-x="584" 
d="M544 277h-504v114h504v-114zM544 47h-504v114h504v-114z" />
    <glyph glyph-name="greater" unicode="&#x3e;" horiz-adv-x="564" 
d="M30 -51v128l324 137l-324 136v129l504 -214v-103z" />
    <glyph glyph-name="question" unicode="?" horiz-adv-x="503" 
d="M172 269q0 59 20 100t62 75q38 32 52 49t14 40q0 29 -21 44.5t-60 15.5q-48 0 -84 -27.5t-55 -79.5l-104 58q27 82 96.5 129.5t158.5 47.5q94 0 153.5 -48t59.5 -130q0 -54 -24 -95t-78 -84q-45 -35 -62.5 -64.5t-19.5 -71.5l-106 5q-2 26 -2 36zM163 15q-25 24 -25 62
t25 62.5t65 24.5t65 -24.5t25 -62.5t-25 -62t-65 -24t-65 24z" />
    <glyph glyph-name="at" unicode="@" horiz-adv-x="1001" 
d="M265 -193.5q-108 56.5 -167 161t-59 243.5q0 141 62 249.5t173 167.5t253 59q131 0 229 -43.5t151.5 -128.5t53.5 -205q0 -90 -30 -164q-30 -73 -82.5 -114t-117.5 -41q-54 0 -86.5 23.5t-42.5 68.5q-29 -44 -72 -68t-94 -24q-81 0 -129 52.5t-48 139.5q0 80 36.5 147.5
t99.5 106.5t140 39q40 0 75 -10t59 -28l20 30l76 -28l-47 -269q-2 -9 -2 -24q0 -48 39 -48q31 0 53 45q35 60 35 166q0 83 -38.5 143t-109.5 92t-167 32q-108 0 -189 -45.5t-125.5 -128.5t-44.5 -192q0 -110 42.5 -188.5t121 -119.5t186.5 -41q63 0 122 16.5t103 46.5
l59 -100q-112 -75 -286 -75q-144 0 -252 56.5zM553 142.5q36 40.5 49 105.5l18 98q-27 21 -73 21q-44 0 -79 -24.5t-54.5 -65.5t-19.5 -90q0 -41 18.5 -63t55.5 -22q49 0 85 40.5z" />
    <glyph glyph-name="A" unicode="A" horiz-adv-x="693" 
d="M287 710h127l294 -710h-152l-60 152h-300l-62 -152h-153zM446 277l-97 249l-102 -249h199z" />
    <glyph glyph-name="B" unicode="B" horiz-adv-x="642" 
d="M314 710q143 0 215.5 -50.5t72.5 -145.5q0 -50 -24 -90.5t-67 -62.5q48 -20 76 -61t28 -94q0 -65 -34.5 -111.5t-95 -70.5t-137.5 -24h-279v710h245zM217 419h109q64 0 95.5 21t31.5 65q0 43 -33 63t-101 20h-102v-169zM435.5 144q29.5 22 29.5 66t-28.5 65t-88.5 21
h-131v-174h134q55 0 84.5 22z" />
    <glyph glyph-name="C" unicode="C" horiz-adv-x="675" 
d="M567.5 29.5q-75.5 -38.5 -169.5 -38.5q-112 0 -192.5 42t-123.5 120.5t-43 187.5q0 114 48 199q47 86 131.5 133t194.5 47q189 0 274 -143l-115 -82q-23 43 -66 66.5t-98 24.5q-66 1 -114.5 -30t-74.5 -86.5t-26 -125.5q0 -105 52.5 -162.5t152.5 -57.5q119 0 176 102
l112 -87q-43 -71 -118.5 -109.5z" />
    <glyph glyph-name="D" unicode="D" horiz-adv-x="753" 
d="M291 710q210 0 316.5 -89t106.5 -264q0 -107 -48.5 -188t-135 -125t-197.5 -44h-264v710h222zM501 189q61 56 61 163q0 115 -62.5 170t-192.5 55h-87v-444h103q117 0 178 56z" />
    <glyph glyph-name="E" unicode="E" horiz-adv-x="574" 
d="M217 581v-158h308v-129h-308v-165h337l-9 -129h-476v710h475v-129h-327z" />
    <glyph glyph-name="F" unicode="F" horiz-adv-x="525" 
d="M217 581v-168h285v-129h-285v-284h-148v710h452v-129h-304z" />
    <glyph glyph-name="G" unicode="G" horiz-adv-x="761" 
d="M714 0h-118l-12 75q-32 -42 -84.5 -63.5t-118.5 -21.5q-106 0 -183 43t-118 122.5t-41 185.5q0 113 48.5 199t136 133t200.5 47q101 0 170.5 -34.5t114.5 -106.5l-115 -84q-25 44 -70 66.5t-102 22.5q-69 0 -120 -30.5t-78.5 -85t-27.5 -124.5q0 -104 53.5 -161.5
t148.5 -57.5q73 0 115.5 34t51.5 99h-145v121h294v-379z" />
    <glyph glyph-name="H" unicode="H" horiz-adv-x="751" 
d="M69 710h151v-286h312v286h150v-710h-150v293h-312v-293h-151v710z" />
    <glyph glyph-name="I" unicode="I" horiz-adv-x="288" 
d="M69 710h151v-710h-151v710z" />
    <glyph glyph-name="J" unicode="J" horiz-adv-x="493" 
d="M53 31.5q-59 40.5 -79 112.5l122 55q14 -40 38.5 -58t60.5 -18q39 0 59.5 24.5t20.5 72.5v490h151v-473q0 -117 -59.5 -181.5t-169.5 -64.5q-85 0 -144 40.5z" />
    <glyph glyph-name="K" unicode="K" horiz-adv-x="656" 
d="M220 710v-309l283 309h180l-326 -355q43 -22 73 -71l67 -106q20 -31 39.5 -43.5t48.5 -12.5q38 0 67 19l35 -116q-20 -16 -52.5 -25.5t-67.5 -9.5q-63 0 -109.5 25t-78.5 77l-91 145q-15 24 -30 36t-38 16v-289h-151v710h151z" />
    <glyph glyph-name="L" unicode="L" horiz-adv-x="525" 
d="M69 710h151v-579h310l-10 -131h-451v710z" />
    <glyph glyph-name="M" unicode="M" horiz-adv-x="941" 
d="M92 710h128l254 -525l251 525h128l19 -710h-144l-13 403l-193 -403h-110l-191 399l-15 -399h-139z" />
    <glyph glyph-name="N" unicode="N" horiz-adv-x="746" 
d="M677 710v-710h-133l-330 461v-461h-145v710h133l330 -461v461h145z" />
    <glyph glyph-name="O" unicode="O" horiz-adv-x="779" 
d="M202 32.5q-79 41.5 -121 121t-42 188.5q0 112 46 198t129.5 133t191.5 47q100 0 176 -44t117 -124t41 -183q0 -110 -43.5 -195.5t-123 -134t-183.5 -48.5q-109 0 -188 41.5zM534.5 192q53.5 67 53.5 176q0 99 -50.5 159t-136.5 60q-63 0 -110.5 -31.5t-73 -86.5
t-25.5 -124q0 -104 52 -162t143 -58q94 0 147.5 67z" />
    <glyph glyph-name="P" unicode="P" horiz-adv-x="633" 
d="M69 710h253q148 0 222.5 -57t74.5 -166q0 -113 -85 -173t-231 -60h-86v-254h-148v710zM217 377h94q82 0 120.5 26.5t38.5 82.5q0 52 -36 77t-111 25h-106v-211z" />
    <glyph glyph-name="Q" unicode="Q" horiz-adv-x="779" 
d="M655 -170q-49 -38 -128 -38q-99 0 -156 54.5t-59 152.5q-129 20 -201 110t-72 235q0 112 46 198t129.5 133t191.5 47q100 0 175.5 -44.5t117 -124t41.5 -182.5q0 -96 -33.5 -174.5t-97 -129.5t-150.5 -67q0 -46 17 -67.5t55 -21.5q25 0 41.5 12t18.5 35l122 -15
q-9 -75 -58 -113zM534.5 193q53.5 67 53.5 176q0 99 -50.5 159t-136.5 60q-63 0 -110.5 -31.5t-73 -86.5t-25.5 -123q0 -105 52 -163t143 -58q94 0 147.5 67z" />
    <glyph glyph-name="R" unicode="R" horiz-adv-x="644" 
d="M630.5 -0.5q-32.5 -9.5 -66.5 -9.5q-64 0 -109.5 25t-78.5 77l-92 145q-15 23 -31 33.5t-36 10.5v-281h-148v710h224q144 0 217.5 -56.5t73.5 -160.5q0 -83 -53 -134.5t-141 -64.5q35 -14 59 -50l48 -70q18 -28 37.5 -40t49.5 -12q34 0 65 19l35 -116
q-21 -16 -53.5 -25.5zM217 398h74q74 0 108.5 23t34.5 73q0 94 -145 94h-72v-190z" />
    <glyph glyph-name="S" unicode="S" horiz-adv-x="594" 
d="M97 48q-71 56 -82 165l140 20q15 -115 146 -115q57 0 87.5 20.5t30.5 58.5q0 36 -32 54.5t-97 33.5q-83 20 -133 46t-74 66.5t-24 101.5q0 68 35 118.5t95 77t134 26.5q102 0 167 -52.5t75 -143.5l-132 -23q-9 45 -39 69t-78 24t-76.5 -23t-28.5 -61q0 -40 31.5 -61
t95.5 -35q82 -18 132 -42t75.5 -63t25.5 -100q0 -68 -36.5 -117.5t-99.5 -75t-140 -25.5q-127 0 -198 56z" />
    <glyph glyph-name="T" unicode="T" horiz-adv-x="585" 
d="M584 579h-216v-579h-151v579h-226v131h613z" />
    <glyph glyph-name="U" unicode="U" horiz-adv-x="753" 
d="M687 330q0 -105 -37 -181t-107.5 -117t-166.5 -41q-153 0 -231.5 79t-78.5 236v405h151v-398q0 -98 40.5 -143t119.5 -45q83 0 123 50.5t39 158.5l-2 377h149z" />
    <glyph glyph-name="V" unicode="V" horiz-adv-x="645" 
d="M673 710l-254 -710h-211l-213 710h159l167 -577l201 577h151z" />
    <glyph glyph-name="W" unicode="W" horiz-adv-x="1002" 
d="M1006 710l-206 -710h-171l-120 517l-147 -517h-171l-177 710h152l119 -509l144 509h177l117 -509l141 509h142z" />
    <glyph glyph-name="X" unicode="X" horiz-adv-x="625" 
d="M-7 0l236 359l-223 351h168l141 -225l142 225h160l-224 -343l233 -367h-171l-146 237l-152 -237h-164z" />
    <glyph glyph-name="Y" unicode="Y" horiz-adv-x="601" 
d="M378 319v-319h-151v312l-254 398h169l166 -261l158 261h157z" />
    <glyph glyph-name="Z" unicode="Z" horiz-adv-x="633" 
d="M37 108l363 471h-345v131h548v-108l-364 -471h376l-10 -131h-568v108z" />
    <glyph glyph-name="bracketleft" unicode="[" horiz-adv-x="320" 
d="M40 -200v940h250v-106h-113v-728h113v-106h-250z" />
    <glyph glyph-name="backslash" unicode="\" horiz-adv-x="382" 
d="M382 -200h-132l-250 940h132z" />
    <glyph glyph-name="bracketright" unicode="]" horiz-adv-x="320" 
d="M30 -200v106h113v728h-113v106h250v-940h-250z" />
    <glyph glyph-name="underscore" unicode="_" horiz-adv-x="535" 
d="M25 12h484v-117h-484v117z" />
    </font>
</defs>
</svg>
